<svg xmlns="http://www.w3.org/2000/svg" width="180" height="180" viewBox="0 0 180 180">
  <g id="Grupo_151801" data-name="Grupo 151801" transform="translate(-1011 -3476)">
    <g id="Grupo_151799" data-name="Grupo 151799">
      <circle id="Elipse_5232" data-name="Elipse 5232" cx="90" cy="90" r="90" transform="translate(1011 3476)" fill="#fff"/>
    </g>
    <g id="metodo-de-pago" transform="translate(1034.2 3509)">
      <g id="Grupo_151795" data-name="Grupo 151795" transform="translate(11.8 -1)">
        <g id="Grupo_151794" data-name="Grupo 151794">
          <path id="Trazado_212834" data-name="Trazado 212834" d="M159.906,24.6h-9.644a1.929,1.929,0,1,0,0,3.857h9.644a1.929,1.929,0,1,0,0-3.857Z" transform="translate(-117.472 -18.814)"/>
          <path id="Trazado_212835" data-name="Trazado 212835" d="M118.058,24.6H116.13a1.929,1.929,0,0,0,0,3.857h1.929a1.929,1.929,0,0,0,0-3.857Z" transform="translate(-91.055 -18.814)"/>
          <path id="Trazado_212836" data-name="Trazado 212836" d="M114.026,24.074H79.308V6.715A7.738,7.738,0,0,0,71.593-1H21.444a7.738,7.738,0,0,0-7.715,7.715v9.644A1.822,1.822,0,0,0,11.8,18.288v1.929a1.822,1.822,0,0,0,1.929,1.929v1.929A1.822,1.822,0,0,0,11.8,26v1.929a1.822,1.822,0,0,0,1.929,1.929v1.929A1.822,1.822,0,0,0,11.8,33.718v1.929a1.822,1.822,0,0,0,1.929,1.929v69.437a7.738,7.738,0,0,0,7.715,7.715H71.593a7.738,7.738,0,0,0,7.715-7.715V85.8h34.718a7.738,7.738,0,0,0,7.715-7.715V31.789A7.737,7.737,0,0,0,114.026,24.074Zm0,3.858a3.869,3.869,0,0,1,3.858,3.858v1.929H42.661V31.79a3.869,3.869,0,0,1,3.858-3.858h67.508Zm3.857,17.359H42.661V37.576h75.223ZM17.586,6.715a3.869,3.869,0,0,1,3.858-3.858H71.593a3.869,3.869,0,0,1,3.858,3.858v3.858H17.587V6.715Zm0,100.3V99.3H41.432a7.683,7.683,0,0,0,0,11.573H21.444A3.869,3.869,0,0,1,17.586,107.013Zm28.932,1.929a3.858,3.858,0,1,1,3.858-3.858A3.869,3.869,0,0,1,46.518,108.941Zm28.932-1.929a3.869,3.869,0,0,1-3.858,3.858H51.6a7.683,7.683,0,0,0,0-11.573H75.45Zm0-11.573H17.586V14.43H75.45v9.644H46.518A7.738,7.738,0,0,0,38.8,31.79V78.081A7.738,7.738,0,0,0,46.518,85.8H75.45Zm38.576-13.5H46.518a3.869,3.869,0,0,1-3.858-3.858V49.149h75.223V78.081A3.869,3.869,0,0,1,114.026,81.938Z" transform="translate(-11.8 1)"/>
          <path id="Trazado_212837" data-name="Trazado 212837" d="M363.07,272.067H338A1.822,1.822,0,0,0,336.067,274v13.5A1.822,1.822,0,0,0,338,289.426H363.07A1.822,1.822,0,0,0,365,287.5V274A1.822,1.822,0,0,0,363.07,272.067Zm-1.929,13.5H339.924v-9.644h21.217Z" transform="translate(-262.773 -210.345)"/>
          <path id="Trazado_212838" data-name="Trazado 212838" d="M167.329,250.324h9.644a1.929,1.929,0,1,0,0-3.857h-9.644a1.929,1.929,0,1,0,0,3.857Z" transform="translate(-130.682 -190.532)"/>
          <path id="Trazado_212839" data-name="Trazado 212839" d="M251.546,246.467H239.009a1.929,1.929,0,0,0,0,3.857h12.537a1.929,1.929,0,1,0,0-3.857Z" transform="translate(-186.16 -190.532)"/>
          <path id="Trazado_212840" data-name="Trazado 212840" d="M186.424,280.6h-19.1a1.929,1.929,0,1,0,0,3.857h19.1a1.933,1.933,0,0,0,1.929-1.929A1.822,1.822,0,0,0,186.424,280.6Z" transform="translate(-130.682 -216.95)"/>
          <path id="Trazado_212841" data-name="Trazado 212841" d="M281.927,280.6h-3.665a1.929,1.929,0,1,0,0,3.857h3.665a1.929,1.929,0,1,0,0-3.857Z" transform="translate(-216.541 -216.95)"/>
        </g>
      </g>
    </g>
  </g>
</svg>
