<svg xmlns="http://www.w3.org/2000/svg" xmlns:xlink="http://www.w3.org/1999/xlink" width="258.249" height="212.631" viewBox="0 0 258.249 212.631">
  <defs>
    <clipPath id="clip-path">
      <rect id="Rectángulo_43107" data-name="Rectángulo 43107" width="148.09" height="159.74" fill="none"/>
    </clipPath>
    <clipPath id="clip-path-3">
      <rect id="Rectángulo_43104" data-name="Rectángulo 43104" width="92.762" height="92.762" fill="none"/>
    </clipPath>
    <clipPath id="clip-path-4">
      <rect id="Rectángulo_43105" data-name="Rectángulo 43105" width="12.023" height="13.793" fill="none"/>
    </clipPath>
    <clipPath id="clip-path-5">
      <rect id="Rectángulo_42895" data-name="Rectángulo 42895" width="89.432" height="89.76" fill="none"/>
    </clipPath>
    <clipPath id="clip-path-6">
      <rect id="Rectángulo_43108" data-name="Rectángulo 43108" width="65.488" height="137.941" fill="none"/>
    </clipPath>
  </defs>
  <g id="Grupo_156008" data-name="Grupo 156008" transform="translate(-1091 -2854.175)">
    <g id="Grupo_151790" data-name="Grupo 151790" transform="translate(666.271 2346.788)">
      <g id="Grupo_97472" data-name="Grupo 97472" transform="translate(409.49 507.387)">
        <circle id="Elipse_5221" data-name="Elipse 5221" cx="100.227" cy="100.227" r="100.227" transform="translate(15.24 0)" fill="#a4dc88"/>
        <path id="Trazado_212833" data-name="Trazado 212833" d="M107.084,0c59.141,0,107.084,3.722,107.084,8.314s-47.943,8.314-107.084,8.314S0,12.905,0,8.314,47.943,0,107.084,0Z" transform="translate(59.322 196.004)" fill="#529d2e"/>
        <line id="Línea_250" data-name="Línea 250" y2="16.632" transform="translate(108.184 122.586)" fill="#003889"/>
        <circle id="Elipse_5225" data-name="Elipse 5225" cx="8.015" cy="8.015" r="8.015" transform="translate(177.754 32.219) rotate(-45)" fill="#529d2e"/>
      </g>
    </g>
    <g id="Grupo_152168" data-name="Grupo 152168" transform="translate(1121.91 2899.131)">
      <g id="Grupo_152167" data-name="Grupo 152167" clip-path="url(#clip-path)">
        <path id="Trazado_213066" data-name="Trazado 213066" d="M4.472,494.49v16.746h8.792l8.792-9.192V494.49Z" transform="translate(-3.179 -351.496)" fill="#3a494c"/>
        <path id="Trazado_213067" data-name="Trazado 213067" d="M369.783,506.9h8.792V490.159H360.991v7.554Z" transform="translate(-256.601 -348.417)" fill="#3a494c"/>
        <g id="Grupo_152166" data-name="Grupo 152166">
          <g id="Grupo_152165" data-name="Grupo 152165" clip-path="url(#clip-path)">
            <path id="Trazado_213068" data-name="Trazado 213068" d="M125.2,159.517H5.965A5.965,5.965,0,0,1,0,153.552V21.994a5.965,5.965,0,0,1,5.965-5.965H125.2a5.965,5.965,0,0,1,5.965,5.965V153.552a5.965,5.965,0,0,1-5.965,5.965" transform="translate(0 -11.394)" fill="#506266"/>
            <path id="Trazado_213069" data-name="Trazado 213069" d="M144.387,177.334H35.079a1.1,1.1,0,0,1-1.1-1.1V59.386a1.1,1.1,0,0,1,1.1-1.1H144.387a1.1,1.1,0,0,1,1.1,1.1V176.231a1.1,1.1,0,0,1-1.1,1.1" transform="translate(-24.151 -41.429)" fill="#343738"/>
            <path id="Trazado_213070" data-name="Trazado 213070" d="M191.332,207.144a46.381,46.381,0,1,1,46.381,46.381,46.381,46.381,0,0,1-46.381-46.381" transform="translate(-136.004 -114.274)" fill="#f6d738"/>
            <path id="Trazado_213071" data-name="Trazado 213071" d="M215.6,224.395a39.363,39.363,0,1,1,39.363,39.363A39.363,39.363,0,0,1,215.6,224.395" transform="translate(-153.255 -131.525)" fill="#f3cc30"/>
            <path id="Trazado_213072" data-name="Trazado 213072" d="M290.781,204.973a39.369,39.369,0,0,1-53.764,54.753,39.366,39.366,0,1,0,53.764-54.753" transform="translate(-168.478 -145.7)" fill="#edbd31"/>
            <path id="Trazado_213073" data-name="Trazado 213073" d="M233.089,238.7a34.746,34.746,0,0,1,62.291-21.181,34.75,34.75,0,1,0-57.674,38.5,34.59,34.59,0,0,1-4.617-17.318" transform="translate(-163.847 -142.228)" fill="#f7db5e"/>
            <path id="Trazado_213074" data-name="Trazado 213074" d="M323.589,233.3v5.015a10.557,10.557,0,0,1,4.938,2,15.29,15.29,0,0,1,3.659,4.631l-4.989,2.789q-2.252-4.093-5.884-4.094a5.386,5.386,0,0,0-3.736,1.331,4.281,4.281,0,0,0-1.484,3.326,4.093,4.093,0,0,0,1.2,3.019,17.42,17.42,0,0,0,4.759,2.789,47.7,47.7,0,0,1,5.117,2.648,13.641,13.641,0,0,1,3.044,2.392,10.71,10.71,0,0,1,2.891,7.547,12.084,12.084,0,0,1-2.61,7.676,12.628,12.628,0,0,1-6.908,4.452v5.3h-4.478v-5.143a13.606,13.606,0,0,1-7.65-3.454q-2.635-2.635-3.889-8.136L313.2,266.2a13.168,13.168,0,0,0,2.815,5.552,6.606,6.606,0,0,0,4.631,1.586,6.535,6.535,0,0,0,4.708-1.817,6.131,6.131,0,0,0,1.868-4.631,5.451,5.451,0,0,0-1.561-4.068,14.491,14.491,0,0,0-2.341-1.676,40.275,40.275,0,0,0-3.953-2.034q-4.963-2.226-6.524-4.094a10.244,10.244,0,0,1-1.893-10.106,9.375,9.375,0,0,1,1.7-2.878,10.571,10.571,0,0,1,2.751-2.239,14.8,14.8,0,0,1,3.71-1.484V233.3Z" transform="translate(-218.63 -165.832)" fill="#d49a34"/>
            <g id="Grupo_152161" data-name="Grupo 152161" transform="translate(55.328 46.488)" opacity="0.12">
              <g id="Grupo_152160" data-name="Grupo 152160">
                <g id="Grupo_152159" data-name="Grupo 152159" clip-path="url(#clip-path-3)">
                  <path id="Trazado_213075" data-name="Trazado 213075" d="M237.713,160.762a46.381,46.381,0,1,0,46.381,46.381,46.381,46.381,0,0,0-46.381-46.381" transform="translate(-191.332 -160.762)"/>
                </g>
              </g>
            </g>
            <path id="Trazado_213076" data-name="Trazado 213076" d="M131.257,152.741l-94.38-16.928c-.416-.075-.753-.635-.753-1.253V18.2c0-.617.337-1.178.753-1.253L131.257.017a1.1,1.1,0,0,1,1.249,1.22V151.521a1.1,1.1,0,0,1-1.249,1.22" transform="translate(-25.679 0)" fill="#63767c"/>
            <path id="Trazado_213077" data-name="Trazado 213077" d="M159.622,186.84c0,18.509-11.848,32.522-25.53,31.377-12.752-1.067-22.47-15.087-22.47-31.377s9.718-30.31,22.47-31.377c13.683-1.145,25.53,12.868,25.53,31.377" transform="translate(-79.344 -110.461)" fill="#506266"/>
            <path id="Trazado_213078" data-name="Trazado 213078" d="M165.56,204.678c0,14.029-8.905,24.828-19.351,24.155-9.895-.637-17.54-11.439-17.54-24.155s7.646-23.518,17.54-24.156c10.446-.673,19.351,10.126,19.351,24.156" transform="translate(-91.461 -128.299)" fill="#a4bbbc"/>
            <path id="Trazado_213079" data-name="Trazado 213079" d="M180.327,243.373c0,4.744-2.958,8.523-6.544,8.442-3.519-.079-6.323-3.858-6.323-8.442s2.8-8.363,6.323-8.443c3.586-.081,6.544,3.7,6.544,8.443" transform="translate(-119.035 -166.993)" fill="#4d4d4d"/>
            <g id="Grupo_152164" data-name="Grupo 152164" transform="translate(49.359 71.032)" opacity="0.11">
              <g id="Grupo_152163" data-name="Grupo 152163">
                <g id="Grupo_152162" data-name="Grupo 152162" clip-path="url(#clip-path-4)">
                  <path id="Trazado_213080" data-name="Trazado 213080" d="M181.254,245.637a10.442,10.442,0,0,1,.9,4.311c0,4.738-2.951,8.521-6.528,8.45a6.036,6.036,0,0,1-4.942-3.22c1.087,2.488,3.12,4.2,5.476,4.251,3.588.081,6.547-3.7,6.547-8.445a10.131,10.131,0,0,0-1.456-5.347" transform="translate(-170.688 -245.637)" fill="#fff"/>
                </g>
              </g>
            </g>
            <path id="Trazado_213081" data-name="Trazado 213081" d="M188.993,331.535V326.17c0-.74-.875-.782-.875-.043v5.352c0,.738.875.8.875.055" transform="translate(-133.719 -231.44)" fill="#4d4d4d"/>
            <path id="Trazado_213082" data-name="Trazado 213082" d="M188.993,186.187v-5.364c0-.74-.875-.684-.875.055v5.352c0,.738.875.7.875-.043" transform="translate(-133.719 -128.158)" fill="#4d4d4d"/>
            <path id="Trazado_213083" data-name="Trazado 213083" d="M128.864,264.038l3.754-.018c.524,0,.52-1.111,0-1.107l-3.754.03c-.512,0-.508,1.1,0,1.095" transform="translate(-91.326 -186.885)" fill="#4d4d4d"/>
            <path id="Trazado_213084" data-name="Trazado 213084" d="M238.351,263.248l4.453-.022c.622,0,.618-1.211,0-1.206l-4.453.036c-.606,0-.6,1.2,0,1.192" transform="translate(-169.101 -186.25)" fill="#4d4d4d"/>
            <path id="Trazado_213085" data-name="Trazado 213085" d="M146.89,311.842l2.665-3.653c.371-.508-.231-1.3-.6-.795l-2.657,3.653c-.363.5.227,1.3.592.795" transform="translate(-103.911 -218.388)" fill="#4d4d4d"/>
            <path id="Trazado_213086" data-name="Trazado 213086" d="M222.77,206.361l3-4.111c.417-.572-.26-1.362-.676-.79L222.1,205.57c-.408.562.255,1.354.666.791" transform="translate(-157.787 -143.062)" fill="#4d4d4d"/>
            <path id="Trazado_213087" data-name="Trazado 213087" d="M148.5,203.4l2.518,3.84c.35.534.983-.22.631-.755l-2.527-3.841c-.346-.525-.968.23-.623.757" transform="translate(-105.486 -143.916)" fill="#4d4d4d"/>
            <path id="Trazado_213088" data-name="Trazado 213088" d="M220.161,312.652l2.815,4.292c.392.6,1.1-.142.706-.74l-2.825-4.295c-.386-.587-1.081.154-.7.742" transform="translate(-156.416 -221.561)" fill="#4d4d4d"/>
            <path id="Trazado_213089" data-name="Trazado 213089" d="M316.747,228.3l-.046,0a1.952,1.952,0,0,1-1.631-2.048v-47.6a1.946,1.946,0,0,1,1.631-2.043l.046,0a1.7,1.7,0,0,1,1.644,1.858v47.982a1.69,1.69,0,0,1-1.644,1.854" transform="translate(-223.96 -125.535)" fill="#798e91"/>
            <path id="Trazado_213090" data-name="Trazado 213090" d="M367.522,152.8H365.1V.061h2.418a.587.587,0,0,1,.587.587V152.215a.587.587,0,0,1-.587.587" transform="translate(-259.525 -0.043)" fill="#798e91"/>
            <path id="Trazado_213091" data-name="Trazado 213091" d="M32.574,136.018v-7.976a3.727,3.727,0,0,0-7.454,0v7.976Z" transform="translate(-17.856 -88.366)" fill="#798e91"/>
            <path id="Trazado_213092" data-name="Trazado 213092" d="M25.121,168.4v7.976a3.727,3.727,0,0,0,7.454,0V168.4Z" transform="translate(-17.857 -119.699)" fill="#798e91"/>
            <path id="Trazado_213093" data-name="Trazado 213093" d="M29.309,322.305v-7.976a3.727,3.727,0,1,0-7.454,0v7.976Z" transform="translate(-15.535 -220.784)" fill="#798e91"/>
            <path id="Trazado_213094" data-name="Trazado 213094" d="M21.855,354.682v7.976a3.727,3.727,0,0,0,7.454,0v-7.976Z" transform="translate(-15.535 -252.117)" fill="#798e91"/>
          </g>
        </g>
      </g>
    </g>
    <g id="Grupo_151843" data-name="Grupo 151843" transform="translate(1192.627 2952.758)">
      <g id="Grupo_151840" data-name="Grupo 151840" clip-path="url(#clip-path-5)">
        <path id="Trazado_212905" data-name="Trazado 212905" d="M152.715,301.815c1.283.465,5.685,8.775,22.68,14.391,7.645,2.526,22.579-1.4,22.579-1.4l24.835,34.784a55.887,55.887,0,0,1-17.15,3.622c-22.96,1.225-32-5.863-32-5.863l-5.822-5.274Z" transform="translate(-133.377 -263.597)" fill="#a8c469"/>
        <path id="Trazado_212906" data-name="Trazado 212906" d="M229.921,386.025s9.417,5.992,16.4,6.533c5.724.443,18.321-1.778,18.321-1.778l21.375,30.552s-16.489,4.13-24.556,2.887c-25.219-3.884-26.095-9.24-26.095-9.24l-1.157-2.252a59.581,59.581,0,0,0,26.48,9.042,57.453,57.453,0,0,0,21.366-2.178l-18.325-26.568s-10.687,2.063-17,1.559-16.783-6.057-16.783-6.057Z" transform="translate(-200.807 -337.144)" fill="#639334"/>
        <path id="Trazado_212907" data-name="Trazado 212907" d="M190.809,392.955c3.363,1.852,9.814,4.824,13.382,9.035,2.438,2.878,6.725,11.166,6.115,14.594-.416,2.336-2.574,5.082-7.214,2.874a75.845,75.845,0,0,1-9.065-5.259Z" transform="translate(-166.647 -343.196)" fill="#639334"/>
        <path id="Trazado_212908" data-name="Trazado 212908" d="M220.512,439.067l-.4-1.387,2.285.642.393,1.594a10.648,10.648,0,0,1,2.6,1.815c1.505,1.524,4.34,6.1,1.869,6.814-2.133.619-6.281-1.238-4.658,2.494.777,1.787,4.109,3.026,5.128,2.02a2.25,2.25,0,0,0,.58-1.832l2.1.089s1.185,5.072-3.581,4.981h-.014l.412,1.67-2.164-.56-.456-1.564a10.022,10.022,0,0,1-5.607-5.428,2.891,2.891,0,0,1,2.931-4.081c1.756.174,3.882.531,3.5-1.037a5.125,5.125,0,0,0-3.651-3.663c-1.682-.23-2.068,1.629-2.068,1.629l-2.517-.872s-.367-2.621,1.439-3.3a3.435,3.435,0,0,1,1.883-.026" transform="translate(-189.661 -382.258)" fill="#a8c469"/>
        <path id="Trazado_212909" data-name="Trazado 212909" d="M4.443,0,36.394,30.992S31.106,46.9,31.729,55.541c1.533,21.261,8.6,28.249,8.6,28.249S32.225,79.266,23.121,66.7A250.532,250.532,0,0,1,1.49,31.183,39.489,39.489,0,0,1,.1,18.258C.637,11.723,4.443,0,4.443,0" transform="translate(0 0)" fill="#bde377"/>
        <path id="Trazado_212910" data-name="Trazado 212910" d="M47.689,111.194s-6.1-7.9-7.413-21.261c-.765-7.8,4.305-27.129,4.305-27.129L17.021,34.756s-2.557,8.615-3.423,13.93a42.312,42.312,0,0,0,.531,15.331l2.117,4S14.71,62.731,15.7,52.233A69.624,69.624,0,0,1,18.649,40.08c.075.2,23.108,23.714,23.108,23.714s-3.728,18.5-3.543,24.71a38.185,38.185,0,0,0,6.26,20.021Z" transform="translate(-11.465 -30.355)" fill="#6ba638"/>
        <path id="Trazado_212911" data-name="Trazado 212911" d="M111.4,416.476s-.833-2.992-4.653-10.961c-2.947-6.147-8.27-11.572-9.747-11.852-.964-.183-1.265.1-1.359.315,3.076,5,6.789,10.665,11.088,16.6,1.6,2.209,3.17,4.169,4.671,5.9" transform="translate(-83.531 -343.762)" fill="#6ba638"/>
        <path id="Trazado_212912" data-name="Trazado 212912" d="M453.158,534.071c-1.231.855-3.213.133-4.426-1.613s-1.2-3.856.033-4.711,3.213-.133,4.426,1.613,1.2,3.855-.033,4.711" transform="translate(-391.124 -460.606)" fill="#639334"/>
        <path id="Trazado_212913" data-name="Trazado 212913" d="M103.121,255.487c-1.235,1.073-3.367.642-4.762-.964s-1.523-3.777-.288-4.85,3.367-.642,4.762.964,1.523,3.776.288,4.85" transform="translate(-84.912 -217.543)" fill="#6ba638"/>
      </g>
    </g>
    <g id="Grupo_152170" data-name="Grupo 152170" transform="translate(1255.75 2920.93)">
      <g id="Grupo_152169" data-name="Grupo 152169" transform="translate(0)" clip-path="url(#clip-path-6)">
        <path id="Trazado_213095" data-name="Trazado 213095" d="M64.034,281.37a58.919,58.919,0,0,1-6.916.359c.02.129.034.264.054.393,0,0-5.238.507-6.9,1.218a8.292,8.292,0,0,0-2.842,1.787,9.65,9.65,0,0,0-1.847,3.438l.223.081H64.67l-.365-7.356c-.1-.4-.183-.792-.278-1.184v1.184Z" transform="translate(-19.903 -152.788)" fill="#171726"/>
        <path id="Trazado_213096" data-name="Trazado 213096" d="M47.051,157.011c-.338,8.479.7,16.951,1.76,25.369q2.04,16.069,4.243,32.116a58.919,58.919,0,0,0,6.916-.359l-.007-.081v-1.184c-7.545-32.123-12.181-53.128-12.817-56.024a.923.923,0,0,1-.095.162" transform="translate(-15.839 -85.556)" fill="#1f3a6f" stroke="#1f3a6f" stroke-width="1"/>
        <path id="Trazado_213097" data-name="Trazado 213097" d="M55.465,154.754l-.007-.007a54.42,54.42,0,0,1-5.779-7.606l-.02-.014A17.183,17.183,0,0,1,48.6,148.67a13.644,13.644,0,0,0-.907,1.245c-.318.521-.541,1.11-.853,1.631.636,2.9,5.272,23.9,12.817,56.024q.01-17.844.013-35.675l.061-.014c-1.5-5.732-2.862-11.5-4.033-17.3-.075.061-.149.115-.23.176" transform="translate(-15.529 -80.253)" fill="#1f3a6f" stroke="#1f3a6f" stroke-width="1"/>
        <path id="Trazado_213098" data-name="Trazado 213098" d="M22.282,215.636c1.969-.122,3.945-.237,5.914-.352-8.107-15.625-17.8-60.5-17.8-60.5l-.007-.007q-2.507,2.06-5.123,3.972c1.171,5.806,2.538,11.572,4.033,17.3,2.95,11.294,6.395,22.473,9.833,33.632a32.31,32.31,0,0,0,2.355,6.1l.02.108c.474-.068.778-.108.778-.108Z" transform="translate(34.896 -84.427)" fill="#1f3a6f" stroke="#1f3a6f" stroke-width="1"/>
        <path id="Trazado_213099" data-name="Trazado 213099" d="M1,152.019l.007.007s9.69,44.872,17.8,60.5c.514-.034,1.029-.068,1.543-.1l.4-.061q-4.517-28.776-10.936-57.222a67.4,67.4,0,0,0-5.779-5.427l-.365.088c-.88.751-1.766,1.5-2.666,2.213" transform="translate(44.291 -81.666)" fill="#1f3a6f" stroke="#1f3a6f" stroke-width="1"/>
        <path id="Trazado_213100" data-name="Trazado 213100" d="M16.687,287.705c-1.969.115-3.945.23-5.914.352l.007.149s-.3.04-.778.108a28.257,28.257,0,0,0-5.312,1.17,8.291,8.291,0,0,0-2.842,1.787A9.544,9.544,0,0,0,0,294.709l.223.081h18.86l-.345-7H18.67c-.014-.081-.027-.156-.04-.237l-.4.061c-.514.027-1.029.061-1.543.095" transform="translate(46.405 -156.849)" fill="#171726"/>
        <path id="Trazado_213101" data-name="Trazado 213101" d="M26.024,1.182l.372.24a3.7,3.7,0,0,0,3.422,3.56c.054,0,.1.006.156.006a8.572,8.572,0,0,0,2.779-.678c.679-.24,1.363-.456,2.053-.655A4.851,4.851,0,0,1,36.427,3.4a1.792,1.792,0,0,1,1.4.739c.354.552.276,1.309.684,1.825a1.638,1.638,0,0,0,.7.486A4.671,4.671,0,0,1,41,7.239a1.728,1.728,0,0,1,.318,1.579,4.914,4.914,0,0,1-.745,1.495,1.751,1.751,0,0,1,1.735.93,3.033,3.033,0,0,1,.318,1.675,1.015,1.015,0,0,1,.552-.03.926.926,0,0,1,.522.384,4.2,4.2,0,0,0,2.389-2.527,2.737,2.737,0,0,0-.907-2.714,1.755,1.755,0,0,0-1.609-.4A3.14,3.14,0,0,0,44.5,4.568a3.16,3.16,0,0,0-2.287-2.227,8.868,8.868,0,0,1-2.485-.456c-.576-.324-.936-.936-1.465-1.333A3.845,3.845,0,0,0,34.909.227a30.388,30.388,0,0,1-3.326,1.045,5.435,5.435,0,0,1-2.5-.174A4.942,4.942,0,0,0,27.1.654a1.9,1.9,0,0,0-1.075.528" transform="translate(7.494 0)" fill="#1f3a6f" stroke="#1f3a6f" stroke-width="1"/>
        <path id="Trazado_213102" data-name="Trazado 213102" d="M31.184,26.063a4.777,4.777,0,0,0,1.044,2.519,3.082,3.082,0,0,0,1.654.835l-.045.25a8.844,8.844,0,0,1-.185,1.089c-.06.26-.135.525-.215.784l-.015.045-.24.87a.108.108,0,0,0,0,.04L33.7,34.8l.1.45.14.63a1.663,1.663,0,0,0-.195.085,4.35,4.35,0,0,0-.944.579l.025.02a5.086,5.086,0,0,1,2.009.25c.16.055.32.115.48.17.11-.1.28-.285.495-.52.035-.035.07-.075.11-.115.115-.135.25-.28.4-.439,1.879-2.079,5.471-6.176,5.616-6.346a17.471,17.471,0,0,1,.01-2.808l.02-.165a4.212,4.212,0,0,0,1.674-.959,6.33,6.33,0,0,0,1.5-1.714,3.023,3.023,0,0,0,.34-2.214,1.661,1.661,0,0,0-.245-.529.927.927,0,0,0-.525-.38.985.985,0,0,0-.55.03.952.952,0,0,0-.17.05,2.716,2.716,0,0,0-1.049.715h-.015a2.8,2.8,0,0,1-.395,1.185,1.093,1.093,0,0,1-1.29.455c-.51-.24-.615-.9-.625-1.47a18.747,18.747,0,0,1,.135-2.653c.045-.335.1-.665.13-1a4.533,4.533,0,0,0-.025-1.1,3.125,3.125,0,0,0-1.749-2.229,2.861,2.861,0,0,0-.935-.26,11.494,11.494,0,0,0-3.2.575,6.312,6.312,0,0,1-3.927-.54c-.11.76-.195,1.614-.25,2.518a41.04,41.04,0,0,0,.39,9" transform="translate(5.964 -7.907)" fill="#ffca9f"/>
        <path id="Trazado_213103" data-name="Trazado 213103" d="M33.786,5.078a6.22,6.22,0,0,0,3.964,5.5h.114c.055-.9.136-1.759.245-2.523a6.288,6.288,0,0,0,3.932.541,11.864,11.864,0,0,1,3.2-.577,2.774,2.774,0,0,1,.936.268,3.09,3.09,0,0,1,1.745,2.227,4.483,4.483,0,0,1,.027,1.1c-.032.336-.086.664-.127,1a18.45,18.45,0,0,0-.136,2.654c.009.564.114,1.232.623,1.468a1.091,1.091,0,0,0,1.291-.455,2.743,2.743,0,0,0,.4-1.182h.014a2.653,2.653,0,0,1,1.05-.714.728.728,0,0,1,.168-.055,3.04,3.04,0,0,0-.318-1.677,1.749,1.749,0,0,0-1.736-.927,4.855,4.855,0,0,0,.745-1.5A1.73,1.73,0,0,0,49.6,8.655a4.7,4.7,0,0,0-1.782-.791,1.617,1.617,0,0,1-.7-.486c-.409-.514-.327-1.273-.682-1.823a1.792,1.792,0,0,0-1.4-.741,4.833,4.833,0,0,0-1.623.259c-.691.2-1.373.414-2.055.655a8.546,8.546,0,0,1-2.777.677c-.055,0-.1,0-.159,0A3.7,3.7,0,0,1,35,2.842L34.622,2.6a2.149,2.149,0,0,0-.45.582,3.707,3.707,0,0,0-.386,1.9" transform="translate(-1.104 -1.419)" fill="#1f3a6f"/>
        <path id="Trazado_213104" data-name="Trazado 213104" d="M32.879,31.8c.166-.231.532.019.365.252-.1.135-.306.37-.272.548q.331.29.441.005a2.711,2.711,0,0,0,.156-.331,2.858,2.858,0,0,0,.184-1.268c-.021-.281.414-.369.435-.085a3.394,3.394,0,0,1-.177,1.436c-.124.34-.318.8-.7.925a.6.6,0,0,1-.732-.392,1.165,1.165,0,0,1,.3-1.09" transform="translate(16.501 -16.772)" fill="#e2a759"/>
        <path id="Trazado_213105" data-name="Trazado 213105" d="M42.847,43.75A8.9,8.9,0,0,0,48.6,41.38c.211-.193.5.144.289.336a9.4,9.4,0,0,1-6.079,2.476c-.285.011-.249-.431.033-.442" transform="translate(-2.85 -22.54)" fill="#e2a759"/>
        <path id="Trazado_213106" data-name="Trazado 213106" d="M100.7,68.891a30.356,30.356,0,0,0,4.232,2.786l-1.4,1.4c-.023-.032-.045-.064-.073-.1q-1.486-1.9-2.991-3.782Z" transform="translate(-85.117 -37.578)" fill="#282849"/>
        <path id="Trazado_213107" data-name="Trazado 213107" d="M58.773,99.471q1.834,3.8,3.391,7.732l.291.118c.032-.082.068-.168.1-.25q-.866-3.17-1.559-6.391c-.682-.477-1.359-.968-2.036-1.459Z" transform="translate(-23.777 -54.122)" fill="#282849"/>
        <path id="Trazado_213108" data-name="Trazado 213108" d="M95.173,74.563c.423.236.855.459,1.291.673l.818.386c.1-.209.2-.418.3-.627a15.535,15.535,0,0,1-2.023-.814Z" transform="translate(-75.354 -40.463)" fill="#d38911"/>
        <path id="Trazado_213109" data-name="Trazado 213109" d="M103.143,78.191c.1.045.191.091.286.132-.059-.077-.123-.155-.186-.232Z" transform="translate(-84.824 -42.596)" fill="#d38911"/>
        <path id="Trazado_213110" data-name="Trazado 213110" d="M100.933,30.748c3.1,6.373,10.713,13.977,17.009,17l.1-.1,1.4-1.4.386-.382c-6.3-3.014-13.909-10.622-17.009-17q-.252-.511-.45-1c-.132-.323-.25-.632-.355-.932s-.191-.586-.259-.864a8.165,8.165,0,0,1-.2-1.041,4.875,4.875,0,0,1,.009-1.391,2.874,2.874,0,0,1,.1-.423.548.548,0,0,1,.023-.082,2.475,2.475,0,0,1,.364-.677,1.6,1.6,0,0,1,.168-.186s0,0,0-.009l-1.886,1.877c-1.091,1.082-.977,3.373.591,6.6" transform="translate(-99.623 -12.148)" fill="#d38911"/>
        <path id="Trazado_213111" data-name="Trazado 213111" d="M84.069,24.193a8.167,8.167,0,0,0,.2,1.041c.068.277.155.568.259.864s.218.609.355.932.282.655.45,1c3.1,6.373,10.713,13.981,17.009,17a15.535,15.535,0,0,0,2.023.814,10.9,10.9,0,0,1,.7-1.282,6.844,6.844,0,0,1,.45-.627,7.282,7.282,0,0,1,.782-.85l.25-.132c.232.155.464.3.7.459.659.432,1.327.855,2.009,1.25.427-1.25.091-3.2-1.132-5.713-3.1-6.368-10.713-13.977-17.009-16.99-3.114-1.491-5.323-1.577-6.377-.514a1.6,1.6,0,0,0-.168.186,2.476,2.476,0,0,0-.364.677.547.547,0,0,0-.023.082,2.871,2.871,0,0,0-.1.423,4.875,4.875,0,0,0-.009,1.391" transform="translate(-82.136 -11.302)" fill="#e8a52e"/>
        <path id="Trazado_213112" data-name="Trazado 213112" d="M14,63.157c.423.236.855.459,1.291.673l.818.386c.1-.209.2-.418.3-.627a10.9,10.9,0,0,1,.7-1.282,6.842,6.842,0,0,1,.45-.627,7.282,7.282,0,0,1,.782-.85l.25-.132c.232.155.464.3.7.459.659.432,1.327.855,2.009,1.25l.209-.323c.523-1.786,1.123-3.554,1.809-5.286A4.339,4.339,0,0,1,24.6,54.78a4.044,4.044,0,0,1,1.1-.518,24.251,24.251,0,0,1,3.709-.991l.164.3a17.468,17.468,0,0,0-2.7,2.25l.1.118c.65,1.155,1.291,2.3,1.936,3.454l.032.082c-.109.141-.2.291-.3.436a14.409,14.409,0,0,1-1.586,1.964l.077.068a7.071,7.071,0,0,1,.332,1.136,12.879,12.879,0,0,1,.918,2.814c.8.373,1.618.741,2.432,1.114a.344.344,0,0,1,.059.027,36.774,36.774,0,0,1,4.7,2.4c.3.186.6.4.9.609l.055-.077q2.577-2.986,5.264-5.873l-.014-.014c-.264-.845-.482-1.714-.664-2.577v-.077a12.675,12.675,0,0,0,3.182-.264q1.057-2.829,1.832-5.759a1.9,1.9,0,0,0,.1-.809.984.984,0,0,0-.073-.232l.123-.055c1.732,1.423,3.468,2.836,5.1,4.386A7.277,7.277,0,0,1,53.9,62.63a5.71,5.71,0,0,1-.25,2.459,13.012,13.012,0,0,1-1.482,3.159,23.086,23.086,0,0,1-1.555,2.214A45.7,45.7,0,0,1,42.329,78.7a6.868,6.868,0,0,1-1.945,1.15,2.591,2.591,0,0,1-2.027-.1l-.091.155c-.9-.482-1.786-.986-2.659-1.523a.276.276,0,0,0-.014-.068.272.272,0,0,1-.027.05c.014,0,.027.014.041.018A22.638,22.638,0,0,0,48.415,93a57.694,57.694,0,0,1,.45,9.941l-.118.1c-.145-.168-.309-.336-.464-.5A67.215,67.215,0,0,0,42.5,97.111l-.364.086c-.882.75-1.768,1.5-2.668,2.214-1.668,1.373-3.382,2.7-5.123,3.973-.073.059-.145.114-.227.173l-.009,0a54.22,54.22,0,0,1-5.777-7.6l-.023-.014a17.793,17.793,0,0,1-1.059,1.541,12.831,12.831,0,0,0-.909,1.245c-.318.523-.541,1.109-.855,1.632-.045-.232-.073-.345-.073-.345,0,.068,0,.141,0,.209l-.159,0c.023-8.068-1.35-16.068-1.8-24.113,0-.1-.014-.182-.014-.277l-.432.018c-1.6-1.9-3.3-3.727-5.073-5.463-.927-.909-1.877-1.8-2.754-2.75-.841-.909-1.623-1.873-2.391-2.841-.059-.077-.123-.155-.186-.232ZM32.57,82.138l.291.118c.032-.082.068-.168.1-.25.532-1.373,1.055-2.764,1.586-4.136l.068-.109c-1.086-.682-2.159-1.4-3.214-2.145-.682-.477-1.359-.968-2.036-1.459l-.182.25q1.834,3.8,3.391,7.732" transform="translate(5.817 -29.058)" fill="#282849"/>
        <path id="Trazado_213113" data-name="Trazado 213113" d="M88.4,29.907c2.659,5.463,9.182,11.982,14.577,14.563a9.071,9.071,0,0,0,3.641,1.05,7.282,7.282,0,0,1,.782-.85l.25-.132c.232.155.464.3.7.459,1.027-.891.968-2.891-.418-5.736C105.281,33.8,98.754,27.28,93.363,24.7s-7.613-.25-4.959,5.209" transform="translate(-83.243 -12.898)" fill="#ffc764"/>
        <path id="Trazado_213114" data-name="Trazado 213114" d="M98.432,61.543a30.989,30.989,0,0,0-6.659-2.666c-.257-.068-.589-.115-.758.095a.59.59,0,0,0-.075.5,3.874,3.874,0,0,0,1.36,1.983q.9.832,1.868,1.584A30.7,30.7,0,0,0,99.69,66.5l.819.385a15.429,15.429,0,0,1,1-1.908,7.521,7.521,0,0,1,1.232-1.475l-.711.291c-1.265-1.685-2.138-3.668-3.634-5.157a1.709,1.709,0,0,0-.582-.426.671.671,0,0,0-.683.109.945.945,0,0,0-.068.961,5.474,5.474,0,0,0,1.421,2.165Z" transform="translate(-78.581 -31.725)" fill="#ffca9f"/>
        <path id="Trazado_213115" data-name="Trazado 213115" d="M62.2,55.614l.1.122q.975,1.726,1.935,3.451l.034.081c-.109.142-.2.291-.3.44a14.8,14.8,0,0,1-1.584,1.963l.075.067a6.636,6.636,0,0,1,.331,1.137,12.916,12.916,0,0,1,.92,2.815c.805.372,1.617.738,2.43,1.11l.1-.224c.122-.352.244-.7.365-1.049q.05-4.06-.014-8.121l.135-.027Q66.318,55.249,66,53.1a.727.727,0,0,1-.014-.21h-.007l-.216.02a2.605,2.605,0,0,1-.65.345,1.356,1.356,0,0,0-.217.115,17.544,17.544,0,0,0-2.7,2.247" transform="translate(-29.52 -28.848)" fill="#1e1e3a"/>
        <path id="Trazado_213116" data-name="Trazado 213116" d="M44.232,47.651c-.145.17-3.738,4.267-5.616,6.346,2.034-1.434,4.067-2.519,5.6-4.527h.055q-.008-.359,0-.72c0-.3-.015-.69-.04-1.1" transform="translate(3.663 -25.992)" fill="#ffca9f"/>
        <path id="Trazado_213117" data-name="Trazado 213117" d="M51.939,62.58c-.04.04-.075.08-.11.115a.746.746,0,0,0,.1.01c.01,0,.035,0,.04.02l.015-.125h-.03Z" transform="translate(-10.059 -34.135)" fill="#ffca9f"/>
        <path id="Trazado_213118" data-name="Trazado 213118" d="M56.292,60.836l.04.04a3.911,3.911,0,0,1,.685,0,1.663,1.663,0,0,1,.195-.085l-.14-.63a4.58,4.58,0,0,0-.78.675" transform="translate(-17.31 -32.816)" fill="#ffca9f"/>
        <path id="Trazado_213119" data-name="Trazado 213119" d="M57.454,52.962l.24-.87c-.08.245-.17.485-.27.725l.015,0a1.331,1.331,0,0,0,.015.14" transform="translate(-18.307 -28.414)" fill="#ffca9f"/>
        <path id="Trazado_213120" data-name="Trazado 213120" d="M56.82,54.093a9.155,9.155,0,0,0,.515,2.309Z" transform="translate(-17.673 -29.506)" fill="#ffca9f"/>
        <path id="Trazado_213121" data-name="Trazado 213121" d="M52.945,75.769c-.122.352-.244.7-.365,1.049l-.1.223c.02.007.04.02.061.027a36.9,36.9,0,0,1,4.7,2.4l.176-.285a22.545,22.545,0,0,0-.562-7.159l-.007-.027a1.409,1.409,0,0,1-.65-.041c-.426-.095-.853-.2-1.279-.291a13.527,13.527,0,0,0-.9,1.543,23.012,23.012,0,0,0-1.069,2.564" transform="translate(-15.851 -39.089)" fill="#f4b545"/>
        <path id="Trazado_213122" data-name="Trazado 213122" d="M58.678,64.573l-.04-.02c-.129-.6-.25-1.184-.365-1.779l-.135.027q.061,4.061.014,8.121a23.053,23.053,0,0,1,1.069-2.565,13.559,13.559,0,0,1,.9-1.543l-.1-.02-.1-.04A12.651,12.651,0,0,1,59,63.917a5.871,5.871,0,0,0-.325.656" transform="translate(-21.057 -34.241)" fill="#fff"/>
        <path id="Trazado_213123" data-name="Trazado 213123" d="M49.872,64.019a12.419,12.419,0,0,0,.915,2.838l.1.04c.035,0,.065.015.1.02.425.1.855.195,1.28.29a1.366,1.366,0,0,0,.65.04.181.181,0,0,0,.075-.02l.07-.115a15.46,15.46,0,0,0,1.374-3.088c.01-.02.015-.045.025-.065l.285-.08a1.232,1.232,0,0,0-.76-.415l-.015.145a.048.048,0,0,0-.045-.03,2.314,2.314,0,0,1-.665-.135.627.627,0,0,0-.06-.02c-.16-.055-.32-.115-.48-.17A5.087,5.087,0,0,0,50.712,63l-.05-.04-.12.135,0,0c-.015.015-.025.03-.04.045s-.035.04-.055.065a.437.437,0,0,0-.04.05.529.529,0,0,0-.05.06,5.974,5.974,0,0,0-.48.695" transform="translate(-11.925 -34.345)" fill="#f4b545"/>
        <path id="Trazado_213124" data-name="Trazado 213124" d="M55.129,102.434q.69,3.217,1.556,6.388c.535-1.374,1.056-2.761,1.59-4.134l.068-.109c-1.09-.683-2.159-1.407-3.214-2.145" transform="translate(-17.914 -55.874)" fill="#f4b545"/>
        <path id="Trazado_213125" data-name="Trazado 213125" d="M46.391,68.347l.007.027a22.571,22.571,0,0,1,.562,7.159l.325.061A38.109,38.109,0,0,1,49.8,67.041a18.164,18.164,0,0,0-1.374-1.834c-.068-.081-.135-.155-.21-.23l-.285.081a15.679,15.679,0,0,1-1.4,3.153l-.068.115a.3.3,0,0,1-.075.02" transform="translate(-5.4 -35.443)" fill="#fff"/>
        <path id="Trazado_213126" data-name="Trazado 213126" d="M32.895,59.808c-.095-.155-.2-.311-.3-.467a38.062,38.062,0,0,0-2.517,8.553l-.325-.061-.176.284c.3.19.6.4.893.609l.054-.075q2.579-2.984,5.265-5.873l-.014-.014c-.264-.846-.48-1.712-.663-2.578v-.075a12.865,12.865,0,0,0,3.18-.264q1.056-2.832,1.834-5.758a1.952,1.952,0,0,0,.095-.812.913.913,0,0,0-.074-.23,2.329,2.329,0,0,0-.717-.825l-1.624-1.36-.257.054a5.188,5.188,0,0,1,.23.9,5.6,5.6,0,0,1-.947,3.749,16.816,16.816,0,0,1-2.6,2.95c-.447.433-.893.866-1.34,1.293" transform="translate(11.805 -27.744)" fill="#1e1e3a"/>
        <path id="Trazado_213127" data-name="Trazado 213127" d="M27.6,102.049q2.771-7.846,5.339-15.76l-.108-.068a23.6,23.6,0,0,1-1.556,2.213,45.691,45.691,0,0,1-8.283,8.242,6.822,6.822,0,0,1-1.942,1.15,2.609,2.609,0,0,1-2.03-.1l-.088.155q-1.35-.721-2.659-1.523a22.623,22.623,0,0,0,12.81,14.61,57.968,57.968,0,0,0-1.285-6.7,4.176,4.176,0,0,1-.163-2.206Z" transform="translate(25.151 -47.031)" fill="#1e1e3a" stroke="#1d1d38" stroke-width="0.5"/>
        <path id="Trazado_213128" data-name="Trazado 213128" d="M45.577,117.214a33.827,33.827,0,0,1,12.844,7.733c.232.223-.149.547-.379.326a33.262,33.262,0,0,0-12.634-7.588c-.305-.1-.137-.571.169-.47" transform="translate(-13.572 -63.929)" fill="#1e1e3a"/>
        <path id="Trazado_213129" data-name="Trazado 213129" d="M52.535,126.527l7.814,2.878a.25.25,0,0,1-.169.47L52.366,127a.25.25,0,0,1,.169-.47" transform="translate(-18.749 -69.007)" fill="#1e1e3a"/>
        <path id="Trazado_213130" data-name="Trazado 213130" d="M46.926,102.336l1.247,5.548,1.549-3.693c.124-.295.595-.129.47.169l-.028.066a.2.2,0,0,1,.032.014,18.613,18.613,0,0,0,3.519,1.983c.294.126.128.6-.169.47a19.258,19.258,0,0,1-3.577-2L48.457,108.5a.252.252,0,0,1-.345.129.244.244,0,0,1-.323-.178l-1.353-6.017a.25.25,0,0,1,.49-.1" transform="translate(-9.485 -55.716)" fill="#1e1e3a"/>
        <path id="Trazado_213131" data-name="Trazado 213131" d="M61.541,76.089l.314-1.078c.09-.308.56-.14.47.169q-.119.409-.238.818c4.456,4.411,9.293,8.8,15.044,11.295.293.127.127.6-.169.47C71.174,85.248,66.307,80.847,61.81,76.42a.261.261,0,0,1-.268-.33" transform="translate(-39.765 -40.827)" fill="#1e1e3a"/>
        <path id="Trazado_213132" data-name="Trazado 213132" d="M39.126,88.893l.008.009a.27.27,0,0,1,.095-.049.258.258,0,0,1,.019-.492,6.166,6.166,0,0,1,4.271.412c.287.137.122.61-.169.47a5.723,5.723,0,0,0-4-.393h.007a7.713,7.713,0,0,1,4.949,3.741c.16.28-.291.5-.449.219a7.208,7.208,0,0,0-4.221-3.359A13.459,13.459,0,0,1,42.6,95.162c.077.313-.414.408-.49.1a12.966,12.966,0,0,0-3.36-6.04c-.225-.231.155-.555.379-.326" transform="translate(3.568 -48.086)" fill="#1e1e3a"/>
        <path id="Trazado_213133" data-name="Trazado 213133" d="M20.9,68.354a21.374,21.374,0,0,1,7.7-6.63.25.25,0,0,1,.219.45,20.8,20.8,0,0,0-7.507,6.464c-.187.261-.6-.022-.411-.284" transform="translate(27.056 -33.653)" fill="#1e1e3a"/>
        <path id="Trazado_213134" data-name="Trazado 213134" d="M68.881,65.247,72.372,67.3a45.482,45.482,0,0,1,1.547-7.626c.091-.308.561-.14.47.169a44.775,44.775,0,0,0-1.551,7.732L75.432,69.1c.277.163-.007.574-.284.411L68.6,65.658c-.277-.163.008-.574.284-.411" transform="translate(-41.186 -32.463)" fill="#1e1e3a"/>
        <path id="Trazado_213135" data-name="Trazado 213135" d="M34.886,55.066a.627.627,0,0,1,.06.02,6.257,6.257,0,0,1,1.174.58,5.914,5.914,0,0,1,1.289,1.055c.21.28.41.57.6.864.1.155.2.31.295.47.45-.43.895-.86,1.339-1.294a16.793,16.793,0,0,0,2.6-2.953,5.627,5.627,0,0,0,.945-3.748,5.047,5.047,0,0,0-.23-.9,14.869,14.869,0,0,0-.62-1.429l-.835-.09-.005.005c-.145.17-3.737,4.267-5.616,6.346-.15.16-.285.3-.4.44-.04.04-.075.08-.11.115-.215.235-.385.415-.495.52" transform="translate(6.389 -25.987)" fill="#fff"/>
        <path id="Trazado_213136" data-name="Trazado 213136" d="M56.293,51.373H56.3a.731.731,0,0,0,.015.21q.315,2.151.73,4.287c.115.595.24,1.184.37,1.779l.02.01-.28,1.419c.05-.22.135-.63.3-1.409a5.378,5.378,0,0,1,.325-.66,5.92,5.92,0,0,1,.48-.695c.015-.02.035-.04.05-.06a.437.437,0,0,1,.04-.05.344.344,0,0,1,.055-.065c.015-.015.025-.03.04-.045l0-.005c.05-.04.095-.08.145-.115a4.374,4.374,0,0,1,.944-.58,1.664,1.664,0,0,1,.195-.085l-.14-.63-.1-.45-.515-2.309,0-.03,0-.01.24-.869.015-.045.215-.785-.17-.025c0-.01,0-.025.01-.035l-.355-.01a18.937,18.937,0,0,0-2.184.67.852.852,0,0,0-.375.24.593.593,0,0,0-.08.35" transform="translate(-19.829 -27.336)" fill="#fff"/>
        <path id="Trazado_213137" data-name="Trazado 213137" d="M102.218,75.956a2.645,2.645,0,0,1,1.1-1.542c.349-.231.781.265.429.5a2.1,2.1,0,0,0-.905,1.266c-.106.409-.725.185-.62-.222" transform="translate(-84.842 -40.558)" fill="#ffc764"/>
        <path id="Trazado_213138" data-name="Trazado 213138" d="M108.653,71.406l.675-1.611c.163-.388.784-.17.619.222l-.675,1.611c-.163.388-.784.17-.62-.222" transform="translate(-93.861 -37.96)" fill="#ffc764"/>
        <path id="Trazado_213139" data-name="Trazado 213139" d="M114.689,66.605l1.136-1.17c.295-.3.722.2.429.5l-1.136,1.17c-.295.3-.722-.2-.429-.5" transform="translate(-102.95 -35.642)" fill="#ffc764"/>
        <path id="Trazado_213140" data-name="Trazado 213140" d="M119.6,61.084l1.135-1.521c.252-.338.8.033.541.374l-1.135,1.521c-.253.339-.8-.033-.541-.374" transform="translate(-110.183 -32.417)" fill="#ffc764"/>
        <path id="Trazado_213141" data-name="Trazado 213141" d="M124.29,56.693l1.05-1.43c.25-.34.793.031.541.374l-1.05,1.43c-.25.34-.793-.031-.541-.374" transform="translate(-116.923 -30.071)" fill="#ffc764"/>
        <path id="Trazado_213142" data-name="Trazado 213142" d="M128.89,51l1.157-1.327c.275-.315.82.054.541.374l-1.157,1.327c-.275.315-.82-.054-.541-.374" transform="translate(-123.727 -27.031)" fill="#ffc764"/>
        <path id="Trazado_213143" data-name="Trazado 213143" d="M132.267,46.29l1.22-1.35c.284-.314.71.189.429.5L132.7,46.789c-.284.314-.709-.188-.429-.5" transform="translate(-128.599 -24.46)" fill="#ffc764"/>
        <path id="Trazado_213144" data-name="Trazado 213144" d="M135.85,40.652,137,39.585c.311-.289.739.211.429.5l-1.151,1.067c-.311.289-.739-.211-.429-.5" transform="translate(-133.749 -21.545)" fill="#ffc764"/>
        <path id="Trazado_213145" data-name="Trazado 213145" d="M137.72,36.861l1.154-.886c.335-.257.765.24.429.5l-1.154.886c-.335.257-.765-.24-.429-.5" transform="translate(-136.479 -19.584)" fill="#ffc764"/>
        <path id="Trazado_213146" data-name="Trazado 213146" d="M138.963,31.584l1.331-.975c.34-.249.771.249.429.5l-1.331.974c-.34.249-.771-.248-.429-.5" transform="translate(-138.467 -16.66)" fill="#ffc764"/>
      </g>
    </g>
  </g>
</svg>
