<svg xmlns="http://www.w3.org/2000/svg" width="180" height="180" viewBox="0 0 180 180">
  <g id="Grupo_156604" data-name="Grupo 156604" transform="translate(-397 -3539)">
    <g id="Grupo_151798" data-name="Grupo 151798" transform="translate(0 63)">
      <circle id="Elipse_5231" data-name="Elipse 5231" cx="90" cy="90" r="90" transform="translate(397 3476)" fill="#fff"/>
      <g id="Grupo_151800" data-name="Grupo 151800" transform="translate(-3.552 0.448)">
        <g id="datos" transform="translate(432 3511)">
          <path id="Trazado_212842" data-name="Trazado 212842" d="M112.582,1H6.674A5.681,5.681,0,0,0,1,6.674V86.1a5.681,5.681,0,0,0,5.674,5.674H47.269l2.171,3.259a4.351,4.351,0,0,1,0,4.83l-2.171,3.259H42.607a9.467,9.467,0,0,0-9.456,9.456v3.782a1.891,1.891,0,0,0,1.891,1.891H84.213a1.891,1.891,0,0,0,1.891-1.891v-3.782a9.467,9.467,0,0,0-9.456-9.456H71.987l-2.171-3.259a4.351,4.351,0,0,1,0-4.83l2.171-3.259h40.595a5.681,5.681,0,0,0,5.674-5.674V6.674A5.681,5.681,0,0,0,112.582,1ZM6.674,4.782H112.582a1.894,1.894,0,0,1,1.891,1.891V72.866H110.69V10.456A1.892,1.892,0,0,0,108.8,8.565H10.456a1.892,1.892,0,0,0-1.891,1.891v62.41H4.782V6.674A1.894,1.894,0,0,1,6.674,4.782ZM106.908,72.866H12.347V12.347h94.561ZM82.322,112.582v1.891H36.933v-1.891a5.681,5.681,0,0,1,5.674-5.674H76.649A5.681,5.681,0,0,1,82.322,112.582ZM66.669,101.966l.773,1.159H51.815l.774-1.159a8.14,8.14,0,0,0,0-9.029l-.774-1.159H67.44l-.774,1.159a8.14,8.14,0,0,0,0,9.029ZM112.582,88H6.674A1.893,1.893,0,0,1,4.782,86.1V76.649H114.473V86.1A1.893,1.893,0,0,1,112.582,88Z" transform="translate(-1 -1)"/>
          <ellipse id="Elipse_5233" data-name="Elipse 5233" cx="4.258" cy="3.726" rx="4.258" ry="3.726" transform="translate(54.352 76.706)"/>
          <g id="Elipse_5234" data-name="Elipse 5234" transform="translate(75.552 30.552)" fill="#fff" stroke="#000" stroke-width="2.6">
            <circle cx="13.5" cy="13.5" r="13.5" stroke="none"/>
            <circle cx="13.5" cy="13.5" r="12.2" fill="none"/>
          </g>
          <text id="_" data-name="$" transform="translate(84.37 48.822)" stroke="#000" stroke-width="1" font-size="16" font-family="Roboto-Bold, Roboto" font-weight="700"><tspan x="0" y="0">$</tspan></text>
        </g>
        <g id="tarjeta-de-credito" transform="translate(449.274 3527.994)">
          <g id="Grupo_151797" data-name="Grupo 151797" transform="translate(0 0)">
            <g id="Grupo_151796" data-name="Grupo 151796" transform="translate(0 0)">
              <path id="Trazado_212847" data-name="Trazado 212847" d="M264.551,253.472h16.278a.961.961,0,0,0,1.017-1.017V243.3a.961.961,0,0,0-1.017-1.017H264.551a.961.961,0,0,0-1.017,1.017v9.156A.961.961,0,0,0,264.551,253.472Zm1.017-9.156h14.243v7.121H265.569Z" transform="translate(-231.996 -218.882)" stroke="#000" stroke-width="1.2"/>
              <path id="Trazado_212848" data-name="Trazado 212848" d="M34.151,210.182H42.29a1.017,1.017,0,1,0,0-2.035H34.151a1.017,1.017,0,1,0,0,2.035Z" transform="translate(-29.064 -188.817)" stroke="#000" stroke-width="1.2"/>
              <path id="Trazado_212849" data-name="Trazado 212849" d="M136.551,210.182h8.139a1.017,1.017,0,1,0,0-2.035h-8.139a1.017,1.017,0,1,0,0,2.035Z" transform="translate(-119.256 -188.817)" stroke="#000" stroke-width="1.2"/>
              <path id="Trazado_212850" data-name="Trazado 212850" d="M34.151,244.316H47.377a1.017,1.017,0,1,0,0-2.035H34.151a1.017,1.017,0,1,0,0,2.035Z" transform="translate(-29.064 -218.882)" stroke="#000" stroke-width="1.2"/>
              <path id="Trazado_212851" data-name="Trazado 212851" d="M182.269,242.28h-3.052a1.017,1.017,0,1,0,0,2.035h3.052a1.017,1.017,0,1,0,0-2.035Z" transform="translate(-156.835 -218.881)" stroke="#000" stroke-width="1.2"/>
              <path id="Trazado_212852" data-name="Trazado 212852" d="M59.126,56.8a3.79,3.79,0,0,0-2.747-1.526l-2.442-.3V50.083a4.081,4.081,0,0,0-4.069-4.069H3.069A4.081,4.081,0,0,0-1,50.083V82.639a4.085,4.085,0,0,0,2.915,3.9,3.959,3.959,0,0,0,3.6,4.035l47,5.29h.407a4.073,4.073,0,0,0,4.069-3.459l3.052-32.657A3.954,3.954,0,0,0,59.126,56.8ZM1.035,53.135H51.9v6.1H1.035Zm2.035-5.087h46.8A2.041,2.041,0,0,1,51.9,50.083V51.1H1.035V50.083A2.041,2.041,0,0,1,3.069,48.049ZM1.035,82.639V61.274H51.9V82.639a2.041,2.041,0,0,1-2.035,2.035H3.07A2.041,2.041,0,0,1,1.035,82.639Zm56.972-23.3L54.955,92a2.052,2.052,0,0,1-2.238,1.831l-46.9-5.29a2.057,2.057,0,0,1-1.831-1.831H49.868a4.081,4.081,0,0,0,4.069-4.069V56.9l2.34.2a1.739,1.739,0,0,1,1.323.712A2.06,2.06,0,0,1,58.007,59.341Z" transform="translate(1 -46.014)" stroke="#000" stroke-width="1.2"/>
            </g>
          </g>
        </g>
      </g>
    </g>
  </g>
</svg>
