<svg xmlns="http://www.w3.org/2000/svg" width="101" height="101" viewBox="0 0 101 101">
  <g id="Grupo_156603" data-name="Grupo 156603" transform="translate(-745 -6807)">
    <circle id="Elipse_1149" data-name="Elipse 1149" cx="50.5" cy="50.5" r="50.5" transform="translate(745 6807)" fill="#529d2e"/>
    <g id="clave" transform="translate(766.827 6824.752)">
      <path id="Trazado_216804" data-name="Trazado 216804" d="M69.658,0l7.326,21.251L69.658,43.386H53.5V5.336A5.336,5.336,0,0,1,58.836,0Z" transform="translate(-47.179)" fill="#fff"/>
      <path id="Trazado_216805" data-name="Trazado 216805" d="M221.945,17.076V43.386H190.25V0h14.669a5.317,5.317,0,0,1,1.489.214l4.616,10.61L221.738,15.6A5.326,5.326,0,0,1,221.945,17.076Z" transform="translate(-167.771)" fill="#d7d7d6"/>
      <g id="Grupo_153080" data-name="Grupo 153080" transform="translate(38.637 0.214)">
        <path id="Trazado_216806" data-name="Trazado 216806" d="M342.331,17.193H328.772A1.773,1.773,0,0,1,327,15.42V1.81a5.384,5.384,0,0,1,2.306,1.362l11.67,11.721a5.316,5.316,0,0,1,1.354,2.3Z" transform="translate(-327 -1.81)" fill="#b6b6b6"/>
      </g>
      <path id="Trazado_216807" data-name="Trazado 216807" d="M43.475,332.75l5.424,7.429-5.424,11.978H15V332.75Z" transform="translate(-13.228 -293.434)" fill="#ddf345"/>
      <g id="Grupo_153083" data-name="Grupo 153083" transform="translate(12.436 5.7)">
        <g id="Grupo_153081" data-name="Grupo 153081" transform="translate(3.545)">
          <path id="Trazado_216808" data-name="Trazado 216808" d="M141.748,48.245l1.563,2.524-1.563,1.02a2.956,2.956,0,0,0-2.954,2.954v3.92H135.25v-3.92A6.505,6.505,0,0,1,141.748,48.245Z" transform="translate(-135.25 -48.245)" fill="#926ba6"/>
        </g>
        <path id="Trazado_216809" data-name="Trazado 216809" d="M196.748,54.743v3.92H193.2v-3.92a2.956,2.956,0,0,0-2.954-2.954V48.245A6.505,6.505,0,0,1,196.748,54.743Z" transform="translate(-180.207 -48.245)" fill="#6a4080"/>
        <g id="Grupo_153082" data-name="Grupo 153082" transform="translate(0 8.42)">
          <path id="Trazado_216810" data-name="Trazado 216810" d="M115.293,119.5l4.315,10.634-4.315,7.089h-8.271a1.772,1.772,0,0,1-1.772-1.772V121.277a1.773,1.773,0,0,1,1.772-1.772Z" transform="translate(-105.25 -119.505)" fill="#ffa75a"/>
        </g>
        <path id="Trazado_216811" data-name="Trazado 216811" d="M200.293,121.277v14.179a1.772,1.772,0,0,1-1.772,1.772H190.25V119.5h8.271A1.773,1.773,0,0,1,200.293,121.277Z" transform="translate(-180.207 -111.085)" fill="#fc8116"/>
        <path id="Trazado_216812" data-name="Trazado 216812" d="M177.022,179.5l.886,1.772-.886,1.772a1.772,1.772,0,0,1,0-3.545Z" transform="translate(-166.979 -163.996)" fill="#926ba6"/>
        <path id="Trazado_216813" data-name="Trazado 216813" d="M192.022,181.277a1.772,1.772,0,0,1-1.772,1.772V179.5A1.773,1.773,0,0,1,192.022,181.277Z" transform="translate(-180.207 -163.996)" fill="#6a4080"/>
      </g>
      <path id="Trazado_216814" data-name="Trazado 216814" d="M256,332.75h28.475v19.407H256Z" transform="translate(-225.752 -293.434)" fill="#b0c710"/>
      <path id="Trazado_216815" data-name="Trazado 216815" d="M70.934,378.365a1.772,1.772,0,0,0-2.506,0l-1.355,1.355-1.355-1.355a1.772,1.772,0,0,0-2.506,2.506l1.355,1.355-1.355,1.355a1.772,1.772,0,1,0,2.506,2.506l1.355-1.355,1.355,1.355a1.772,1.772,0,0,0,2.506-2.506l-1.355-1.355,1.355-1.355A1.772,1.772,0,0,0,70.934,378.365Z" transform="translate(-55.284 -333.202)" fill="#afafaf"/>
      <path id="Trazado_216816" data-name="Trazado 216816" d="M175.087,378.365a1.772,1.772,0,0,0-2.506,0l-1.355,1.355-1.355-1.355a1.772,1.772,0,0,0-2.506,2.506l1.355,1.355-1.355,1.355a1.772,1.772,0,1,0,2.506,2.506l1.355-1.355,1.355,1.355a1.772,1.772,0,0,0,2.507-2.507l-1.355-1.355,1.355-1.355A1.772,1.772,0,0,0,175.087,378.365Z" transform="translate(-147.131 -333.202)" fill="#afafaf"/>
      <path id="Trazado_216817" data-name="Trazado 216817" d="M279.242,378.365a1.773,1.773,0,0,0-2.506,0l-1.355,1.355-1.355-1.355a1.772,1.772,0,0,0-2.506,2.506l1.355,1.355-1.355,1.355a1.772,1.772,0,1,0,2.506,2.506l1.355-1.355,1.355,1.355a1.772,1.772,0,0,0,2.506-2.506l-1.355-1.355,1.355-1.355A1.772,1.772,0,0,0,279.242,378.365Z" transform="translate(-238.98 -333.202)" fill="#fcd03e"/>
      <path id="Trazado_216818" data-name="Trazado 216818" d="M382.041,382.227l1.355-1.355a1.772,1.772,0,0,0-2.506-2.506l-1.355,1.355-1.355-1.355a1.772,1.772,0,1,0-2.506,2.506l1.355,1.355-1.355,1.355a1.772,1.772,0,1,0,2.506,2.506l1.355-1.355,1.355,1.355a1.772,1.772,0,1,0,2.506-2.506Z" transform="translate(-330.827 -333.202)" fill="#fcd03e"/>
      <g id="Grupo_153084" data-name="Grupo 153084" transform="translate(0 37.544)">
        <path id="Trazado_216819" data-name="Trazado 216819" d="M30.248,321.295l1.21-2.089-1.21-1.455H1.772A1.773,1.773,0,0,0,0,319.522v19.407A1.773,1.773,0,0,0,1.772,340.7H30.248l1.567-1.976-1.567-1.568H3.545V321.295Z" transform="translate(0 -317.75)" fill="#525c5e"/>
      </g>
      <path id="Trazado_216820" data-name="Trazado 216820" d="M286.248,319.522v19.407a1.773,1.773,0,0,1-1.772,1.772H256v-3.545h26.7V321.295H256V317.75h28.475A1.773,1.773,0,0,1,286.248,319.522Z" transform="translate(-225.752 -280.206)" fill="#525c5e"/>
    </g>
  </g>
</svg>
