<svg xmlns="http://www.w3.org/2000/svg" width="101" height="101" viewBox="0 0 101 101">
  <g id="Grupo_156607" data-name="Grupo 156607" transform="translate(-745 -6323)">
    <circle id="Elipse_1147" data-name="Elipse 1147" cx="50.5" cy="50.5" r="50.5" transform="translate(745 6323)" fill="#b0c710"/>
    <g id="banco" transform="translate(765.055 6341.898)">
      <rect id="Rectángulo_43524" data-name="Rectángulo 43524" width="38.559" height="30.674" transform="translate(11.892 27.733)" fill="#525c5e"/>
      <rect id="Rectángulo_43525" data-name="Rectángulo 43525" width="38.559" height="7.091" transform="translate(11.892 27.733)" fill="#484e4f"/>
      <path id="Trazado_216750" data-name="Trazado 216750" d="M217.359,320.91v9.078H205.127V320.91a6.116,6.116,0,0,1,12.232,0Z" transform="translate(-180.647 -277.228)" fill="#b58360"/>
      <path id="Trazado_216751" data-name="Trazado 216751" d="M249.635,314.887v15.1h-2.114v-15.1a6.142,6.142,0,0,1,2.114,0Z" transform="translate(-217.982 -277.228)" fill="#996a4a"/>
      <rect id="Rectángulo_43526" data-name="Rectángulo 43526" width="15.335" height="3.872" transform="translate(22.928 51.972)" fill="#c6cad5"/>
      <g id="Grupo_153054" data-name="Grupo 153054" transform="translate(6.655 1.87)">
        <rect id="Rectángulo_43527" data-name="Rectángulo 43527" width="20.087" height="4.04" transform="translate(13.897 52.683)" fill="#e3e4e8"/>
        <path id="Trazado_216752" data-name="Trazado 216752" d="M103.65,32.4v8.387H55.769V32.4L79.71,15.672Z" transform="translate(-55.769 -15.672)" fill="#e3e4e8"/>
        <rect id="Rectángulo_43528" data-name="Rectángulo 43528" width="7.56" height="20.9" transform="translate(1.456 30.96)" fill="#e3e4e8"/>
      </g>
      <g id="Grupo_153055" data-name="Grupo 153055" transform="translate(8.112 32.83)">
        <rect id="Rectángulo_43529" data-name="Rectángulo 43529" width="7.56" height="4.238" fill="#c6cad5"/>
        <rect id="Rectángulo_43530" data-name="Rectángulo 43530" width="3.032" height="20.9" fill="#c6cad5"/>
      </g>
      <rect id="Rectángulo_43531" data-name="Rectángulo 43531" width="11.222" height="6.85" transform="translate(6.281 27.923)" fill="#e3e4e8"/>
      <rect id="Rectángulo_43532" data-name="Rectángulo 43532" width="3.347" height="4.984" transform="translate(6.281 29.79)" fill="#c6cad5"/>
      <rect id="Rectángulo_43533" data-name="Rectángulo 43533" width="11.222" height="6.619" transform="translate(6.281 51.787)" fill="#e3e4e8"/>
      <rect id="Rectángulo_43534" data-name="Rectángulo 43534" width="3.347" height="4.984" transform="translate(6.281 51.787)" fill="#c6cad5"/>
      <rect id="Rectángulo_43535" data-name="Rectángulo 43535" width="7.56" height="20.9" transform="translate(45.519 32.83)" fill="#e3e4e8"/>
      <g id="Grupo_153056" data-name="Grupo 153056" transform="translate(45.519 32.83)">
        <rect id="Rectángulo_43536" data-name="Rectángulo 43536" width="3.032" height="20.9" fill="#c6cad5"/>
        <rect id="Rectángulo_43537" data-name="Rectángulo 43537" width="7.56" height="4.238" fill="#c6cad5"/>
      </g>
      <rect id="Rectángulo_43538" data-name="Rectángulo 43538" width="11.222" height="6.85" transform="translate(43.688 27.923)" fill="#e3e4e8"/>
      <g id="Grupo_153057" data-name="Grupo 153057" transform="translate(6.281 27.923)">
        <rect id="Rectángulo_43539" data-name="Rectángulo 43539" width="11.222" height="3.783" fill="#c6cad5"/>
        <rect id="Rectángulo_43540" data-name="Rectángulo 43540" width="11.222" height="3.783" transform="translate(37.407)" fill="#c6cad5"/>
        <rect id="Rectángulo_43541" data-name="Rectángulo 43541" width="3.347" height="4.984" transform="translate(37.407 1.867)" fill="#c6cad5"/>
      </g>
      <rect id="Rectángulo_43542" data-name="Rectángulo 43542" width="11.222" height="6.619" transform="translate(43.688 51.787)" fill="#e3e4e8"/>
      <g id="Grupo_153058" data-name="Grupo 153058" transform="translate(6.655 4.115)">
        <rect id="Rectángulo_43543" data-name="Rectángulo 43543" width="3.347" height="4.984" transform="translate(37.032 47.672)" fill="#c6cad5"/>
        <path id="Trazado_216753" data-name="Trazado 216753" d="M103.65,49.268V55.03L79.71,40.243,55.769,55.03V49.268L79.71,34.481Z" transform="translate(-55.769 -34.481)" fill="#c6cad5"/>
      </g>
      <path id="Trazado_216754" data-name="Trazado 216754" d="M62.293,24.553,31.87,5.763,1.447,24.553V18.791L31.87,0,62.293,18.791Z" transform="translate(-1.274)" fill="#e3e4e8"/>
      <path id="Trazado_216755" data-name="Trazado 216755" d="M58.978,475.711H2.124A2.124,2.124,0,0,0,0,477.835v2.207H61.1v-2.207A2.124,2.124,0,0,0,58.978,475.711Z" transform="translate(0 -418.94)" fill="#423e3e"/>
      <rect id="Rectángulo_43544" data-name="Rectángulo 43544" width="52.557" height="4.676" transform="translate(4.317 25.114)" fill="#c0c4d1"/>
      <path id="Trazado_216756" data-name="Trazado 216756" d="M233.488,86.048c0-1.871-1.237-2.616-2.477-3.115V80.14c.715.153,1.026.506,1.39.506.566,0,.811-.7.811-1.056,0-.772-1.227-1.092-2.2-1.183V77.6a.935.935,0,1,0-1.871,0v.882a2.873,2.873,0,0,0-2.553,2.913c0,1.765,1.281,2.424,2.553,2.918v3.121c-1.033-.282-1.455-1.067-1.972-1.067-.474,0-.857.643-.857,1.071,0,.791,1.188,1.7,2.828,1.87v.838a.935.935,0,1,0,1.871,0V89.2A3.054,3.054,0,0,0,233.488,86.048Zm-5.034-4.85a.981.981,0,0,1,.687-.923V82.2A1.09,1.09,0,0,1,228.454,81.2Zm2.557,6.111V85.13a1.273,1.273,0,0,1,.61,1.117A1.145,1.145,0,0,1,231.011,87.309Z" transform="translate(-199.304 -67.518)" fill="#727b7c"/>
    </g>
  </g>
</svg>
