<svg xmlns="http://www.w3.org/2000/svg" width="101" height="101" viewBox="0 0 101 101">
  <g id="Grupo_156609" data-name="Grupo 156609" transform="translate(-745 -6001)">
    <circle id="Elipse_1142" data-name="Elipse 1142" cx="50.5" cy="50.5" r="50.5" transform="translate(745 6001)" fill="#b0c710"/>
    <g id="tarjeta-de-credito_1_" data-name="tarjeta-de-credito(1)" transform="translate(760.109 5957.895)">
      <path id="Trazado_216712" data-name="Trazado 216712" d="M56.828,110.588H3.086A3.086,3.086,0,0,1,0,107.5V73.839a3.086,3.086,0,0,1,3.086-3.086H56.828a3.086,3.086,0,0,1,3.086,3.086V107.5A3.086,3.086,0,0,1,56.828,110.588Z" transform="translate(0 0)" fill="#636363"/>
      <path id="Trazado_216713" data-name="Trazado 216713" d="M379.583,70.753H375.27a3.086,3.086,0,0,1,3.086,3.086V107.5a3.086,3.086,0,0,1-3.086,3.086h4.313a3.086,3.086,0,0,0,3.086-3.086V73.839A3.086,3.086,0,0,0,379.583,70.753Z" transform="translate(-321.317)" fill="#636363"/>
      <g id="Grupo_153048" data-name="Grupo 153048" transform="translate(3.86 102.304)">
        <path id="Trazado_216714" data-name="Trazado 216714" d="M47.674,292.366H27.923a1.078,1.078,0,1,1,0-2.157H47.674a1.078,1.078,0,1,1,0,2.157Z" transform="translate(-26.845 -290.209)" fill="#7a6d79"/>
      </g>
      <g id="Grupo_153049" data-name="Grupo 153049" transform="translate(3.86 96.374)">
        <path id="Trazado_216715" data-name="Trazado 216715" d="M37.8,251.117h-9.88a1.078,1.078,0,1,1,0-2.157H37.8a1.078,1.078,0,1,1,0,2.157Z" transform="translate(-26.845 -248.96)" fill="#7a6d79"/>
      </g>
      <path id="Trazado_216716" data-name="Trazado 216716" d="M42.991,124.69H35.579a1.234,1.234,0,0,1-1.234-1.234v-7.411a1.234,1.234,0,0,1,1.234-1.234h7.411a1.234,1.234,0,0,1,1.234,1.234v7.411A1.234,1.234,0,0,1,42.991,124.69Z" transform="translate(-29.407 -37.723)" fill="#fee97d"/>
      <path id="Trazado_216717" data-name="Trazado 216717" d="M127.092,189.006H73.35a3.086,3.086,0,0,1-3.086-3.086V161.763l1.438-2.52L70.264,155.5v-3.248a3.086,3.086,0,0,1,3.086-3.086h53.742a3.086,3.086,0,0,1,3.086,3.086v33.663A3.086,3.086,0,0,1,127.092,189.006Z" transform="translate(-60.162 -67.143)" fill="#ecf4fe"/>
      <path id="Trazado_216718" data-name="Trazado 216718" d="M449.847,149.171h-4.313a3.086,3.086,0,0,1,3.086,3.086V185.92a3.086,3.086,0,0,1-3.086,3.086h4.313a3.086,3.086,0,0,0,3.086-3.086V161.764l-1.438-3.13,1.438-3.13v-3.248A3.086,3.086,0,0,0,449.847,149.171Z" transform="translate(-381.479 -67.144)" fill="#d9ebfe"/>
      <path id="Trazado_216719" data-name="Trazado 216719" d="M127.3,199.487H70.264v-6.259H127.3l1.438,3.13Z" transform="translate(-60.162 -104.867)" fill="#7a6d79"/>
      <path id="Trazado_216720" data-name="Trazado 216720" d="M467,193.228h4.313v6.259H467Z" transform="translate(-399.859 -104.867)" fill="#685e68"/>
      <g id="Grupo_153050" data-name="Grupo 153050" transform="translate(59.676 99.688)">
        <path id="Trazado_216721" data-name="Trazado 216721" d="M421.464,274.167h-5.308a1.078,1.078,0,0,1,0-2.157h5.308a1.078,1.078,0,0,1,0,2.157Z" transform="translate(-415.077 -272.01)" fill="#7acaa6"/>
      </g>
      <g id="Grupo_153051" data-name="Grupo 153051" transform="translate(50.497 99.688)">
        <path id="Trazado_216722" data-name="Trazado 216722" d="M357.617,274.167h-5.308a1.078,1.078,0,0,1,0-2.157h5.308a1.078,1.078,0,0,1,0,2.157Z" transform="translate(-351.23 -272.01)" fill="#7acaa6"/>
      </g>
      <g id="Grupo_153052" data-name="Grupo 153052" transform="translate(41.317 99.688)">
        <path id="Trazado_216723" data-name="Trazado 216723" d="M293.77,274.167h-5.308a1.078,1.078,0,1,1,0-2.157h5.308a1.078,1.078,0,0,1,0,2.157Z" transform="translate(-287.383 -272.01)" fill="#7acaa6"/>
      </g>
      <path id="Trazado_216724" data-name="Trazado 216724" d="M358.976,344.53h-7.411a1.234,1.234,0,0,1-1.234-1.234v-4.536a1.234,1.234,0,0,1,1.234-1.234h7.411a1.234,1.234,0,0,1,1.234,1.234V343.3A1.234,1.234,0,0,1,358.976,344.53Z" transform="translate(-299.963 -228.418)" fill="#7acaa6"/>
      <path id="Trazado_216725" data-name="Trazado 216725" d="M406.924,344.53h-7.411a1.234,1.234,0,0,1-1.234-1.234v-4.536a1.234,1.234,0,0,1,1.234-1.234h7.411a1.234,1.234,0,0,1,1.234,1.234V343.3A1.234,1.234,0,0,1,406.924,344.53Z" transform="translate(-341.017 -228.418)" fill="#7a6d79"/>
      <g id="Grupo_153053" data-name="Grupo 153053" transform="translate(15.431 109.51)">
        <path id="Trazado_216726" data-name="Trazado 216726" d="M118.265,342.486h-9.853a1.078,1.078,0,1,1,0-2.157h9.853a1.078,1.078,0,1,1,0,2.157Z" transform="translate(-107.333 -340.329)" fill="#7a6d79"/>
      </g>
    </g>
  </g>
</svg>
