<svg xmlns="http://www.w3.org/2000/svg" width="82.17" height="96.182" viewBox="0 0 82.17 96.182">
  <g id="Grupo_156316" data-name="Grupo 156316" transform="translate(-1129.334 -2131.175)">
    <path id="Trazado_598333" data-name="Trazado 598333" d="M388.133,292.224l-17.3,1.611L377.2,300.2l-14.733,14.733a2.055,2.055,0,1,0,2.906,2.906L380.1,303.11l6.419,6.421Z" transform="translate(767.471 1896.608)" fill="#529d2e"/>
    <path id="Trazado_598334" data-name="Trazado 598334" d="M659.315,258.188,625.77,261.31l12.344,12.348-28.557,28.557a3.983,3.983,0,1,0,5.632,5.634l28.559-28.559,12.443,12.445Z" transform="translate(552.189 1918.341)" fill="#fc8116"/>
    <path id="Trazado_598335" data-name="Trazado 598335" d="M576.572,168.785l-24.548,2.286,9.035,9.034L540.16,201a2.914,2.914,0,1,0,4.122,4.122l20.9-20.9,9.106,9.107Z" transform="translate(634.932 1962.39)" fill="#fcd03e"/>
  </g>
</svg>
