<svg xmlns="http://www.w3.org/2000/svg" xmlns:xlink="http://www.w3.org/1999/xlink" width="400" height="378.704" viewBox="0 0 400 378.704">
  <defs>
    <clipPath id="clip-path">
      <rect id="Rectángulo_44372" data-name="Rectángulo 44372" width="152.395" height="163.331" fill="none"/>
    </clipPath>
    <clipPath id="clip-path-2">
      <path id="Trazado_598703" data-name="Trazado 598703" d="M23.344,96.657a54.4,54.4,0,1,0,54.4-54.4,54.4,54.4,0,0,0-54.4,54.4" transform="translate(-23.344 -42.259)" fill="none"/>
    </clipPath>
    <clipPath id="clip-path-4">
      <rect id="Rectángulo_44371" data-name="Rectángulo 44371" width="351.238" height="286.583" transform="translate(0 0)" fill="none"/>
    </clipPath>
  </defs>
  <g id="Grupo_156369" data-name="Grupo 156369" transform="translate(-1020 -2739.296)">
    <g id="Grupo_156368" data-name="Grupo 156368">
      <path id="Trazado_598715" data-name="Trazado 598715" d="M87,0H381V327L0,329V87A87,87,0,0,1,87,0Z" transform="translate(1039 2779)" fill="#ffecdc"/>
      <ellipse id="Elipse_5576" data-name="Elipse 5576" cx="200" cy="12" rx="200" ry="12" transform="translate(1020 3094)" fill="#dadada"/>
      <g id="Grupo_156366" data-name="Grupo 156366" transform="translate(1267.604 2739.296)">
        <g id="Grupo_156361" data-name="Grupo 156361">
          <g id="Grupo_156360" data-name="Grupo 156360" clip-path="url(#clip-path)">
            <path id="Trazado_598699" data-name="Trazado 598699" d="M165.283,225.183l-7.568-7.568a3.139,3.139,0,0,0-4.439,4.439l7.568,7.568a3.139,3.139,0,1,0,4.439-4.439" transform="translate(-56.723 -80.669)" fill="#529d2e"/>
            <path id="Trazado_598700" data-name="Trazado 598700" d="M50.959,229.863l7.169-7.169a3.239,3.239,0,0,0,.92-2.22,3.139,3.139,0,0,0-5.359-2.219l-7.169,7.169a3.237,3.237,0,0,0-.92,2.219,3.139,3.139,0,0,0,5.359,2.22" transform="translate(-16.974 -80.911)" fill="#529d2e"/>
            <path id="Trazado_598701" data-name="Trazado 598701" d="M138.106,87.968A69.053,69.053,0,1,1,69.053,18.915a69.053,69.053,0,0,1,69.053,69.053" transform="translate(0 -7.041)" fill="#529d2e"/>
            <path id="Trazado_598702" data-name="Trazado 598702" d="M132.141,96.658a54.4,54.4,0,1,1-54.4-54.4,54.4,54.4,0,0,1,54.4,54.4" transform="translate(-8.69 -15.731)" fill="#f6f6f6"/>
          </g>
        </g>
        <g id="Grupo_156363" data-name="Grupo 156363" transform="translate(14.654 26.528)">
          <g id="Grupo_156362" data-name="Grupo 156362" clip-path="url(#clip-path-2)">
            <line id="Línea_424" data-name="Línea 424" y1="110.589" x2="110.589" transform="translate(-7.39 -23.241)" fill="none" stroke="#fbfbfb" stroke-miterlimit="10" stroke-width="14.809"/>
            <line id="Línea_425" data-name="Línea 425" y1="110.589" x2="110.589" transform="translate(10.719 9.78)" fill="none" stroke="#fbfbfb" stroke-miterlimit="10" stroke-width="74.045"/>
          </g>
        </g>
        <g id="Grupo_156365" data-name="Grupo 156365">
          <g id="Grupo_156364" data-name="Grupo 156364" clip-path="url(#clip-path)">
            <path id="Trazado_598704" data-name="Trazado 598704" d="M105.372,73.855v33.288a2.905,2.905,0,1,0,5.81,0V73.855a2.905,2.905,0,1,0-5.81,0" transform="translate(-39.224 -26.41)" fill="#fc8116"/>
            <path id="Trazado_598705" data-name="Trazado 598705" d="M94,125.7,76.516,143.188l-3.021,3.021a2.905,2.905,0,1,0,4.108,4.109l17.484-17.484,3.022-3.021A2.905,2.905,0,1,0,94,125.7" transform="translate(-27.046 -46.484)" fill="#fc8116"/>
            <path id="Trazado_598706" data-name="Trazado 598706" d="M162.485,72.384l-3.646,3.647a.726.726,0,0,0,1.027,1.027l3.646-3.647a.726.726,0,1,0-1.027-1.027" transform="translate(-59.049 -26.868)" fill="#7966ff"/>
            <path id="Trazado_598707" data-name="Trazado 598707" d="M57.115,177.755,53.469,181.4a.726.726,0,0,0,1.027,1.028l3.646-3.647a.726.726,0,1,0-1.027-1.027" transform="translate(-19.826 -66.091)" fill="#7966ff"/>
            <path id="Trazado_598708" data-name="Trazado 598708" d="M163.513,181.4l-3.646-3.646a.726.726,0,0,0-1.028,1.027l3.647,3.646a.726.726,0,0,0,1.027-1.027" transform="translate(-59.05 -66.09)" fill="#7966ff"/>
            <path id="Trazado_598709" data-name="Trazado 598709" d="M58.143,76.03,54.5,72.384a.726.726,0,0,0-1.028,1.027l3.647,3.646a.726.726,0,1,0,1.027-1.027" transform="translate(-19.826 -26.867)" fill="#7966ff"/>
            <path id="Trazado_598710" data-name="Trazado 598710" d="M108.276,208.712a2.905,2.905,0,1,0-2.905-2.905,2.938,2.938,0,0,0,2.905,2.905" transform="translate(-39.223 -75.53)" fill="#7966ff"/>
            <path id="Trazado_598711" data-name="Trazado 598711" d="M108.276,51.481a2.905,2.905,0,1,0-2.905-2.905,2.938,2.938,0,0,0,2.905,2.905" transform="translate(-39.223 -17.001)" fill="#7966ff"/>
            <path id="Trazado_598712" data-name="Trazado 598712" d="M29.661,130.1a2.905,2.905,0,1,0-2.905-2.905,2.938,2.938,0,0,0,2.905,2.905" transform="translate(-9.959 -46.265)" fill="#7966ff"/>
            <path id="Trazado_598713" data-name="Trazado 598713" d="M186.891,130.1a2.905,2.905,0,1,0-2.905-2.905,2.938,2.938,0,0,0,2.905,2.905" transform="translate(-68.487 -46.265)" fill="#7966ff"/>
            <path id="Trazado_598714" data-name="Trazado 598714" d="M113.032,124.5a7.45,7.45,0,1,1-7.45-7.45,7.45,7.45,0,0,1,7.45,7.45" transform="translate(-36.529 -43.57)" fill="#193f87"/>
          </g>
        </g>
      </g>
      <g id="Grupo_156359" data-name="Grupo 156359" transform="translate(1056.763 2820.964)">
        <g id="Grupo_156358" data-name="Grupo 156358" transform="translate(0 -0.002)" clip-path="url(#clip-path-4)">
          <path id="Trazado_598566" data-name="Trazado 598566" d="M49.8,584.461s-6.9-26.439-2.277-39.377,19.078-22.513,18.5-30.64-9.864-30.094-2.3-46.449c0,0,2.875,14.588,5.712,17.833S91.747,502.16,88.3,519.443s-22.379,21.323-27.041,26.411S50.3,550.936,50.26,554.319s-1.267,15.684.823,27.822Z" transform="translate(-36.86 -375.547)" fill="#3c8f7c"/>
          <path id="Trazado_598567" data-name="Trazado 598567" d="M75.5,485.828c2.837,3.245,22.307,16.332,18.856,33.615S71.972,540.766,67.31,545.854s-10.955,5.082-10.994,8.465-1.267,15.684.823,27.822l-.559,1.013a154.878,154.878,0,0,1-2.9-17.429c-.752-8.9.689-12.579,3.549-19.786s20.627-21.885,25.079-29.6-8.585-20.618-11.478-26.846-1.044-21.5-1.044-21.5,2.875,14.588,5.712,17.833" transform="translate(-42.916 -375.547)" fill="#327f6b"/>
          <path id="Trazado_598568" data-name="Trazado 598568" d="M1238.289,1183.459c-9.047,4.224-6.606,14.712-6.606,14.712s-24.529-19.087-33.7-7.946-4.351,32.979,6.4,36.529,104.3,1.062,104.3,1.062-62.262-48.155-70.4-44.356" transform="translate(-957.45 -949.507)" fill="#96d9c9"/>
          <path id="Trazado_598569" data-name="Trazado 598569" d="M1479.018,1081.443s-40.88-8.389-49.8-16.559-4.971-11.356-4.971-11.356-15.71-12.376-15.464-20.457,10.48-3.981,10.48-3.981-17.347-22.26-13.232-26.494c7.664-7.885,27.72,15.253,27.72,15.253s-5.952-11.007.327-12.754c9.47-2.636,16.435,24.511,16.435,24.511s-1.766-10.721,4.76-9.3c11.711,2.553,23.742,61.135,23.742,61.135" transform="translate(-1127.78 -803.229)" fill="#50bfa5"/>
          <path id="Trazado_598570" data-name="Trazado 598570" d="M1646.458,376.893l24.761,204.278L1667.685,585l-21.208-84.713Z" transform="translate(-1321.217 -302.441)" fill="#b75742"/>
          <path id="Trazado_598571" data-name="Trazado 598571" d="M1512.326,253.859l24.239,228.628h-53.5l13.291-233.336Z" transform="translate(-1190.097 -199.934)" fill="#355389"/>
          <path id="Trazado_598572" data-name="Trazado 598572" d="M361.213,487.761H62.513c-5.108,0-9.531-4.376-9.88-9.776L39.025,267.2c-.295-4.564,2.966-8.264,7.284-8.264h300.13a8.712,8.712,0,0,1,8.352,8.264L368.5,479.5c.295,4.564-2.967,8.264-7.285,8.264" transform="translate(-31.301 -207.786)" fill="#d3cece"/>
          <path id="Trazado_598573" data-name="Trazado 598573" d="M1550.128,249.891l.042-.74,17.357,1.545,22.856,231.792h-2.552l-24.239-228.628Z" transform="translate(-1243.917 -199.933)" fill="#184655"/>
          <path id="Trazado_598574" data-name="Trazado 598574" d="M1497.954,325.353l12.938,195.474c-.392,4.777-4.588,6.087-7.014,6.087H1465.1l23.143-219.185Z" transform="translate(-1175.682 -246.94)" fill="#e8e8e8"/>
          <path id="Trazado_598575" data-name="Trazado 598575" d="M1443.833,514.5h20.157a4.812,4.812,0,0,0,4.75-5.45l-1.87-20.983a5.964,5.964,0,0,0-5.721-5.45h-20.157a4.812,4.812,0,0,0-4.75,5.45l1.871,20.983a5.965,5.965,0,0,0,5.721,5.45" transform="translate(-1152.508 -387.281)" fill="#9bc1f9"/>
          <path id="Trazado_598576" data-name="Trazado 598576" d="M1223.883,514.5h20.157a4.812,4.812,0,0,0,4.75-5.45l-1.87-20.983a5.965,5.965,0,0,0-5.721-5.45h-20.157a4.812,4.812,0,0,0-4.75,5.45l1.87,20.983a5.965,5.965,0,0,0,5.722,5.45" transform="translate(-976.007 -387.281)" fill="#9bc1f9"/>
          <path id="Trazado_598577" data-name="Trazado 598577" d="M1003.934,514.5h20.157a4.812,4.812,0,0,0,4.75-5.45l-1.871-20.983a5.965,5.965,0,0,0-5.722-5.45h-20.157a4.812,4.812,0,0,0-4.75,5.45l1.871,20.983a5.964,5.964,0,0,0,5.721,5.45" transform="translate(-799.507 -387.281)" fill="#9bc1f9"/>
          <path id="Trazado_598578" data-name="Trazado 598578" d="M783.985,514.5h20.157a4.812,4.812,0,0,0,4.749-5.45l-1.87-20.983a5.965,5.965,0,0,0-5.721-5.45H781.143a4.812,4.812,0,0,0-4.749,5.45l1.871,20.983a5.964,5.964,0,0,0,5.721,5.45" transform="translate(-623.006 -387.281)" fill="#9bc1f9"/>
          <path id="Trazado_598579" data-name="Trazado 598579" d="M564.035,514.5h20.157a4.812,4.812,0,0,0,4.75-5.45l-1.87-20.983a5.965,5.965,0,0,0-5.722-5.45H561.193a4.812,4.812,0,0,0-4.75,5.45l1.871,20.983a5.964,5.964,0,0,0,5.721,5.45" transform="translate(-446.505 -387.281)" fill="#9bc1f9"/>
          <path id="Trazado_598580" data-name="Trazado 598580" d="M344.086,514.5h20.157a4.812,4.812,0,0,0,4.75-5.45l-1.871-20.983a5.964,5.964,0,0,0-5.721-5.45H341.244a4.812,4.812,0,0,0-4.75,5.45l1.871,20.983a5.964,5.964,0,0,0,5.721,5.45" transform="translate(-270.005 -387.281)" fill="#f47458"/>
          <path id="Trazado_598581" data-name="Trazado 598581" d="M124.137,514.5h20.157a4.812,4.812,0,0,0,4.75-5.45l-1.871-20.983a5.964,5.964,0,0,0-5.721-5.45H121.295a4.812,4.812,0,0,0-4.75,5.45l1.871,20.983a5.964,5.964,0,0,0,5.721,5.45" transform="translate(-93.505 -387.281)" fill="#f47458"/>
          <path id="Trazado_598582" data-name="Trazado 598582" d="M1465.5,757.5h20.157a4.812,4.812,0,0,0,4.75-5.45l-1.87-20.983a5.965,5.965,0,0,0-5.722-5.45h-20.157a4.812,4.812,0,0,0-4.75,5.45l1.871,20.983a5.964,5.964,0,0,0,5.721,5.45" transform="translate(-1169.892 -582.281)" fill="#9bc1f9"/>
          <path id="Trazado_598583" data-name="Trazado 598583" d="M1245.547,757.5H1265.7a4.812,4.812,0,0,0,4.75-5.45l-1.87-20.983a5.965,5.965,0,0,0-5.722-5.45H1242.7a4.812,4.812,0,0,0-4.75,5.45l1.871,20.983a5.964,5.964,0,0,0,5.721,5.45" transform="translate(-993.392 -582.281)" fill="#9bc1f9"/>
          <path id="Trazado_598584" data-name="Trazado 598584" d="M1025.6,757.5h20.157a4.812,4.812,0,0,0,4.75-5.45l-1.87-20.983a5.965,5.965,0,0,0-5.721-5.45h-20.157a4.812,4.812,0,0,0-4.75,5.45l1.871,20.983a5.965,5.965,0,0,0,5.721,5.45" transform="translate(-816.891 -582.281)" fill="#9bc1f9"/>
          <path id="Trazado_598585" data-name="Trazado 598585" d="M805.648,757.5H825.8a4.812,4.812,0,0,0,4.749-5.45l-1.87-20.983a5.964,5.964,0,0,0-5.721-5.45H802.806a4.812,4.812,0,0,0-4.75,5.45l1.87,20.983a5.965,5.965,0,0,0,5.722,5.45" transform="translate(-640.39 -582.281)" fill="#9bc1f9"/>
          <path id="Trazado_598586" data-name="Trazado 598586" d="M585.7,757.5h20.157a4.812,4.812,0,0,0,4.75-5.45l-1.871-20.983a5.965,5.965,0,0,0-5.721-5.45H582.857a4.812,4.812,0,0,0-4.75,5.45l1.87,20.983a5.965,5.965,0,0,0,5.721,5.45" transform="translate(-463.89 -582.281)" fill="#9bc1f9"/>
          <path id="Trazado_598587" data-name="Trazado 598587" d="M365.749,757.5h20.157a4.812,4.812,0,0,0,4.75-5.45l-1.87-20.983a5.965,5.965,0,0,0-5.721-5.45H362.907a4.812,4.812,0,0,0-4.75,5.45l1.871,20.983a5.965,5.965,0,0,0,5.721,5.45" transform="translate(-287.389 -582.281)" fill="#f47458"/>
          <path id="Trazado_598588" data-name="Trazado 598588" d="M145.8,757.5h20.157a4.812,4.812,0,0,0,4.75-5.45l-1.871-20.983a5.964,5.964,0,0,0-5.721-5.45H142.958a4.812,4.812,0,0,0-4.75,5.45l1.871,20.983a5.965,5.965,0,0,0,5.721,5.45" transform="translate(-110.888 -582.281)" fill="#f47458"/>
          <path id="Trazado_598589" data-name="Trazado 598589" d="M1487.16,1000.505h20.157a4.812,4.812,0,0,0,4.75-5.45l-1.871-20.982a5.964,5.964,0,0,0-5.721-5.45h-20.157a4.812,4.812,0,0,0-4.75,5.45l1.87,20.982a5.965,5.965,0,0,0,5.721,5.45" transform="translate(-1187.277 -777.281)" fill="#b0c7a5"/>
          <path id="Trazado_598590" data-name="Trazado 598590" d="M1267.21,1000.505h20.157a4.812,4.812,0,0,0,4.75-5.45l-1.87-20.982a5.965,5.965,0,0,0-5.722-5.45h-20.157a4.812,4.812,0,0,0-4.75,5.45l1.871,20.982a5.965,5.965,0,0,0,5.721,5.45" transform="translate(-1010.775 -777.281)" fill="#9bc1f9"/>
          <path id="Trazado_598591" data-name="Trazado 598591" d="M1047.26,1000.505h20.157a4.812,4.812,0,0,0,4.749-5.45l-1.87-20.982a5.965,5.965,0,0,0-5.722-5.45h-20.156a4.813,4.813,0,0,0-4.75,5.45l1.871,20.982a5.964,5.964,0,0,0,5.721,5.45" transform="translate(-834.274 -777.281)" fill="#9bc1f9"/>
          <path id="Trazado_598592" data-name="Trazado 598592" d="M827.311,1000.505h20.157a4.812,4.812,0,0,0,4.75-5.45l-1.871-20.982a5.964,5.964,0,0,0-5.721-5.45H824.469a4.812,4.812,0,0,0-4.75,5.45l1.871,20.982a5.965,5.965,0,0,0,5.721,5.45" transform="translate(-657.774 -777.281)" fill="#9bc1f9"/>
          <path id="Trazado_598593" data-name="Trazado 598593" d="M607.362,1000.505h20.157a4.812,4.812,0,0,0,4.75-5.45L630.4,974.073a5.965,5.965,0,0,0-5.721-5.45H604.52a4.812,4.812,0,0,0-4.75,5.45l1.87,20.982a5.965,5.965,0,0,0,5.721,5.45" transform="translate(-481.274 -777.281)" fill="#9bc1f9"/>
          <path id="Trazado_598594" data-name="Trazado 598594" d="M387.413,1000.505H407.57a4.813,4.813,0,0,0,4.75-5.45l-1.871-20.982a5.964,5.964,0,0,0-5.722-5.45H384.571a4.812,4.812,0,0,0-4.749,5.45l1.871,20.982a5.965,5.965,0,0,0,5.721,5.45" transform="translate(-304.773 -777.281)" fill="#f47458"/>
          <path id="Trazado_598595" data-name="Trazado 598595" d="M167.463,1000.505H187.62a4.812,4.812,0,0,0,4.75-5.45l-1.87-20.982a5.965,5.965,0,0,0-5.722-5.45H164.621a4.812,4.812,0,0,0-4.75,5.45l1.871,20.982a5.965,5.965,0,0,0,5.721,5.45" transform="translate(-128.272 -777.281)" fill="#f47458"/>
          <path id="Trazado_598596" data-name="Trazado 598596" d="M1508.823,1243.508h20.157a4.812,4.812,0,0,0,4.75-5.45l-1.871-20.983a5.964,5.964,0,0,0-5.721-5.45H1505.98a4.812,4.812,0,0,0-4.75,5.45l1.871,20.983a5.964,5.964,0,0,0,5.721,5.45" transform="translate(-1204.66 -972.282)" fill="#b0c7a5"/>
          <path id="Trazado_598597" data-name="Trazado 598597" d="M1288.874,1243.508h20.157a4.812,4.812,0,0,0,4.75-5.45l-1.87-20.983a5.965,5.965,0,0,0-5.722-5.45h-20.157a4.812,4.812,0,0,0-4.749,5.45l1.87,20.983a5.964,5.964,0,0,0,5.721,5.45" transform="translate(-1028.16 -972.282)" fill="#9bc1f9"/>
          <path id="Trazado_598598" data-name="Trazado 598598" d="M1068.925,1243.508h20.157a4.812,4.812,0,0,0,4.75-5.45l-1.871-20.983a5.964,5.964,0,0,0-5.721-5.45h-20.157a4.812,4.812,0,0,0-4.75,5.45l1.87,20.983a5.965,5.965,0,0,0,5.721,5.45" transform="translate(-851.66 -972.282)" fill="#9bc1f9"/>
          <path id="Trazado_598599" data-name="Trazado 598599" d="M848.974,1243.508h20.157a4.812,4.812,0,0,0,4.749-5.45l-1.871-20.983a5.965,5.965,0,0,0-5.722-5.45H846.132a4.812,4.812,0,0,0-4.75,5.45l1.871,20.983a5.965,5.965,0,0,0,5.722,5.45" transform="translate(-675.158 -972.282)" fill="#9bc1f9"/>
          <path id="Trazado_598600" data-name="Trazado 598600" d="M629.025,1243.508h20.157a4.812,4.812,0,0,0,4.75-5.45l-1.871-20.983a5.964,5.964,0,0,0-5.721-5.45H626.183a4.812,4.812,0,0,0-4.75,5.45l1.871,20.983a5.964,5.964,0,0,0,5.721,5.45" transform="translate(-498.657 -972.282)" fill="#9bc1f9"/>
          <path id="Trazado_598601" data-name="Trazado 598601" d="M18.47,555.311h298.7a9.594,9.594,0,0,0,9.465-9.41L331.3,343.013a7.673,7.673,0,0,0-7.635-7.954H23.532a8.11,8.11,0,0,0-8,7.954l-4.7,204.344a7.673,7.673,0,0,0,7.635,7.954" transform="translate(-8.693 -268.87)" fill="#e0c8a9"/>
          <path id="Trazado_598602" data-name="Trazado 598602" d="M7.637,556.029h298.7a9.594,9.594,0,0,0,9.465-9.41l4.662-202.889a7.672,7.672,0,0,0-7.635-7.954H12.7a8.11,8.11,0,0,0-8,7.954L0,548.074a7.672,7.672,0,0,0,7.635,7.955" transform="translate(0 -269.446)" fill="#fef8f8"/>
          <path id="Trazado_598603" data-name="Trazado 598603" d="M51.632,180.243H330.446a16.975,16.975,0,0,1,17.266,18.32l-1.874,27.143H29.963l1.874-27.143a20.049,20.049,0,0,1,19.8-18.32" transform="translate(-24.044 -144.637)" fill="#b75742"/>
          <path id="Trazado_598604" data-name="Trazado 598604" d="M44.345,180.243H323.159a16.975,16.975,0,0,1,17.266,18.32l-1.874,27.143H22.676l1.874-27.143a20.049,20.049,0,0,1,19.8-18.32" transform="translate(-18.197 -144.637)" fill="#fc8116"/>
          <path id="Trazado_598605" data-name="Trazado 598605" d="M1404.552,535.071h20.157a5.533,5.533,0,0,0,5.413-5.393l.685-20.761a5.11,5.11,0,0,0-5.058-5.393h-20.157a5.533,5.533,0,0,0-5.413,5.393l-.685,20.761a5.11,5.11,0,0,0,5.058,5.393" transform="translate(-1123.036 -404.059)" fill="#f47458"/>
          <path id="Trazado_598606" data-name="Trazado 598606" d="M1184.6,535.071h20.157a5.533,5.533,0,0,0,5.413-5.393l.684-20.761a5.11,5.11,0,0,0-5.058-5.393h-20.157a5.533,5.533,0,0,0-5.413,5.393l-.685,20.761a5.11,5.11,0,0,0,5.058,5.393" transform="translate(-946.535 -404.059)" fill="#e5f0e0"/>
          <path id="Trazado_598607" data-name="Trazado 598607" d="M964.653,535.071H984.81a5.533,5.533,0,0,0,5.413-5.393l.684-20.761a5.11,5.11,0,0,0-5.058-5.393H965.694a5.533,5.533,0,0,0-5.413,5.393l-.685,20.761a5.11,5.11,0,0,0,5.058,5.393" transform="translate(-770.035 -404.059)" fill="#e5f0e0"/>
          <path id="Trazado_598608" data-name="Trazado 598608" d="M744.7,535.071h20.157a5.533,5.533,0,0,0,5.413-5.393l.685-20.761a5.11,5.11,0,0,0-5.058-5.393H745.745a5.533,5.533,0,0,0-5.413,5.393l-.685,20.761a5.11,5.11,0,0,0,5.058,5.393" transform="translate(-593.535 -404.059)" fill="#e5f0e0"/>
          <path id="Trazado_598609" data-name="Trazado 598609" d="M524.755,535.071h20.157a5.533,5.533,0,0,0,5.413-5.393l.685-20.761a5.11,5.11,0,0,0-5.058-5.393H525.8a5.533,5.533,0,0,0-5.414,5.393l-.684,20.761a5.11,5.11,0,0,0,5.058,5.393" transform="translate(-417.034 -404.059)" fill="#e5f0e0"/>
          <path id="Trazado_598610" data-name="Trazado 598610" d="M304.8,535.071h20.157a5.533,5.533,0,0,0,5.413-5.393l.684-20.761A5.11,5.11,0,0,0,326,503.525H305.845a5.533,5.533,0,0,0-5.413,5.393l-.685,20.761a5.11,5.11,0,0,0,5.058,5.393" transform="translate(-240.532 -404.059)" fill="#e5f0e0"/>
          <path id="Trazado_598611" data-name="Trazado 598611" d="M84.855,535.071h20.157a5.533,5.533,0,0,0,5.413-5.393l.684-20.761a5.11,5.11,0,0,0-5.058-5.393H85.9a5.533,5.533,0,0,0-5.413,5.393L79.8,529.679a5.11,5.11,0,0,0,5.058,5.393" transform="translate(-64.032 -404.059)" fill="#fed4b3" opacity="0.3"/>
          <path id="Trazado_598612" data-name="Trazado 598612" d="M1396.625,775.512h20.157a5.533,5.533,0,0,0,5.413-5.392l.684-20.761a5.11,5.11,0,0,0-5.057-5.393h-20.157a5.533,5.533,0,0,0-5.413,5.393l-.684,20.761a5.11,5.11,0,0,0,5.058,5.392" transform="translate(-1116.675 -597.003)" fill="#f47458"/>
          <path id="Trazado_598613" data-name="Trazado 598613" d="M1176.675,775.512h20.157a5.533,5.533,0,0,0,5.413-5.392l.685-20.761a5.11,5.11,0,0,0-5.058-5.393h-20.157a5.533,5.533,0,0,0-5.413,5.393l-.685,20.761a5.11,5.11,0,0,0,5.058,5.392" transform="translate(-940.174 -597.003)" fill="#9bc1f9"/>
          <path id="Trazado_598614" data-name="Trazado 598614" d="M956.725,775.512h20.157a5.533,5.533,0,0,0,5.413-5.392l.685-20.761a5.11,5.11,0,0,0-5.058-5.393H957.766a5.533,5.533,0,0,0-5.414,5.393l-.684,20.761a5.11,5.11,0,0,0,5.058,5.392" transform="translate(-763.673 -597.003)" fill="#e5f0e0"/>
          <path id="Trazado_598615" data-name="Trazado 598615" d="M736.775,775.512h20.157a5.533,5.533,0,0,0,5.413-5.392l.685-20.761a5.11,5.11,0,0,0-5.058-5.393H737.816a5.533,5.533,0,0,0-5.414,5.393l-.685,20.761a5.11,5.11,0,0,0,5.058,5.392" transform="translate(-587.172 -597.003)" fill="#e5f0e0"/>
          <path id="Trazado_598616" data-name="Trazado 598616" d="M516.827,775.512h20.157a5.533,5.533,0,0,0,5.413-5.392l.685-20.761a5.11,5.11,0,0,0-5.058-5.393H517.867a5.533,5.533,0,0,0-5.413,5.393l-.684,20.761a5.11,5.11,0,0,0,5.058,5.392" transform="translate(-410.672 -597.003)" fill="#e5f0e0"/>
          <path id="Trazado_598617" data-name="Trazado 598617" d="M296.877,775.512h20.157a5.533,5.533,0,0,0,5.413-5.392l.685-20.761a5.11,5.11,0,0,0-5.058-5.393H297.918a5.533,5.533,0,0,0-5.413,5.393l-.685,20.761a5.11,5.11,0,0,0,5.058,5.392" transform="translate(-234.171 -597.003)" fill="#e5f0e0"/>
          <path id="Trazado_598618" data-name="Trazado 598618" d="M76.928,775.512H97.085a5.533,5.533,0,0,0,5.413-5.392l.685-20.761a5.11,5.11,0,0,0-5.058-5.393H77.969a5.533,5.533,0,0,0-5.414,5.393l-.684,20.761a5.11,5.11,0,0,0,5.058,5.392" transform="translate(-57.671 -597.003)" fill="#fed4b3" opacity="0.3"/>
          <path id="Trazado_598619" data-name="Trazado 598619" d="M1388.7,1015.955h20.157a5.533,5.533,0,0,0,5.413-5.393l.685-20.761a5.11,5.11,0,0,0-5.058-5.393h-20.157a5.533,5.533,0,0,0-5.413,5.393l-.684,20.761a5.11,5.11,0,0,0,5.057,5.393" transform="translate(-1110.314 -789.949)" fill="#f47458"/>
          <path id="Trazado_598620" data-name="Trazado 598620" d="M1168.746,1015.955H1188.9a5.533,5.533,0,0,0,5.413-5.393L1195,989.8a5.11,5.11,0,0,0-5.058-5.393h-20.157a5.533,5.533,0,0,0-5.413,5.393l-.685,20.761a5.11,5.11,0,0,0,5.058,5.393" transform="translate(-933.812 -789.949)" fill="#9bc1f9"/>
          <path id="Trazado_598621" data-name="Trazado 598621" d="M948.8,1015.955h20.157a5.533,5.533,0,0,0,5.413-5.393l.685-20.761a5.11,5.11,0,0,0-5.058-5.393H949.838a5.533,5.533,0,0,0-5.413,5.393l-.685,20.761a5.11,5.11,0,0,0,5.058,5.393" transform="translate(-757.312 -789.949)" fill="#e5f0e0"/>
          <path id="Trazado_598622" data-name="Trazado 598622" d="M728.848,1015.955H749a5.533,5.533,0,0,0,5.413-5.393L755.1,989.8a5.11,5.11,0,0,0-5.058-5.393H729.888a5.533,5.533,0,0,0-5.413,5.393l-.684,20.761a5.11,5.11,0,0,0,5.058,5.393" transform="translate(-580.811 -789.949)" fill="#e5f0e0"/>
          <path id="Trazado_598623" data-name="Trazado 598623" d="M508.9,1015.955h20.157a5.533,5.533,0,0,0,5.413-5.393l.685-20.761a5.11,5.11,0,0,0-5.058-5.393H509.939a5.533,5.533,0,0,0-5.413,5.393l-.685,20.761a5.11,5.11,0,0,0,5.058,5.393" transform="translate(-404.31 -789.949)" fill="#e5f0e0"/>
          <path id="Trazado_598624" data-name="Trazado 598624" d="M288.95,1015.955h20.157a5.533,5.533,0,0,0,5.413-5.393L315.2,989.8a5.11,5.11,0,0,0-5.058-5.393H289.99a5.533,5.533,0,0,0-5.414,5.393l-.684,20.761a5.11,5.11,0,0,0,5.058,5.393" transform="translate(-227.81 -789.949)" fill="#e5f0e0"/>
          <path id="Trazado_598625" data-name="Trazado 598625" d="M69,1015.955H89.157a5.533,5.533,0,0,0,5.413-5.393l.685-20.761a5.11,5.11,0,0,0-5.058-5.393H70.041a5.533,5.533,0,0,0-5.414,5.393l-.684,20.761A5.11,5.11,0,0,0,69,1015.955" transform="translate(-51.309 -789.949)" fill="#fed4b3" opacity="0.3"/>
          <path id="Trazado_598626" data-name="Trazado 598626" d="M1380.768,1256.4h20.157a5.533,5.533,0,0,0,5.413-5.393l.685-20.761a5.11,5.11,0,0,0-5.058-5.393h-20.156a5.533,5.533,0,0,0-5.414,5.393L1375.71,1251a5.11,5.11,0,0,0,5.058,5.393" transform="translate(-1103.951 -982.893)" fill="#f47458"/>
          <path id="Trazado_598627" data-name="Trazado 598627" d="M1160.818,1256.4h20.157a5.533,5.533,0,0,0,5.413-5.393l.684-20.761a5.11,5.11,0,0,0-5.058-5.393h-20.157a5.533,5.533,0,0,0-5.413,5.393L1155.76,1251a5.11,5.11,0,0,0,5.058,5.393" transform="translate(-927.45 -982.893)" fill="#e5f0e0"/>
          <path id="Trazado_598628" data-name="Trazado 598628" d="M940.869,1256.4h20.157a5.533,5.533,0,0,0,5.413-5.393l.685-20.761a5.11,5.11,0,0,0-5.058-5.393H941.91a5.533,5.533,0,0,0-5.413,5.393L935.811,1251a5.11,5.11,0,0,0,5.058,5.393" transform="translate(-750.949 -982.893)" fill="#e5f0e0"/>
          <path id="Trazado_598629" data-name="Trazado 598629" d="M720.92,1256.4h20.157A5.533,5.533,0,0,0,746.49,1251l.685-20.761a5.11,5.11,0,0,0-5.058-5.393H721.961a5.533,5.533,0,0,0-5.414,5.393L715.862,1251a5.11,5.11,0,0,0,5.058,5.393" transform="translate(-574.449 -982.893)" fill="#e5f0e0"/>
          <path id="Trazado_598630" data-name="Trazado 598630" d="M500.971,1256.4h20.157a5.533,5.533,0,0,0,5.413-5.393l.685-20.761a5.11,5.11,0,0,0-5.058-5.393H502.012a5.533,5.533,0,0,0-5.414,5.393L495.913,1251a5.11,5.11,0,0,0,5.058,5.393" transform="translate(-397.948 -982.893)" fill="#e5f0e0"/>
          <path id="Trazado_598652" data-name="Trazado 598652" d="M717.651,521.824A16.141,16.141,0,0,0,723.715,532c4.575,3.3,11.375,3.344,16.536.106l.06-.036c2.122-1.259,8.77-6.1,5.244-15.55l-1.923.717c2.888,7.74-2.093,11.717-4.369,13.068l-.1.062c-4.472,2.806-10.33,2.792-14.245-.032-5.978-4.312-5.952-13-5.664-16.536a12.339,12.339,0,0,1,1.088-4.637c1.587-3.056,5.454-5.949,9.4-7.038a29.727,29.727,0,0,1,10.591-1.188,11.461,11.461,0,0,1,8.533,5.046q.2.327.4.651c1.852,3.009,3.451,5.608,2.966,10.234l2.041.214c.557-5.321-1.383-8.474-3.26-11.523q-.2-.32-.394-.643a13.575,13.575,0,0,0-10.089-6.02,31.737,31.737,0,0,0-11.332,1.253c-3.768,1.038-8.532,3.936-10.679,8.07a14.175,14.175,0,0,0-1.312,5.416,29.818,29.818,0,0,0,.445,8.2" transform="translate(-575.447 -400.256)" fill="#f47458"/>
          <path id="Trazado_598653" data-name="Trazado 598653" d="M198.546,208.135c0,3.316,2.252,6,5.03,6s5.03-2.688,5.03-6-2.252-6-5.03-6-5.03,2.688-5.03,6" transform="translate(-159.325 -162.203)" fill="#b75742"/>
          <path id="Trazado_598654" data-name="Trazado 598654" d="M203.576,202.132a4.283,4.283,0,0,1,1.481.265,6.414,6.414,0,0,0,0,11.477,4.282,4.282,0,0,1-1.481.265c-2.778,0-5.03-2.688-5.03-6s2.252-6,5.03-6" transform="translate(-159.325 -162.203)" fill="#a54737"/>
          <path id="Trazado_598655" data-name="Trazado 598655" d="M223.954,0C238.6,0,250.508,13.044,250.508,29.08a31.658,31.658,0,0,1-.679,6.524h-4.075a27.662,27.662,0,0,0,.778-6.524c0-13.843-10.128-25.106-22.578-25.106S201.376,15.236,201.376,29.08a26.459,26.459,0,0,0,6.882,18.03,1.963,1.963,0,0,1-.164,2.819l-.03.026a1.963,1.963,0,0,1-2.716-.146A30.412,30.412,0,0,1,197.4,29.08C197.4,13.044,209.312,0,223.954,0" transform="translate(-158.406 0.002)" fill="#184655"/>
          <path id="Trazado_598656" data-name="Trazado 598656" d="M236.225,228.1s-.242,3.443-2.668,5.125,3.366,2.565,3.66,2.271,2.978-2.029,3.043-3.763a8.436,8.436,0,0,0-.589-3.37c-.1-.229-.851-1.571-1.047-1.571a26.458,26.458,0,0,0-2.4,1.309" transform="translate(-186.945 -181.988)" fill="#f47458"/>
          <path id="Trazado_598657" data-name="Trazado 598657" d="M543.939,208.135c0,3.316,2.252,6,5.03,6s5.03-2.688,5.03-6-2.252-6-5.03-6-5.03,2.688-5.03,6" transform="translate(-436.49 -162.203)" fill="#b75742"/>
          <path id="Trazado_598658" data-name="Trazado 598658" d="M548.969,202.132a4.283,4.283,0,0,1,1.481.265,6.414,6.414,0,0,0,0,11.477,4.283,4.283,0,0,1-1.481.265c-2.778,0-5.03-2.688-5.03-6s2.252-6,5.03-6" transform="translate(-436.49 -162.203)" fill="#a54737"/>
          <path id="Trazado_598659" data-name="Trazado 598659" d="M569.347,0C583.989,0,595.9,13.044,595.9,29.08a31.661,31.661,0,0,1-.679,6.524h-4.075a27.651,27.651,0,0,0,.778-6.524c0-13.843-10.129-25.106-22.578-25.106S546.769,15.236,546.769,29.08a26.46,26.46,0,0,0,6.882,18.03,1.963,1.963,0,0,1-.164,2.819l-.03.026a1.963,1.963,0,0,1-2.716-.146,30.412,30.412,0,0,1-7.948-20.73C542.793,13.044,554.705,0,569.347,0" transform="translate(-435.57 0.002)" fill="#184655"/>
          <path id="Trazado_598660" data-name="Trazado 598660" d="M581.618,228.1s-.242,3.443-2.668,5.125,3.366,2.565,3.66,2.271,2.978-2.029,3.044-3.763a8.435,8.435,0,0,0-.589-3.37c-.1-.229-.851-1.571-1.047-1.571a26.415,26.415,0,0,0-2.4,1.309" transform="translate(-464.109 -181.988)" fill="#f47458"/>
          <path id="Trazado_598661" data-name="Trazado 598661" d="M889.331,208.135c0,3.316,2.252,6,5.03,6s5.03-2.688,5.03-6-2.252-6-5.03-6-5.03,2.688-5.03,6" transform="translate(-713.653 -162.203)" fill="#b75742"/>
          <path id="Trazado_598662" data-name="Trazado 598662" d="M894.361,202.132a4.283,4.283,0,0,1,1.481.265,6.414,6.414,0,0,0,0,11.477,4.283,4.283,0,0,1-1.481.265c-2.778,0-5.03-2.688-5.03-6s2.252-6,5.03-6" transform="translate(-713.653 -162.203)" fill="#a54737"/>
          <path id="Trazado_598663" data-name="Trazado 598663" d="M914.74,0c14.642,0,26.554,13.046,26.554,29.082a31.661,31.661,0,0,1-.679,6.524H936.54a27.66,27.66,0,0,0,.778-6.524c0-13.843-10.128-25.106-22.578-25.106S892.162,15.236,892.162,29.08a26.46,26.46,0,0,0,6.882,18.03,1.963,1.963,0,0,1-.164,2.819l-.03.026a1.963,1.963,0,0,1-2.716-.146,30.413,30.413,0,0,1-7.948-20.73C888.186,13.044,900.1,0,914.74,0" transform="translate(-712.734 0.002)" fill="#184655"/>
          <path id="Trazado_598664" data-name="Trazado 598664" d="M927.01,228.1s-.242,3.443-2.668,5.125,3.366,2.565,3.66,2.271,2.978-2.029,3.043-3.763a8.438,8.438,0,0,0-.589-3.37c-.1-.229-.851-1.571-1.047-1.571a26.439,26.439,0,0,0-2.4,1.309" transform="translate(-741.273 -181.988)" fill="#f47458"/>
          <path id="Trazado_598665" data-name="Trazado 598665" d="M1234.723,208.135c0,3.316,2.252,6,5.03,6s5.03-2.688,5.03-6-2.252-6-5.03-6-5.03,2.688-5.03,6" transform="translate(-990.816 -162.203)" fill="#b75742"/>
          <path id="Trazado_598666" data-name="Trazado 598666" d="M1239.753,202.132a4.284,4.284,0,0,1,1.481.265,6.414,6.414,0,0,0,0,11.477,4.283,4.283,0,0,1-1.481.265c-2.778,0-5.03-2.688-5.03-6s2.252-6,5.03-6" transform="translate(-990.816 -162.203)" fill="#a54737"/>
          <path id="Trazado_598667" data-name="Trazado 598667" d="M1260.132,0c14.642,0,26.554,13.046,26.554,29.082a31.657,31.657,0,0,1-.679,6.524h-4.075a27.66,27.66,0,0,0,.778-6.524c0-13.843-10.129-25.106-22.578-25.106s-22.578,11.263-22.578,25.106a26.459,26.459,0,0,0,6.882,18.03,1.963,1.963,0,0,1-.164,2.819l-.031.026a1.963,1.963,0,0,1-2.715-.146,30.413,30.413,0,0,1-7.948-20.73C1233.578,13.044,1245.49,0,1260.132,0" transform="translate(-989.898 0.002)" fill="#184655"/>
          <path id="Trazado_598668" data-name="Trazado 598668" d="M1272.4,228.1s-.242,3.443-2.668,5.125,3.366,2.565,3.66,2.271,2.978-2.029,3.043-3.763a8.436,8.436,0,0,0-.589-3.37c-.1-.229-.851-1.571-1.047-1.571a26.426,26.426,0,0,0-2.4,1.309" transform="translate(-1018.436 -181.988)" fill="#f47458"/>
          <path id="Trazado_598669" data-name="Trazado 598669" d="M1.493,1354.239l.318-13.848,15.132,2.954S62,1348.581,62.2,1348.581s43.5,12.7,43.5,12.7l5.411.916H9.128a7.672,7.672,0,0,1-7.635-7.955" transform="translate(-1.196 -1075.61)" fill="#f7cc7f"/>
          <path id="Trazado_598670" data-name="Trazado 598670" d="M112.412,1218.672s-35.981-7.857-64.4-57.133c0,0-13.939,37.99-44.9,35.33,0,0,41.5,19.3,109.3,21.8" transform="translate(-2.497 -932.089)" fill="#fae0b2"/>
          <path id="Trazado_598671" data-name="Trazado 598671" d="M1209.927,471.121a22.759,22.759,0,0,0,2.8-.371,13.2,13.2,0,0,1,3.177-.354c1.668.16,4.383,1.023,5.489,3.055,1.378,2.531,5.174,1.7,1.774,12.274-3.849,11.963-10.294,8.911-10.406,8.663s-4.079-9.311-4.079-9.311-3.194,3.965-3.152,3.8-6.9-16.9,4.4-17.756" transform="translate(-965.727 -377.462)" fill="#0e2e35"/>
          <path id="Trazado_598672" data-name="Trazado 598672" d="M1053.571,694.87c-1.286-1.045-11.228,3.317-11.1,4.836s-6.937,16.241-6.937,16.241l-12.207-9.733,0,0c-.108-.352-1.265-4.137-1.321-4.815-.059-.71-2.122-1.953-3.08-1.77s.819,1.385.936,1.605c.318.6-.91.826-.91.826s-3.527-1.936-3.6-3.074-.8-3.524-1.565-3.025c-.393.258-.39,1.95-.267,2.753-.227-.912-.547-1.941-.86-2.043-.571-.187-.854.539-.751.9s1.025,4.228,1.3,4.663,5.969,5.015,6.79,6.01c0,0,15.789,18.049,16.913,18.521.986.414,4.5-5.806,7.826-9.935s12.854-18.694,8.836-21.96" transform="translate(-811.994 -557.477)" fill="#f7a491"/>
          <path id="Trazado_598673" data-name="Trazado 598673" d="M1378.967,1343.3s2.17,2.117,2.219,2.894.192,9.1-.693,9.877-3.487,1.328-2.651,2.2c.632.661,5.5.519,8.719.342.941-.052,2.121-7.559,2.494-8.662.541-1.6,1.857-5.212,1.365-6.329a9.389,9.389,0,0,0-3-2.707,14.761,14.761,0,0,1-3.327-3.543Z" transform="translate(-1105.532 -1073.186)" fill="#f48c7f"/>
          <path id="Trazado_598674" data-name="Trazado 598674" d="M1237.259,1391.845s1.942,5.485,1.944,5.5c.144.869.713,3.016.713,3.806,0,2.968-13.384-2.519-10.384-3.834a3.168,3.168,0,0,0,1.213-2.08,6.948,6.948,0,0,0-1.128-3.508Z" transform="translate(-986.298 -1116.806)" fill="#f7a491"/>
          <path id="Trazado_598675" data-name="Trazado 598675" d="M1149.5,875.287s-.976,9.833-.976,9.979c0,15.906-3.153,46.975-2.553,49.965,1.463,7.294,17.207,44.5,17.207,44.5l8.509-1.017L1160.6,934.168l4.08-17.931,5.774-35.444Z" transform="translate(-919.535 -702.383)" fill="#355389"/>
          <path id="Trazado_598676" data-name="Trazado 598676" d="M1202.692,889.684l1.615,9.319,4.368,38.354,16.636,37.486s-2.34,5.454-5.792,6.22l-26.478-38.486-16.448-49.247.577-10.941Z" transform="translate(-944.169 -708.083)" fill="#466eb6"/>
          <path id="Trazado_598677" data-name="Trazado 598677" d="M1146.965,652.217l11.8,1.2s.541-9.673.541-14.287c0-5.6-.477-12.808-1.153-12.653a10.285,10.285,0,0,0-5.974,3.573c-5.264,7.233-5.214,22.163-5.214,22.163" transform="translate(-920.394 -502.724)" fill="#3c8f7c"/>
          <path id="Trazado_598678" data-name="Trazado 598678" d="M1156.879,636.635c-.247,1.707-4.783,48.108-4.783,48.108,21.484,10.376,33.339,1.848,33.339,1.848s-.7-32.583.14-37.018c.557-2.934,1.252-22.432-.649-22.978a47.609,47.609,0,0,0-8.287-1.761c-2.6-.27-12.715-.427-14.524.181a23.039,23.039,0,0,0-5.235,11.621" transform="translate(-924.511 -501.212)" fill="#96d9c9"/>
          <path id="Trazado_598679" data-name="Trazado 598679" d="M1383.769,1355.036s-5,14.079-6.958,14.759c-.52.181-3.014.638-3.484,1.741a4.776,4.776,0,0,0,0,1.442h10.422s1.318-6.2,1.839-8.929c0,0,2.759-6.66,2.453-7.265s-4.273-1.748-4.273-1.748" transform="translate(-1101.99 -1087.363)" fill="#184655"/>
          <path id="Trazado_598680" data-name="Trazado 598680" d="M1198.548,1424.714l-1.533-4.842s-3.219,1.362-4.828,1.135a48.759,48.759,0,0,1-4.751-1.135c-6.424,2.115-11.686,3.141-10.729,4.842Z" transform="translate(-944.17 -1139.391)" fill="#184655"/>
          <path id="Trazado_598681" data-name="Trazado 598681" d="M1132.742,807.817a2.8,2.8,0,0,1-.324-.241c.382-4.546.313-8.951-1.113-10.44.034-.071.346-.734.672-1.422,1.653,1.279,2.439,4.676,2.131,10.191a9.377,9.377,0,0,1-.218,1.142c-.479.527-.914.867-1.147.769" transform="translate(-907.827 -638.529)" fill="#f7a491"/>
          <path id="Trazado_598682" data-name="Trazado 598682" d="M1227.742,571.566l-.634,4.7s-1.42,6.776.407,8.083,7.77-8.276,7.77-8.276l-.628-11.918Z" transform="translate(-984.283 -452.714)" fill="#f7a491"/>
          <path id="Trazado_598683" data-name="Trazado 598683" d="M1237.389,568.019a13.52,13.52,0,0,1-7.655,7.533l.537-3.988,6.915-7.408Z" transform="translate(-986.813 -452.713)" fill="#f47458"/>
          <path id="Trazado_598684" data-name="Trazado 598684" d="M900.622,565.749l-19.474-29.605,33.444,11.713,4.455,12.89Z" transform="translate(-707.087 -430.234)" fill="#f2e9da"/>
          <path id="Trazado_598685" data-name="Trazado 598685" d="M919.046,560.748l-4.74,1.287-33.159-25.89,33.444,11.713Z" transform="translate(-707.086 -430.235)" fill="#e0d5c3"/>
          <path id="Trazado_598686" data-name="Trazado 598686" d="M1015.285,583.122l-8.657-3.032,4.718,8.076L1117.59,671.12l.725-7.554Z" transform="translate(-807.78 -465.499)" fill="#e8ba70"/>
          <path id="Trazado_598687" data-name="Trazado 598687" d="M990.316,615.1l-9.895-1.446,3.8,9.249,106.243,82.953,6.093-7.8Z" transform="translate(-786.75 -492.434)" fill="#f7cc7f"/>
          <path id="Trazado_598688" data-name="Trazado 598688" d="M963.194,649.839l-8.979-2.618,5.041,7.663,103.03,80.444,7.152-2.536Z" transform="translate(-765.719 -519.369)" fill="#fae0b2"/>
          <rect id="Rectángulo_44367" data-name="Rectángulo 44367" width="9.9" height="9.926" transform="translate(295.894 207.315) rotate(-52.018)" fill="#50bfa5"/>
          <path id="Trazado_598689" data-name="Trazado 598689" d="M1481.9,1049.485l7.824,6.109-7.152,2.536-4.61-3.6Z" transform="translate(-1186.004 -842.169)" fill="#96d9c9"/>
          <path id="Trazado_598690" data-name="Trazado 598690" d="M1532.679,984.447l4.61,3.6-.725,7.554-7.824-6.109Z" transform="translate(-1226.753 -789.979)" fill="#3c8f7c"/>
          <rect id="Rectángulo_44368" data-name="Rectángulo 44368" width="6.4" height="11.698" transform="matrix(0.615, -0.788, 0.788, 0.615, 282.735, 205.16)" fill="#fef8f8"/>
          <rect id="Rectángulo_44369" data-name="Rectángulo 44369" width="6.4" height="11.698" transform="matrix(0.615, -0.788, 0.788, 0.615, 292.766, 192.313)" fill="#eddfca"/>
          <rect id="Rectángulo_44370" data-name="Rectángulo 44370" width="9.9" height="11.698" transform="matrix(0.615, -0.788, 0.788, 0.615, 286.674, 200.116)" fill="#f2e9da"/>
          <path id="Trazado_598691" data-name="Trazado 598691" d="M887.757,546.191l-6.609-10.047,11.35,3.975-4.034,1.737Z" transform="translate(-707.086 -430.234)" fill="#e86752"/>
          <path id="Trazado_598692" data-name="Trazado 598692" d="M888.464,541.857h0l-7.317-5.712,11.35,3.975Z" transform="translate(-707.086 -430.234)" fill="#d85648"/>
          <path id="Trazado_598693" data-name="Trazado 598693" d="M1340.5,729.3a1.3,1.3,0,0,0,.005-.3c-.317-3.213-2.985-30.2-3.434-31.344-.406-1.036-12.372-18.15-12.372-18.15l-5.881,8.013,11.508,15.35c.258.976,4.41,19.191,4.41,19.191s.851,3.32,1.232,5.309c-.174.479-.344.931-.5,1.3a11.953,11.953,0,0,1-1.24,1.993,13.643,13.643,0,0,0-1.47,2.6c-.122.469-.341,1.443-.466,2.03s-.295,1.272-.323,1.591a3.076,3.076,0,0,1-.372.855.513.513,0,0,0,.606.741c.418-.139.744-.68.944-1.017.566-.952.868-2.69,1.009-2.6s.637,3.041.716,3.374a36.328,36.328,0,0,0,1.01,4.383c.336.626.781.521.9.129.1-.337-.371-5.128-.371-5.128s-.059-.611.209-.42.7,4.54.891,5.176.61.974.971.462c.438-.622-.315-5.235-.315-5.235s-.084-.58.163-.526.558,3.76.751,4.081a.488.488,0,0,0,.911-.1c.273-.629-.435-4.742-.435-4.742s.035-.327.189-.219.645,3.25.964,3.54a.339.339,0,0,0,.492.007c.586-.4-.313-3.388-.3-4.873s-.68-3.154-.475-4.923c.013-.111.049-.384.072-.555" transform="translate(-1058.302 -545.277)" fill="#f8a492"/>
          <path id="Trazado_598694" data-name="Trazado 598694" d="M1312.846,654.505l-10.221,6.862s-5.761-8.573-8.853-11.625c-3.874-3.823,1.411-15.536,3.907-14.873,5.583,1.482,15.168,19.635,15.168,19.635" transform="translate(-1037.097 -509.436)" fill="#3c8f7c"/>
          <path id="Trazado_598695" data-name="Trazado 598695" d="M1222.606,495.734a5.989,5.989,0,0,0-8.178,4.163,45.215,45.215,0,0,0-.922,5.7c-.493,5.212,1.821,10.5,4.191,10.678s9.178-2.7,9.98-10.09c.5-4.563-1.472-8.893-5.071-10.447" transform="translate(-973.737 -397.417)" fill="#f7a491"/>
          <path id="Trazado_598696" data-name="Trazado 598696" d="M1276.421,544.931a1.744,1.744,0,1,0,1.864-1.955,1.929,1.929,0,0,0-1.864,1.955" transform="translate(-1024.271 -435.713)" fill="#f7a491"/>
          <path id="Trazado_598697" data-name="Trazado 598697" d="M1232.365,498.016s-2.917-.016-3.49-2.033-3.253-6.736-8.282-6.335,5.044-2.8,5.414-2.7,4.823,1.189,4.823,1.189,2.715,3.677,2.76,4.017.181,3.955.181,3.955Z" transform="translate(-978.351 -390.753)" fill="#0e2e35"/>
          <path id="Trazado_598698" data-name="Trazado 598698" d="M1224.292,568.55l4.869.387a2.135,2.135,0,0,1-2.405,1.732c-2.616-.132-2.463-2.119-2.463-2.119" transform="translate(-982.445 -456.238)" fill="#fff"/>
        </g>
      </g>
      <g id="Grupo_156367" data-name="Grupo 156367" transform="translate(1148 2750.357)">
        <path id="Trazado_598333" data-name="Trazado 598333" d="M361.863,292.224l18.88,1.758-6.949,6.949L389.868,317a2.242,2.242,0,1,1-3.17,3.17L370.625,304.1l-7,7.005Z" transform="translate(-300.874 -229.317)" fill="#fc8116"/>
        <path id="Trazado_598334" data-name="Trazado 598334" d="M608.39,258.188l36.6,3.406-13.468,13.472,31.157,31.157a4.346,4.346,0,1,1-6.145,6.147l-31.159-31.159L611.8,294.789Z" transform="translate(-608.39 -208.705)" fill="#b0c710"/>
        <path id="Trazado_598335" data-name="Trazado 598335" d="M539.306,168.785l26.783,2.494-9.857,9.857,22.8,22.8a3.18,3.18,0,1,1-4.5,4.5l-22.8-22.8L541.8,195.57Z" transform="translate(-539.306 -168.785)" fill="#fcd03e"/>
      </g>
    </g>
  </g>
</svg>
