<svg xmlns="http://www.w3.org/2000/svg" width="93" height="93" viewBox="0 0 93 93">
  <g id="Grupo_156605" data-name="Grupo 156605" transform="translate(-754 -6157)">
    <circle id="Elipse_5567" data-name="Elipse 5567" cx="46.5" cy="46.5" r="46.5" transform="translate(754 6157)" fill="#ffecdc"/>
    <g id="Page-1" transform="translate(768 6180)">
      <g id="_026---Individual-Credit-Score" data-name="026---Individual-Credit-Score">
        <path id="Shape" d="M64.97,36.966V2.24A2.247,2.247,0,0,0,62.73,0H2.24A2.247,2.247,0,0,0,0,2.24V42.567a2.247,2.247,0,0,0,2.24,2.24H40.326Z" fill="#fc8116"/>
        <path id="Shape-2" data-name="Shape" d="M56.923,20.962A8.961,8.961,0,0,1,42.17,27.795a1.187,1.187,0,0,1-.134-.112,8.961,8.961,0,1,1,14.887-6.721Z" transform="translate(4.687 1.442)" fill="#fdd7ad"/>
        <path id="Shape-3" data-name="Shape" d="M46.857,26.112a7.831,7.831,0,0,0-6.531,7.729v1.12H0V26H46.723a1.186,1.186,0,0,0,.134.112Z" transform="translate(0 3.125)" fill="#7790ad"/>
        <path id="Shape-4" data-name="Shape" d="M60.644,33.829V47.271a1.12,1.12,0,0,1-1.12,1.12H37.12A1.12,1.12,0,0,1,36,47.271V33.829A7.831,7.831,0,0,1,42.531,26.1a8.943,8.943,0,0,0,11.583,0A7.831,7.831,0,0,1,60.644,33.829Z" transform="translate(4.326 3.137)" fill="#529d2e"/>
        <path id="Shape-5" data-name="Shape" d="M43.24,34.12V47.562H41V34.12a1.12,1.12,0,1,1,2.24,0Z" transform="translate(4.927 3.966)" fill="#3c7e1c"/>
        <path id="Shape-6" data-name="Shape" d="M53.24,34.12V47.562H51V34.12a1.12,1.12,0,1,1,2.24,0Z" transform="translate(6.129 3.966)" fill="#3c7e1c"/>
        <rect id="Rectangle-path" width="13" height="10" rx="2" transform="translate(6 6)" fill="#f3d55b"/>
        <path id="Rectangle-path-2" data-name="Rectangle-path" d="M13,5h2.24V15.082H13Z" transform="translate(1.562 0.601)" fill="#f0c419"/>
        <path id="Rectangle-path-3" data-name="Rectangle-path" d="M7,5H9.24V15.082H7Z" transform="translate(0.841 0.601)" fill="#f0c419"/>
        <g id="Grupo_156356" data-name="Grupo 156356" transform="translate(4.481 6.721)">
          <path id="Shape-7" data-name="Shape" d="M56.846,8.24H22.12a1.12,1.12,0,1,1,0-2.24H56.846a1.12,1.12,0,1,1,0,2.24Z" transform="translate(-1.957 -6)" fill="#ecf0f1"/>
          <path id="Shape-8" data-name="Shape" d="M38.923,13.24H22.12a1.12,1.12,0,0,1,0-2.24h16.8a1.12,1.12,0,1,1,0,2.24Z" transform="translate(-1.957 -5.399)" fill="#ecf0f1"/>
          <path id="Shape-9" data-name="Shape" d="M23.12,22.481A1.12,1.12,0,0,1,22,21.361V19.12a1.12,1.12,0,1,1,2.24,0v2.24A1.12,1.12,0,0,1,23.12,22.481Z" transform="translate(-1.837 -4.558)" fill="#ecf0f1"/>
          <path id="Shape-10" data-name="Shape" d="M27.12,22.481A1.12,1.12,0,0,1,26,21.361V19.12a1.12,1.12,0,1,1,2.24,0v2.24A1.12,1.12,0,0,1,27.12,22.481Z" transform="translate(-1.356 -4.558)" fill="#ecf0f1"/>
          <path id="Shape-11" data-name="Shape" d="M31.12,22.481A1.12,1.12,0,0,1,30,21.361V19.12a1.12,1.12,0,1,1,2.24,0v2.24A1.12,1.12,0,0,1,31.12,22.481Z" transform="translate(-0.875 -4.558)" fill="#ecf0f1"/>
          <path id="Shape-12" data-name="Shape" d="M35.12,22.481A1.12,1.12,0,0,1,34,21.361V19.12a1.12,1.12,0,1,1,2.24,0v2.24A1.12,1.12,0,0,1,35.12,22.481Z" transform="translate(-0.395 -4.558)" fill="#ecf0f1"/>
          <path id="Shape-13" data-name="Shape" d="M5.12,22.481A1.12,1.12,0,0,1,4,21.361V19.12a1.12,1.12,0,1,1,2.24,0v2.24A1.12,1.12,0,0,1,5.12,22.481Z" transform="translate(-4 -4.558)" fill="#ecf0f1"/>
          <path id="Shape-14" data-name="Shape" d="M9.12,22.481A1.12,1.12,0,0,1,8,21.361V19.12a1.12,1.12,0,1,1,2.24,0v2.24A1.12,1.12,0,0,1,9.12,22.481Z" transform="translate(-3.519 -4.558)" fill="#ecf0f1"/>
          <path id="Shape-15" data-name="Shape" d="M13.12,22.481A1.12,1.12,0,0,1,12,21.361V19.12a1.12,1.12,0,1,1,2.24,0v2.24A1.12,1.12,0,0,1,13.12,22.481Z" transform="translate(-3.039 -4.558)" fill="#ecf0f1"/>
          <path id="Shape-16" data-name="Shape" d="M17.12,22.481A1.12,1.12,0,0,1,16,21.361V19.12a1.12,1.12,0,1,1,2.24,0v2.24A1.12,1.12,0,0,1,17.12,22.481Z" transform="translate(-2.558 -4.558)" fill="#ecf0f1"/>
        </g>
      </g>
    </g>
  </g>
</svg>
