<svg xmlns="http://www.w3.org/2000/svg" width="68.192" height="69" viewBox="0 0 68.192 69">
  <g id="Grupo_156327" data-name="Grupo 156327" transform="translate(-766 -1217)">
    <circle id="Elipse_5564" data-name="Elipse 5564" cx="34" cy="34" r="34" transform="translate(766 1217)" fill="#fff"/>
    <ellipse id="Elipse_5570" data-name="Elipse 5570" cx="22" cy="3" rx="22" ry="3" transform="translate(778 1280)" fill="#12263f" opacity="0.2"/>
    <g id="computadora" transform="translate(772 1229.638)">
      <path id="Trazado_598468" data-name="Trazado 598468" d="M162.737,462.278h-24.07v-2.407a1.207,1.207,0,0,1,1.2-1.2h21.663a1.207,1.207,0,0,1,1.2,1.2v2.407Z" transform="translate(-123.021 -406.916)" fill="#d0d7df"/>
      <path id="Trazado_598469" data-name="Trazado 598469" d="M178.053,384l1.2,8.425H160L161.2,384Z" transform="translate(-141.947 -340.673)" fill="#a4b0c0"/>
      <path id="Trazado_598470" data-name="Trazado 598470" d="M55.362,3.611V39.716a3.606,3.606,0,0,1-3.611,3.611H3.611A3.606,3.606,0,0,1,0,39.716V3.611A3.606,3.606,0,0,1,3.611,0H51.751A3.606,3.606,0,0,1,55.362,3.611Z" transform="translate(0 0)" fill="#d0d7df"/>
      <path id="Trazado_598471" data-name="Trazado 598471" d="M96.66,54.537V83.421a1.207,1.207,0,0,1-1.2,1.2H54.537a1.207,1.207,0,0,1-1.2-1.2V54.537a1.207,1.207,0,0,1,1.2-1.2h40.92A1.207,1.207,0,0,1,96.66,54.537Z" transform="translate(-47.315 -47.315)" fill="#49aaee"/>
      <path id="Trazado_598472" data-name="Trazado 598472" d="M184.809,384H167.96l-.344,2.407h17.538Z" transform="translate(-148.704 -340.673)" fill="#8d98a6"/>
    </g>
    <g id="signo-de-exclamacion" transform="translate(783.993 1214.691)">
      <path id="Trazado_598473" data-name="Trazado 598473" d="M27.1,48.991H7.691A3.685,3.685,0,0,1,4.5,43.464l9.706-16.811L23.912,9.842a3.685,3.685,0,0,1,6.382,0L40,26.653l9.706,16.811a3.685,3.685,0,0,1-3.191,5.527Z" transform="translate(0 0)" fill="#f5dc3d"/>
      <g id="Grupo_156324" data-name="Grupo 156324" transform="translate(25.453 22.026)">
        <rect id="Rectángulo_44331" data-name="Rectángulo 44331" width="4" height="15" rx="2" transform="translate(-0.446 0.283)" fill="#5f5f5f"/>
        <ellipse id="Elipse_5572" data-name="Elipse 5572" cx="2" cy="1.5" rx="2" ry="1.5" transform="translate(-0.446 17.283)" fill="#5f5f5f"/>
      </g>
    </g>
  </g>
</svg>
