<svg xmlns="http://www.w3.org/2000/svg" width="93" height="93" viewBox="0 0 93 93">
  <g id="Grupo_156607" data-name="Grupo 156607" transform="translate(-1174 -6157)">
    <g id="Grupo_156606" data-name="Grupo 156606">
      <circle id="Elipse_5568" data-name="Elipse 5568" cx="46.5" cy="46.5" r="46.5" transform="translate(1174 6157)" fill="#ffecdc"/>
      <g id="layer1" transform="translate(1192.471 5895.403)">
        <g id="Grupo_156357" data-name="Grupo 156357" transform="translate(7.4 306.852)">
          <path id="path6068" d="M7.235,288.2v20.5h8.507V288.2Z" transform="translate(9.047 -288.201)" fill="#d1dcff"/>
          <path id="rect5598" d="M2.519,288.2v20.5h8.507V288.2Z" transform="translate(-2.519 -288.201)" fill="#d1dcff"/>
          <path id="path5607" d="M12.005,288.2v20.5h8.507V288.2Z" transform="translate(20.747 -288.201)" fill="#d1dcff"/>
        </g>
        <path id="path6070" d="M7.235,293.151v3.411h8.507v-3.411Z" transform="translate(16.447 30.792)" fill="#bfd2ff"/>
        <path id="path5963" d="M12.005,293.151v3.411h8.507v-3.411Z" transform="translate(28.147 30.792)" fill="#bfd2ff"/>
        <path id="path5726" d="M5.331,293.151c-1.523,0-2.376,2.213-1.436,3.411H8.615v-3.411Z" transform="translate(7.291 30.792)" fill="#bfd2ff"/>
        <path id="rect5812" d="M1.819,286.815v4.105a1.823,1.823,0,0,0,1.827,1.827h9.535a1.823,1.823,0,0,0,1.827-1.827v-4.105Z" transform="translate(3.162 15.252)" fill="#666"/>
        <path id="path5969" d="M11.327,286.815v4.105a1.823,1.823,0,0,0,1.827,1.827h9.535a1.823,1.823,0,0,0,1.827-1.827v-4.105Z" transform="translate(26.484 15.252)" fill="#666"/>
        <path id="path6074" d="M6.557,286.815v4.105a1.823,1.823,0,0,0,1.827,1.827h9.535a1.823,1.823,0,0,0,1.827-1.827v-4.105Z" transform="translate(14.784 15.252)" fill="#666"/>
        <path id="rect5594" d="M3.27,294.007H52.6a2.735,2.735,0,0,1,2.741,2.741v3.027a2.735,2.735,0,0,1-2.741,2.741H3.27a2.735,2.735,0,0,1-2.741-2.741v-3.027a2.735,2.735,0,0,1,2.741-2.741Z" transform="translate(0 32.892)" fill="#98aec7"/>
        <path id="path10476" d="M1.821,6.759v3h13.21v-3Zm16.385,0v3h13.21v-3Zm16.5,0v3h8.155a1.5,1.5,0,1,0,0-3Z" transform="translate(3.169 295.346)" fill="#4d4d4d"/>
        <path id="path5738" d="M47.651,6.548c-.427.788-1.063.838-1.81.851H4.276a1.83,1.83,0,0,0-1.551,2.8h43.43a4.561,4.561,0,0,0,4.528-3.953c-1.165-1.06-2.513-.9-3.033.3Z" transform="translate(4.7 292.352)" fill="#488bff"/>
        <path id="rect5588" d="M24.662,1.949C15.387,7.167,6.581,12.08.53,15.574v2.334A4.565,4.565,0,0,0,5.1,22.483H50.853a4.565,4.565,0,0,0,4.575-4.575V15.574c-7.66-4.3-14.707-8.2-23.924-13.564C28.125.059,27.979.034,24.662,1.949Z" transform="translate(0.002 280.067)" fill="#7790ad"/>
        <circle id="path5736" cx="4.44" cy="4.44" r="4.44" transform="translate(23.006 288.867)" fill="#ffc861"/>
        <path id="path5745" d="M11.534,5.334A1.6,1.6,0,0,1,9.731,6.6a1.83,1.83,0,0,0-2,2.2,4.436,4.436,0,0,0,6.583-4.539,1.761,1.761,0,0,0-2.784,1.065Z" transform="translate(17.57 288.393)" fill="#ffab61"/>
        <path id="path6231" d="M3.988,295.664a1.828,1.828,0,0,0-1.554,2.785h46.16a2.735,2.735,0,0,0,2.741-2.741v-.045Z" transform="translate(4.007 36.956)" fill="#7790ad"/>
      </g>
    </g>
    <g id="Transfer_money" data-name="Transfer money" transform="translate(1218.343 6200.249)">
      <path id="Trazado_598507" data-name="Trazado 598507" d="M1,11H35.609V30.561H1Z" transform="translate(0 0)" fill="#9dcc6b"/>
      <path id="Trazado_598508" data-name="Trazado 598508" d="M36.352,11V29.057H22.057A18.057,18.057,0,0,1,4,11Z" transform="translate(-0.743 0)" fill="#b5e08c"/>
      <path id="Trazado_598509" data-name="Trazado 598509" d="M31.085,29.047H7.009a.752.752,0,0,1-.752-.752,1.5,1.5,0,0,0-1.5-1.5A.752.752,0,0,1,4,26.038V17.009a.752.752,0,0,1,.752-.752,1.5,1.5,0,0,0,1.5-1.5A.752.752,0,0,1,7.009,14H31.085a.752.752,0,0,1,.752.752,1.5,1.5,0,0,0,1.5,1.5.752.752,0,0,1,.752.752v9.028a.752.752,0,0,1-.752.752,1.5,1.5,0,0,0-1.5,1.5A.752.752,0,0,1,31.085,29.047Zm-23.421-1.5H30.431a3.009,3.009,0,0,1,2.159-2.159V17.664A3.009,3.009,0,0,1,30.431,15.5H7.664A3.009,3.009,0,0,1,5.5,17.664v7.719A3.009,3.009,0,0,1,7.664,27.543Z" transform="translate(-0.743 -0.743)" fill="#84b749"/>
      <path id="Trazado_598510" data-name="Trazado 598510" d="M9.217,23.217a.755.755,0,1,1,0,1.068.755.755,0,0,1,0-1.068Z" transform="translate(-1.98 -2.971)" fill="#84b749"/>
      <path id="Trazado_598511" data-name="Trazado 598511" d="M37.754,24.5a.752.752,0,1,1,.7-.464A.752.752,0,0,1,37.754,24.5Z" transform="translate(-8.916 -2.972)" fill="#84b749"/>
      <path id="Trazado_598514" data-name="Trazado 598514" d="M28.543,21.771a6.839,6.839,0,0,1-1,3.529C24.028,31.116,15,28.588,15,21.771a6.771,6.771,0,1,1,13.543,0Z" transform="translate(-3.467 -0.991)" fill="#84b749"/>
      <g id="Grupo_156342" data-name="Grupo 156342" transform="translate(15.295 15.514)">
        <path id="Trazado_598515" data-name="Trazado 598515" d="M23,19.257v-1.5a.752.752,0,1,1,1.5,0v1.5a.752.752,0,1,1-1.5,0Z" transform="translate(-20.743 -17)" fill="#b5e08c"/>
        <path id="Trazado_598516" data-name="Trazado 598516" d="M23,29.257v-1.5a.752.752,0,1,1,1.5,0v1.5a.752.752,0,1,1-1.5,0Z" transform="translate(-20.743 -19.476)" fill="#b5e08c"/>
        <path id="Trazado_598517" data-name="Trazado 598517" d="M23.762,26.524H20.752a.752.752,0,0,1,0-1.5h3.009a.752.752,0,1,0,0-1.5h-1.5a2.257,2.257,0,1,1,0-4.514h3.009a.752.752,0,1,1,0,1.5H22.257a.752.752,0,1,0,0,1.5h1.5a2.257,2.257,0,1,1,0,4.514Z" transform="translate(-20 -17.495)" fill="#b5e08c"/>
      </g>
    </g>
  </g>
</svg>
