<svg xmlns="http://www.w3.org/2000/svg" width="65.078" height="65" viewBox="0 0 65.078 65">
  <g id="Grupo_156346" data-name="Grupo 156346" transform="translate(-1186.922 -3996)">
    <rect id="Rect치ngulo_44336" data-name="Rect치ngulo 44336" width="65" height="65" transform="translate(1187 3996)" fill="none"/>
    <g id="xls" transform="translate(1168.516 3996)">
      <path id="Trazado_598518" data-name="Trazado 598518" d="M37.636,272.646h-7.62a5.242,5.242,0,0,1-5.242-5.242,3.145,3.145,0,0,1,3.145-3.145h9.717v8.387Z" transform="translate(-6.368 -230.71)" fill="#50aaa0"/>
      <path id="Trazado_598519" data-name="Trazado 598519" d="M122.2,0H83.413l-1.08,2.1V63.984h49.306l2.1-1.081V11.532Z" transform="translate(-50.252 0)" fill="#fff"/>
      <path id="Trazado_598520" data-name="Trazado 598520" d="M76.42,59.758V0a2.1,2.1,0,0,0-2.1,2.1V62.9a2.1,2.1,0,0,0,2.1,2.1h48.226a2.1,2.1,0,0,0,2.1-2.1H79.565A3.145,3.145,0,0,1,76.42,59.758Z" transform="translate(-43.259 0)" fill="#cdd6e0"/>
      <path id="Trazado_598521" data-name="Trazado 598521" d="M407.919,11.352a2.1,2.1,0,0,0-.614-1.483L398.049.614A2.1,2.1,0,0,0,396.567,0h-.18V10.484a1.048,1.048,0,0,0,1.048,1.048h10.484Z" transform="translate(-324.436)" fill="#cdd6e0"/>
      <path id="Trazado_598522" data-name="Trazado 598522" d="M72.922,312.575H35.691a4.07,4.07,0,0,1-1.2-.179l-1.157,1.685v13.245a3.4,3.4,0,0,0,3.6,3.145H72.922l2.4-1.122V314.672A2.265,2.265,0,0,0,72.922,312.575Z" transform="translate(-13.84 -272.736)" fill="#8ce1a4"/>
      <path id="Trazado_598523" data-name="Trazado 598523" d="M27.167,292a3.212,3.212,0,0,1-2.393-2.966V307.9a3.39,3.39,0,0,0,3.59,3.145H65.458a2.26,2.26,0,0,0,2.393-2.1H30.757a3.39,3.39,0,0,1-3.59-3.145Z" transform="translate(-6.368 -252.338)" fill="#78c2a4"/>
      <path id="Trazado_598524" data-name="Trazado 598524" d="M162.241,354.617h-.006c-.657,0-1.362.006-1.913.007V347.2a1.048,1.048,0,1,0-2.1,0v8.468a1.049,1.049,0,0,0,.872,1.034,7.868,7.868,0,0,0,1.072.022c.454,0,1.112,0,2.077-.008a1.048,1.048,0,0,0-.006-2.1Z" transform="translate(-116.51 -302.204)" fill="#fff"/>
      <path id="Trazado_598525" data-name="Trazado 598525" d="M217.147,350.518c-1.042-.385-2.013-.8-2.309-.933a.6.6,0,0,1-.212-.563.86.86,0,0,1,.681-.688,2.836,2.836,0,0,1,2.343.541,1.048,1.048,0,0,0,1.344-1.609,4.916,4.916,0,0,0-4.291-.939,2.972,2.972,0,0,0-2.153,2.4,2.683,2.683,0,0,0,1.2,2.655,1,1,0,0,0,.145.079c.049.022,1.216.542,2.53,1.026.374.138,1.233.528,1.118,1.167a1.44,1.44,0,0,1-1.491.972,2.961,2.961,0,0,1-2.177-.912,1.048,1.048,0,0,0-1.554,1.408,5.088,5.088,0,0,0,3.731,1.6,3.483,3.483,0,0,0,3.555-2.7C219.815,352.842,219.28,351.3,217.147,350.518Z" transform="translate(-163.498 -302.204)" fill="#fff"/>
      <path id="Trazado_598526" data-name="Trazado 598526" d="M79.68,351.132l2.348-3.333a1.048,1.048,0,1,0-1.714-1.207L78.4,349.311l-1.912-2.718A1.049,1.049,0,0,0,74.77,347.8l2.345,3.333-2.772,3.935a1.048,1.048,0,1,0,1.714,1.207l2.339-3.321,2.336,3.32a1.049,1.049,0,0,0,1.716-1.206Z" transform="translate(-43.109 -302.203)" fill="#fff"/>
      <g id="Grupo_156345" data-name="Grupo 156345" transform="translate(46.79 16.774)">
        <path id="Trazado_598527" data-name="Trazado 598527" d="M202.388,136.323h-3.145a1.048,1.048,0,0,1-1.048-1.048v-2.1a1.048,1.048,0,0,1,1.048-1.048h3.145a1.048,1.048,0,0,1,1.048,1.048v2.1A1.048,1.048,0,0,1,202.388,136.323Z" transform="translate(-198.194 -132.129)" fill="#8ce1a4"/>
        <path id="Trazado_598528" data-name="Trazado 598528" d="M327.307,136.323h-4.194a1.048,1.048,0,0,1-1.048-1.048v-2.1a1.048,1.048,0,0,1,1.048-1.048h4.194a1.048,1.048,0,0,1,1.048,1.048v2.1A1.048,1.048,0,0,1,327.307,136.323Z" transform="translate(-306.339 -132.129)" fill="#8ce1a4"/>
        <path id="Trazado_598529" data-name="Trazado 598529" d="M261.242,136.323h-4.194A1.048,1.048,0,0,1,256,135.274v-2.1a1.048,1.048,0,0,1,1.048-1.048h4.194a1.048,1.048,0,0,1,1.048,1.048v2.1A1.048,1.048,0,0,1,261.242,136.323Z" transform="translate(-248.661 -132.129)" fill="#8ce1a4"/>
        <path id="Trazado_598530" data-name="Trazado 598530" d="M202.388,185.872h-3.145a1.048,1.048,0,0,1-1.048-1.048v-2.1a1.048,1.048,0,0,1,1.048-1.048h3.145a1.048,1.048,0,0,1,1.048,1.048v2.1A1.048,1.048,0,0,1,202.388,185.872Z" transform="translate(-198.194 -175.388)" fill="#8ce1a4"/>
        <path id="Trazado_598531" data-name="Trazado 598531" d="M327.307,185.872h-4.194a1.048,1.048,0,0,1-1.048-1.048v-2.1a1.048,1.048,0,0,1,1.048-1.048h4.194a1.048,1.048,0,0,1,1.048,1.048v2.1A1.048,1.048,0,0,1,327.307,185.872Z" transform="translate(-306.339 -175.388)" fill="#8ce1a4"/>
        <path id="Trazado_598532" data-name="Trazado 598532" d="M261.242,185.872h-4.194A1.048,1.048,0,0,1,256,184.823v-2.1a1.048,1.048,0,0,1,1.048-1.048h4.194a1.048,1.048,0,0,1,1.048,1.048v2.1A1.048,1.048,0,0,1,261.242,185.872Z" transform="translate(-248.661 -175.388)" fill="#8ce1a4"/>
        <path id="Trazado_598533" data-name="Trazado 598533" d="M202.388,234.371h-3.145a1.048,1.048,0,0,1-1.048-1.048v-1.048a1.048,1.048,0,0,1,1.048-1.048h3.145a1.048,1.048,0,0,1,1.048,1.048v1.048A1.048,1.048,0,0,1,202.388,234.371Z" transform="translate(-198.194 -218.645)" fill="#8ce1a4"/>
        <path id="Trazado_598534" data-name="Trazado 598534" d="M327.307,234.371h-4.194a1.048,1.048,0,0,1-1.048-1.048v-1.048a1.048,1.048,0,0,1,1.048-1.048h4.194a1.048,1.048,0,0,1,1.048,1.048v1.048A1.048,1.048,0,0,1,327.307,234.371Z" transform="translate(-306.339 -218.645)" fill="#8ce1a4"/>
        <path id="Trazado_598535" data-name="Trazado 598535" d="M261.242,234.371h-4.194A1.048,1.048,0,0,1,256,233.323v-1.048a1.048,1.048,0,0,1,1.048-1.048h4.194a1.048,1.048,0,0,1,1.048,1.048v1.048A1.048,1.048,0,0,1,261.242,234.371Z" transform="translate(-248.661 -218.645)" fill="#8ce1a4"/>
      </g>
      <path id="Trazado_598536" data-name="Trazado 598536" d="M194.13,233.323a2.1,2.1,0,0,1-2.1-2.1h-1.048a1.048,1.048,0,0,0-1.048,1.048v2.1a1.048,1.048,0,0,0,1.048,1.048h4.194a1.048,1.048,0,0,0,1.048-1.048v-1.048Z" transform="translate(-144.194 -201.871)" fill="#78c2a4"/>
      <path id="Trazado_598537" data-name="Trazado 598537" d="M192.033,185.872h-1.048a1.048,1.048,0,0,1-1.048-1.048v-2.1a1.048,1.048,0,0,1,1.048-1.048h1.048Z" transform="translate(-144.194 -158.613)" fill="#78c2a4"/>
      <path id="Trazado_598538" data-name="Trazado 598538" d="M262.29,247.742v1.048a1.048,1.048,0,0,1-1.048,1.048h-4.194A1.048,1.048,0,0,1,256,248.79v-1.048Z" transform="translate(-201.871 -216.29)" fill="#78c2a4"/>
      <path id="Trazado_598539" data-name="Trazado 598539" d="M328.355,247.742v1.048a1.048,1.048,0,0,1-1.048,1.048h-4.194a1.048,1.048,0,0,1-1.048-1.048v-1.048Z" transform="translate(-259.549 -216.29)" fill="#78c2a4"/>
      <path id="Trazado_598540" data-name="Trazado 598540" d="M192.033,136.323h-1.048a1.048,1.048,0,0,1-1.048-1.048v-2.1a1.048,1.048,0,0,1,1.048-1.048h1.048Z" transform="translate(-144.194 -115.355)" fill="#78c2a4"/>
    </g>
    <rect id="Rect치ngulo_44344" data-name="Rect치ngulo 44344" width="23" height="4" transform="translate(1214 4007)" fill="#fc8116"/>
  </g>
</svg>
