<svg xmlns="http://www.w3.org/2000/svg" width="400" height="168.022" viewBox="0 0 400 168.022">
  <g id="Grupo_156605" data-name="Grupo 156605" transform="translate(-1020 -4721.339)">
    <path id="Trazado_598379" data-name="Trazado 598379" d="M0,0H295V86.6H0Z" transform="translate(1125 4802.757)" fill="#fff6d8"/>
    <path id="Trazado_103013" data-name="Trazado 103013" d="M2799.049-2024.406c4.127,2.139,13.6,6.113,23.078,6.113,12.073,0,18.186-5.808,18.186-13.3,0-9.778-9.779-14.213-20.021-14.213h-9.47v-16.66h9.017c7.8-.153,17.73-3.058,17.73-11.469,0-5.961-4.891-10.393-14.672-10.393-8.1,0-16.66,3.515-20.785,5.961l-4.736-16.811c5.959-3.82,17.881-7.485,30.718-7.485,21.242,0,33.01,11.156,33.01,24.758,0,10.545-5.96,18.8-18.185,23.076v.307c11.92,2.138,21.55,11.156,21.55,24.145,0,17.575-15.436,30.412-40.653,30.412-12.837,0-23.687-3.362-29.5-7.031Z" transform="translate(-1772.53 6827.281)" fill="#feefbb" opacity="0.7" style="isolation: isolate"/>
    <path id="Trazado_103015" data-name="Trazado 103015" d="M2824.116-1997.864c-13.919,0-24.855-3.774-30.448-7.307a1.784,1.784,0,0,1-.768-1.975l4.736-17.423a1.78,1.78,0,0,1,2.185-1.253,1.759,1.759,0,0,1,.358.141c1.906.988,11.927,5.916,22.257,5.916,10.118,0,16.406-4.413,16.406-11.514,0-9.175-9.826-12.435-18.239-12.435h-9.471a1.784,1.784,0,0,1-1.783-1.783h0v-16.66a1.78,1.78,0,0,1,1.781-1.783h9.02c1.6-.031,15.946-.574,15.946-9.68,0-5.39-4.819-8.61-12.89-8.61-8.1,0-16.539,3.743-19.876,5.712a1.785,1.785,0,0,1-2.441-.624,1.823,1.823,0,0,1-.182-.427l-4.735-16.811a1.782,1.782,0,0,1,.753-1.983c6.036-3.863,18.168-7.77,31.681-7.77,24.034,0,34.794,13.33,34.794,26.542,0,10.108-5.234,18.087-14.849,22.865,11.078,3.787,18.222,13.219,18.222,24.664a30.31,30.31,0,0,1-.669,6.36c-.245.954-.681,3.478-1.635,3.233-.9-.232-1.65-2.111-1.487-3.028a36.2,36.2,0,0,0,.227-6.565c0-12.979-10.086-20.6-20.082-22.391a1.785,1.785,0,0,1-1.466-1.754v-.307a1.782,1.782,0,0,1,1.2-1.682c11.117-3.888,16.993-11.289,16.993-21.394,0-13.743-12.549-22.975-31.228-22.975-11.9,0-22.839,3.27-28.632,6.532l3.763,13.352c4.492-2.267,12.117-5.112,19.678-5.112,12.132,0,16.454,6.29,16.454,12.175,0,9.5-10.491,13.068-19.475,13.246h-7.27v13.092h7.693c10.853,0,21.8,4.95,21.8,15.994,0,9.161-7.838,15.079-19.969,15.079-9.087,0-17.874-3.489-21.921-5.353l-3.817,14.037c5.295,2.945,15.173,6.089,27.416,6.089a1.783,1.783,0,0,1,1.736,1.829,1.785,1.785,0,0,1-1.736,1.736Z" transform="translate(-1772.837 6826.975)" fill="#fcd03e"/>
    <g id="Grupo_54976" data-name="Grupo 54976" transform="translate(1091.412 4722.839)">
      <path id="Trazado_182393" data-name="Trazado 182393" d="M2123.1-2023.6v69.075h312.056v-149.606H2178.142" transform="translate(-2123.051 2104.135)" fill="none" stroke="#fcd03e" stroke-width="3"/>
    </g>
    <path id="Trazado_598868" data-name="Trazado 598868" d="M10.124,16.323h5.487V18H8.024V5.914h2.1ZM22.393,18a3.113,3.113,0,0,1-.232-.838,3.393,3.393,0,0,1-4.565.232,2.47,2.47,0,0,1-.855-1.909,2.55,2.55,0,0,1,1.067-2.2,5.169,5.169,0,0,1,3.051-.768h1.237v-.589a1.573,1.573,0,0,0-.39-1.116,1.547,1.547,0,0,0-1.187-.419,1.777,1.777,0,0,0-1.129.344,1.066,1.066,0,0,0-.44.876H16.931a2.239,2.239,0,0,1,.49-1.382,3.263,3.263,0,0,1,1.332-1.009,4.68,4.68,0,0,1,1.88-.365,3.769,3.769,0,0,1,2.515.793,2.827,2.827,0,0,1,.963,2.229v4.051a4.591,4.591,0,0,0,.34,1.934V18Zm-2.216-1.453a2.294,2.294,0,0,0,1.125-.291,1.941,1.941,0,0,0,.793-.78V13.783H21.007a2.973,2.973,0,0,0-1.685.39,1.264,1.264,0,0,0-.564,1.1,1.179,1.179,0,0,0,.386.926A1.5,1.5,0,0,0,20.177,16.547ZM32.329,9.019l.058,1.038A3.229,3.229,0,0,1,35,8.853q2.806,0,2.855,3.212V18H35.84V12.181a1.85,1.85,0,0,0-.369-1.266,1.554,1.554,0,0,0-1.208-.411,1.944,1.944,0,0,0-1.818,1.1V18H30.428V9.019Zm7.205,4.408a5.3,5.3,0,0,1,.523-2.378,3.819,3.819,0,0,1,1.469-1.627A4.14,4.14,0,0,1,43.7,8.853a3.923,3.923,0,0,1,2.951,1.17,4.6,4.6,0,0,1,1.224,3.1l.008.473a5.343,5.343,0,0,1-.51,2.374,3.773,3.773,0,0,1-1.461,1.619,4.17,4.17,0,0,1-2.2.573A3.9,3.9,0,0,1,40.675,16.9a4.848,4.848,0,0,1-1.141-3.374Zm2.017.174a3.619,3.619,0,0,0,.573,2.171,1.862,1.862,0,0,0,1.594.784,1.842,1.842,0,0,0,1.59-.8,4,4,0,0,0,.569-2.333,3.572,3.572,0,0,0-.585-2.158,1.973,1.973,0,0,0-3.158-.012A3.922,3.922,0,0,0,41.551,13.6ZM52.118,6.835V9.019H53.7v1.494H52.118v5.014a1.1,1.1,0,0,0,.2.743.943.943,0,0,0,.726.228,3.107,3.107,0,0,0,.706-.083v1.561a4.968,4.968,0,0,1-1.328.191q-2.324,0-2.324-2.565V10.513H48.623V9.019H50.1V6.835ZM60.61,18a3.113,3.113,0,0,1-.232-.838,3.393,3.393,0,0,1-4.565.232,2.47,2.47,0,0,1-.855-1.909,2.55,2.55,0,0,1,1.067-2.2,5.169,5.169,0,0,1,3.051-.768h1.237v-.589a1.573,1.573,0,0,0-.39-1.116,1.547,1.547,0,0,0-1.187-.419,1.777,1.777,0,0,0-1.129.344,1.066,1.066,0,0,0-.44.876H55.148a2.239,2.239,0,0,1,.49-1.382A3.263,3.263,0,0,1,56.97,9.218a4.68,4.68,0,0,1,1.88-.365,3.769,3.769,0,0,1,2.515.793,2.827,2.827,0,0,1,.963,2.229v4.051a4.591,4.591,0,0,0,.34,1.934V18Zm-2.216-1.453a2.294,2.294,0,0,0,1.125-.291,1.941,1.941,0,0,0,.793-.78V13.783H59.223a2.973,2.973,0,0,0-1.685.39,1.264,1.264,0,0,0-.564,1.1,1.179,1.179,0,0,0,.386.926A1.5,1.5,0,0,0,58.393,16.547Zm9.9-3.1a5.34,5.34,0,0,1,.963-3.333,3.085,3.085,0,0,1,2.582-1.258,2.931,2.931,0,0,1,2.308,1V5.25h2.017V18H74.339l-.1-.93a2.973,2.973,0,0,1-2.416,1.1,3.068,3.068,0,0,1-2.552-1.27A5.535,5.535,0,0,1,68.3,13.443Zm2.017.174a3.739,3.739,0,0,0,.527,2.137,1.71,1.71,0,0,0,1.5.768,1.9,1.9,0,0,0,1.81-1.1V11.583A1.876,1.876,0,0,0,72.355,10.5a1.723,1.723,0,0,0-1.511.776A4.163,4.163,0,0,0,70.313,13.617Zm11.912,4.549a4.173,4.173,0,0,1-3.109-1.208,4.381,4.381,0,0,1-1.191-3.217v-.249a5.389,5.389,0,0,1,.519-2.4A3.949,3.949,0,0,1,79.9,9.442a3.851,3.851,0,0,1,2.092-.589,3.525,3.525,0,0,1,2.835,1.17,4.949,4.949,0,0,1,1,3.312v.813H79.959a2.7,2.7,0,0,0,.743,1.76,2.23,2.23,0,0,0,1.639.647A2.731,2.731,0,0,0,84.6,15.435l1.087,1.038a3.631,3.631,0,0,1-1.44,1.249A4.509,4.509,0,0,1,82.225,18.166Zm-.241-7.695a1.7,1.7,0,0,0-1.341.581,3.012,3.012,0,0,0-.652,1.619h3.843v-.149a2.452,2.452,0,0,0-.54-1.531A1.686,1.686,0,0,0,81.984,10.471Zm13.331,6.084a1.824,1.824,0,0,0,1.253-.44,1.5,1.5,0,0,0,.531-1.087H99a2.963,2.963,0,0,1-.523,1.565,3.43,3.43,0,0,1-1.328,1.15,3.958,3.958,0,0,1-1.81.423,3.829,3.829,0,0,1-2.988-1.22,4.84,4.84,0,0,1-1.1-3.37v-.208a4.759,4.759,0,0,1,1.1-3.283,3.8,3.8,0,0,1,2.988-1.233,3.69,3.69,0,0,1,2.611.934A3.345,3.345,0,0,1,99,12.239H97.1a1.847,1.847,0,0,0-.527-1.27,1.7,1.7,0,0,0-1.258-.5,1.775,1.775,0,0,0-1.511.71,3.621,3.621,0,0,0-.54,2.154v.324a3.681,3.681,0,0,0,.527,2.179A1.774,1.774,0,0,0,95.315,16.556Zm9.911-5.694a4.991,4.991,0,0,0-.822-.066,1.85,1.85,0,0,0-1.868,1.063V18H100.52V9.019h1.926l.05,1a2.273,2.273,0,0,1,2.025-1.17,1.888,1.888,0,0,1,.714.116Zm5.229,7.3a4.173,4.173,0,0,1-3.109-1.208,4.381,4.381,0,0,1-1.191-3.217v-.249a5.389,5.389,0,0,1,.519-2.4,3.949,3.949,0,0,1,1.457-1.648,3.851,3.851,0,0,1,2.092-.589,3.525,3.525,0,0,1,2.835,1.17,4.949,4.949,0,0,1,1,3.312v.813H108.19a2.7,2.7,0,0,0,.743,1.76,2.23,2.23,0,0,0,1.639.647,2.731,2.731,0,0,0,2.258-1.121l1.087,1.038a3.631,3.631,0,0,1-1.44,1.249A4.509,4.509,0,0,1,110.456,18.166Zm-.241-7.695a1.7,1.7,0,0,0-1.341.581,3.012,3.012,0,0,0-.652,1.619h3.843v-.149a2.452,2.452,0,0,0-.54-1.531A1.686,1.686,0,0,0,110.215,10.471Zm.457-5.221h2.3l-2.3,2.515-1.619,0Zm4.574,8.193a5.34,5.34,0,0,1,.963-3.333,3.085,3.085,0,0,1,2.582-1.258,2.931,2.931,0,0,1,2.308,1V5.25h2.017V18h-1.826l-.1-.93a2.973,2.973,0,0,1-2.416,1.1,3.068,3.068,0,0,1-2.552-1.27A5.535,5.535,0,0,1,115.245,13.443Zm2.017.174a3.739,3.739,0,0,0,.527,2.137,1.71,1.71,0,0,0,1.5.768,1.9,1.9,0,0,0,1.81-1.1V11.583A1.876,1.876,0,0,0,119.3,10.5a1.723,1.723,0,0,0-1.511.776A4.163,4.163,0,0,0,117.262,13.617ZM127.365,18h-2.017V9.019h2.017ZM125.223,6.686a1.071,1.071,0,0,1,.295-.772,1.113,1.113,0,0,1,.843-.307,1.127,1.127,0,0,1,.847.307,1.062,1.062,0,0,1,.3.772,1.038,1.038,0,0,1-.3.76,1.136,1.136,0,0,1-.847.3,1.122,1.122,0,0,1-.843-.3A1.046,1.046,0,0,1,125.223,6.686Zm6.865.149V9.019h1.585v1.494h-1.585v5.014a1.1,1.1,0,0,0,.2.743.943.943,0,0,0,.726.228,3.107,3.107,0,0,0,.706-.083v1.561a4.968,4.968,0,0,1-1.328.191q-2.324,0-2.324-2.565V10.513h-1.478V9.019h1.478V6.835Zm2.5,6.591a5.3,5.3,0,0,1,.523-2.378,3.819,3.819,0,0,1,1.469-1.627,4.14,4.14,0,0,1,2.175-.569,3.923,3.923,0,0,1,2.951,1.17,4.6,4.6,0,0,1,1.224,3.1l.008.473a5.343,5.343,0,0,1-.51,2.374,3.773,3.773,0,0,1-1.461,1.619,4.17,4.17,0,0,1-2.2.573,3.9,3.9,0,0,1-3.042-1.266,4.848,4.848,0,0,1-1.141-3.374Zm2.017.174a3.619,3.619,0,0,0,.573,2.171,1.862,1.862,0,0,0,1.594.784,1.842,1.842,0,0,0,1.59-.8,4,4,0,0,0,.569-2.333,3.572,3.572,0,0,0-.585-2.158,1.973,1.973,0,0,0-3.158-.012A3.922,3.922,0,0,0,136.6,13.6Zm8.326,7.122-1.087-.647a5.865,5.865,0,0,0,.66-1.316,3.926,3.926,0,0,0,.187-1.141V16.049h1.818L146.5,17.5a4.049,4.049,0,0,1-.444,1.764A4.382,4.382,0,0,1,144.929,20.723ZM160.476,13.6a5.348,5.348,0,0,1-.946,3.324,3.287,3.287,0,0,1-4.906.27v4.258h-2.017V9.019h1.859l.083.913a2.963,2.963,0,0,1,2.416-1.079,3.062,3.062,0,0,1,2.577,1.224,5.49,5.49,0,0,1,.934,3.4Zm-2.009-.174a3.746,3.746,0,0,0-.535-2.133A1.741,1.741,0,0,0,156.4,10.5a1.856,1.856,0,0,0-1.776,1.021V15.51a1.873,1.873,0,0,0,1.793,1.046,1.739,1.739,0,0,0,1.507-.776A4.123,4.123,0,0,0,158.468,13.426Zm3.337,0a5.3,5.3,0,0,1,.523-2.378A3.819,3.819,0,0,1,163.8,9.421a4.14,4.14,0,0,1,2.175-.569,3.923,3.923,0,0,1,2.951,1.17,4.6,4.6,0,0,1,1.224,3.1l.008.473a5.343,5.343,0,0,1-.51,2.374,3.773,3.773,0,0,1-1.461,1.619,4.17,4.17,0,0,1-2.2.573,3.9,3.9,0,0,1-3.042-1.266,4.848,4.848,0,0,1-1.141-3.374Zm2.017.174a3.619,3.619,0,0,0,.573,2.171,1.862,1.862,0,0,0,1.594.784,1.842,1.842,0,0,0,1.59-.8,4,4,0,0,0,.569-2.333,3.572,3.572,0,0,0-.585-2.158,1.973,1.973,0,0,0-3.158-.012A3.922,3.922,0,0,0,163.822,13.6Zm12.742-2.739a4.991,4.991,0,0,0-.822-.066,1.85,1.85,0,0,0-1.868,1.063V18h-2.017V9.019h1.926l.05,1a2.273,2.273,0,0,1,2.025-1.17,1.888,1.888,0,0,1,.714.116Zm5.13,2.565a5.3,5.3,0,0,1,.523-2.378,3.819,3.819,0,0,1,1.469-1.627,4.14,4.14,0,0,1,2.175-.569,3.923,3.923,0,0,1,2.951,1.17,4.6,4.6,0,0,1,1.224,3.1l.008.473a5.343,5.343,0,0,1-.51,2.374,3.773,3.773,0,0,1-1.461,1.619,4.17,4.17,0,0,1-2.2.573,3.9,3.9,0,0,1-3.042-1.266,4.848,4.848,0,0,1-1.141-3.374Zm2.017.174a3.619,3.619,0,0,0,.573,2.171,1.862,1.862,0,0,0,1.594.784,1.842,1.842,0,0,0,1.59-.8,4,4,0,0,0,.569-2.333,3.572,3.572,0,0,0-.585-2.158,1.973,1.973,0,0,0-3.158-.012A3.922,3.922,0,0,0,183.71,13.6Zm10.567-6.765V9.019h1.585v1.494h-1.585v5.014a1.1,1.1,0,0,0,.2.743.943.943,0,0,0,.726.228,3.107,3.107,0,0,0,.706-.083v1.561a4.968,4.968,0,0,1-1.328.191q-2.324,0-2.324-2.565V10.513h-1.478V9.019h1.478V6.835Zm7.828,4.026a4.991,4.991,0,0,0-.822-.066,1.85,1.85,0,0,0-1.868,1.063V18H197.4V9.019h1.926l.05,1a2.273,2.273,0,0,1,2.025-1.17,1.888,1.888,0,0,1,.714.116Zm.6,2.565a5.3,5.3,0,0,1,.523-2.378,3.819,3.819,0,0,1,1.469-1.627,4.14,4.14,0,0,1,2.175-.569,3.923,3.923,0,0,1,2.951,1.17,4.6,4.6,0,0,1,1.224,3.1l.008.473a5.343,5.343,0,0,1-.51,2.374,3.773,3.773,0,0,1-1.461,1.619,4.17,4.17,0,0,1-2.2.573,3.9,3.9,0,0,1-3.042-1.266,4.848,4.848,0,0,1-1.141-3.374Zm2.017.174a3.619,3.619,0,0,0,.573,2.171,1.862,1.862,0,0,0,1.594.784,1.842,1.842,0,0,0,1.59-.8,4,4,0,0,0,.569-2.333,3.572,3.572,0,0,0-.585-2.158,1.973,1.973,0,0,0-3.158-.012A3.922,3.922,0,0,0,204.719,13.6ZM219.138,18h-2.017V5.25h2.017Zm7.562,0a3.113,3.113,0,0,1-.232-.838,3.393,3.393,0,0,1-4.565.232,2.47,2.47,0,0,1-.855-1.909,2.55,2.55,0,0,1,1.067-2.2,5.169,5.169,0,0,1,3.051-.768H226.4v-.589a1.573,1.573,0,0,0-.39-1.116,1.547,1.547,0,0,0-1.187-.419,1.777,1.777,0,0,0-1.129.344,1.066,1.066,0,0,0-.44.876h-2.017a2.239,2.239,0,0,1,.49-1.382,3.263,3.263,0,0,1,1.332-1.009,4.68,4.68,0,0,1,1.88-.365,3.769,3.769,0,0,1,2.515.793,2.827,2.827,0,0,1,.963,2.229v4.051a4.591,4.591,0,0,0,.34,1.934V18Zm-2.216-1.453a2.294,2.294,0,0,0,1.125-.291,1.941,1.941,0,0,0,.793-.78V13.783h-1.087a2.973,2.973,0,0,0-1.685.39,1.264,1.264,0,0,0-.564,1.1,1.179,1.179,0,0,0,.386.926A1.5,1.5,0,0,0,224.484,16.547Zm5.669-3.1a5.34,5.34,0,0,1,.963-3.333A3.085,3.085,0,0,1,233.7,8.853a2.931,2.931,0,0,1,2.308,1V5.25h2.017V18H236.2l-.1-.93a2.973,2.973,0,0,1-2.416,1.1,3.068,3.068,0,0,1-2.552-1.27A5.535,5.535,0,0,1,230.153,13.443Zm2.017.174a3.739,3.739,0,0,0,.527,2.137,1.71,1.71,0,0,0,1.5.768,1.9,1.9,0,0,0,1.81-1.1V11.583a1.876,1.876,0,0,0-1.793-1.079,1.723,1.723,0,0,0-1.511.776A4.163,4.163,0,0,0,232.17,13.617Zm7.579-.191a5.3,5.3,0,0,1,.523-2.378,3.819,3.819,0,0,1,1.469-1.627,4.14,4.14,0,0,1,2.175-.569,3.923,3.923,0,0,1,2.951,1.17,4.6,4.6,0,0,1,1.224,3.1l.008.473a5.343,5.343,0,0,1-.51,2.374,3.773,3.773,0,0,1-1.461,1.619,4.17,4.17,0,0,1-2.2.573A3.9,3.9,0,0,1,240.89,16.9a4.848,4.848,0,0,1-1.141-3.374Zm2.017.174a3.619,3.619,0,0,0,.573,2.171,1.862,1.862,0,0,0,1.594.784,1.842,1.842,0,0,0,1.59-.8,4,4,0,0,0,.569-2.333,3.572,3.572,0,0,0-.585-2.158,1.973,1.973,0,0,0-3.158-.012A3.922,3.922,0,0,0,241.766,13.6Zm8.326,7.122L249,20.075a5.865,5.865,0,0,0,.66-1.316,3.926,3.926,0,0,0,.187-1.141V16.049h1.818L251.66,17.5a4.049,4.049,0,0,1-.444,1.764A4.382,4.382,0,0,1,250.092,20.723ZM259.92,18H257.9V5.25h2.017Zm6.151.166a4.173,4.173,0,0,1-3.109-1.208,4.381,4.381,0,0,1-1.191-3.217v-.249a5.389,5.389,0,0,1,.519-2.4,3.949,3.949,0,0,1,1.457-1.648,3.851,3.851,0,0,1,2.092-.589,3.525,3.525,0,0,1,2.835,1.17,4.949,4.949,0,0,1,1,3.312v.813H263.8a2.7,2.7,0,0,0,.743,1.76,2.23,2.23,0,0,0,1.639.647,2.731,2.731,0,0,0,2.258-1.121l1.087,1.038a3.631,3.631,0,0,1-1.44,1.249A4.509,4.509,0,0,1,266.071,18.166Zm-.241-7.695a1.7,1.7,0,0,0-1.341.581,3.012,3.012,0,0,0-.652,1.619h3.843v-.149a2.452,2.452,0,0,0-.54-1.531A1.686,1.686,0,0,0,265.83,10.471ZM33.126,37.6a5.348,5.348,0,0,1-.946,3.324,3.287,3.287,0,0,1-4.906.27v4.258H25.257V33.019h1.859l.083.913a2.963,2.963,0,0,1,2.416-1.079,3.062,3.062,0,0,1,2.577,1.224,5.49,5.49,0,0,1,.934,3.4Zm-2.009-.174a3.746,3.746,0,0,0-.535-2.133A1.741,1.741,0,0,0,29.05,34.5a1.856,1.856,0,0,0-1.776,1.021V39.51a1.873,1.873,0,0,0,1.793,1.046,1.739,1.739,0,0,0,1.507-.776A4.124,4.124,0,0,0,31.117,37.426Zm7.67,4.74a4.173,4.173,0,0,1-3.109-1.208,4.381,4.381,0,0,1-1.191-3.217v-.249a5.389,5.389,0,0,1,.519-2.4,3.949,3.949,0,0,1,1.457-1.648,3.851,3.851,0,0,1,2.092-.589,3.525,3.525,0,0,1,2.835,1.17,4.949,4.949,0,0,1,1,3.312v.813H36.521a2.7,2.7,0,0,0,.743,1.76,2.23,2.23,0,0,0,1.639.647,2.731,2.731,0,0,0,2.258-1.121l1.087,1.038a3.631,3.631,0,0,1-1.44,1.249A4.509,4.509,0,0,1,38.787,42.166Zm-.241-7.695a1.7,1.7,0,0,0-1.341.581,3.012,3.012,0,0,0-.652,1.619H40.4v-.149a2.452,2.452,0,0,0-.54-1.531A1.686,1.686,0,0,0,38.546,34.471Zm10.11.39a4.992,4.992,0,0,0-.822-.066,1.85,1.85,0,0,0-1.868,1.063V42H43.95V33.019h1.926l.05,1a2.273,2.273,0,0,1,2.025-1.17,1.888,1.888,0,0,1,.714.116Zm3.171-1.843.058.938a3.232,3.232,0,0,1,2.59-1.1,2.483,2.483,0,0,1,2.465,1.378A3.186,3.186,0,0,1,59.7,32.853a2.8,2.8,0,0,1,2.212.822,3.618,3.618,0,0,1,.743,2.424V42H60.635V36.156a1.786,1.786,0,0,0-.374-1.253,1.635,1.635,0,0,0-1.237-.4,1.679,1.679,0,0,0-1.125.369,1.948,1.948,0,0,0-.61.967L57.3,42H55.281V36.09A1.439,1.439,0,0,0,53.662,34.5a1.776,1.776,0,0,0-1.718.988V42H49.927V33.019ZM66.868,42H64.851V33.019h2.017ZM64.727,30.686a1.071,1.071,0,0,1,.295-.772,1.113,1.113,0,0,1,.843-.307,1.127,1.127,0,0,1,.847.307,1.062,1.062,0,0,1,.3.772,1.038,1.038,0,0,1-.3.76,1.136,1.136,0,0,1-.847.3,1.122,1.122,0,0,1-.843-.3A1.046,1.046,0,0,1,64.727,30.686Zm6.865.149v2.183h1.585v1.494H71.592v5.014a1.1,1.1,0,0,0,.2.743.943.943,0,0,0,.726.228,3.107,3.107,0,0,0,.706-.083v1.561a4.968,4.968,0,0,1-1.328.191q-2.324,0-2.324-2.565V34.513H68.1V33.019h1.478V30.835Zm7.081,11.331a4.173,4.173,0,0,1-3.109-1.208,4.381,4.381,0,0,1-1.191-3.217v-.249a5.389,5.389,0,0,1,.519-2.4,3.949,3.949,0,0,1,1.457-1.648,3.851,3.851,0,0,1,2.092-.589,3.525,3.525,0,0,1,2.835,1.17,4.949,4.949,0,0,1,1,3.312v.813H76.406a2.7,2.7,0,0,0,.743,1.76,2.23,2.23,0,0,0,1.639.647,2.731,2.731,0,0,0,2.258-1.121l1.087,1.038a3.631,3.631,0,0,1-1.44,1.249A4.509,4.509,0,0,1,78.672,42.166Zm-.241-7.695a1.7,1.7,0,0,0-1.341.581,3.012,3.012,0,0,0-.652,1.619h3.843v-.149a2.452,2.452,0,0,0-.54-1.531A1.686,1.686,0,0,0,78.431,34.471ZM93.439,42a3.113,3.113,0,0,1-.232-.838,3.393,3.393,0,0,1-4.565.232,2.47,2.47,0,0,1-.855-1.909,2.55,2.55,0,0,1,1.067-2.2,5.169,5.169,0,0,1,3.051-.768H93.14v-.589a1.573,1.573,0,0,0-.39-1.116,1.547,1.547,0,0,0-1.187-.419,1.777,1.777,0,0,0-1.129.344,1.066,1.066,0,0,0-.44.876H87.977a2.239,2.239,0,0,1,.49-1.382A3.263,3.263,0,0,1,89.8,33.218a4.68,4.68,0,0,1,1.88-.365,3.769,3.769,0,0,1,2.515.793,2.827,2.827,0,0,1,.963,2.229v4.051a4.591,4.591,0,0,0,.34,1.934V42Zm-2.216-1.453a2.294,2.294,0,0,0,1.125-.291,1.941,1.941,0,0,0,.793-.78V37.783H92.053a2.973,2.973,0,0,0-1.685.39,1.264,1.264,0,0,0-.564,1.1,1.179,1.179,0,0,0,.386.926A1.5,1.5,0,0,0,91.223,40.547ZM99.416,42H97.4V29.25h2.017Zm10.119-1.444a1.824,1.824,0,0,0,1.253-.44,1.5,1.5,0,0,0,.531-1.087h1.9a2.963,2.963,0,0,1-.523,1.565,3.43,3.43,0,0,1-1.328,1.15,3.958,3.958,0,0,1-1.81.423,3.829,3.829,0,0,1-2.988-1.22,4.84,4.84,0,0,1-1.1-3.37v-.208a4.759,4.759,0,0,1,1.1-3.283,3.8,3.8,0,0,1,2.988-1.233,3.69,3.69,0,0,1,2.611.934,3.345,3.345,0,0,1,1.058,2.453h-1.9a1.847,1.847,0,0,0-.527-1.27,1.7,1.7,0,0,0-1.258-.5,1.775,1.775,0,0,0-1.511.71,3.621,3.621,0,0,0-.54,2.154v.324a3.681,3.681,0,0,0,.527,2.179A1.773,1.773,0,0,0,109.534,40.556ZM116.889,42h-2.017V29.25h2.017Zm4.341,0h-2.017V33.019h2.017Zm-2.142-11.314a1.071,1.071,0,0,1,.295-.772,1.113,1.113,0,0,1,.843-.307,1.127,1.127,0,0,1,.847.307,1.062,1.062,0,0,1,.3.772,1.038,1.038,0,0,1-.3.76,1.136,1.136,0,0,1-.847.3,1.122,1.122,0,0,1-.843-.3A1.046,1.046,0,0,1,119.089,30.686Zm8.292,11.48a4.173,4.173,0,0,1-3.109-1.208,4.381,4.381,0,0,1-1.191-3.217v-.249a5.389,5.389,0,0,1,.519-2.4,3.949,3.949,0,0,1,1.457-1.648,3.851,3.851,0,0,1,2.092-.589,3.525,3.525,0,0,1,2.835,1.17,4.949,4.949,0,0,1,1,3.312v.813h-5.869a2.7,2.7,0,0,0,.743,1.76,2.23,2.23,0,0,0,1.639.647,2.731,2.731,0,0,0,2.258-1.121l1.087,1.038a3.631,3.631,0,0,1-1.44,1.249A4.509,4.509,0,0,1,127.381,42.166Zm-.241-7.695a1.7,1.7,0,0,0-1.341.581,3.012,3.012,0,0,0-.652,1.619h3.843v-.149a2.452,2.452,0,0,0-.54-1.531A1.686,1.686,0,0,0,127.14,34.471Zm7.28-1.453.058,1.038a3.229,3.229,0,0,1,2.615-1.2q2.806,0,2.855,3.212V42h-2.017V36.181a1.85,1.85,0,0,0-.369-1.266,1.554,1.554,0,0,0-1.208-.411,1.944,1.944,0,0,0-1.818,1.1V42h-2.017V33.019Zm10.11-2.183v2.183h1.585v1.494h-1.585v5.014a1.1,1.1,0,0,0,.2.743.943.943,0,0,0,.726.228,3.107,3.107,0,0,0,.706-.083v1.561a4.968,4.968,0,0,1-1.328.191q-2.324,0-2.324-2.565V34.513h-1.478V33.019h1.478V30.835Zm7.081,11.331a4.173,4.173,0,0,1-3.109-1.208,4.381,4.381,0,0,1-1.191-3.217v-.249a5.389,5.389,0,0,1,.519-2.4,3.949,3.949,0,0,1,1.457-1.648,3.851,3.851,0,0,1,2.092-.589,3.525,3.525,0,0,1,2.835,1.17,4.949,4.949,0,0,1,1,3.312v.813h-5.869a2.7,2.7,0,0,0,.743,1.76,2.23,2.23,0,0,0,1.639.647,2.731,2.731,0,0,0,2.258-1.121l1.087,1.038a3.631,3.631,0,0,1-1.44,1.249A4.509,4.509,0,0,1,151.611,42.166Zm-.241-7.695a1.7,1.7,0,0,0-1.341.581,3.012,3.012,0,0,0-.652,1.619h3.843v-.149a2.452,2.452,0,0,0-.54-1.531A1.686,1.686,0,0,0,151.37,34.471Zm14.676,5.088a.914.914,0,0,0-.444-.822,4.723,4.723,0,0,0-1.473-.5,7.574,7.574,0,0,1-1.718-.548,2.293,2.293,0,0,1-1.511-2.117,2.391,2.391,0,0,1,.979-1.942,3.872,3.872,0,0,1,2.49-.78,4.029,4.029,0,0,1,2.6.8,2.529,2.529,0,0,1,.992,2.067h-2.017a1.243,1.243,0,0,0-.432-.967,1.654,1.654,0,0,0-1.146-.386,1.787,1.787,0,0,0-1.083.307.968.968,0,0,0-.419.822.818.818,0,0,0,.39.722,5.365,5.365,0,0,0,1.577.519,7.466,7.466,0,0,1,1.864.623,2.639,2.639,0,0,1,1,.867,2.212,2.212,0,0,1,.328,1.229,2.34,2.34,0,0,1-1,1.963,4.283,4.283,0,0,1-2.631.751,4.644,4.644,0,0,1-1.967-.4,3.238,3.238,0,0,1-1.345-1.1,2.594,2.594,0,0,1-.481-1.5h1.959a1.421,1.421,0,0,0,.54,1.1,2.1,2.1,0,0,0,1.32.386,2.04,2.04,0,0,0,1.212-.3A.938.938,0,0,0,166.046,39.56ZM175.152,42a3.113,3.113,0,0,1-.232-.838,3.393,3.393,0,0,1-4.565.232,2.47,2.47,0,0,1-.855-1.909,2.55,2.55,0,0,1,1.067-2.2,5.169,5.169,0,0,1,3.051-.768h1.237v-.589a1.573,1.573,0,0,0-.39-1.116,1.547,1.547,0,0,0-1.187-.419,1.777,1.777,0,0,0-1.129.344,1.066,1.066,0,0,0-.44.876H169.69a2.239,2.239,0,0,1,.49-1.382,3.263,3.263,0,0,1,1.332-1.009,4.68,4.68,0,0,1,1.88-.365,3.769,3.769,0,0,1,2.515.793,2.827,2.827,0,0,1,.963,2.229v4.051a4.591,4.591,0,0,0,.34,1.934V42Zm-2.216-1.453a2.294,2.294,0,0,0,1.125-.291,1.941,1.941,0,0,0,.793-.78V37.783h-1.087a2.973,2.973,0,0,0-1.685.39,1.264,1.264,0,0,0-.564,1.1,1.179,1.179,0,0,0,.386.926A1.5,1.5,0,0,0,172.936,40.547ZM186.865,37.6a5.4,5.4,0,0,1-.934,3.329,3.042,3.042,0,0,1-2.569,1.237,2.93,2.93,0,0,1-2.457-1.137l-.1.971h-1.826V29.25H181v4.632a2.92,2.92,0,0,1,2.349-1.029,3.077,3.077,0,0,1,2.582,1.22,5.484,5.484,0,0,1,.938,3.412Zm-2.017-.174a3.813,3.813,0,0,0-.515-2.191,1.714,1.714,0,0,0-1.494-.73A1.873,1.873,0,0,0,181,35.65v3.7a1.892,1.892,0,0,0,1.859,1.17,1.7,1.7,0,0,0,1.461-.706,3.7,3.7,0,0,0,.531-2.133Zm7.662,4.74a4.173,4.173,0,0,1-3.109-1.208,4.381,4.381,0,0,1-1.191-3.217v-.249a5.389,5.389,0,0,1,.519-2.4,3.949,3.949,0,0,1,1.457-1.648,3.851,3.851,0,0,1,2.092-.589,3.525,3.525,0,0,1,2.835,1.17,4.949,4.949,0,0,1,1,3.312v.813h-5.869a2.7,2.7,0,0,0,.743,1.76,2.23,2.23,0,0,0,1.639.647,2.731,2.731,0,0,0,2.258-1.121l1.087,1.038a3.631,3.631,0,0,1-1.44,1.249A4.509,4.509,0,0,1,192.509,42.166Zm-.241-7.695a1.7,1.7,0,0,0-1.341.581,3.012,3.012,0,0,0-.652,1.619h3.843v-.149a2.452,2.452,0,0,0-.54-1.531A1.686,1.686,0,0,0,192.268,34.471Zm10.11.39a4.992,4.992,0,0,0-.822-.066,1.85,1.85,0,0,0-1.868,1.063V42h-2.017V33.019H199.6l.05,1a2.273,2.273,0,0,1,2.025-1.17,1.888,1.888,0,0,1,.714.116Zm5.13,2.573a5.307,5.307,0,0,1,.963-3.345,3.129,3.129,0,0,1,2.606-1.237,2.941,2.941,0,0,1,2.382,1.054l.116-.888h1.793V45.453h-2.017V41.236a3.011,3.011,0,0,1-2.291.93,3.1,3.1,0,0,1-2.582-1.258A5.557,5.557,0,0,1,207.509,37.435Zm2.017.174a3.748,3.748,0,0,0,.544,2.162,1.733,1.733,0,0,0,1.507.784,1.911,1.911,0,0,0,1.776-1.021V35.451a1.912,1.912,0,0,0-1.76-.979,1.762,1.762,0,0,0-1.515.772A4.089,4.089,0,0,0,209.526,37.609Zm13.456,3.511a3.128,3.128,0,0,1-2.523,1.046,2.788,2.788,0,0,1-2.212-.855,3.637,3.637,0,0,1-.751-2.474V33.019h2.017v5.794q0,1.71,1.419,1.71a1.993,1.993,0,0,0,1.984-1.054v-6.45h2.017V42h-1.9Zm7.96,1.046a4.173,4.173,0,0,1-3.109-1.208,4.381,4.381,0,0,1-1.191-3.217v-.249a5.389,5.389,0,0,1,.519-2.4,3.949,3.949,0,0,1,1.457-1.648,3.851,3.851,0,0,1,2.092-.589,3.525,3.525,0,0,1,2.835,1.17,4.949,4.949,0,0,1,1,3.312v.813h-5.869a2.7,2.7,0,0,0,.743,1.76,2.23,2.23,0,0,0,1.639.647,2.731,2.731,0,0,0,2.258-1.121l1.087,1.038a3.631,3.631,0,0,1-1.44,1.249A4.509,4.509,0,0,1,230.942,42.166Zm-.241-7.695a1.7,1.7,0,0,0-1.341.581,3.012,3.012,0,0,0-.652,1.619h3.843v-.149a2.452,2.452,0,0,0-.54-1.531A1.686,1.686,0,0,0,230.7,34.471Zm13.6,7.695a4.173,4.173,0,0,1-3.109-1.208A4.381,4.381,0,0,1,240,37.742v-.249a5.389,5.389,0,0,1,.519-2.4,3.949,3.949,0,0,1,1.457-1.648,3.851,3.851,0,0,1,2.092-.589,3.525,3.525,0,0,1,2.835,1.17,4.949,4.949,0,0,1,1,3.312v.813h-5.869a2.7,2.7,0,0,0,.743,1.76,2.23,2.23,0,0,0,1.639.647,2.731,2.731,0,0,0,2.258-1.121l1.087,1.038a3.631,3.631,0,0,1-1.44,1.249A4.509,4.509,0,0,1,244.3,42.166Zm-.241-7.695a1.7,1.7,0,0,0-1.341.581,3.012,3.012,0,0,0-.652,1.619h3.843v-.149a2.452,2.452,0,0,0-.54-1.531A1.686,1.686,0,0,0,244.057,34.471ZM251.611,42h-2.017V29.25h2.017ZM11.9,61.443a5.34,5.34,0,0,1,.963-3.333,3.085,3.085,0,0,1,2.582-1.258,2.931,2.931,0,0,1,2.308,1v-4.6h2.017V66H17.948l-.1-.93a2.973,2.973,0,0,1-2.416,1.1A3.068,3.068,0,0,1,12.88,64.9,5.535,5.535,0,0,1,11.9,61.443Zm2.017.174a3.739,3.739,0,0,0,.527,2.137,1.71,1.71,0,0,0,1.5.768,1.9,1.9,0,0,0,1.81-1.1V59.583A1.876,1.876,0,0,0,15.964,58.5a1.723,1.723,0,0,0-1.511.776A4.163,4.163,0,0,0,13.922,61.617ZM24.024,66H22.007V57.019h2.017ZM21.882,54.686a1.071,1.071,0,0,1,.295-.772,1.113,1.113,0,0,1,.843-.307,1.127,1.127,0,0,1,.847.307,1.062,1.062,0,0,1,.3.772,1.038,1.038,0,0,1-.3.76,1.136,1.136,0,0,1-.847.3,1.122,1.122,0,0,1-.843-.3A1.046,1.046,0,0,1,21.882,54.686Zm6.209,2.333.058,1.038a3.229,3.229,0,0,1,2.615-1.2q2.806,0,2.855,3.212V66H31.6V60.181a1.85,1.85,0,0,0-.369-1.266,1.554,1.554,0,0,0-1.208-.411,1.944,1.944,0,0,0-1.818,1.1V66H26.19V57.019Zm11.538,9.147a4.173,4.173,0,0,1-3.109-1.208,4.381,4.381,0,0,1-1.191-3.217v-.249a5.389,5.389,0,0,1,.519-2.4,3.949,3.949,0,0,1,1.457-1.648,3.851,3.851,0,0,1,2.092-.589,3.525,3.525,0,0,1,2.835,1.17,4.949,4.949,0,0,1,1,3.312v.813H37.363a2.7,2.7,0,0,0,.743,1.76,2.23,2.23,0,0,0,1.639.647A2.731,2.731,0,0,0,42,63.435l1.087,1.038a3.631,3.631,0,0,1-1.44,1.249A4.509,4.509,0,0,1,39.629,66.166Zm-.241-7.695a1.7,1.7,0,0,0-1.341.581,3.012,3.012,0,0,0-.652,1.619H41.24v-.149a2.452,2.452,0,0,0-.54-1.531A1.686,1.686,0,0,0,39.389,58.471Zm10.11.39a4.992,4.992,0,0,0-.822-.066,1.85,1.85,0,0,0-1.868,1.063V66H44.792V57.019h1.926l.05,1a2.273,2.273,0,0,1,2.025-1.17,1.888,1.888,0,0,1,.714.116Zm.6,2.565a5.3,5.3,0,0,1,.523-2.378,3.819,3.819,0,0,1,1.469-1.627,4.14,4.14,0,0,1,2.175-.569,3.923,3.923,0,0,1,2.951,1.17,4.6,4.6,0,0,1,1.224,3.1l.008.473a5.343,5.343,0,0,1-.51,2.374,3.773,3.773,0,0,1-1.461,1.619,4.17,4.17,0,0,1-2.2.573A3.9,3.9,0,0,1,51.238,64.9,4.848,4.848,0,0,1,50.1,61.526Zm2.017.174a3.619,3.619,0,0,0,.573,2.171,1.862,1.862,0,0,0,1.594.784,1.842,1.842,0,0,0,1.59-.8,4,4,0,0,0,.569-2.333,3.572,3.572,0,0,0-.585-2.158,1.973,1.973,0,0,0-3.158-.012A3.922,3.922,0,0,0,52.114,61.6Zm20.138,0a5.348,5.348,0,0,1-.946,3.324,3.287,3.287,0,0,1-4.906.27v4.258H64.382V57.019h1.859l.083.913a2.963,2.963,0,0,1,2.416-1.079,3.062,3.062,0,0,1,2.577,1.224,5.49,5.49,0,0,1,.934,3.4Zm-2.009-.174a3.746,3.746,0,0,0-.535-2.133,1.741,1.741,0,0,0-1.531-.789A1.856,1.856,0,0,0,66.4,59.525V63.51a1.873,1.873,0,0,0,1.793,1.046A1.739,1.739,0,0,0,69.7,63.78,4.124,4.124,0,0,0,70.243,61.426Zm3.337,0a5.3,5.3,0,0,1,.523-2.378,3.819,3.819,0,0,1,1.469-1.627,4.14,4.14,0,0,1,2.175-.569,3.923,3.923,0,0,1,2.951,1.17,4.6,4.6,0,0,1,1.224,3.1l.008.473a5.343,5.343,0,0,1-.51,2.374,3.773,3.773,0,0,1-1.461,1.619,4.17,4.17,0,0,1-2.2.573A3.9,3.9,0,0,1,74.721,64.9a4.848,4.848,0,0,1-1.141-3.374ZM75.6,61.6a3.619,3.619,0,0,0,.573,2.171,1.862,1.862,0,0,0,1.594.784,1.842,1.842,0,0,0,1.59-.8,4,4,0,0,0,.569-2.333,3.572,3.572,0,0,0-.585-2.158,1.973,1.973,0,0,0-3.158-.012A3.922,3.922,0,0,0,75.6,61.6Zm12.742-2.739a4.992,4.992,0,0,0-.822-.066,1.85,1.85,0,0,0-1.868,1.063V66H83.632V57.019h1.926l.05,1a2.273,2.273,0,0,1,2.025-1.17,1.888,1.888,0,0,1,.714.116Zm9.463,7.3a4.173,4.173,0,0,1-3.109-1.208A4.381,4.381,0,0,1,93.5,61.742v-.249a5.389,5.389,0,0,1,.519-2.4,3.949,3.949,0,0,1,1.457-1.648,3.851,3.851,0,0,1,2.092-.589,3.525,3.525,0,0,1,2.835,1.17,4.949,4.949,0,0,1,1,3.312v.813H95.535a2.7,2.7,0,0,0,.743,1.76,2.23,2.23,0,0,0,1.639.647,2.731,2.731,0,0,0,2.258-1.121l1.087,1.038a3.631,3.631,0,0,1-1.44,1.249A4.509,4.509,0,0,1,97.8,66.166Zm-.241-7.695a1.7,1.7,0,0,0-1.341.581,3.012,3.012,0,0,0-.652,1.619h3.843v-.149a2.452,2.452,0,0,0-.54-1.531A1.686,1.686,0,0,0,97.561,58.471ZM105.114,66H103.1V53.25h2.017Zm10.119-1.444a1.824,1.824,0,0,0,1.253-.44,1.5,1.5,0,0,0,.531-1.087h1.9a2.963,2.963,0,0,1-.523,1.565,3.43,3.43,0,0,1-1.328,1.15,3.958,3.958,0,0,1-1.81.423,3.829,3.829,0,0,1-2.988-1.22,4.84,4.84,0,0,1-1.1-3.37v-.208a4.759,4.759,0,0,1,1.1-3.283,3.8,3.8,0,0,1,2.988-1.233,3.69,3.69,0,0,1,2.611.934,3.345,3.345,0,0,1,1.058,2.453h-1.9a1.847,1.847,0,0,0-.527-1.27,1.7,1.7,0,0,0-1.258-.5,1.775,1.775,0,0,0-1.511.71,3.621,3.621,0,0,0-.54,2.154v.324a3.681,3.681,0,0,0,.527,2.179A1.774,1.774,0,0,0,115.233,64.556Zm10.65.564a3.128,3.128,0,0,1-2.523,1.046,2.788,2.788,0,0,1-2.212-.855,3.637,3.637,0,0,1-.751-2.474V57.019h2.017v5.794q0,1.71,1.419,1.71a1.993,1.993,0,0,0,1.984-1.054v-6.45h2.017V66h-1.9Zm9.372.88a3.113,3.113,0,0,1-.232-.838,3.393,3.393,0,0,1-4.565.232,2.47,2.47,0,0,1-.855-1.909,2.55,2.55,0,0,1,1.067-2.2,5.169,5.169,0,0,1,3.051-.768h1.237v-.589a1.573,1.573,0,0,0-.39-1.116,1.547,1.547,0,0,0-1.187-.419,1.777,1.777,0,0,0-1.129.344,1.066,1.066,0,0,0-.44.876h-2.017a2.239,2.239,0,0,1,.49-1.382,3.263,3.263,0,0,1,1.332-1.009,4.68,4.68,0,0,1,1.88-.365,3.769,3.769,0,0,1,2.515.793,2.827,2.827,0,0,1,.963,2.229v4.051a4.591,4.591,0,0,0,.34,1.934V66Zm-2.216-1.453a2.294,2.294,0,0,0,1.125-.291,1.941,1.941,0,0,0,.793-.78V61.783h-1.087a2.973,2.973,0,0,0-1.685.39,1.264,1.264,0,0,0-.564,1.1A1.179,1.179,0,0,0,132,64.2,1.5,1.5,0,0,0,133.038,64.547ZM141.231,66h-2.017V53.25h2.017Zm11.463-2.44a.914.914,0,0,0-.444-.822,4.723,4.723,0,0,0-1.473-.5,7.574,7.574,0,0,1-1.718-.548,2.293,2.293,0,0,1-1.511-2.117,2.391,2.391,0,0,1,.979-1.942,3.872,3.872,0,0,1,2.49-.78,4.029,4.029,0,0,1,2.6.8,2.529,2.529,0,0,1,.992,2.067h-2.017a1.243,1.243,0,0,0-.432-.967,1.654,1.654,0,0,0-1.146-.386,1.787,1.787,0,0,0-1.083.307.968.968,0,0,0-.419.822.818.818,0,0,0,.39.722,5.365,5.365,0,0,0,1.577.519,7.466,7.466,0,0,1,1.864.623,2.639,2.639,0,0,1,1,.867,2.212,2.212,0,0,1,.328,1.229,2.34,2.34,0,0,1-1,1.963,4.283,4.283,0,0,1-2.631.751,4.644,4.644,0,0,1-1.967-.4,3.238,3.238,0,0,1-1.345-1.1,2.594,2.594,0,0,1-.481-1.5h1.959a1.421,1.421,0,0,0,.54,1.1,2.1,2.1,0,0,0,1.32.386,2.04,2.04,0,0,0,1.212-.3A.938.938,0,0,0,152.694,63.56Zm7.695,2.606a4.173,4.173,0,0,1-3.109-1.208,4.381,4.381,0,0,1-1.191-3.217v-.249a5.389,5.389,0,0,1,.519-2.4,3.949,3.949,0,0,1,1.457-1.648,3.851,3.851,0,0,1,2.092-.589,3.525,3.525,0,0,1,2.835,1.17,4.949,4.949,0,0,1,1,3.312v.813h-5.869a2.7,2.7,0,0,0,.743,1.76,2.23,2.23,0,0,0,1.639.647,2.731,2.731,0,0,0,2.258-1.121l1.087,1.038a3.631,3.631,0,0,1-1.44,1.249A4.509,4.509,0,0,1,160.389,66.166Zm-.241-7.695a1.7,1.7,0,0,0-1.341.581,3.012,3.012,0,0,0-.652,1.619H162v-.149a2.452,2.452,0,0,0-.54-1.531A1.686,1.686,0,0,0,160.148,58.471Zm13.6,7.695a4.173,4.173,0,0,1-3.109-1.208,4.381,4.381,0,0,1-1.191-3.217v-.249a5.389,5.389,0,0,1,.519-2.4,3.949,3.949,0,0,1,1.457-1.648,3.851,3.851,0,0,1,2.092-.589,3.525,3.525,0,0,1,2.835,1.17,4.949,4.949,0,0,1,1,3.312v.813h-5.869a2.7,2.7,0,0,0,.743,1.76,2.23,2.23,0,0,0,1.639.647,2.731,2.731,0,0,0,2.258-1.121l1.087,1.038a3.631,3.631,0,0,1-1.44,1.249A4.509,4.509,0,0,1,173.745,66.166Zm-.241-7.695a1.7,1.7,0,0,0-1.341.581,3.012,3.012,0,0,0-.652,1.619h3.843v-.149a2.452,2.452,0,0,0-.54-1.531A1.686,1.686,0,0,0,173.5,58.471Zm7.28-1.453.058,1.038a3.229,3.229,0,0,1,2.615-1.2q2.806,0,2.855,3.212V66H184.3V60.181a1.85,1.85,0,0,0-.369-1.266,1.554,1.554,0,0,0-1.208-.411,1.944,1.944,0,0,0-1.818,1.1V66h-2.017V57.019Zm10.75,6.425,1.9-6.425h2.083L192.405,66h-1.751l-3.138-8.981h2.092ZM198.921,66H196.9V57.019h2.017ZM196.78,54.686a1.07,1.07,0,0,1,.295-.772,1.113,1.113,0,0,1,.843-.307,1.127,1.127,0,0,1,.847.307,1.062,1.062,0,0,1,.3.772,1.038,1.038,0,0,1-.3.76,1.136,1.136,0,0,1-.847.3,1.122,1.122,0,0,1-.843-.3A1.046,1.046,0,0,1,196.78,54.686Zm3.959,6.74a5.3,5.3,0,0,1,.523-2.378,3.819,3.819,0,0,1,1.469-1.627,4.14,4.14,0,0,1,2.175-.569,3.923,3.923,0,0,1,2.951,1.17,4.6,4.6,0,0,1,1.224,3.1l.008.473a5.343,5.343,0,0,1-.51,2.374,3.773,3.773,0,0,1-1.461,1.619,4.17,4.17,0,0,1-2.2.573,3.9,3.9,0,0,1-3.042-1.266,4.848,4.848,0,0,1-1.141-3.374Zm2.017.174a3.619,3.619,0,0,0,.573,2.171,1.862,1.862,0,0,0,1.594.784,1.842,1.842,0,0,0,1.59-.8,4,4,0,0,0,.569-2.333,3.572,3.572,0,0,0-.585-2.158,1.973,1.973,0,0,0-3.158-.012A3.922,3.922,0,0,0,202.756,61.6Zm2.706-8.351h2.3l-2.3,2.515-1.619,0ZM217.175,66h-2.017V53.25h2.017Zm7.562,0a3.113,3.113,0,0,1-.232-.838,3.393,3.393,0,0,1-4.565.232,2.47,2.47,0,0,1-.855-1.909,2.55,2.55,0,0,1,1.067-2.2,5.169,5.169,0,0,1,3.051-.768h1.237v-.589a1.573,1.573,0,0,0-.39-1.116,1.547,1.547,0,0,0-1.187-.419,1.777,1.777,0,0,0-1.129.344,1.066,1.066,0,0,0-.44.876h-2.017a2.239,2.239,0,0,1,.49-1.382,3.263,3.263,0,0,1,1.332-1.009,4.68,4.68,0,0,1,1.88-.365,3.769,3.769,0,0,1,2.515.793,2.827,2.827,0,0,1,.963,2.229v4.051a4.591,4.591,0,0,0,.34,1.934V66Zm-2.216-1.453a2.294,2.294,0,0,0,1.125-.291,1.941,1.941,0,0,0,.793-.78V61.783h-1.087a2.973,2.973,0,0,0-1.685.39,1.264,1.264,0,0,0-.564,1.1,1.179,1.179,0,0,0,.386.926A1.5,1.5,0,0,0,222.521,64.547Zm12.152-7.529.058,1.038a3.229,3.229,0,0,1,2.615-1.2q2.806,0,2.855,3.212V66h-2.017V60.181a1.85,1.85,0,0,0-.369-1.266,1.554,1.554,0,0,0-1.208-.411,1.944,1.944,0,0,0-1.818,1.1V66h-2.017V57.019Zm7.205,4.408a5.3,5.3,0,0,1,.523-2.378,3.819,3.819,0,0,1,1.469-1.627,4.14,4.14,0,0,1,2.175-.569A3.923,3.923,0,0,1,249,58.023a4.6,4.6,0,0,1,1.224,3.1l.008.473a5.343,5.343,0,0,1-.51,2.374,3.773,3.773,0,0,1-1.461,1.619,4.17,4.17,0,0,1-2.2.573,3.9,3.9,0,0,1-3.042-1.266,4.848,4.848,0,0,1-1.141-3.374Zm2.017.174a3.619,3.619,0,0,0,.573,2.171,1.862,1.862,0,0,0,1.594.784,1.842,1.842,0,0,0,1.59-.8,4,4,0,0,0,.569-2.333,3.572,3.572,0,0,0-.585-2.158,1.973,1.973,0,0,0-3.158-.012A3.922,3.922,0,0,0,243.9,61.6Zm10.567-6.765v2.183h1.585v1.494h-1.585v5.014a1.1,1.1,0,0,0,.2.743.943.943,0,0,0,.726.228,3.107,3.107,0,0,0,.706-.083v1.561a4.968,4.968,0,0,1-1.328.191q-2.324,0-2.324-2.565V58.513h-1.478V57.019h1.478V54.835ZM262.954,66a3.113,3.113,0,0,1-.232-.838,3.393,3.393,0,0,1-4.565.232,2.47,2.47,0,0,1-.855-1.909,2.55,2.55,0,0,1,1.067-2.2,5.169,5.169,0,0,1,3.051-.768h1.237v-.589a1.573,1.573,0,0,0-.39-1.116,1.547,1.547,0,0,0-1.187-.419,1.777,1.777,0,0,0-1.129.344,1.066,1.066,0,0,0-.44.876h-2.017a2.239,2.239,0,0,1,.49-1.382,3.263,3.263,0,0,1,1.332-1.009,4.68,4.68,0,0,1,1.88-.365,3.769,3.769,0,0,1,2.515.793,2.827,2.827,0,0,1,.963,2.229v4.051a4.591,4.591,0,0,0,.34,1.934V66Zm-2.216-1.453a2.294,2.294,0,0,0,1.125-.291,1.941,1.941,0,0,0,.793-.78V61.783h-1.087a2.973,2.973,0,0,0-1.685.39,1.264,1.264,0,0,0-.564,1.1,1.179,1.179,0,0,0,.386.926A1.5,1.5,0,0,0,260.737,64.547ZM18.869,85.443a5.34,5.34,0,0,1,.963-3.333,3.085,3.085,0,0,1,2.582-1.258,2.931,2.931,0,0,1,2.308,1v-4.6h2.017V90H24.912l-.1-.93a2.973,2.973,0,0,1-2.416,1.1,3.068,3.068,0,0,1-2.552-1.27A5.535,5.535,0,0,1,18.869,85.443Zm2.017.174a3.739,3.739,0,0,0,.527,2.137,1.71,1.71,0,0,0,1.5.768,1.9,1.9,0,0,0,1.81-1.1V83.583A1.876,1.876,0,0,0,22.928,82.5a1.723,1.723,0,0,0-1.511.776A4.163,4.163,0,0,0,20.886,85.617ZM32.8,90.166a4.173,4.173,0,0,1-3.109-1.208A4.381,4.381,0,0,1,28.5,85.742v-.249a5.389,5.389,0,0,1,.519-2.4,3.949,3.949,0,0,1,1.457-1.648,3.851,3.851,0,0,1,2.092-.589,3.525,3.525,0,0,1,2.835,1.17,4.949,4.949,0,0,1,1,3.312v.813H30.532a2.7,2.7,0,0,0,.743,1.76,2.23,2.23,0,0,0,1.639.647,2.731,2.731,0,0,0,2.258-1.121l1.087,1.038a3.631,3.631,0,0,1-1.44,1.249A4.509,4.509,0,0,1,32.8,90.166Zm-.241-7.695a1.7,1.7,0,0,0-1.341.581,3.012,3.012,0,0,0-.652,1.619h3.843v-.149a2.452,2.452,0,0,0-.54-1.531A1.686,1.686,0,0,0,32.557,82.471Zm9.264,2.972a5.34,5.34,0,0,1,.963-3.333,3.085,3.085,0,0,1,2.582-1.258,2.931,2.931,0,0,1,2.308,1v-4.6H49.69V90H47.864l-.1-.93a2.973,2.973,0,0,1-2.416,1.1A3.068,3.068,0,0,1,42.8,88.9,5.535,5.535,0,0,1,41.821,85.443Zm2.017.174a3.739,3.739,0,0,0,.527,2.137,1.71,1.71,0,0,0,1.5.768,1.9,1.9,0,0,0,1.81-1.1V83.583A1.876,1.876,0,0,0,45.88,82.5a1.723,1.723,0,0,0-1.511.776A4.163,4.163,0,0,0,43.838,85.617ZM55.75,90.166a4.173,4.173,0,0,1-3.109-1.208,4.381,4.381,0,0,1-1.191-3.217v-.249a5.389,5.389,0,0,1,.519-2.4,3.949,3.949,0,0,1,1.457-1.648,3.851,3.851,0,0,1,2.092-.589,3.525,3.525,0,0,1,2.835,1.17,4.949,4.949,0,0,1,1,3.312v.813H53.483a2.7,2.7,0,0,0,.743,1.76,2.23,2.23,0,0,0,1.639.647,2.731,2.731,0,0,0,2.258-1.121l1.087,1.038a3.631,3.631,0,0,1-1.44,1.249A4.509,4.509,0,0,1,55.75,90.166Zm-.241-7.695a1.7,1.7,0,0,0-1.341.581,3.012,3.012,0,0,0-.652,1.619H57.36v-.149a2.452,2.452,0,0,0-.54-1.531A1.686,1.686,0,0,0,55.509,82.471Zm.457-5.221h2.3l-2.3,2.515-1.619,0ZM68.8,85.6a5.4,5.4,0,0,1-.934,3.329A3.042,3.042,0,0,1,65.3,90.166a2.93,2.93,0,0,1-2.457-1.137l-.1.971H60.913V77.25H62.93v4.632a2.92,2.92,0,0,1,2.349-1.029,3.077,3.077,0,0,1,2.582,1.22,5.484,5.484,0,0,1,.938,3.412Zm-2.017-.174a3.813,3.813,0,0,0-.515-2.191,1.714,1.714,0,0,0-1.494-.73A1.873,1.873,0,0,0,62.93,83.65v3.7a1.892,1.892,0,0,0,1.859,1.17,1.7,1.7,0,0,0,1.461-.706,3.7,3.7,0,0,0,.531-2.133ZM72.633,90H70.616V81.019h2.017ZM70.492,78.686a1.071,1.071,0,0,1,.295-.772,1.113,1.113,0,0,1,.843-.307,1.127,1.127,0,0,1,.847.307,1.062,1.062,0,0,1,.3.772,1.038,1.038,0,0,1-.3.76,1.136,1.136,0,0,1-.847.3,1.122,1.122,0,0,1-.843-.3A1.046,1.046,0,0,1,70.492,78.686Zm6.865.149v2.183h1.585v1.494H77.356v5.014a1.1,1.1,0,0,0,.2.743.943.943,0,0,0,.726.228,3.107,3.107,0,0,0,.706-.083v1.561a4.968,4.968,0,0,1-1.328.191q-2.324,0-2.324-2.565V82.513H73.862V81.019h1.478V78.835Zm2.5,6.591a5.3,5.3,0,0,1,.523-2.378,3.819,3.819,0,0,1,1.469-1.627,4.14,4.14,0,0,1,2.175-.569,3.923,3.923,0,0,1,2.951,1.17,4.6,4.6,0,0,1,1.224,3.1l.008.473a5.343,5.343,0,0,1-.51,2.374,3.773,3.773,0,0,1-1.461,1.619,4.17,4.17,0,0,1-2.2.573A3.9,3.9,0,0,1,81,88.9a4.848,4.848,0,0,1-1.141-3.374Zm2.017.174a3.619,3.619,0,0,0,.573,2.171,1.862,1.862,0,0,0,1.594.784,1.842,1.842,0,0,0,1.59-.8,4,4,0,0,0,.569-2.333,3.572,3.572,0,0,0-.585-2.158,1.973,1.973,0,0,0-3.158-.012A3.922,3.922,0,0,0,81.872,85.6ZM90.2,92.723l-1.087-.647a5.866,5.866,0,0,0,.66-1.316,3.926,3.926,0,0,0,.187-1.141V88.049h1.818L91.767,89.5a4.049,4.049,0,0,1-.444,1.764A4.382,4.382,0,0,1,90.2,92.723Zm11.638-2.557a4.173,4.173,0,0,1-3.109-1.208,4.381,4.381,0,0,1-1.191-3.217v-.249a5.389,5.389,0,0,1,.519-2.4,3.949,3.949,0,0,1,1.457-1.648,3.851,3.851,0,0,1,2.092-.589,3.525,3.525,0,0,1,2.835,1.17,4.949,4.949,0,0,1,1,3.312v.813H99.569a2.7,2.7,0,0,0,.743,1.76,2.23,2.23,0,0,0,1.639.647,2.731,2.731,0,0,0,2.258-1.121l1.087,1.038a3.631,3.631,0,0,1-1.44,1.249A4.509,4.509,0,0,1,101.835,90.166Zm-.241-7.695a1.7,1.7,0,0,0-1.341.581,3.012,3.012,0,0,0-.652,1.619h3.843v-.149a2.452,2.452,0,0,0-.54-1.531A1.686,1.686,0,0,0,101.595,82.471Zm10.442,5.088a.914.914,0,0,0-.444-.822,4.723,4.723,0,0,0-1.473-.5,7.574,7.574,0,0,1-1.718-.548,2.293,2.293,0,0,1-1.511-2.117,2.391,2.391,0,0,1,.979-1.942,3.872,3.872,0,0,1,2.49-.78,4.029,4.029,0,0,1,2.6.8,2.529,2.529,0,0,1,.992,2.067h-2.017a1.243,1.243,0,0,0-.432-.967,1.654,1.654,0,0,0-1.146-.386,1.787,1.787,0,0,0-1.083.307.968.968,0,0,0-.419.822.818.818,0,0,0,.39.722,5.365,5.365,0,0,0,1.577.519,7.466,7.466,0,0,1,1.864.623,2.639,2.639,0,0,1,1,.867,2.212,2.212,0,0,1,.328,1.229,2.34,2.34,0,0,1-1,1.963,4.283,4.283,0,0,1-2.631.751,4.644,4.644,0,0,1-1.967-.4,3.238,3.238,0,0,1-1.345-1.1,2.594,2.594,0,0,1-.481-1.5h1.959a1.421,1.421,0,0,0,.54,1.1,2.1,2.1,0,0,0,1.32.386,2.04,2.04,0,0,0,1.212-.3A.938.938,0,0,0,112.037,87.56Zm6.267-8.724v2.183h1.585v1.494H118.3v5.014a1.1,1.1,0,0,0,.2.743.943.943,0,0,0,.726.228,3.107,3.107,0,0,0,.706-.083v1.561a4.968,4.968,0,0,1-1.328.191q-2.324,0-2.324-2.565V82.513H114.81V81.019h1.478V78.835ZM126.8,90a3.113,3.113,0,0,1-.232-.838,3.393,3.393,0,0,1-4.565.232,2.47,2.47,0,0,1-.855-1.909,2.55,2.55,0,0,1,1.067-2.2,5.169,5.169,0,0,1,3.051-.768H126.5v-.589a1.573,1.573,0,0,0-.39-1.116,1.547,1.547,0,0,0-1.187-.419,1.777,1.777,0,0,0-1.129.344,1.066,1.066,0,0,0-.44.876h-2.017a2.239,2.239,0,0,1,.49-1.382,3.263,3.263,0,0,1,1.332-1.009,4.68,4.68,0,0,1,1.88-.365,3.769,3.769,0,0,1,2.515.793,2.827,2.827,0,0,1,.963,2.229v4.051a4.591,4.591,0,0,0,.34,1.934V90Zm-2.216-1.453a2.294,2.294,0,0,0,1.125-.291,1.941,1.941,0,0,0,.793-.78V85.783H125.41a2.973,2.973,0,0,0-1.685.39,1.264,1.264,0,0,0-.564,1.1,1.179,1.179,0,0,0,.386.926A1.5,1.5,0,0,0,124.58,88.547Zm1.121-11.3H128l-2.3,2.515-1.619,0Zm14.194,10.31a.914.914,0,0,0-.444-.822,4.723,4.723,0,0,0-1.473-.5,7.574,7.574,0,0,1-1.718-.548,2.293,2.293,0,0,1-1.511-2.117,2.391,2.391,0,0,1,.979-1.942,3.872,3.872,0,0,1,2.49-.78,4.029,4.029,0,0,1,2.6.8,2.529,2.529,0,0,1,.992,2.067h-2.017a1.243,1.243,0,0,0-.432-.967,1.654,1.654,0,0,0-1.146-.386,1.787,1.787,0,0,0-1.083.307.968.968,0,0,0-.419.822.818.818,0,0,0,.39.722,5.365,5.365,0,0,0,1.577.519,7.466,7.466,0,0,1,1.864.623,2.639,2.639,0,0,1,1,.867,2.212,2.212,0,0,1,.328,1.229,2.34,2.34,0,0,1-1,1.963,4.283,4.283,0,0,1-2.631.751,4.644,4.644,0,0,1-1.967-.4,3.238,3.238,0,0,1-1.345-1.1,2.594,2.594,0,0,1-.481-1.5h1.959a1.421,1.421,0,0,0,.54,1.1,2.1,2.1,0,0,0,1.32.386,2.04,2.04,0,0,0,1.212-.3A.938.938,0,0,0,139.895,87.56ZM145.78,90h-2.017V81.019h2.017Zm-2.142-11.314a1.07,1.07,0,0,1,.295-.772,1.113,1.113,0,0,1,.843-.307,1.127,1.127,0,0,1,.847.307,1.062,1.062,0,0,1,.3.772,1.038,1.038,0,0,1-.3.76,1.136,1.136,0,0,1-.847.3,1.122,1.122,0,0,1-.843-.3A1.046,1.046,0,0,1,143.638,78.686Zm8.292,11.48a4.173,4.173,0,0,1-3.109-1.208,4.381,4.381,0,0,1-1.191-3.217v-.249a5.389,5.389,0,0,1,.519-2.4,3.949,3.949,0,0,1,1.457-1.648,3.851,3.851,0,0,1,2.092-.589,3.525,3.525,0,0,1,2.835,1.17,4.949,4.949,0,0,1,1,3.312v.813h-5.869a2.7,2.7,0,0,0,.743,1.76,2.23,2.23,0,0,0,1.639.647,2.731,2.731,0,0,0,2.258-1.121l1.087,1.038a3.631,3.631,0,0,1-1.44,1.249A4.509,4.509,0,0,1,151.931,90.166Zm-.241-7.695a1.7,1.7,0,0,0-1.341.581,3.012,3.012,0,0,0-.652,1.619h3.843v-.149A2.452,2.452,0,0,0,153,82.99,1.686,1.686,0,0,0,151.69,82.471Zm7.28-1.453.058,1.038a3.229,3.229,0,0,1,2.615-1.2q2.806,0,2.855,3.212V90h-2.017V84.181a1.85,1.85,0,0,0-.369-1.266A1.554,1.554,0,0,0,160.9,82.5a1.944,1.944,0,0,0-1.818,1.1V90h-2.017V81.019Zm7.205,4.424a5.34,5.34,0,0,1,.963-3.333,3.085,3.085,0,0,1,2.582-1.258,2.931,2.931,0,0,1,2.308,1v-4.6h2.017V90h-1.826l-.1-.93a2.973,2.973,0,0,1-2.416,1.1,3.068,3.068,0,0,1-2.552-1.27A5.535,5.535,0,0,1,166.175,85.443Zm2.017.174a3.739,3.739,0,0,0,.527,2.137,1.71,1.71,0,0,0,1.5.768,1.9,1.9,0,0,0,1.81-1.1V83.583a1.876,1.876,0,0,0-1.793-1.079,1.723,1.723,0,0,0-1.511.776A4.163,4.163,0,0,0,168.192,85.617Zm7.579-.191a5.3,5.3,0,0,1,.523-2.378,3.819,3.819,0,0,1,1.469-1.627,4.14,4.14,0,0,1,2.175-.569,3.923,3.923,0,0,1,2.951,1.17,4.6,4.6,0,0,1,1.224,3.1l.008.473a5.343,5.343,0,0,1-.51,2.374,3.773,3.773,0,0,1-1.461,1.619,4.17,4.17,0,0,1-2.2.573,3.9,3.9,0,0,1-3.042-1.266,4.848,4.848,0,0,1-1.141-3.374Zm2.017.174a3.619,3.619,0,0,0,.573,2.171,1.862,1.862,0,0,0,1.594.784,1.842,1.842,0,0,0,1.59-.8,4,4,0,0,0,.569-2.333,3.572,3.572,0,0,0-.585-2.158,1.973,1.973,0,0,0-3.158-.012A3.922,3.922,0,0,0,177.788,85.6Zm11.9-.158a5.34,5.34,0,0,1,.963-3.333,3.085,3.085,0,0,1,2.582-1.258,2.931,2.931,0,0,1,2.308,1v-4.6h2.017V90h-1.826l-.1-.93a2.973,2.973,0,0,1-2.416,1.1,3.068,3.068,0,0,1-2.552-1.27A5.535,5.535,0,0,1,189.683,85.443Zm2.017.174a3.739,3.739,0,0,0,.527,2.137,1.71,1.71,0,0,0,1.5.768,1.9,1.9,0,0,0,1.81-1.1V83.583a1.876,1.876,0,0,0-1.793-1.079,1.723,1.723,0,0,0-1.511.776A4.163,4.163,0,0,0,191.7,85.617Zm11.912,4.549a4.173,4.173,0,0,1-3.109-1.208,4.381,4.381,0,0,1-1.191-3.217v-.249a5.389,5.389,0,0,1,.519-2.4,3.949,3.949,0,0,1,1.457-1.648,3.851,3.851,0,0,1,2.092-.589,3.525,3.525,0,0,1,2.835,1.17,4.949,4.949,0,0,1,1,3.312v.813h-5.869a2.7,2.7,0,0,0,.743,1.76,2.23,2.23,0,0,0,1.639.647,2.731,2.731,0,0,0,2.258-1.121l1.087,1.038a3.631,3.631,0,0,1-1.44,1.249A4.509,4.509,0,0,1,203.611,90.166Zm-.241-7.695a1.7,1.7,0,0,0-1.341.581,3.012,3.012,0,0,0-.652,1.619h3.843v-.149a2.452,2.452,0,0,0-.54-1.531A1.686,1.686,0,0,0,203.371,82.471Zm8.467,4.972,1.9-6.425h2.083L212.709,90h-1.751l-3.138-8.981h2.092Zm10.683,1.677A3.128,3.128,0,0,1,220,90.166a2.788,2.788,0,0,1-2.212-.855,3.637,3.637,0,0,1-.751-2.474V81.019h2.017v5.794q0,1.71,1.419,1.71a1.993,1.993,0,0,0,1.984-1.054v-6.45h2.017V90h-1.9Zm7.96,1.046a4.173,4.173,0,0,1-3.109-1.208,4.381,4.381,0,0,1-1.191-3.217v-.249a5.389,5.389,0,0,1,.519-2.4,3.949,3.949,0,0,1,1.457-1.648,3.851,3.851,0,0,1,2.092-.589,3.525,3.525,0,0,1,2.835,1.17,4.949,4.949,0,0,1,1,3.312v.813h-5.869a2.7,2.7,0,0,0,.743,1.76,2.23,2.23,0,0,0,1.639.647,2.731,2.731,0,0,0,2.258-1.121l1.087,1.038a3.631,3.631,0,0,1-1.44,1.249A4.509,4.509,0,0,1,230.481,90.166Zm-.241-7.695a1.7,1.7,0,0,0-1.341.581,3.012,3.012,0,0,0-.652,1.619h3.843v-.149a2.452,2.452,0,0,0-.54-1.531A1.686,1.686,0,0,0,230.24,82.471ZM237.794,90h-2.017V77.25h2.017Zm4.723-11.165v2.183H244.1v1.494h-1.585v5.014a1.1,1.1,0,0,0,.2.743.943.943,0,0,0,.726.228,3.107,3.107,0,0,0,.706-.083v1.561a4.968,4.968,0,0,1-1.328.191q-2.324,0-2.324-2.565V82.513h-1.478V81.019H240.5V78.835Zm2.5,6.591a5.3,5.3,0,0,1,.523-2.378,3.819,3.819,0,0,1,1.469-1.627,4.14,4.14,0,0,1,2.175-.569,3.923,3.923,0,0,1,2.951,1.17,4.6,4.6,0,0,1,1.224,3.1l.008.473a5.343,5.343,0,0,1-.51,2.374,3.773,3.773,0,0,1-1.461,1.619,4.17,4.17,0,0,1-2.2.573,3.9,3.9,0,0,1-3.042-1.266,4.848,4.848,0,0,1-1.141-3.374Zm2.017.174a3.619,3.619,0,0,0,.573,2.171,1.862,1.862,0,0,0,1.594.784,1.842,1.842,0,0,0,1.59-.8,4,4,0,0,0,.569-2.333,3.572,3.572,0,0,0-.585-2.158,1.973,1.973,0,0,0-3.158-.012A3.922,3.922,0,0,0,247.033,85.6Zm9.3,2.274a1.152,1.152,0,0,1,.872.32,1.11,1.11,0,0,1,.307.8,1.071,1.071,0,0,1-.307.784,1.36,1.36,0,0,1-1.727,0,1.053,1.053,0,0,1-.315-.789,1.11,1.11,0,0,1,.307-.8A1.141,1.141,0,0,1,256.33,87.875Z" transform="translate(1110 4752)" fill="#12263f"/>
  </g>
</svg>
