<svg xmlns="http://www.w3.org/2000/svg" width="190" height="128.599" viewBox="0 0 190 128.599">
  <g id="Grupo_156075" data-name="Grupo 156075" transform="translate(-1125 -4850.7)">
    <g id="Grupo_156074" data-name="Grupo 156074" transform="translate(0.273 -3.3)">
      <path id="Trazado_597968" data-name="Trazado 597968" d="M854.646-6740.157l-21.339,9.535L809.7-6743.335l-35.641,22.928-22.928-12.94,58.569-38.137Z" transform="translate(394.599 11702.764)" fill="#afafaf" opacity="0.61"/>
      <g id="calendario_1_" data-name="calendario(1)" transform="translate(1161.365 4854)">
        <g id="Grupo_156026" data-name="Grupo 156026" transform="translate(1.784 21.263)">
          <g id="Grupo_156023" data-name="Grupo 156023" transform="translate(0 40.188)">
            <path id="Trazado_597920" data-name="Trazado 597920" d="M11.833,92.085,6.785,89.151,6.617,24.937l5.048,2.934Z" transform="translate(-6.617 -24.937)" fill="#e0e2e2"/>
          </g>
          <g id="Grupo_156024" data-name="Grupo 156024" transform="translate(0)">
            <path id="Trazado_597921" data-name="Trazado 597921" d="M11.665,53.058,6.617,50.125,76.1,9.937l5.112,2.971Z" transform="translate(-6.617 -9.937)" fill="#cbcfcf"/>
          </g>
          <g id="Grupo_156025" data-name="Grupo 156025" transform="translate(5.048 2.971)">
            <path id="Trazado_597922" data-name="Trazado 597922" d="M78.044,11.045l.168,64.214L8.669,115.411,8.5,51.2Z" transform="translate(-8.501 -11.045)" fill="#fcfcfc"/>
          </g>
        </g>
        <g id="Grupo_156030" data-name="Grupo 156030" transform="translate(0.052 10.728)">
          <g id="Grupo_156027" data-name="Grupo 156027" transform="translate(0 47.763)">
            <path id="Trazado_597923" data-name="Trazado 597923" d="M14.825,31.135,5.976,25.993,5.97,23.832l8.848,5.142Z" transform="translate(-5.97 -23.832)" fill="#d4d6d6"/>
          </g>
          <g id="Grupo_156028" data-name="Grupo 156028" transform="translate(0 0)">
            <path id="Trazado_597924" data-name="Trazado 597924" d="M14.819,58.91,5.97,53.768,62.414,6,84.362,18.759Z" transform="translate(-5.97 -6.004)" fill="#b6b8b8"/>
          </g>
          <g id="Grupo_156029" data-name="Grupo 156029" transform="translate(8.848 12.754)">
            <path id="Trazado_597925" data-name="Trazado 597925" d="M78.816,10.765l.006,2.161L9.279,53.077l-.006-2.161Z" transform="translate(-9.273 -10.765)" fill="#c4c6c6"/>
          </g>
        </g>
        <g id="Grupo_156031" data-name="Grupo 156031" transform="translate(0 40.151)">
          <path id="Trazado_597926" data-name="Trazado 597926" d="M14.851,40.469,6,35.327,5.951,16.986,14.8,22.128Z" transform="translate(-5.951 -16.986)" fill="#d8463f"/>
        </g>
        <path id="Trazado_597927" data-name="Trazado 597927" d="M75.494,2l8.848,5.142L14.8,47.293,5.951,42.151Z" transform="translate(-5.951 -2)" fill="#e74c3c"/>
        <g id="Grupo_156032" data-name="Grupo 156032" transform="translate(8.848 5.142)">
          <path id="Trazado_597928" data-name="Trazado 597928" d="M78.8,3.919l.052,18.341L9.305,62.411,9.253,44.07Z" transform="translate(-9.253 -3.919)" fill="#c44"/>
        </g>
        <g id="Grupo_156044" data-name="Grupo 156044" transform="translate(13.339 42.366)">
          <g id="Grupo_156033" data-name="Grupo 156033" transform="translate(0.159 57.767)">
            <path id="Trazado_597929" data-name="Trazado 597929" d="M20.29,39.375l.03,10.688-9.3,5.37-.03-10.688Z" transform="translate(-10.989 -39.375)" fill="#2ecc71"/>
          </g>
          <g id="Grupo_156034" data-name="Grupo 156034" transform="translate(15.795 18.103)">
            <path id="Trazado_597930" data-name="Trazado 597930" d="M26.139,24.57l.03,10.7L16.856,40.65l-.03-10.7Z" transform="translate(-16.825 -24.57)" fill="#e67e22"/>
          </g>
          <g id="Grupo_156035" data-name="Grupo 156035" transform="translate(15.839 33.359)">
            <path id="Trazado_597931" data-name="Trazado 597931" d="M26.155,30.265l.03,10.688L16.872,46.33l-.03-10.688Z" transform="translate(-16.841 -30.265)" fill="#5b5e71"/>
          </g>
          <g id="Grupo_156036" data-name="Grupo 156036" transform="translate(15.998 48.615)">
            <path id="Trazado_597932" data-name="Trazado 597932" d="M26.215,35.959l.03,10.688-9.314,5.377L16.9,41.336Z" transform="translate(-16.901 -35.959)" fill="#5b5e71"/>
          </g>
          <g id="Grupo_156037" data-name="Grupo 156037" transform="translate(31.69 24.215)">
            <path id="Trazado_597933" data-name="Trazado 597933" d="M32.059,26.851l.03,10.688-9.3,5.37-.03-10.688Z" transform="translate(-22.758 -26.851)" fill="#5b5e71"/>
          </g>
          <g id="Grupo_156038" data-name="Grupo 156038" transform="translate(31.849 39.471)">
            <path id="Trazado_597934" data-name="Trazado 597934" d="M32.119,32.546l.03,10.688-9.3,5.37-.03-10.688Z" transform="translate(-22.817 -32.546)" fill="#5b5e71"/>
          </g>
          <g id="Grupo_156039" data-name="Grupo 156039" transform="translate(47.498)">
            <path id="Trazado_597935" data-name="Trazado 597935" d="M37.626,17.813,28.658,22.99l.03,10.7,8.937-5.16Z" transform="translate(-28.658 -17.813)" fill="#5b5e71"/>
          </g>
          <g id="Grupo_156040" data-name="Grupo 156040" transform="translate(47.541 15.281)">
            <path id="Trazado_597936" data-name="Trazado 597936" d="M37.6,23.517l-8.924,5.152.03,10.688L37.6,34.222Z" transform="translate(-28.675 -23.517)" fill="#5b5e71"/>
          </g>
          <g id="Grupo_156041" data-name="Grupo 156041" transform="translate(47.701 30.562)">
            <path id="Trazado_597937" data-name="Trazado 597937" d="M37.615,29.22l-8.881,5.127.03,10.688,8.85-5.11Z" transform="translate(-28.734 -29.22)" fill="#e67e22"/>
          </g>
          <g id="Grupo_156042" data-name="Grupo 156042" transform="translate(0 42.511)">
            <path id="Trazado_597938" data-name="Trazado 597938" d="M20.231,33.681l.03,10.688-9.3,5.37-.03-10.688Z" transform="translate(-10.93 -33.681)" fill="#2ecc71"/>
          </g>
          <g id="Grupo_156043" data-name="Grupo 156043" transform="translate(31.647 8.959)">
            <path id="Trazado_597939" data-name="Trazado 597939" d="M32.043,21.157l.03,10.7-9.3,5.37-.03-10.7Z" transform="translate(-22.742 -21.157)" fill="#5b5e71"/>
          </g>
        </g>
        <g id="Grupo_156049" data-name="Grupo 156049" transform="translate(18.53 45.703)">
          <g id="Grupo_156045" data-name="Grupo 156045" transform="translate(0)">
            <path id="Trazado_597940" data-name="Trazado 597940" d="M17.828,20.933a3.7,3.7,0,0,1-.04.547,5.08,5.08,0,0,1-.855,2.074c-.053.076-.106.151-.163.223A4.293,4.293,0,0,1,15.7,24.785a1.309,1.309,0,0,1-.136.085,2.288,2.288,0,0,1-1.139.341c-.927,0-1.55-.753-1.555-1.879a.553.553,0,0,1,0-.085,4,4,0,0,1,.2-1.137c.049-.153.1-.3.168-.452a5.553,5.553,0,0,1,.5-.9A4.477,4.477,0,0,1,15.139,19.4a2.291,2.291,0,0,1,1.135-.337c.927,0,1.55.755,1.555,1.875Z" transform="translate(-12.867 -19.059)" fill="#9e3535"/>
          </g>
          <g id="Grupo_156046" data-name="Grupo 156046" transform="translate(0 15.748)">
            <path id="Trazado_597941" data-name="Trazado 597941" d="M17.828,26.811a3.7,3.7,0,0,1-.04.547,3.012,3.012,0,0,1-.059.3,5.161,5.161,0,0,1-.8,1.773,4.366,4.366,0,0,1-1.372,1.315,2.288,2.288,0,0,1-1.139.341c-.927,0-1.55-.753-1.555-1.879a.553.553,0,0,1,0-.085,4.131,4.131,0,0,1,.284-1.385c.025-.068.051-.136.081-.2a5.435,5.435,0,0,1,.645-1.1,4.325,4.325,0,0,1,1.258-1.158,2.291,2.291,0,0,1,1.135-.337,1.443,1.443,0,0,1,1.351.884,2.357,2.357,0,0,1,.2.99Z" transform="translate(-12.867 -24.936)" fill="#d4d6d6"/>
          </g>
          <g id="Grupo_156048" data-name="Grupo 156048" transform="translate(0.202 1.701)">
            <g id="Grupo_156047" data-name="Grupo 156047">
              <path id="Trazado_597942" data-name="Trazado 597942" d="M16.643,22.712a14.161,14.161,0,0,0-3.037-3.018,5.554,5.554,0,0,0-.5.9c-.064.148-.119.3-.168.452a12.953,12.953,0,0,1,2.628,2.674A13.726,13.726,0,0,1,18.414,31.5a4.834,4.834,0,0,1-.916,3.122,2.628,2.628,0,0,1-.7.592,3.492,3.492,0,0,1-3.041.019,5.434,5.434,0,0,0-.645,1.1c-.03.068-.055.136-.081.2a6.207,6.207,0,0,0,2.369.513,4.238,4.238,0,0,0,2.138-.554.68.68,0,0,0,.066-.04c1.478-.887,2.291-2.641,2.3-4.959A15.365,15.365,0,0,0,16.643,22.712Z" transform="translate(-12.942 -19.693)" fill="#5b5e71"/>
            </g>
          </g>
        </g>
        <g id="Grupo_156054" data-name="Grupo 156054" transform="translate(43.441 31.32)">
          <g id="Grupo_156050" data-name="Grupo 156050" transform="translate(0)">
            <path id="Trazado_597943" data-name="Trazado 597943" d="M27.126,15.565a3.7,3.7,0,0,1-.04.547,5.08,5.08,0,0,1-.855,2.074c-.053.076-.106.151-.163.223a4.293,4.293,0,0,1-1.073,1.007,1.313,1.313,0,0,1-.136.085,2.288,2.288,0,0,1-1.139.341c-.927,0-1.55-.753-1.555-1.879a.552.552,0,0,1,0-.085,4,4,0,0,1,.2-1.137c.049-.153.1-.3.168-.452a5.553,5.553,0,0,1,.5-.9,4.476,4.476,0,0,1,1.406-1.364,2.29,2.29,0,0,1,1.135-.337C26.5,13.69,27.122,14.445,27.126,15.565Z" transform="translate(-22.165 -13.69)" fill="#9e3535"/>
          </g>
          <g id="Grupo_156051" data-name="Grupo 156051" transform="translate(0 15.748)">
            <path id="Trazado_597944" data-name="Trazado 597944" d="M27.126,21.443a3.7,3.7,0,0,1-.04.547,3.012,3.012,0,0,1-.059.3,5.161,5.161,0,0,1-.8,1.773,4.366,4.366,0,0,1-1.372,1.315,2.288,2.288,0,0,1-1.139.341c-.927,0-1.55-.753-1.555-1.879a.553.553,0,0,1,0-.085,4.131,4.131,0,0,1,.284-1.385c.025-.068.051-.136.081-.2a5.435,5.435,0,0,1,.645-1.1,4.326,4.326,0,0,1,1.258-1.158,2.29,2.29,0,0,1,1.135-.337,1.443,1.443,0,0,1,1.351.884,2.357,2.357,0,0,1,.2.99Z" transform="translate(-22.165 -19.568)" fill="#d4d6d6"/>
          </g>
          <g id="Grupo_156053" data-name="Grupo 156053" transform="translate(0.201 1.701)">
            <g id="Grupo_156052" data-name="Grupo 156052">
              <path id="Trazado_597945" data-name="Trazado 597945" d="M25.942,17.343A14.161,14.161,0,0,0,22.9,14.325a5.553,5.553,0,0,0-.5.9c-.064.148-.119.3-.168.452a12.952,12.952,0,0,1,2.628,2.674,13.726,13.726,0,0,1,2.844,7.784,4.834,4.834,0,0,1-.916,3.122,2.628,2.628,0,0,1-.7.592,3.492,3.492,0,0,1-3.041.019,5.434,5.434,0,0,0-.645,1.1c-.03.068-.055.136-.081.2a6.207,6.207,0,0,0,2.369.513,4.238,4.238,0,0,0,2.138-.554.678.678,0,0,0,.066-.04c1.478-.887,2.291-2.641,2.3-4.959a15.365,15.365,0,0,0-3.256-8.793Z" transform="translate(-22.241 -14.325)" fill="#5b5e71"/>
            </g>
          </g>
        </g>
        <g id="Grupo_156059" data-name="Grupo 156059" transform="translate(68.353 16.937)">
          <g id="Grupo_156055" data-name="Grupo 156055" transform="translate(0)">
            <path id="Trazado_597946" data-name="Trazado 597946" d="M36.425,10.2a3.7,3.7,0,0,1-.04.547,5.08,5.08,0,0,1-.855,2.074c-.053.076-.106.151-.163.223a4.293,4.293,0,0,1-1.073,1.007,1.309,1.309,0,0,1-.136.085,2.288,2.288,0,0,1-1.139.341c-.927,0-1.55-.753-1.555-1.879a.553.553,0,0,1,0-.085,4,4,0,0,1,.2-1.137c.049-.153.1-.3.168-.452a5.553,5.553,0,0,1,.5-.9,4.476,4.476,0,0,1,1.406-1.364,2.29,2.29,0,0,1,1.135-.337c.927,0,1.55.755,1.555,1.875Z" transform="translate(-31.464 -8.322)" fill="#9e3535"/>
          </g>
          <g id="Grupo_156056" data-name="Grupo 156056" transform="translate(0 15.748)">
            <path id="Trazado_597947" data-name="Trazado 597947" d="M36.425,16.075a3.7,3.7,0,0,1-.04.547,3.012,3.012,0,0,1-.059.3,5.162,5.162,0,0,1-.8,1.773,4.366,4.366,0,0,1-1.372,1.315,2.288,2.288,0,0,1-1.139.341c-.927,0-1.55-.753-1.555-1.879a.553.553,0,0,1,0-.085A4.131,4.131,0,0,1,31.752,17c.025-.068.051-.136.081-.2a5.435,5.435,0,0,1,.645-1.1,4.326,4.326,0,0,1,1.258-1.158A2.291,2.291,0,0,1,34.87,14.2a1.443,1.443,0,0,1,1.351.884,2.356,2.356,0,0,1,.2.99Z" transform="translate(-31.464 -14.2)" fill="#d4d6d6"/>
          </g>
          <g id="Grupo_156058" data-name="Grupo 156058" transform="translate(0.202 1.701)">
            <g id="Grupo_156057" data-name="Grupo 156057">
              <path id="Trazado_597948" data-name="Trazado 597948" d="M35.24,11.975A14.161,14.161,0,0,0,32.2,8.957a5.554,5.554,0,0,0-.5.9c-.064.148-.119.3-.168.452a12.953,12.953,0,0,1,2.628,2.674,13.726,13.726,0,0,1,2.844,7.784,4.834,4.834,0,0,1-.916,3.122,2.628,2.628,0,0,1-.7.592,3.492,3.492,0,0,1-3.041.019,5.434,5.434,0,0,0-.645,1.1c-.03.068-.055.136-.081.2A6.207,6.207,0,0,0,34,26.321a4.238,4.238,0,0,0,2.138-.554.675.675,0,0,0,.066-.04c1.478-.887,2.291-2.641,2.3-4.959a15.366,15.366,0,0,0-3.256-8.793Z" transform="translate(-31.539 -8.957)" fill="#5b5e71"/>
            </g>
          </g>
        </g>
        <g id="Grupo_156073" data-name="Grupo 156073" transform="translate(54.361 45.367)">
          <g id="Grupo_156060" data-name="Grupo 156060" transform="translate(0 4.722)">
            <path id="Trazado_597949" data-name="Trazado 597949" d="M72.481,25.948c-4.258-2.483-10.146-2.135-16.659,1.631-12.929,7.46-23.363,25.546-23.327,40.382.024,7.388,2.627,12.581,6.836,15.016l-6.266-3.662c-4.2-2.447-6.812-7.64-6.824-15.016C26.193,49.463,36.64,31.365,49.557,23.9c6.512-3.754,12.4-4.1,16.659-1.631Z" transform="translate(-26.241 -20.696)" fill="#1abc9c"/>
          </g>
          <g id="Grupo_156061" data-name="Grupo 156061" transform="translate(6.259 8.389)">
            <path id="Trazado_597950" data-name="Trazado 597950" d="M51.9,25.275c12.926-7.463,23.443-1.469,23.485,13.366.042,14.853-10.407,32.951-23.333,40.414S28.619,80.519,28.577,65.667c-.042-14.835,10.4-32.929,23.325-40.392Z" transform="translate(-28.577 -22.065)" fill="#1faa8f"/>
          </g>
          <g id="Grupo_156062" data-name="Grupo 156062" transform="translate(8.941 11.837)">
            <path id="Trazado_597951" data-name="Trazado 597951" d="M62.078,23.9c2.975,2.407,4.773,6.659,4.788,12.412.024,13.169-9.211,29.18-20.653,35.789C40.4,75.452,35.142,75.73,31.366,73.476c3.816,3.086,9.572,3.136,16.005-.576,11.442-6.608,20.677-22.62,20.653-35.789-.018-6.463-2.287-11.027-5.947-13.214Z" transform="translate(-26.575 -22.435)" fill="#1abc9c"/>
            <path id="Trazado_597952" data-name="Trazado 597952" d="M49.217,73.014c11.442-6.608,20.677-22.62,20.653-35.789-.016-5.753-1.813-10-4.788-12.412-3.776-2.256-9.033-1.98-14.838,1.376C38.789,32.8,29.542,48.822,29.578,61.966c.016,5.762,1.813,10.018,4.791,12.426,3.776,2.254,9.033,1.976,14.847-1.378Z" transform="translate(-29.578 -23.351)" fill="#fff"/>
          </g>
          <g id="Grupo_156063" data-name="Grupo 156063" transform="translate(29.675 11.74)">
            <path id="Trazado_597953" data-name="Trazado 597953" d="M56.879,37.5,37.329,48.723l-.012-22.488c11.406-6.477,19.9-1.943,19.561,11.262Z" transform="translate(-37.317 -23.315)" fill="#f1c40f"/>
          </g>
          <g id="Grupo_156069" data-name="Grupo 156069" transform="translate(10.117 14.31)">
            <g id="Grupo_156064" data-name="Grupo 156064" transform="translate(17.136 4.476)">
              <path id="Trazado_597954" data-name="Trazado 597954" d="M47.369,25.945,40.859,41.659a1.893,1.893,0,0,1,.38,1.261,5.3,5.3,0,0,1-2.412,4.161c-1.336.763-2.416.14-2.413-1.4a5.3,5.3,0,0,1,2.4-4.149Z" transform="translate(-36.413 -25.945)" fill="#474b59"/>
            </g>
            <g id="Grupo_156065" data-name="Grupo 156065" transform="translate(18.935)">
              <path id="Trazado_597955" data-name="Trazado 597955" d="M38.285,24.275l.006,4.685-1.206.7v-4.69Z" transform="translate(-37.085 -24.275)" fill="#474b59"/>
            </g>
            <g id="Grupo_156066" data-name="Grupo 156066" transform="translate(35.012 10.92)">
              <path id="Trazado_597956" data-name="Trazado 597956" d="M43.086,30.7l4.081-2.348,0,1.386-4.081,2.34Z" transform="translate(-43.086 -28.35)" fill="#474b59"/>
            </g>
            <g id="Grupo_156067" data-name="Grupo 156067" transform="translate(0 31.03)">
              <path id="Trazado_597957" data-name="Trazado 597957" d="M30.017,38.192l4.074-2.335,0,1.378-4.074,2.344Z" transform="translate(-30.017 -35.857)" fill="#474b59"/>
            </g>
            <g id="Grupo_156068" data-name="Grupo 156068" transform="translate(18.949 40.293)">
              <path id="Trazado_597958" data-name="Trazado 597958" d="M38.3,39.314,38.3,44l-1.206.7-.006-4.685Z" transform="translate(-37.09 -39.314)" fill="#474b59"/>
            </g>
          </g>
          <path id="Trazado_597959" data-name="Trazado 597959" d="M41.673,22.068c1.4.807,1.42,2.115.032,2.922a5.594,5.594,0,0,1-5.06,0c-1.4-.807-1.388-2.115,0-2.922A5.528,5.528,0,0,1,41.673,22.068Z" transform="translate(-10.525 -14.686)" fill="#1faa8f"/>
          <g id="Grupo_156072" data-name="Grupo 156072" transform="translate(24.415)">
            <path id="Trazado_597960" data-name="Trazado 597960" d="M42.515,19.646c1.645.95,1.672,2.491.038,3.441a6.588,6.588,0,0,1-5.959,0c-1.645-.95-1.635-2.491,0-3.441A6.509,6.509,0,0,1,42.515,19.646Z" transform="translate(-35.337 -18.933)" fill="#384f63"/>
            <path id="Trazado_597961" data-name="Trazado 597961" d="M42.515,19.646c1.645.95,1.672,2.491.038,3.441a6.588,6.588,0,0,1-5.959,0c-1.645-.95-1.635-2.491,0-3.441A6.509,6.509,0,0,1,42.515,19.646Z" transform="translate(-35.337 -18.933)" fill="#384f63"/>
            <g id="Grupo_156070" data-name="Grupo 156070" transform="translate(0.027)">
              <path id="Trazado_597962" data-name="Trazado 597962" d="M42.515,19.646c1.645.95,1.672,2.491.038,3.441a6.588,6.588,0,0,1-5.959,0c-1.645-.95-1.635-2.491,0-3.441A6.509,6.509,0,0,1,42.515,19.646Z" transform="translate(-35.364 -18.933)" fill="#384f63"/>
            </g>
            <g id="Grupo_156071" data-name="Grupo 156071" transform="translate(0.027)">
              <path id="Trazado_597963" data-name="Trazado 597963" d="M42.515,19.646c1.645.95,1.672,2.491.038,3.441a6.588,6.588,0,0,1-5.959,0c-1.645-.95-1.635-2.491,0-3.441A6.509,6.509,0,0,1,42.515,19.646Z" transform="translate(-35.364 -18.933)" fill="#384f63"/>
            </g>
            <path id="Trazado_597964" data-name="Trazado 597964" d="M41.033,20.681,41,24.63a1.249,1.249,0,0,1-.732,1.022,3.907,3.907,0,0,1-3.545,0,1.25,1.25,0,0,1-.737-1.031l.034-3.949a1.251,1.251,0,0,0,.737,1.031,3.907,3.907,0,0,0,3.545,0,1.249,1.249,0,0,0,.732-1.022Z" transform="translate(-34.295 -16.023)" fill="#5b5e71"/>
            <path id="Trazado_597965" data-name="Trazado 597965" d="M43.781,19.865l-.027,2.345a2.069,2.069,0,0,1-1.211,1.7,6.588,6.588,0,0,1-5.959,0,2.086,2.086,0,0,1-1.23-1.722l.027-2.345a2.086,2.086,0,0,0,1.23,1.722,6.588,6.588,0,0,0,5.959,0A2.069,2.069,0,0,0,43.781,19.865Z" transform="translate(-35.354 -17.41)" fill="#2e414c"/>
            <path id="Trazado_597966" data-name="Trazado 597966" d="M36.632,20.084a5.753,5.753,0,0,1,5.244,0,2.02,2.02,0,0,1,1.086,1.329,1.775,1.775,0,0,0-1.086-1.743,5.752,5.752,0,0,0-5.244,0A1.754,1.754,0,0,0,35.561,21.4a2,2,0,0,1,1.072-1.315Z" transform="translate(-35.034 -18.76)" fill="#2e414c"/>
            <path id="Trazado_597967" data-name="Trazado 597967" d="M41.866,19.824a5.753,5.753,0,0,0-5.244,0,2,2,0,0,0-1.072,1.315,1.944,1.944,0,0,0,1.072,1.315,5.813,5.813,0,0,0,5.273,0,1.968,1.968,0,0,0,1.057-1.3A2.02,2.02,0,0,0,41.866,19.824Z" transform="translate(-35.024 -18.5)" fill="#354a59"/>
          </g>
        </g>
      </g>
    </g>
    <rect id="Rectángulo_43669" data-name="Rectángulo 43669" width="190" height="128" transform="translate(1125 4851)" fill="none"/>
  </g>
</svg>
