<svg xmlns="http://www.w3.org/2000/svg" xmlns:xlink="http://www.w3.org/1999/xlink" width="190" height="326" viewBox="0 0 190 326">
  <defs>
    <clipPath id="clip-path">
      <rect id="Rect치ngulo_43664" data-name="Rect치ngulo 43664" width="112.237" height="308.326" fill="none"/>
    </clipPath>
  </defs>
  <g id="Grupo_156085" data-name="Grupo 156085" transform="translate(-180 -3460)">
    <g id="Grupo_156021" data-name="Grupo 156021">
      <rect id="Rect치ngulo_43667" data-name="Rect치ngulo 43667" width="190" height="325" transform="translate(180 3461)" fill="none"/>
      <ellipse id="Elipse_5548" data-name="Elipse 5548" cx="62.5" cy="11.5" rx="62.5" ry="11.5" transform="translate(245 3762.825)" fill="#e8e8e8"/>
      <g id="Grupo_156020" data-name="Grupo 156020" transform="translate(257.763 3472.325)">
        <g id="Grupo_156016" data-name="Grupo 156016" clip-path="url(#clip-path)">
          <path id="Trazado_597849" data-name="Trazado 597849" d="M16.378,280.054s.443-7.619,2.461-8.8.851,1.175.851,1.175-1.133,5.53-1.384,7.769a11.43,11.43,0,0,1-1.928-.142" transform="translate(-7.064 -116.857)" fill="#873f2b"/>
          <path id="Trazado_597850" data-name="Trazado 597850" d="M132.877,43.454s-4.413-3.661-4.631-4.339a9.966,9.966,0,0,0-4.233-4.234c-2.049-.868-3.745-2.976-4.109-2.822a1.9,1.9,0,0,0-1.293.984,3.849,3.849,0,0,0-.519,1.882,2.342,2.342,0,0,0-1.043,2.006,2.04,2.04,0,0,0-.692,2.161,1.708,1.708,0,0,0-.661,1.763,15.415,15.415,0,0,1,2.006,1.862c.446.624,3.869,2.976,7.5,4.725,0,0,6.3,1.632,7.675-3.989" transform="translate(-49.872 -13.825)" fill="#eea886"/>
          <path id="Trazado_597851" data-name="Trazado 597851" d="M168.886,71.386c-2.751,4.586-21.448,10.582-25.4,11.923a10.792,10.792,0,0,0-3.033,1.634l-1.837,1.679a11.9,11.9,0,0,0-1.268,1.626l-4.161-18.391s5.222.47,6.914.681,7.62-3.1,12.558-3.669c0,0-16.582-10.058-17.92-11.61l4.76-7.527S153.788,57,160.35,59.57s11.289,7.229,8.536,11.815" transform="translate(-57.448 -20.588)" fill="#eddad3"/>
          <path id="Trazado_597852" data-name="Trazado 597852" d="M91.993.465s9.948-2.726,15.382,5.035,5.15,20.109,7.2,23.354,4.8,2.822,5.857,6.844-1.27,7.761-3.881,10.583.353,8.043-1.693,9.948-9.313,2.4-12.347-2.751-.705-12.043-.705-12.043Z" transform="translate(-39.68 0)" fill="#323657"/>
          <path id="Trazado_597853" data-name="Trazado 597853" d="M71.12,40.443s3.744,8.607,2.333,16.438a95.04,95.04,0,0,1-3.669,14.041l12.629-4.3S80.076,41.5,71.12,40.443" transform="translate(-30.1 -17.444)" fill="#323657"/>
          <path id="Trazado_597854" data-name="Trazado 597854" d="M67.8,498.137S74.237,507.7,76.831,510c0,0,5.765,2.114,6.342,6.149s.479,6.727-6.342,6.919-11.293-1.033-12.542-5.164a18.823,18.823,0,0,0-3.983-6.944v8.647H58.768s-.384-8.358-.48-9.9-1.1-7.447,2.138-10.065a9,9,0,0,1,7.373-1.513" transform="translate(-25.046 -214.764)" fill="#d16746"/>
          <path id="Trazado_597855" data-name="Trazado 597855" d="M104.433,488.215a25.876,25.876,0,0,0,2.48,5.338c1.244,2.03,4.917,10.217,6.835,10.961s7.9,2.458,8.086,5.923.2,5.915-5.84,5.556-10.022-.412-12.453-4.928a31.418,31.418,0,0,0-6.686-8.044l-1.15,11-2.332-.244s.119-11.56-.424-12.434-1.24-9.832,4.8-13.826,6.683.7,6.683.7" transform="translate(-39.944 -209.588)" fill="#d16746"/>
          <path id="Trazado_597856" data-name="Trazado 597856" d="M58.554,194.987s-7.631,9.921-9.7,21.691,1.223,51.274,1.132,57.091-5.5,20.293-4.419,31.252,9.774,62.512,9.774,62.512l7.272.667s-.676-55.6,0-60.2,2.035-21.366,2.3-23.26,17.177-51.627,17.177-60.114-5.141-43.48-23.54-29.635" transform="translate(-19.593 -82.723)" fill="#1d3b54"/>
          <path id="Trazado_597857" data-name="Trazado 597857" d="M109.219,201.671s8.163,49.206,8.954,55.953,2.368,12.409,2.074,15.209c-.678,6.5-4.181,16.673-4.181,16.673l-16.35,74.465-6.683-.7s.38-44.44.637-53.39,7.2-22.1,6.253-26.007S83.2,234.383,83.2,234.383s-10.971-50.542,26.024-32.712" transform="translate(-35.229 -85.345)" fill="#1d3b54"/>
          <path id="Trazado_597858" data-name="Trazado 597858" d="M78.9,510.178s-6.591,3.685-10.836-1.047a28.034,28.034,0,0,1-5.2-9.382l7.006-1.437Z" transform="translate(-27.115 -214.939)" fill="#1d3b54"/>
          <path id="Trazado_597859" data-name="Trazado 597859" d="M116.592,505.022s-5.522.783-7.445-.778-7.7-14.149-9.948-15.1c0,0,2.728-4.332,8.078-.418,0,0,8,14.166,9.315,16.3" transform="translate(-42.788 -210.097)" fill="#1d3b54"/>
          <path id="Trazado_597860" data-name="Trazado 597860" d="M102.342,280.266c1.21-30.3-6.147-68.343-6.147-68.343-.631-2.042-1.57-4.18-1.57-4.18L51,209.711c-1.384,2.018-3.115,7.857-4,11.082-.2.685-.394,1.415-.582,2.183l-.006.024c-4.812,19.577-6.328,64.584-6.328,64.584,43.173,0,62.263-7.319,62.263-7.319" transform="translate(-17.287 -89.606)" fill="#fc8116"/>
          <path id="Trazado_597861" data-name="Trazado 597861" d="M97.552,148.218c.739,1.484,2.885,9.2,2.885,9.2C79.217,164.246,54.05,158.5,54.05,158.5c.425-2.329,8.221-19.05,9.068-20.743a13.781,13.781,0,0,0,.069-11.22c-.662-1.451-2.242-5.024-4.09-9.387-.81-1.913-1.673-3.976-2.532-6.08v0C52.912,102.119,49.318,92.451,50,90.7c1.2-3.1,7.054-4.515,9.876-5.011s12.984-4.3,12.984-4.3h10.83s12.807,2.082,14.04,3.264c2.487,2.385,4.586,15.01,4.586,15.01,4.657,10.267-2.171,15.043-2.171,17.371s-1.638,12.686-1.956,15.438-1.373,14.271-.632,15.751" transform="translate(-21.529 -35.104)" fill="#eddad3"/>
          <path id="Trazado_597862" data-name="Trazado 597862" d="M86.969,2.319C90.851,1.9,100.234,4.577,101.434,18.9S99.176,40.419,96,41.971s-11.995-.917-15.945-7.832-8.819-23-3.246-27.517,10.161-4.3,10.161-4.3" transform="translate(-32.046 -0.983)" fill="#eea886"/>
          <path id="Trazado_597863" data-name="Trazado 597863" d="M95.02,15.676s3.415,2.434,4.565,5.662c0,0,2.473-19.209-12.979-20.585S68.632,12.317,69.637,18.508a29.543,29.543,0,0,0,4.9,11.4S77.1,26.139,79.2,26.038,94.65,18.057,95.02,15.676" transform="translate(-29.954 -0.281)" fill="#323657"/>
          <path id="Trazado_597864" data-name="Trazado 597864" d="M92.8,76.682c-6.632,0-8.128-6.955-8.128-6.955s1.446-9.388-2.268-15.645S97.453,64.147,97.453,64.147s-.017,1.529.078,3.359a18.848,18.848,0,0,0,.839,5.4s1.058,3.778-5.573,3.778" transform="translate(-35.332 -22.711)" fill="#eea886"/>
          <path id="Trazado_597865" data-name="Trazado 597865" d="M25.935,252.915a55.917,55.917,0,0,0,1.6,6.709c1.034,3.293,1.987,4.343,1.573,6.23-.314,1.424-1.925,2.493-2.332,2.036s-.6-5.994-2.9-5.968.686,6.857-.68,6.355S16.574,264.9,16.9,262.1s2.434-4.807,2.3-8.976c-.123-3.783,1.055-5.362,1.055-5.362Z" transform="translate(-7.285 -106.87)" fill="#eea886"/>
          <path id="Trazado_597866" data-name="Trazado 597866" d="M28.4,272.226s3.055.78,2.874,11.115l-3.46-.578s.064-5.712-.97-8.824c0,0,.176-2.022,1.555-1.713" transform="translate(-11.577 -117.407)" fill="#873f2b"/>
          <path id="Trazado_597867" data-name="Trazado 597867" d="M31.446,290.1,4.505,282.458l.08,33.18L31.4,331.706Z" transform="translate(-1.943 -121.834)" fill="#873f2b"/>
          <path id="Trazado_597868" data-name="Trazado 597868" d="M29.453,331.705l-3.376.623L0,316.111l.323-33.5,2.239-.154Z" transform="translate(0 -121.833)" fill="#873f2b"/>
          <path id="Trazado_597869" data-name="Trazado 597869" d="M48.489,88.529S38.215,89.9,36.22,93.215c-3.667,6.1-2.752,12.771-3.386,14.887s-5.609,23.742-6.138,25.224-3.457,9.7-3.881,12.876-1.729,38.77-1.729,38.77h6.35s8.149-33.761,8.572-37.36.929-9.419,1.47-11.536,8.267-27.658,9.431-30.233,4.43-14.805,1.58-17.316" transform="translate(-9.095 -38.186)" fill="#eddad3"/>
          <path id="Trazado_597870" data-name="Trazado 597870" d="M86.159,38.391c-.709-.688-4.022-1.827-4.092,2.4s4.727,7.339,5.15,4.375.135-5.617-1.058-6.773" transform="translate(-35.398 -16.268)" fill="#eea886"/>
          <path id="Trazado_597871" data-name="Trazado 597871" d="M101.879,73.6c-.229-.065-.481-.142-.757-.235a18.679,18.679,0,0,1-9.128-6.578c5.646,3.922,9.807,3.454,9.807,3.454s-.017,1.529.078,3.359" transform="translate(-39.68 -28.809)" fill="#a77860"/>
          <path id="Trazado_597872" data-name="Trazado 597872" d="M142.769,106.473,141.1,108c-.627-1.257-2.5-10.134-2.539-10.354Z" transform="translate(-59.765 -42.119)" fill="#cfbeb8"/>
        </g>
      </g>
    </g>
    <circle id="Elipse_5549" data-name="Elipse 5549" cx="49.5" cy="49.5" r="49.5" transform="translate(186 3460)" fill="#ffecdc"/>
    <g id="aterrizaje" transform="translate(197.5 3451.822)">
      <g id="Grupo_156082" data-name="Grupo 156082" transform="translate(3.782 20.178)">
        <path id="Trazado_597978" data-name="Trazado 597978" d="M95.261,92.42c-33.713-5.944-45.523-6.679-47.57,4.933s22.821,16.139,46.318,20.283c6.812,1.2,18.252.3,19.453-6.516s-8.586-17-18.2-18.7Z" transform="translate(-44.293 -78.109)" fill="#cbe7f8"/>
        <path id="Trazado_597979" data-name="Trazado 597979" d="M64.545,31.928l-1.225-6.949a5.235,5.235,0,0,0-4.247-4.247l-2.853-.5a3.332,3.332,0,0,0-3.86,2.7l-2.922,16.52,9.769,1.723Z" transform="translate(-45.882 -20.178)" fill="#8cade0"/>
        <path id="Trazado_597980" data-name="Trazado 597980" d="M47.691,97.355c-1.365,7.74,9.229,12.332,23.4,15.761-7.237-4.937-7.388-20.017-3.272-24.684C54.6,87.425,49.036,89.723,47.691,97.355Z" transform="translate(-44.293 -78.11)" fill="#a0dbfb"/>
        <ellipse id="Elipse_5550" data-name="Elipse 5550" cx="7.105" cy="8.086" rx="7.105" ry="8.086" transform="matrix(0.174, -0.985, 0.985, 0.174, 22.779, 44.843)" fill="#565e75"/>
        <path id="Trazado_597981" data-name="Trazado 597981" d="M148.029,204.979c2.263,2.923,9.762,4.052,15.655.639l5.874-10.174a2.3,2.3,0,0,0-1.6-3.421l-12.317-2.172a2.3,2.3,0,0,0-2.561,1.469Z" transform="translate(-129.838 -164.636)" fill="#8cade0"/>
        <path id="Trazado_597982" data-name="Trazado 597982" d="M140.781,291.961l-1.044,2.82a3.5,3.5,0,0,0,2.673,4.659l2.744.484a9.285,9.285,0,0,0,9.653-4.5l1.629-2.822C151.477,293.542,144.918,292.657,140.781,291.961Z" transform="translate(-122.59 -251.618)" fill="#cbe7f8"/>
        <path id="Trazado_597983" data-name="Trazado 597983" d="M29.033,137.125l-3.43,9.266a1.967,1.967,0,0,0,1.5,2.62l1.543.272a5.221,5.221,0,0,0,5.428-2.531l4.219-7.308a1.3,1.3,0,0,0-.9-1.923L30.472,136.3A1.3,1.3,0,0,0,29.033,137.125Z" transform="translate(-25.479 -119.046)" fill="#8cade0"/>
        <path id="Trazado_597984" data-name="Trazado 597984" d="M420.9,171.625l-.716-.126-5.072,2.13-1.508,4.449a3.342,3.342,0,0,0,.781.239l10.847,1.913C425.005,177.485,423.364,174.407,420.9,171.625Z" transform="translate(-355.99 -149.037)" fill="#8cade0"/>
        <g id="Grupo_156081" data-name="Grupo 156081" transform="translate(27.289 16.365)">
          <path id="Trazado_597985" data-name="Trazado 597985" d="M402.689,164.041a1.608,1.608,0,0,0-1.862,1.3l-.482,2.736a3.337,3.337,0,0,0,1.924,3.625l6.579-6.579Z" transform="translate(-371.945 -159.031)" fill="#7c91db"/>
          <g id="Grupo_156080" data-name="Grupo 156080">
            <path id="Trazado_597986" data-name="Trazado 597986" d="M210.433,134.142a1.114,1.114,0,0,1-1.1-1.307l.262-1.486a1.113,1.113,0,0,1,2.193.387l-.262,1.486A1.114,1.114,0,0,1,210.433,134.142Z" transform="translate(-209.318 -130.429)" fill="#7c91db"/>
            <path id="Trazado_597987" data-name="Trazado 597987" d="M265.541,143.861a1.114,1.114,0,0,1-1.1-1.307l.262-1.486a1.113,1.113,0,0,1,2.193.387l-.262,1.486A1.113,1.113,0,0,1,265.541,143.861Z" transform="translate(-256.246 -138.705)" fill="#7c91db"/>
            <path id="Trazado_597988" data-name="Trazado 597988" d="M320.65,153.576a1.114,1.114,0,0,1-1.1-1.307l.262-1.486a1.113,1.113,0,0,1,2.193.387l-.262,1.486A1.114,1.114,0,0,1,320.65,153.576Z" transform="translate(-303.175 -146.978)" fill="#7c91db"/>
          </g>
        </g>
      </g>
      <path id="Trazado_597989" data-name="Trazado 597989" d="M69.351,411.856H6.649A6.649,6.649,0,0,1,0,405.207v-3.793a3.5,3.5,0,0,1,3.5-3.5H72.5a3.5,3.5,0,0,1,3.5,3.5v3.793A6.649,6.649,0,0,1,69.351,411.856Z" transform="translate(0 -321.668)" fill="#565e75"/>
      <path id="Trazado_597990" data-name="Trazado 597990" d="M3.5,397.917a3.5,3.5,0,0,0-3.5,3.5v3.793a6.649,6.649,0,0,0,6.649,6.649H33.786c-5.933-3.481-5.5-11.3-4.464-13.939Z" transform="translate(0 -321.668)" fill="#404656"/>
      <g id="Grupo_156083" data-name="Grupo 156083" transform="translate(13.922 82.105)">
        <path id="Trazado_597991" data-name="Trazado 597991" d="M237.859,439.6H232.9a1.113,1.113,0,0,1,0-2.227h4.963a1.113,1.113,0,1,1,0,2.227Z" transform="translate(-211.3 -437.369)" fill="#fff"/>
        <path id="Trazado_597992" data-name="Trazado 597992" d="M99.865,439.6H94.9a1.113,1.113,0,0,1,0-2.227h4.963a1.113,1.113,0,1,1,0,2.227Z" transform="translate(-93.789 -437.369)" fill="#fff"/>
        <path id="Trazado_597993" data-name="Trazado 597993" d="M375.855,439.6h-4.963a1.113,1.113,0,1,1,0-2.227h4.963a1.113,1.113,0,0,1,0,2.227Z" transform="translate(-328.812 -437.369)" fill="#fff"/>
      </g>
    </g>
  </g>
</svg>
