<svg xmlns="http://www.w3.org/2000/svg" xmlns:xlink="http://www.w3.org/1999/xlink" width="258.512" height="212.631" viewBox="0 0 258.512 212.631">
  <defs>
    <clipPath id="clip-path">
      <rect id="Rectángulo_43702" data-name="Rectángulo 43702" width="181.509" height="119.831" fill="none"/>
    </clipPath>
  </defs>
  <g id="Grupo_156119" data-name="Grupo 156119" transform="translate(-671 -2006)">
    <g id="Grupo_156009" data-name="Grupo 156009" transform="translate(0 -848.175)">
      <g id="Grupo_151789" data-name="Grupo 151789" transform="translate(246.27 2346.788)">
        <g id="Grupo_97472" data-name="Grupo 97472" transform="translate(409.49 507.387)">
          <circle id="Elipse_5221" data-name="Elipse 5221" cx="100.227" cy="100.227" r="100.227" transform="translate(15.24 0)" fill="#fdab64"/>
          <ellipse id="Elipse_5222" data-name="Elipse 5222" cx="107.084" cy="8.314" rx="107.084" ry="8.314" transform="translate(59.322 196.004)" fill="#fc8116"/>
          <line id="Línea_250" data-name="Línea 250" y2="16.632" transform="translate(108.184 122.586)" fill="#003889"/>
          <circle id="Elipse_5225" data-name="Elipse 5225" cx="8.015" cy="8.015" r="8.015" transform="translate(177.754 32.219) rotate(-45)" fill="#fc8116"/>
        </g>
      </g>
    </g>
    <g id="Grupo_156096" data-name="Grupo 156096" transform="translate(748 2091.324)">
      <rect id="Rectángulo_43670" data-name="Rectángulo 43670" width="69.189" height="62.668" transform="translate(77.672 42.082)" fill="#efdfeb"/>
      <rect id="Rectángulo_43671" data-name="Rectángulo 43671" width="68.805" height="11.405" transform="translate(78.056 42.082)" fill="#dbc1d6"/>
      <rect id="Rectángulo_43672" data-name="Rectángulo 43672" width="69.189" height="62.668" transform="translate(34.291 42.082)" fill="#f9eff7"/>
      <rect id="Rectángulo_43673" data-name="Rectángulo 43673" width="15.436" height="73.507" transform="translate(15.439 34.824)" fill="#efdfeb"/>
      <rect id="Rectángulo_43674" data-name="Rectángulo 43674" width="7.858" height="73.507" transform="translate(23.017 34.824)" fill="#dbc1d6"/>
      <rect id="Rectángulo_43675" data-name="Rectángulo 43675" width="97.947" height="6.058" transform="translate(13.392 37.451)" fill="#efdfeb"/>
      <rect id="Rectángulo_43676" data-name="Rectángulo 43676" width="15.436" height="73.507" transform="translate(95.902 34.824)" fill="#efdfeb"/>
      <rect id="Rectángulo_43677" data-name="Rectángulo 43677" width="7.858" height="73.507" transform="translate(103.48 34.824)" fill="#dbc1d6"/>
      <rect id="Rectángulo_43678" data-name="Rectángulo 43678" width="15.436" height="73.507" transform="translate(150.316 34.824)" fill="#efdfeb"/>
      <rect id="Rectángulo_43679" data-name="Rectángulo 43679" width="7.858" height="73.507" transform="translate(157.897 34.824)" fill="#dbc1d6"/>
      <rect id="Rectángulo_43680" data-name="Rectángulo 43680" width="57.47" height="6.058" transform="translate(110.754 37.451)" fill="#dbc1d6"/>
      <rect id="Rectángulo_43681" data-name="Rectángulo 43681" width="104.888" height="6.054" transform="translate(10.942 103.309)" fill="#efdfeb"/>
      <rect id="Rectángulo_43682" data-name="Rectángulo 43682" width="54.286" height="6.054" transform="translate(115.827 103.309)" fill="#dbc1d6"/>
      <rect id="Rectángulo_43683" data-name="Rectángulo 43683" width="97.916" height="3.032" transform="translate(13.425 37.448)" fill="#dbc1d6"/>
      <rect id="Rectángulo_43684" data-name="Rectángulo 43684" width="122.82" height="10.54" transform="translate(1.978 109.291)" fill="#efdfeb"/>
      <rect id="Rectángulo_43685" data-name="Rectángulo 43685" width="56.754" height="10.54" transform="translate(124.758 109.291)" fill="#dbc1d6"/>
      <rect id="Rectángulo_43686" data-name="Rectángulo 43686" width="64.746" height="3.032" transform="translate(103.48 37.448)" fill="#c9a9c4"/>
      <rect id="Rectángulo_43687" data-name="Rectángulo 43687" width="54.286" height="1.441" transform="translate(115.827 103.309)" fill="#c9a9c4"/>
      <rect id="Rectángulo_43688" data-name="Rectángulo 43688" width="56.754" height="1.441" transform="translate(124.758 109.294)" fill="#c9a9c4"/>
      <rect id="Rectángulo_43689" data-name="Rectángulo 43689" width="2.398" height="6.054" transform="translate(113.435 103.309)" fill="#f9eff7"/>
      <rect id="Rectángulo_43690" data-name="Rectángulo 43690" width="2.099" height="10.54" transform="translate(122.701 109.291)" fill="#f9eff7"/>
      <rect id="Rectángulo_43691" data-name="Rectángulo 43691" width="2.398" height="6.054" transform="translate(113.435 103.309)" fill="#f9eff7"/>
      <rect id="Rectángulo_43692" data-name="Rectángulo 43692" width="122.82" height="1.569" transform="translate(1.978 109.291)" fill="#f9eff7"/>
      <rect id="Rectángulo_43693" data-name="Rectángulo 43693" width="68.805" height="11.405" transform="translate(34.675 42.082)" fill="#efdfeb"/>
      <rect id="Rectángulo_43694" data-name="Rectángulo 43694" width="104.885" height="1.441" transform="translate(10.945 103.309)" fill="#f9eff7"/>
      <rect id="Rectángulo_43695" data-name="Rectángulo 43695" width="15.436" height="4.202" transform="translate(15.439 43.508)" fill="#dbc1d6"/>
      <rect id="Rectángulo_43696" data-name="Rectángulo 43696" width="15.436" height="4.202" transform="translate(95.902 43.508)" fill="#dbc1d6"/>
      <rect id="Rectángulo_43697" data-name="Rectángulo 43697" width="15.436" height="4.202" transform="translate(150.316 43.508)" fill="#dbc1d6"/>
      <g id="Grupo_156094" data-name="Grupo 156094" transform="translate(0 0)">
        <g id="Grupo_156093" data-name="Grupo 156093" clip-path="url(#clip-path)">
          <path id="Trazado_597998" data-name="Trazado 597998" d="M31.549,22.386H27.383a9.554,9.554,0,0,0-9.552,9.552V57.482H41.1V31.938a9.554,9.554,0,0,0-9.552-9.552" transform="translate(36.501 45.826)" fill="#c9a9c4"/>
          <path id="Trazado_597999" data-name="Trazado 597999" d="M28.307,22.418a9.547,9.547,0,0,0-8.257,9.455V57.416H36.562V31.873a9.549,9.549,0,0,0-8.254-9.455" transform="translate(41.043 45.892)" fill="#a57ea3"/>
          <rect id="Rectángulo_43698" data-name="Rectángulo 43698" width="8.236" height="10.022" transform="translate(117.759 68.028)" fill="#c9a9c4"/>
          <rect id="Rectángulo_43699" data-name="Rectángulo 43699" width="5.765" height="10.022" transform="translate(117.759 68.028)" fill="#a57ea3"/>
          <rect id="Rectángulo_43700" data-name="Rectángulo 43700" width="8.236" height="10.022" transform="translate(131.349 68.028)" fill="#c9a9c4"/>
          <rect id="Rectángulo_43701" data-name="Rectángulo 43701" width="5.765" height="10.022" transform="translate(131.349 68.028)" fill="#a57ea3"/>
          <path id="Trazado_598000" data-name="Trazado 598000" d="M73.9,0H20.818L84.16,37.622h53.18Z" transform="translate(42.616 0.001)" fill="#dbc1d6"/>
          <path id="Trazado_598001" data-name="Trazado 598001" d="M0,37.622H126.775L63.433,0Z" transform="translate(0 0.001)" fill="#efdfeb"/>
          <path id="Trazado_598002" data-name="Trazado 598002" d="M6.073,28.442H95.842L50.989,1.8Z" transform="translate(12.431 3.69)" fill="#dbc1d6"/>
          <path id="Trazado_598003" data-name="Trazado 598003" d="M8.523,25.336H85.338L46.958,2.541Z" transform="translate(17.446 5.203)" fill="#efdfeb"/>
          <path id="Trazado_598004" data-name="Trazado 598004" d="M21.65,0,20.413.734,82.52,37.622h2.471Z" transform="translate(41.785 0.001)" fill="#f9eff7"/>
        </g>
      </g>
    </g>
    <g id="calendario_2_" data-name="calendario(2)" transform="translate(698 2033)">
      <path id="Trazado_598005" data-name="Trazado 598005" d="M110.352,127.813v62.256a10.972,10.972,0,0,1-10.986,10.986H10.986A10.972,10.972,0,0,1,0,190.068V127.813L7.324,120h95.7Z" transform="translate(0 -90.703)" fill="#e1e4fb"/>
      <path id="Trazado_598006" data-name="Trazado 598006" d="M281.176,127.813v62.256a10.972,10.972,0,0,1-10.986,10.986H226V120h47.852Z" transform="translate(-170.824 -90.703)" fill="#c5c9f7"/>
      <path id="Trazado_598007" data-name="Trazado 598007" d="M110.352,40.986v18.8H0v-18.8A10.971,10.971,0,0,1,10.986,30H99.365A10.971,10.971,0,0,1,110.352,40.986Z" transform="translate(0 -22.676)" fill="#b0c710"/>
      <path id="Trazado_598008" data-name="Trazado 598008" d="M281.176,40.986v18.8H226V30h44.189A10.971,10.971,0,0,1,281.176,40.986Z" transform="translate(-170.824 -22.676)" fill="#8fa113"/>
      <g id="Grupo_156098" data-name="Grupo 156098" transform="translate(14.648)">
        <path id="Trazado_598009" data-name="Trazado 598009" d="M63.662,21.973A3.66,3.66,0,0,1,60,18.311V3.662a3.662,3.662,0,0,1,7.324,0V18.311A3.66,3.66,0,0,1,63.662,21.973Z" transform="translate(-60)" fill="#7a7780"/>
        <path id="Trazado_598010" data-name="Trazado 598010" d="M153.662,21.973A3.66,3.66,0,0,1,150,18.311V3.662a3.662,3.662,0,0,1,7.324,0V18.311A3.66,3.66,0,0,1,153.662,21.973Z" transform="translate(-128.027)" fill="#7a7780"/>
      </g>
      <g id="Grupo_156099" data-name="Grupo 156099" transform="translate(66.406)">
        <path id="Trazado_598011" data-name="Trazado 598011" d="M275.662,21.973A3.66,3.66,0,0,1,272,18.311V3.662a3.662,3.662,0,0,1,7.324,0V18.311A3.66,3.66,0,0,1,275.662,21.973Z" transform="translate(-272)" fill="#57555c"/>
        <path id="Trazado_598012" data-name="Trazado 598012" d="M365.662,21.973A3.66,3.66,0,0,1,362,18.311V3.662a3.662,3.662,0,0,1,7.324,0V18.311A3.66,3.66,0,0,1,365.662,21.973Z" transform="translate(-340.027)" fill="#57555c"/>
      </g>
      <g id="Grupo_156100" data-name="Grupo 156100" transform="translate(14.648 44.434)">
        <path id="Trazado_598013" data-name="Trazado 598013" d="M70.986,189.324H63.662a3.662,3.662,0,1,1,0-7.324h7.324a3.662,3.662,0,1,1,0,7.324Z" transform="translate(-60 -182)" fill="#adacb2"/>
        <path id="Trazado_598014" data-name="Trazado 598014" d="M161.23,189.324h-7.568a3.662,3.662,0,1,1,0-7.324h7.568a3.662,3.662,0,0,1,0,7.324Z" transform="translate(-128.027 -182)" fill="#adacb2"/>
      </g>
      <g id="Grupo_156101" data-name="Grupo 156101" transform="translate(58.838 44.434)">
        <path id="Trazado_598015" data-name="Trazado 598015" d="M252.23,189.324h-7.568a3.662,3.662,0,1,1,0-7.324h7.568a3.662,3.662,0,0,1,0,7.324Z" transform="translate(-241 -182)" fill="#8a8891"/>
        <path id="Trazado_598016" data-name="Trazado 598016" d="M342.986,189.324h-7.324a3.662,3.662,0,1,1,0-7.324h7.324a3.662,3.662,0,1,1,0,7.324Z" transform="translate(-309.783 -182)" fill="#8a8891"/>
      </g>
      <g id="Grupo_156102" data-name="Grupo 156102" transform="translate(14.648 59.082)">
        <path id="Trazado_598017" data-name="Trazado 598017" d="M70.986,249.324H63.662a3.662,3.662,0,1,1,0-7.324h7.324a3.662,3.662,0,1,1,0,7.324Z" transform="translate(-60 -242)" fill="#adacb2"/>
        <path id="Trazado_598018" data-name="Trazado 598018" d="M161.23,249.324h-7.568a3.662,3.662,0,1,1,0-7.324h7.568a3.662,3.662,0,0,1,0,7.324Z" transform="translate(-128.027 -242)" fill="#adacb2"/>
      </g>
      <g id="Grupo_156103" data-name="Grupo 156103" transform="translate(58.838 59.082)">
        <path id="Trazado_598019" data-name="Trazado 598019" d="M252.23,249.324h-7.568a3.662,3.662,0,1,1,0-7.324h7.568a3.662,3.662,0,0,1,0,7.324Z" transform="translate(-241 -242)" fill="#8a8891"/>
        <path id="Trazado_598020" data-name="Trazado 598020" d="M342.986,249.324h-7.324a3.662,3.662,0,1,1,0-7.324h7.324a3.662,3.662,0,1,1,0,7.324Z" transform="translate(-309.783 -242)" fill="#8a8891"/>
      </g>
      <g id="Grupo_156104" data-name="Grupo 156104" transform="translate(14.648 73.73)">
        <path id="Trazado_598021" data-name="Trazado 598021" d="M70.986,309.324H63.662a3.662,3.662,0,0,1,0-7.324h7.324a3.662,3.662,0,0,1,0,7.324Z" transform="translate(-60 -302)" fill="#adacb2"/>
        <path id="Trazado_598022" data-name="Trazado 598022" d="M161.23,309.324h-7.568a3.662,3.662,0,0,1,0-7.324h7.568a3.662,3.662,0,0,1,0,7.324Z" transform="translate(-128.027 -302)" fill="#adacb2"/>
      </g>
      <path id="Trazado_598023" data-name="Trazado 598023" d="M252.23,309.324h-7.568a3.662,3.662,0,0,1,0-7.324h7.568a3.662,3.662,0,0,1,0,7.324Z" transform="translate(-182.162 -228.27)" fill="#8a8891"/>
      <g id="Grupo_156105" data-name="Grupo 156105" transform="translate(14.648 88.379)">
        <path id="Trazado_598024" data-name="Trazado 598024" d="M70.986,369.324H63.662a3.662,3.662,0,0,1,0-7.324h7.324a3.662,3.662,0,0,1,0,7.324Z" transform="translate(-60 -362)" fill="#adacb2"/>
        <path id="Trazado_598025" data-name="Trazado 598025" d="M161.23,369.324h-7.568a3.662,3.662,0,0,1,0-7.324h7.568a3.662,3.662,0,0,1,0,7.324Z" transform="translate(-128.027 -362)" fill="#adacb2"/>
      </g>
      <path id="Trazado_598026" data-name="Trazado 598026" d="M252.23,369.324h-7.568a3.662,3.662,0,0,1,0-7.324h7.568a3.662,3.662,0,0,1,0,7.324Z" transform="translate(-182.162 -273.621)" fill="#8a8891"/>
      <path id="Trazado_598027" data-name="Trazado 598027" d="M327.635,302a25.635,25.635,0,1,0,25.635,25.635A25.663,25.663,0,0,0,327.635,302Z" transform="translate(-228.27 -228.27)" fill="#fcd03e"/>
      <path id="Trazado_598028" data-name="Trazado 598028" d="M432.635,327.635A25.663,25.663,0,0,1,407,353.27V302A25.663,25.663,0,0,1,432.635,327.635Z" transform="translate(-307.635 -228.27)" fill="#fcd03e"/>
      <path id="Trazado_598029" data-name="Trazado 598029" d="M406.648,350.311a3.627,3.627,0,0,1-3.662,3.662h-7.324A3.627,3.627,0,0,1,392,350.311V335.662a3.662,3.662,0,0,1,7.324,0v10.986h3.662A3.626,3.626,0,0,1,406.648,350.311Z" transform="translate(-296.297 -250.945)" fill="#7a7780"/>
      <path id="Trazado_598030" data-name="Trazado 598030" d="M417.986,350.311a3.627,3.627,0,0,1-3.662,3.662H407V332a3.626,3.626,0,0,1,3.662,3.662v10.986h3.662A3.626,3.626,0,0,1,417.986,350.311Z" transform="translate(-307.635 -250.945)" fill="#57555c"/>
    </g>
  </g>
</svg>
