<svg xmlns="http://www.w3.org/2000/svg" width="71" height="71" viewBox="0 0 71 71">
  <g id="Grupo_156607" data-name="Grupo 156607" transform="translate(-284.75 -4581)">
    <g id="Grupo_156012" data-name="Grupo 156012" transform="translate(-0.25 1106)">
      <circle id="Elipse_5544" data-name="Elipse 5544" cx="35.5" cy="35.5" r="35.5" transform="translate(285 3475)" fill="#e5f0e0"/>
    </g>
    <g id="finanzas" transform="translate(297 4539.506)">
      <path id="Trazado_597910" data-name="Trazado 597910" d="M44.462,107.72V87.242a1.418,1.418,0,0,0-1.416-1.416H35.2a1.408,1.408,0,0,0-.88.308A17.78,17.78,0,0,0,30.4,79.5C19.486,67.9,0,75.717,0,91.549a17.591,17.591,0,0,0,17.587,17.587,17.4,17.4,0,0,0,6.908-1.41,1.41,1.41,0,0,0,1.4,1.41h2.256a.7.7,0,1,0,0-1.39H25.9a.028.028,0,0,1-.012-.026v-1.084h0v-1.153H33.6v2.263H31.334a.7.7,0,1,0,0,1.39H43.046A1.418,1.418,0,0,0,44.462,107.72ZM12.823,76.068a15.778,15.778,0,0,0-3.644,6.037,16.194,16.194,0,0,1-2.9-2.137A16.208,16.208,0,0,1,12.823,76.068Zm-7.5,4.913a17.443,17.443,0,0,0,3.421,2.468,28.953,28.953,0,0,0-1.091,7.4H1.406A16.126,16.126,0,0,1,5.324,80.98ZM1.406,92.244H7.653a28.949,28.949,0,0,0,1.091,7.4,17.447,17.447,0,0,0-3.421,2.468A16.126,16.126,0,0,1,1.406,92.244Zm4.869,10.885a16.186,16.186,0,0,1,2.9-2.137,15.778,15.778,0,0,0,3.644,6.037A16.211,16.211,0,0,1,6.276,103.129Zm10.616,4.561c-3.225-.5-5.395-4.255-6.469-7.346a16.817,16.817,0,0,1,6.469-1.55Zm0-10.287a18.171,18.171,0,0,0-6.883,1.612,27.688,27.688,0,0,1-.964-6.771h7.848Zm0-6.549H9.044a27.683,27.683,0,0,1,.964-6.771A18.17,18.17,0,0,0,16.892,85.7Zm0-6.549a16.817,16.817,0,0,1-6.469-1.55c1.072-3.087,3.242-6.841,6.469-7.346Zm16.876,6.549H27.52a28.949,28.949,0,0,0-1.091-7.4A17.447,17.447,0,0,0,29.85,80.98,16.126,16.126,0,0,1,33.767,90.854Zm0,1.39a16.1,16.1,0,0,1-.851,4.541H27.085a30.352,30.352,0,0,0,.435-4.541ZM28.9,79.969A16.186,16.186,0,0,1,26,82.105a19.736,19.736,0,0,0-1.26-2.834,13.15,13.15,0,0,0-2.384-3.2A16.212,16.212,0,0,1,28.9,79.969ZM18.282,75.408c3.225.5,5.395,4.255,6.469,7.346a16.817,16.817,0,0,1-6.469,1.55Zm0,10.287a18.209,18.209,0,0,0,6.389-1.4c.167-.07.331-.142.495-.217a27.688,27.688,0,0,1,.964,6.771H18.282ZM24.494,106.2a16.09,16.09,0,0,1-2.177.843,12.718,12.718,0,0,0,2.177-2.8Zm0-5.168c-1.486,3.843-3.766,6.266-6.212,6.654V98.794a16.741,16.741,0,0,1,6.212,1.443Zm1.175-4.228a1.423,1.423,0,0,0-1.175,1.4v.525A18.14,18.14,0,0,0,18.282,97.4V92.244H26.13A28.821,28.821,0,0,1,25.669,96.806Zm8.114,7.286h-7.9v-2.263h7.9Zm0-3.653h-7.9V98.2a.026.026,0,0,1,.025-.025h7.873v2.263Zm1.39-13.2a.026.026,0,0,1,.025-.026h7.847a.026.026,0,0,1,.025.026v2.237h-7.9V87.241Zm0,3.628h7.9v2.263h-7.9Zm0,3.653h7.9v2.263h-7.9Zm0,3.653h7.9v2.263h-7.9Zm0,3.653h7.9v2.263h-7.9Zm0,3.653h7.9v2.237a.026.026,0,0,1-.025.026H35.174Z" transform="translate(0 -14.025)"/>
      <path id="Trazado_597911" data-name="Trazado 597911" d="M402.132,58.494a5.34,5.34,0,0,0-1.865,10.344.7.7,0,0,0,.486-1.3,3.949,3.949,0,1,1,2.759,0,.7.7,0,0,0,.486,1.3,5.34,5.34,0,0,0-1.865-10.344Z" transform="translate(-360.01 0)"/>
    </g>
  </g>
</svg>
