<svg xmlns="http://www.w3.org/2000/svg" width="85.305" height="106.447" viewBox="0 0 85.305 106.447">
  <g id="divisa" transform="translate(-50.845)">
    <circle id="Elipse_5018" data-name="Elipse 5018" cx="23.667" cy="23.667" r="23.667" transform="translate(80.295 0)" fill="#d59831"/>
    <path id="Trazado_212801" data-name="Trazado 212801" d="M284.685,29.413a23.67,23.67,0,0,1-35.56,20.464A23.671,23.671,0,0,0,269.343,7.254,23.672,23.672,0,0,1,284.685,29.413Z" transform="translate(-157.056 -5.746)" fill="#c9891e"/>
    <circle id="Elipse_5019" data-name="Elipse 5019" cx="16.626" cy="16.626" r="16.626" transform="translate(87.335 7.04)" fill="#fff5c6"/>
    <path id="Trazado_212802" data-name="Trazado 212802" d="M287.22,54.079a16.629,16.629,0,0,1-26.007,13.728A16.628,16.628,0,0,0,276.12,38.394,16.632,16.632,0,0,1,287.22,54.079Z" transform="translate(-166.631 -30.412)" fill="#fef0ae"/>
    <circle id="Elipse_5020" data-name="Elipse 5020" cx="23.667" cy="23.667" r="23.667" transform="translate(50.845 33.652)" fill="#c5d3dd"/>
    <path id="Trazado_212803" data-name="Trazado 212803" d="M143.034,191.27a23.67,23.67,0,0,1-35.56,20.464,23.671,23.671,0,0,0,20.218-42.623A23.673,23.673,0,0,1,143.034,191.27Z" transform="translate(-44.856 -133.952)" fill="#b6c4cf"/>
    <circle id="Elipse_5021" data-name="Elipse 5021" cx="16.626" cy="16.626" r="16.626" transform="translate(57.885 40.692)" fill="#e8edf2"/>
    <path id="Trazado_212804" data-name="Trazado 212804" d="M145.566,215.944a16.629,16.629,0,0,1-26.007,13.728,16.628,16.628,0,0,0,14.907-29.413A16.633,16.633,0,0,1,145.566,215.944Z" transform="translate(-54.428 -158.624)" fill="#d9e7ec"/>
    <circle id="Elipse_5022" data-name="Elipse 5022" cx="23.667" cy="23.667" r="23.667" transform="translate(88.817 59.114)" fill="#fec165"/>
    <path id="Trazado_212805" data-name="Trazado 212805" d="M325.674,313.738a23.67,23.67,0,0,1-35.56,20.464,23.671,23.671,0,0,0,20.218-42.623A23.673,23.673,0,0,1,325.674,313.738Z" transform="translate(-189.524 -230.958)" fill="#fdb441"/>
    <circle id="Elipse_5023" data-name="Elipse 5023" cx="16.626" cy="16.626" r="16.626" transform="translate(95.857 66.154)" fill="#fedba6"/>
    <path id="Trazado_212806" data-name="Trazado 212806" d="M282.7,67.392a1.559,1.559,0,0,0-2.161.44l-4.752,7.18-4.8-7.23a1.56,1.56,0,1,0-2.6,1.725l5.062,7.626h-2.416a1.56,1.56,0,1,0,0,3.119h3.187l0,1.479h-3.183a1.56,1.56,0,1,0,0,3.119h3.175l0,1.841a1.56,1.56,0,0,0,1.556,1.564h0a1.56,1.56,0,0,0,1.56-1.556l0-1.849h3.164a1.56,1.56,0,1,0,0-3.119h-3.156l0-1.479h3.152a1.56,1.56,0,1,0,0-3.119h-2.369l5.017-7.58A1.56,1.56,0,0,0,282.7,67.392Z" transform="translate(-172.109 -53.137)" fill="#d59831"/>
    <path id="Trazado_212807" data-name="Trazado 212807" d="M148.149,231.24c-.2-.069-.393-.14-.591-.213,0-1.3.064-2.611,0-3.9a4.982,4.982,0,0,1,.555.436,1.6,1.6,0,0,0,.661.451,1.56,1.56,0,0,0,1.728-2.456,4.3,4.3,0,0,0-.393-.458,5.689,5.689,0,0,0-2.547-1.253v-.6a1.56,1.56,0,0,0-3.119,0v.7c-.039.011-.077.018-.115.03a4.791,4.791,0,0,0-3.287,3.754,4.277,4.277,0,0,0,1.421,4.211,10.052,10.052,0,0,0,1.982,1.173v5.4a4.287,4.287,0,0,1-1.513-.706,1.56,1.56,0,1,0-1.708,2.61,6.852,6.852,0,0,0,3.22,1.248v.674a1.56,1.56,0,1,0,3.119,0v-.828a5.752,5.752,0,0,0,4.038-4.537A5.072,5.072,0,0,0,148.149,231.24Zm-3.71-1.708-.057-.042a1.242,1.242,0,0,1-.28-1.178,2.013,2.013,0,0,1,.337-.786Zm4.081,6.931a2.649,2.649,0,0,1-.962,1.622v-3.7A1.917,1.917,0,0,1,148.52,236.463Z" transform="translate(-71.025 -175.597)" fill="#b6c4cf"/>
    <path id="Trazado_212808" data-name="Trazado 212808" d="M322.851,360.985H315.5a6.7,6.7,0,0,0,1.34-4.952h2.079a1.56,1.56,0,1,0,0-3.119h-2.857a7.263,7.263,0,0,1-1.261-3.4s0,0,0-.006,0,0,0-.006a1.76,1.76,0,0,1,1-1.669,4.161,4.161,0,0,1,3.75-.028,3.336,3.336,0,0,1,1.511,1.684,1.56,1.56,0,0,0,3-.851,6.331,6.331,0,0,0-2.892-3.5,7.219,7.219,0,0,0-6.9-.023,4.855,4.855,0,0,0-2.58,4.372s0,.008,0,.012,0,0,0,.006,0,0,0,.007,0,.011,0,.017a8.389,8.389,0,0,0,.83,3.379h-.938a1.56,1.56,0,1,0,0,3.119H313.7c.164,1.529.053,2.1-1.2,3.782l-1.35,1.79a1.56,1.56,0,0,0,1.245,2.5h10.457a1.56,1.56,0,0,0,0-3.12Z" transform="translate(-205.284 -272.682)" fill="#fdb441"/>
    <path id="Trazado_212809" data-name="Trazado 212809" d="M328.206,338.412A16.629,16.629,0,0,1,302.2,352.14a16.628,16.628,0,0,0,14.907-29.413A16.633,16.633,0,0,1,328.206,338.412Z" transform="translate(-199.096 -255.63)" fill="#fece85"/>
    <circle id="Elipse_5026" data-name="Elipse 5026" cx="23.667" cy="23.667" r="23.667" transform="translate(88.816 59.113)" fill="#fec165"/>
    <path id="Trazado_212822" data-name="Trazado 212822" d="M325.674,313.738a23.67,23.67,0,0,1-35.56,20.464,23.671,23.671,0,0,0,20.218-42.623A23.673,23.673,0,0,1,325.674,313.738Z" transform="translate(-189.523 -230.958)" fill="#fdb441"/>
    <circle id="Elipse_5027" data-name="Elipse 5027" cx="16.626" cy="16.626" r="16.626" transform="translate(95.857 66.154)" fill="#fedba6"/>
    <path id="Trazado_212823" data-name="Trazado 212823" d="M322.851,360.985H315.5a6.7,6.7,0,0,0,1.34-4.952h2.079a1.56,1.56,0,1,0,0-3.119h-2.857a7.263,7.263,0,0,1-1.261-3.4s0,0,0-.006,0,0,0-.006a1.76,1.76,0,0,1,1-1.669,4.161,4.161,0,0,1,3.75-.028,3.336,3.336,0,0,1,1.511,1.684,1.56,1.56,0,0,0,3-.851,6.331,6.331,0,0,0-2.892-3.5,7.219,7.219,0,0,0-6.9-.023,4.855,4.855,0,0,0-2.58,4.372s0,.008,0,.012,0,0,0,.006,0,0,0,.007,0,.011,0,.017a8.389,8.389,0,0,0,.83,3.379h-.938a1.56,1.56,0,1,0,0,3.119H313.7c.164,1.529.053,2.1-1.2,3.782l-1.35,1.79a1.56,1.56,0,0,0,1.245,2.5h10.457a1.56,1.56,0,0,0,0-3.12Z" transform="translate(-205.284 -272.682)" fill="#fdb441"/>
    <path id="Trazado_212824" data-name="Trazado 212824" d="M328.206,338.412A16.629,16.629,0,0,1,302.2,352.14a16.628,16.628,0,0,0,14.907-29.413A16.633,16.633,0,0,1,328.206,338.412Z" transform="translate(-199.097 -255.63)" fill="#fece85"/>
  </g>
</svg>
