<svg xmlns="http://www.w3.org/2000/svg" xmlns:xlink="http://www.w3.org/1999/xlink" width="258.512" height="212.631" viewBox="0 0 258.512 212.631">
  <defs>
    <clipPath id="clip-path">
      <rect id="Rectángulo_43702" data-name="Rectángulo 43702" width="181.509" height="119.831" fill="none"/>
    </clipPath>
  </defs>
  <g id="Grupo_156118" data-name="Grupo 156118" transform="translate(-1091 -2006)">
    <g id="Grupo_156008" data-name="Grupo 156008" transform="translate(0 -848.175)">
      <g id="Grupo_151790" data-name="Grupo 151790" transform="translate(666.271 2346.788)">
        <g id="Grupo_97472" data-name="Grupo 97472" transform="translate(409.49 507.387)">
          <circle id="Elipse_5221" data-name="Elipse 5221" cx="100.227" cy="100.227" r="100.227" transform="translate(15.24 0)" fill="#fde07e"/>
          <path id="Trazado_212833" data-name="Trazado 212833" d="M107.084,0c59.141,0,107.084,3.722,107.084,8.314s-47.943,8.314-107.084,8.314S0,12.905,0,8.314,47.943,0,107.084,0Z" transform="translate(59.322 196.004)" fill="#fcd03e"/>
          <line id="Línea_250" data-name="Línea 250" y2="16.632" transform="translate(108.184 122.586)" fill="#003889"/>
          <circle id="Elipse_5225" data-name="Elipse 5225" cx="8.015" cy="8.015" r="8.015" transform="translate(177.754 32.219) rotate(-45)" fill="#fcd03e"/>
        </g>
      </g>
    </g>
    <g id="Grupo_156097" data-name="Grupo 156097" transform="translate(1168 2091.324)">
      <rect id="Rectángulo_43670" data-name="Rectángulo 43670" width="69.189" height="62.668" transform="translate(77.672 42.082)" fill="#efdfeb"/>
      <rect id="Rectángulo_43671" data-name="Rectángulo 43671" width="68.805" height="11.405" transform="translate(78.056 42.082)" fill="#dbc1d6"/>
      <rect id="Rectángulo_43672" data-name="Rectángulo 43672" width="69.189" height="62.668" transform="translate(34.291 42.082)" fill="#f9eff7"/>
      <rect id="Rectángulo_43673" data-name="Rectángulo 43673" width="15.436" height="73.507" transform="translate(15.439 34.824)" fill="#efdfeb"/>
      <rect id="Rectángulo_43674" data-name="Rectángulo 43674" width="7.858" height="73.507" transform="translate(23.017 34.824)" fill="#dbc1d6"/>
      <rect id="Rectángulo_43675" data-name="Rectángulo 43675" width="97.947" height="6.058" transform="translate(13.392 37.451)" fill="#efdfeb"/>
      <rect id="Rectángulo_43676" data-name="Rectángulo 43676" width="15.436" height="73.507" transform="translate(95.902 34.824)" fill="#efdfeb"/>
      <rect id="Rectángulo_43677" data-name="Rectángulo 43677" width="7.858" height="73.507" transform="translate(103.48 34.824)" fill="#dbc1d6"/>
      <rect id="Rectángulo_43678" data-name="Rectángulo 43678" width="15.436" height="73.507" transform="translate(150.316 34.824)" fill="#efdfeb"/>
      <rect id="Rectángulo_43679" data-name="Rectángulo 43679" width="7.858" height="73.507" transform="translate(157.897 34.824)" fill="#dbc1d6"/>
      <rect id="Rectángulo_43680" data-name="Rectángulo 43680" width="57.47" height="6.058" transform="translate(110.754 37.451)" fill="#dbc1d6"/>
      <rect id="Rectángulo_43681" data-name="Rectángulo 43681" width="104.888" height="6.054" transform="translate(10.942 103.309)" fill="#efdfeb"/>
      <rect id="Rectángulo_43682" data-name="Rectángulo 43682" width="54.286" height="6.054" transform="translate(115.827 103.309)" fill="#dbc1d6"/>
      <rect id="Rectángulo_43683" data-name="Rectángulo 43683" width="97.916" height="3.032" transform="translate(13.425 37.448)" fill="#dbc1d6"/>
      <rect id="Rectángulo_43684" data-name="Rectángulo 43684" width="122.82" height="10.54" transform="translate(1.978 109.291)" fill="#efdfeb"/>
      <rect id="Rectángulo_43685" data-name="Rectángulo 43685" width="56.754" height="10.54" transform="translate(124.758 109.291)" fill="#dbc1d6"/>
      <rect id="Rectángulo_43686" data-name="Rectángulo 43686" width="64.746" height="3.032" transform="translate(103.48 37.448)" fill="#c9a9c4"/>
      <rect id="Rectángulo_43687" data-name="Rectángulo 43687" width="54.286" height="1.441" transform="translate(115.827 103.309)" fill="#c9a9c4"/>
      <rect id="Rectángulo_43688" data-name="Rectángulo 43688" width="56.754" height="1.441" transform="translate(124.758 109.294)" fill="#c9a9c4"/>
      <rect id="Rectángulo_43689" data-name="Rectángulo 43689" width="2.398" height="6.054" transform="translate(113.435 103.309)" fill="#f9eff7"/>
      <rect id="Rectángulo_43690" data-name="Rectángulo 43690" width="2.099" height="10.54" transform="translate(122.701 109.291)" fill="#f9eff7"/>
      <rect id="Rectángulo_43691" data-name="Rectángulo 43691" width="2.398" height="6.054" transform="translate(113.435 103.309)" fill="#f9eff7"/>
      <rect id="Rectángulo_43692" data-name="Rectángulo 43692" width="122.82" height="1.569" transform="translate(1.978 109.291)" fill="#f9eff7"/>
      <rect id="Rectángulo_43693" data-name="Rectángulo 43693" width="68.805" height="11.405" transform="translate(34.675 42.082)" fill="#efdfeb"/>
      <rect id="Rectángulo_43694" data-name="Rectángulo 43694" width="104.885" height="1.441" transform="translate(10.945 103.309)" fill="#f9eff7"/>
      <rect id="Rectángulo_43695" data-name="Rectángulo 43695" width="15.436" height="4.202" transform="translate(15.439 43.508)" fill="#dbc1d6"/>
      <rect id="Rectángulo_43696" data-name="Rectángulo 43696" width="15.436" height="4.202" transform="translate(95.902 43.508)" fill="#dbc1d6"/>
      <rect id="Rectángulo_43697" data-name="Rectángulo 43697" width="15.436" height="4.202" transform="translate(150.316 43.508)" fill="#dbc1d6"/>
      <g id="Grupo_156094" data-name="Grupo 156094" transform="translate(0 0)">
        <g id="Grupo_156093" data-name="Grupo 156093" clip-path="url(#clip-path)">
          <path id="Trazado_597998" data-name="Trazado 597998" d="M31.549,22.386H27.383a9.554,9.554,0,0,0-9.552,9.552V57.482H41.1V31.938a9.554,9.554,0,0,0-9.552-9.552" transform="translate(36.501 45.826)" fill="#c9a9c4"/>
          <path id="Trazado_597999" data-name="Trazado 597999" d="M28.307,22.418a9.547,9.547,0,0,0-8.257,9.455V57.416H36.562V31.873a9.549,9.549,0,0,0-8.254-9.455" transform="translate(41.043 45.892)" fill="#a57ea3"/>
          <rect id="Rectángulo_43698" data-name="Rectángulo 43698" width="8.236" height="10.022" transform="translate(117.759 68.028)" fill="#c9a9c4"/>
          <rect id="Rectángulo_43699" data-name="Rectángulo 43699" width="5.765" height="10.022" transform="translate(117.759 68.028)" fill="#a57ea3"/>
          <rect id="Rectángulo_43700" data-name="Rectángulo 43700" width="8.236" height="10.022" transform="translate(131.349 68.028)" fill="#c9a9c4"/>
          <rect id="Rectángulo_43701" data-name="Rectángulo 43701" width="5.765" height="10.022" transform="translate(131.349 68.028)" fill="#a57ea3"/>
          <path id="Trazado_598000" data-name="Trazado 598000" d="M73.9,0H20.818L84.16,37.622h53.18Z" transform="translate(42.616 0.001)" fill="#dbc1d6"/>
          <path id="Trazado_598001" data-name="Trazado 598001" d="M0,37.622H126.775L63.433,0Z" transform="translate(0 0.001)" fill="#efdfeb"/>
          <path id="Trazado_598002" data-name="Trazado 598002" d="M6.073,28.442H95.842L50.989,1.8Z" transform="translate(12.431 3.69)" fill="#dbc1d6"/>
          <path id="Trazado_598003" data-name="Trazado 598003" d="M8.523,25.336H85.338L46.958,2.541Z" transform="translate(17.446 5.203)" fill="#efdfeb"/>
          <path id="Trazado_598004" data-name="Trazado 598004" d="M21.65,0,20.413.734,82.52,37.622h2.471Z" transform="translate(41.785 0.001)" fill="#f9eff7"/>
        </g>
      </g>
    </g>
    <g id="futuro" transform="translate(1089 2011.999)">
      <g id="Grupo_156106" data-name="Grupo 156106" transform="translate(28.104 42.156)">
        <path id="Trazado_598031" data-name="Trazado 598031" d="M116.449,184.76H108.38a44.38,44.38,0,0,1,0-88.76h8.069a44.38,44.38,0,0,1,0,88.76Z" transform="translate(-64 -96)" fill="#529d2e"/>
      </g>
      <g id="Grupo_156107" data-name="Grupo 156107" transform="translate(28.68 42.444)">
        <ellipse id="Elipse_5555" data-name="Elipse 5555" cx="44" cy="44.5" rx="44" ry="44.5" transform="translate(0.32 -0.443)" fill="#82c961"/>
      </g>
      <g id="Grupo_156108" data-name="Grupo 156108" transform="translate(36.749 50.513)">
        <circle id="Elipse_5556" data-name="Elipse 5556" cx="36" cy="36" r="36" transform="translate(0.251 0.487)" fill="#d7e6f0"/>
      </g>
      <g id="Grupo_156109" data-name="Grupo 156109" transform="translate(68.449 54.26)">
        <path id="Trazado_598032" data-name="Trazado 598032" d="M228.035,180.311A4.035,4.035,0,0,1,224,176.276V148.035a4.035,4.035,0,1,1,8.069,0v28.242A4.035,4.035,0,0,1,228.035,180.311Z" transform="translate(-224 -144)" fill="#555a6e"/>
      </g>
      <g id="Grupo_156110" data-name="Grupo 156110" transform="translate(68.449 106.709)">
        <path id="Trazado_598033" data-name="Trazado 598033" d="M228.035,364.1A4.035,4.035,0,0,1,224,360.069v-4.035a4.035,4.035,0,0,1,8.069,0v4.035A4.035,4.035,0,0,1,228.035,364.1Z" transform="translate(-224 -352)" fill="#a5c3dc"/>
      </g>
      <g id="Grupo_156111" data-name="Grupo 156111" transform="translate(92.656 82.502)">
        <path id="Trazado_598034" data-name="Trazado 598034" d="M328.069,264.069h-4.035a4.035,4.035,0,1,1,0-8.069h4.035a4.035,4.035,0,1,1,0,8.069Z" transform="translate(-320 -256)" fill="#a5c3dc"/>
      </g>
      <g id="Grupo_156112" data-name="Grupo 156112" transform="translate(40.207 82.502)">
        <path id="Trazado_598035" data-name="Trazado 598035" d="M120.069,264.069h-4.035a4.035,4.035,0,1,1,0-8.069h4.035a4.035,4.035,0,1,1,0,8.069Z" transform="translate(-112 -256)" fill="#a5c3dc"/>
      </g>
      <g id="Grupo_156113" data-name="Grupo 156113" transform="translate(54.328 82.502)">
        <path id="Trazado_598036" data-name="Trazado 598036" d="M172.035,278.19a4.035,4.035,0,0,1-2.853-6.887L183.3,257.182a4.035,4.035,0,1,1,5.706,5.706l-14.121,14.121A4.022,4.022,0,0,1,172.035,278.19Z" transform="translate(-168 -256)" fill="#555a6e"/>
      </g>
      <g id="Grupo_156116" data-name="Grupo 156116" transform="translate(64.414 78.467)">
        <g id="Grupo_156114" data-name="Grupo 156114" transform="translate(2.305 2.017)">
          <ellipse id="Elipse_5557" data-name="Elipse 5557" cx="5.5" cy="6.5" rx="5.5" ry="6.5" transform="translate(0.28 -0.483)" fill="#555a6e"/>
        </g>
        <g id="Grupo_156115" data-name="Grupo 156115">
          <path id="Trazado_598037" data-name="Trazado 598037" d="M216.069,244.035a4.035,4.035,0,1,1-4.035,4.035,4.039,4.039,0,0,1,4.035-4.035m0-4.035a8.069,8.069,0,1,0,8.069,8.069A8.069,8.069,0,0,0,216.069,240Z" transform="translate(-208 -240)" fill="#faa019"/>
        </g>
      </g>
      <g id="Grupo_156117" data-name="Grupo 156117" transform="translate(16 24.001)">
        <path id="Trazado_598038" data-name="Trazado 598038" d="M123.947,31.827l-7.873-7.31a1.931,1.931,0,0,0-3.245,1.415v4.12H72.484a56.483,56.483,0,1,0,0,112.967H74.5A2.017,2.017,0,0,0,76.518,141v-4.035A2.017,2.017,0,0,0,74.5,134.95H72.484a48.414,48.414,0,1,1,0-96.829h40.345v4.121a1.931,1.931,0,0,0,3.245,1.415l7.873-7.31a3.084,3.084,0,0,0,0-4.52Z" transform="translate(-16 -24.001)" fill="#fc8116"/>
        <path id="Trazado_598039" data-name="Trazado 598039" d="M459.119,31.827l-7.873-7.31A1.931,1.931,0,0,0,448,25.932v16.31a1.931,1.931,0,0,0,3.245,1.415l7.873-7.31a3.085,3.085,0,0,0,0-4.52Z" transform="translate(-339.068 -24.001)" fill="#fc8116"/>
      </g>
    </g>
  </g>
</svg>
