<svg xmlns="http://www.w3.org/2000/svg" width="190" height="130" viewBox="0 0 190 130">
  <g id="Grupo_156355" data-name="Grupo 156355" transform="translate(-1020 -4829)">
    <g id="transaccion_1_" data-name="transaccion(1)" transform="translate(1043 4799.462)">
      <path id="Trazado_598541" data-name="Trazado 598541" d="M208.891,31.538h-51.4a8.883,8.883,0,0,0-8.851,8.856V149.681a8.881,8.881,0,0,0,8.851,8.851h51.4a8.868,8.868,0,0,0,8.839-8.851V40.395A8.87,8.87,0,0,0,208.891,31.538Z" transform="translate(-106.589 0)" fill="#242d3c"/>
      <rect id="Rectángulo_44345" data-name="Rectángulo 44345" width="59.094" height="88.597" transform="translate(47.058 50.74)" fill="#fc8116"/>
      <g id="Grupo_156347" data-name="Grupo 156347" transform="translate(68.746 38.902)">
        <path id="Trazado_598542" data-name="Trazado 598542" d="M245.406,442.331a2.39,2.39,0,0,1-2.39-2.386v-.719a2.384,2.384,0,0,1,2.39-2.382h10.948a2.378,2.378,0,0,1,2.362,2.382v.719a2.385,2.385,0,0,1-2.362,2.386Z" transform="translate(-243.016 -329.552)" fill="#3e4959"/>
        <path id="Trazado_598543" data-name="Trazado 598543" d="M267.367,59.8a2.206,2.206,0,0,1-2.205,2.224,2.23,2.23,0,1,1,2.205-2.224Z" transform="translate(-257.288 -57.568)" fill="#3e4959"/>
      </g>
      <path id="Trazado_598544" data-name="Trazado 598544" d="M269.4,63.2a.884.884,0,0,1-.873.883.891.891,0,1,1,.873-.883Z" transform="translate(-191.907 -22.059)" fill="#242d3c"/>
      <g id="Grupo_156348" data-name="Grupo 156348" transform="translate(65.525 56.711)">
        <rect id="Rectángulo_44346" data-name="Rectángulo 44346" width="79.313" height="44.027" fill="#fff"/>
        <path id="Trazado_598545" data-name="Trazado 598545" d="M466.571,286.367v-10.2h-10.2Z" transform="translate(-392.793 -232.136)" fill="#fff"/>
      </g>
      <rect id="Rectángulo_44347" data-name="Rectángulo 44347" width="68.247" height="32.956" transform="translate(71.057 62.247)" fill="#06b2b8"/>
      <path id="Trazado_598546" data-name="Trazado 598546" d="M325.023,174.875a3.762,3.762,0,0,0-3.765,3.763H267.825a3.763,3.763,0,0,0-3.766-3.763V156.729a3.764,3.764,0,0,0,3.766-3.764h53.433a3.762,3.762,0,0,0,3.765,3.764v18.147Z" transform="translate(-189.36 -87.077)" fill="#21d8de"/>
      <g id="Grupo_156349" data-name="Grupo 156349" transform="translate(83.137 68.637)">
        <path id="Trazado_598547" data-name="Trazado 598547" d="M346.247,182.859a10.088,10.088,0,1,1,10.084-10.088A10.1,10.1,0,0,1,346.247,182.859Zm0-17.872a7.784,7.784,0,1,0,7.783,7.784A7.793,7.793,0,0,0,346.247,164.988Z" transform="translate(-324.203 -162.684)" fill="#06b2b8"/>
        <path id="Trazado_598548" data-name="Trazado 598548" d="M361.112,184.222h-2.089a3.591,3.591,0,0,1,0-7.181h2.092v2.3h-2.092a1.287,1.287,0,1,0,0,2.573h2.089v2.3Z" transform="translate(-338.026 -172.98)" fill="#06b2b8"/>
        <path id="Trazado_598549" data-name="Trazado 598549" d="M379.1,180.629h-2.3a1.284,1.284,0,0,0-1.285-1.285v-2.3a3.59,3.59,0,0,1,3.59,3.59Z" transform="translate(-352.419 -172.978)" fill="#06b2b8"/>
        <path id="Trazado_598550" data-name="Trazado 598550" d="M359.026,210.545a3.578,3.578,0,0,1-3.588-3.588h2.3a1.281,1.281,0,0,0,1.287,1.285Z" transform="translate(-338.026 -194.433)" fill="#06b2b8"/>
        <path id="Trazado_598551" data-name="Trazado 598551" d="M370.207,201.455h-2.086v-2.3h2.086a1.288,1.288,0,0,0,1.289-1.284,1.285,1.285,0,0,0-1.289-1.283v-2.3a3.587,3.587,0,1,1,0,7.175Z" transform="translate(-347.122 -185.342)" fill="#06b2b8"/>
        <rect id="Rectángulo_44348" data-name="Rectángulo 44348" width="2.304" height="13.925" transform="translate(20.885 3.125)" fill="#06b2b8"/>
        <rect id="Rectángulo_44349" data-name="Rectángulo 44349" width="8.77" height="2.304" transform="translate(35.311 8.937)" fill="#06b2b8"/>
        <rect id="Rectángulo_44350" data-name="Rectángulo 44350" width="8.777" height="2.304" transform="translate(0 8.937)" fill="#06b2b8"/>
      </g>
      <path id="Trazado_598552" data-name="Trazado 598552" d="M93.08,318.363a3.369,3.369,0,0,1,3.37,3.372l0,39.115a3.363,3.363,0,0,1-3.369,3.367H31.031a3.349,3.349,0,0,1-2.382-.98,3.392,3.392,0,0,1-.984-2.386l0-39.115a3.362,3.362,0,0,1,3.365-3.372Z" transform="translate(-19.838 -205.686)" fill="#fcd03e"/>
      <g id="Grupo_156350" data-name="Grupo 156350" transform="translate(16.39 149.632)">
        <rect id="Rectángulo_44351" data-name="Rectángulo 44351" width="10.755" height="2.328" fill="#242d3c"/>
        <rect id="Rectángulo_44352" data-name="Rectángulo 44352" width="10.756" height="2.32" transform="translate(13.63)" fill="#242d3c"/>
        <path id="Trazado_598553" data-name="Trazado 598553" d="M165.091,451.328l-10.756-.007V449h10.756Z" transform="translate(-127.066 -449)" fill="#242d3c"/>
        <path id="Trazado_598554" data-name="Trazado 598554" d="M213.271,451.328H202.522L202.516,449h10.755Z" transform="translate(-161.617 -449)" fill="#242d3c"/>
      </g>
      <g id="Grupo_156351" data-name="Grupo 156351" transform="translate(16.39 135.807)">
        <rect id="Rectángulo_44353" data-name="Rectángulo 44353" width="10.755" height="7.285" fill="#fff"/>
        <rect id="Rectángulo_44354" data-name="Rectángulo 44354" width="10.756" height="7.285" transform="translate(13.63)" fill="#fff"/>
      </g>
      <rect id="Rectángulo_44355" data-name="Rectángulo 44355" width="68.783" height="9.711" transform="translate(7.827 119.397)" fill="#242d3c"/>
      <g id="Grupo_156352" data-name="Grupo 156352" transform="translate(56.226 123.076)">
        <rect id="Rectángulo_44356" data-name="Rectángulo 44356" width="2.363" height="2.363" transform="translate(9.458)" fill="#fff"/>
        <rect id="Rectángulo_44357" data-name="Rectángulo 44357" width="2.364" height="2.363" transform="translate(4.729)" fill="#fff"/>
        <rect id="Rectángulo_44358" data-name="Rectángulo 44358" width="2.363" height="2.363" fill="#fff"/>
      </g>
      <g id="Grupo_156353" data-name="Grupo 156353" transform="translate(0 68.653)">
        <rect id="Rectángulo_44359" data-name="Rectángulo 44359" width="32.442" height="20.487" fill="#529d2e"/>
        <path id="Trazado_598555" data-name="Trazado 598555" d="M9.047,240.446l5.268-5.268H9.047Z" transform="translate(-6.488 -214.686)" fill="#529d2e"/>
      </g>
      <g id="Grupo_156354" data-name="Grupo 156354" transform="translate(7.322 77.119)">
        <rect id="Rectángulo_44360" data-name="Rectángulo 44360" width="3.56" height="3.559" transform="translate(14.241)" fill="#fff"/>
        <rect id="Rectángulo_44361" data-name="Rectángulo 44361" width="3.56" height="3.559" transform="translate(7.119)" fill="#fff"/>
        <rect id="Rectángulo_44362" data-name="Rectángulo 44362" width="3.56" height="3.559" fill="#fff"/>
      </g>
    </g>
    <rect id="Rectángulo_44363" data-name="Rectángulo 44363" width="190" height="130" transform="translate(1020 4829)" fill="none"/>
  </g>
</svg>
