<svg xmlns="http://www.w3.org/2000/svg" xmlns:xlink="http://www.w3.org/1999/xlink" width="258.249" height="212.631" viewBox="0 0 258.249 212.631">
  <defs>
    <clipPath id="clip-path">
      <rect id="Rectángulo_43095" data-name="Rectángulo 43095" width="164.21" height="175.849" fill="none"/>
    </clipPath>
    <clipPath id="clip-path-3">
      <rect id="Rectángulo_43078" data-name="Rectángulo 43078" width="89.541" height="68.006" fill="none"/>
    </clipPath>
    <clipPath id="clip-path-4">
      <rect id="Rectángulo_43072" data-name="Rectángulo 43072" width="30.657" height="11.119" fill="none"/>
    </clipPath>
    <clipPath id="clip-path-5">
      <rect id="Rectángulo_43073" data-name="Rectángulo 43073" width="4.527" height="4.527" fill="none"/>
    </clipPath>
    <clipPath id="clip-path-10">
      <rect id="Rectángulo_43079" data-name="Rectángulo 43079" width="53.365" height="67.764" fill="none"/>
    </clipPath>
    <clipPath id="clip-path-17">
      <rect id="Rectángulo_43086" data-name="Rectángulo 43086" width="8.015" height="3.026" fill="none"/>
    </clipPath>
    <clipPath id="clip-path-19">
      <rect id="Rectángulo_43088" data-name="Rectángulo 43088" width="20.911" height="5.559" fill="none"/>
    </clipPath>
    <clipPath id="clip-path-20">
      <rect id="Rectángulo_43090" data-name="Rectángulo 43090" width="96.059" height="150.404" fill="none"/>
    </clipPath>
    <clipPath id="clip-path-21">
      <rect id="Rectángulo_43093" data-name="Rectángulo 43093" width="114.988" height="173.756" fill="none"/>
    </clipPath>
    <clipPath id="clip-path-22">
      <rect id="Rectángulo_42895" data-name="Rectángulo 42895" width="89.432" height="89.76" fill="none"/>
    </clipPath>
  </defs>
  <g id="Grupo_156010" data-name="Grupo 156010" transform="translate(-251 -2854.175)">
    <g id="Grupo_151793" data-name="Grupo 151793" transform="translate(-173.729 2346.788)">
      <g id="Grupo_97472" data-name="Grupo 97472" transform="translate(409.49 507.387)">
        <circle id="Elipse_5221" data-name="Elipse 5221" cx="100.227" cy="100.227" r="100.227" transform="translate(15.24 0)" fill="#fde07e"/>
        <ellipse id="Elipse_5222" data-name="Elipse 5222" cx="107.084" cy="8.314" rx="107.084" ry="8.314" transform="translate(59.322 196.004)" fill="#fcd03e"/>
        <line id="Línea_250" data-name="Línea 250" y2="16.632" transform="translate(108.184 122.586)" fill="#003889"/>
        <circle id="Elipse_5225" data-name="Elipse 5225" cx="8.015" cy="8.015" r="8.015" transform="translate(177.754 32.219) rotate(-45)" fill="#fcd03e"/>
      </g>
    </g>
    <g id="Grupo_152137" data-name="Grupo 152137" transform="translate(-289.001 -101.979)">
      <g id="Grupo_152136" data-name="Grupo 152136" transform="translate(548 2985)">
        <g id="Grupo_152135" data-name="Grupo 152135" clip-path="url(#clip-path)">
          <g id="Grupo_152134" data-name="Grupo 152134">
            <g id="Grupo_152133" data-name="Grupo 152133" clip-path="url(#clip-path)">
              <g id="Grupo_152096" data-name="Grupo 152096" transform="translate(4.585 80.302)" opacity="0.3">
                <g id="Grupo_152095" data-name="Grupo 152095">
                  <g id="Grupo_152094" data-name="Grupo 152094" clip-path="url(#clip-path-3)">
                    <path id="Trazado_212999" data-name="Trazado 212999" d="M95.515,199.192,18.464,210.284a2.509,2.509,0,0,1-2.842-2.126l-7.47-51.894a2.51,2.51,0,0,1,2.126-2.842L87.329,142.33a2.51,2.51,0,0,1,2.842,2.126l7.47,51.894a2.509,2.509,0,0,1-2.126,2.842" transform="translate(-8.126 -142.304)" fill="#151515"/>
                    <g id="Grupo_152078" data-name="Grupo 152078" transform="translate(7.981 14.366)" opacity="0.61">
                      <g id="Grupo_152077" data-name="Grupo 152077">
                        <g id="Grupo_152076" data-name="Grupo 152076" clip-path="url(#clip-path-4)">
                          <path id="Trazado_213000" data-name="Trazado 213000" d="M52.413,174.755l-28.627,4.121a.6.6,0,0,1-.676-.506l-.836-5.8a.6.6,0,0,1,.506-.676l28.627-4.121a.6.6,0,0,1,.676.506l.836,5.8a.6.6,0,0,1-.506.676" transform="translate(-22.268 -167.763)" fill="#151515"/>
                        </g>
                      </g>
                    </g>
                    <g id="Grupo_152081" data-name="Grupo 152081" transform="translate(15.277 53.951)" opacity="0.61">
                      <g id="Grupo_152080" data-name="Grupo 152080">
                        <g id="Grupo_152079" data-name="Grupo 152079" clip-path="url(#clip-path-5)">
                          <path id="Trazado_213001" data-name="Trazado 213001" d="M39.7,239.852a2.263,2.263,0,1,1-2.562-1.917,2.263,2.263,0,0,1,2.562,1.917" transform="translate(-35.199 -237.911)" fill="#151515"/>
                        </g>
                      </g>
                    </g>
                    <g id="Grupo_152084" data-name="Grupo 152084" transform="translate(21.998 52.983)" opacity="0.61">
                      <g id="Grupo_152083" data-name="Grupo 152083">
                        <g id="Grupo_152082" data-name="Grupo 152082" clip-path="url(#clip-path-5)">
                          <path id="Trazado_213002" data-name="Trazado 213002" d="M51.611,238.137a2.263,2.263,0,1,1-2.562-1.917,2.263,2.263,0,0,1,2.562,1.917" transform="translate(-47.108 -236.197)" fill="#151515"/>
                        </g>
                      </g>
                    </g>
                    <g id="Grupo_152087" data-name="Grupo 152087" transform="translate(28.718 52.016)" opacity="0.61">
                      <g id="Grupo_152086" data-name="Grupo 152086">
                        <g id="Grupo_152085" data-name="Grupo 152085" clip-path="url(#clip-path-5)">
                          <path id="Trazado_213003" data-name="Trazado 213003" d="M63.52,236.423a2.263,2.263,0,1,1-2.562-1.917,2.263,2.263,0,0,1,2.562,1.917" transform="translate(-59.017 -234.483)" fill="#151515"/>
                        </g>
                      </g>
                    </g>
                    <g id="Grupo_152090" data-name="Grupo 152090" transform="translate(35.438 51.049)" opacity="0.61">
                      <g id="Grupo_152089" data-name="Grupo 152089">
                        <g id="Grupo_152088" data-name="Grupo 152088" clip-path="url(#clip-path-5)">
                          <path id="Trazado_213004" data-name="Trazado 213004" d="M75.429,234.709a2.263,2.263,0,1,1-2.562-1.917,2.263,2.263,0,0,1,2.562,1.917" transform="translate(-70.925 -232.768)" fill="#151515"/>
                        </g>
                      </g>
                    </g>
                    <g id="Grupo_152093" data-name="Grupo 152093" transform="translate(42.158 50.081)" opacity="0.61">
                      <g id="Grupo_152092" data-name="Grupo 152092">
                        <g id="Grupo_152091" data-name="Grupo 152091" clip-path="url(#clip-path-5)">
                          <path id="Trazado_213005" data-name="Trazado 213005" d="M87.337,233a2.263,2.263,0,1,1-2.562-1.917A2.263,2.263,0,0,1,87.337,233" transform="translate(-82.834 -231.054)" fill="#151515"/>
                        </g>
                      </g>
                    </g>
                    <path id="Trazado_213006" data-name="Trazado 213006" d="M100.856,199.2,23.8,210.286a2.509,2.509,0,0,1-2.842-2.125l-.582-4.04,63.9-9.2a2.508,2.508,0,0,0,2.125-2.842l-6.889-47.851,13.154-1.892a2.511,2.511,0,0,1,2.842,2.125l7.471,51.9a2.515,2.515,0,0,1-2.125,2.842" transform="translate(-13.465 -142.305)" fill="#151515"/>
                  </g>
                </g>
              </g>
              <path id="Trazado_213007" data-name="Trazado 213007" d="M87.385,194.182,23.7,203.346,10.336,205.27a2.513,2.513,0,0,1-2.844-2.127l-3.008-20.9-4.458-31a2.5,2.5,0,0,1,2.122-2.838L33.466,143.9l24.383-3.51L79.2,137.318a2.508,2.508,0,0,1,2.838,2.127l7.471,51.893a2.514,2.514,0,0,1-2.127,2.844" transform="translate(0 -59.819)" fill="#ff6784"/>
              <g id="Grupo_152099" data-name="Grupo 152099" transform="translate(4.484 77.713)" opacity="0.32" style="mix-blend-mode: screen;isolation: isolate">
                <g id="Grupo_152098" data-name="Grupo 152098">
                  <g id="Grupo_152097" data-name="Grupo 152097" clip-path="url(#clip-path-10)">
                    <path id="Trazado_213008" data-name="Trazado 213008" d="M62.765,138.485c.051-.254.1-.508.141-.767-.135,1.067-.181,1.32-.141.767" transform="translate(-31.825 -137.717)" fill="#ff6784"/>
                    <path id="Trazado_213009" data-name="Trazado 213009" d="M61.311,142.788c-.931,8.476-5.1,16.269-10.552,22.86a65.266,65.266,0,0,1-8.944,8.622c-1.563,1.287-3.149,2.562-4.644,3.933-.869.8-1.71,1.625-2.505,2.5-.209.22-.406.446-.6.677-1.021,1.653-2.015,3.256-2.917,4.983-.079.147-.147.271-.2.378l-.006.006c-.023.079-.056.169-.09.271-.3.863-.615,1.721-.892,2.6a61.035,61.035,0,0,0-1.574,6.252c-.175.9-.322,1.811-.485,2.72-.028.147-.051.271-.068.378s-.028.248-.045.4c-.237,2.122-.435,4.255-.621,6.382L13.8,207.665a2.513,2.513,0,0,1-2.844-2.127l-3.008-20.9a51.359,51.359,0,0,1,5.2-12.465c4.734-7.985,12.1-12.618,18.486-19.017q1-1,1.941-2.048c.271-.3,1.315-1.608,1.208-1.422a34.28,34.28,0,0,0,2.144-3.391Z" transform="translate(-7.946 -139.926)" fill="#ff6784"/>
                  </g>
                </g>
              </g>
              <path id="Trazado_213010" data-name="Trazado 213010" d="M30.6,172.863l-16.188,2.331a.6.6,0,0,1-.677-.506l-.835-5.8a.6.6,0,0,1,.506-.677l16.188-2.33a.6.6,0,0,1,.676.506l.836,5.8a.6.6,0,0,1-.506.676" transform="translate(-5.616 -72.271)" fill="#ffb42b"/>
              <g id="Grupo_152102" data-name="Grupo 152102" transform="translate(11.498 117.145)" opacity="0.61">
                <g id="Grupo_152101" data-name="Grupo 152101">
                  <g id="Grupo_152100" data-name="Grupo 152100" clip-path="url(#clip-path-5)">
                    <path id="Trazado_213011" data-name="Trazado 213011" d="M24.88,209.536a2.263,2.263,0,1,1-2.562-1.917,2.263,2.263,0,0,1,2.562,1.917" transform="translate(-20.376 -207.595)" fill="#c93f60"/>
                  </g>
                </g>
              </g>
              <g id="Grupo_152105" data-name="Grupo 152105" transform="translate(18.218 116.178)" opacity="0.61">
                <g id="Grupo_152104" data-name="Grupo 152104">
                  <g id="Grupo_152103" data-name="Grupo 152103" clip-path="url(#clip-path-5)">
                    <path id="Trazado_213012" data-name="Trazado 213012" d="M36.788,207.821a2.263,2.263,0,1,1-2.562-1.917,2.263,2.263,0,0,1,2.562,1.917" transform="translate(-32.285 -205.881)" fill="#c93f60"/>
                  </g>
                </g>
              </g>
              <g id="Grupo_152108" data-name="Grupo 152108" transform="translate(24.515 115.192)" opacity="0.61">
                <g id="Grupo_152107" data-name="Grupo 152107">
                  <g id="Grupo_152106" data-name="Grupo 152106" clip-path="url(#clip-path-5)">
                    <path id="Trazado_213013" data-name="Trazado 213013" d="M47.948,206.076a2.263,2.263,0,1,1-2.562-1.917,2.263,2.263,0,0,1,2.562,1.917" transform="translate(-43.444 -204.135)" fill="#c93f60"/>
                  </g>
                </g>
              </g>
              <g id="Grupo_152111" data-name="Grupo 152111" transform="translate(31.235 114.225)" opacity="0.61">
                <g id="Grupo_152110" data-name="Grupo 152110">
                  <g id="Grupo_152109" data-name="Grupo 152109" clip-path="url(#clip-path-5)">
                    <path id="Trazado_213014" data-name="Trazado 213014" d="M59.856,204.361a2.263,2.263,0,1,1-2.562-1.917,2.263,2.263,0,0,1,2.562,1.917" transform="translate(-55.353 -202.421)" fill="#c93f60"/>
                  </g>
                </g>
              </g>
              <g id="Grupo_152114" data-name="Grupo 152114" transform="translate(37.955 113.258)" opacity="0.61">
                <g id="Grupo_152113" data-name="Grupo 152113">
                  <g id="Grupo_152112" data-name="Grupo 152112" clip-path="url(#clip-path-5)">
                    <path id="Trazado_213015" data-name="Trazado 213015" d="M71.765,202.647A2.263,2.263,0,1,1,69.2,200.73a2.263,2.263,0,0,1,2.562,1.917" transform="translate(-67.262 -200.706)" fill="#c93f60"/>
                  </g>
                </g>
              </g>
              <g id="Grupo_152117" data-name="Grupo 152117" transform="translate(44.919 112.207)" opacity="0.61">
                <g id="Grupo_152116" data-name="Grupo 152116">
                  <g id="Grupo_152115" data-name="Grupo 152115" clip-path="url(#clip-path-5)">
                    <path id="Trazado_213016" data-name="Trazado 213016" d="M84.106,200.785a2.263,2.263,0,1,1-2.562-1.917,2.263,2.263,0,0,1,2.562,1.917" transform="translate(-79.603 -198.844)" fill="#c93f60"/>
                  </g>
                </g>
              </g>
              <path id="Trazado_213017" data-name="Trazado 213017" d="M92.726,194.183l-77.052,11.09a2.509,2.509,0,0,1-2.842-2.125l-.582-4.04,63.9-9.2a2.509,2.509,0,0,0,2.125-2.842l-6.889-47.851,13.154-1.892a2.511,2.511,0,0,1,2.842,2.125l7.471,51.9a2.515,2.515,0,0,1-2.125,2.842" transform="translate(-5.337 -59.82)" fill="#f4567b"/>
              <g id="Grupo_152120" data-name="Grupo 152120" transform="translate(15.106 139.499)" opacity="0.61">
                <g id="Grupo_152119" data-name="Grupo 152119">
                  <g id="Grupo_152118" data-name="Grupo 152118" clip-path="url(#clip-path-17)">
                    <path id="Trazado_213018" data-name="Trazado 213018" d="M34.273,249.266l-6.7.964a.6.6,0,0,1-.677-.506l-.125-.867a.6.6,0,0,1,.506-.677l6.7-.964a.6.6,0,0,1,.676.506l.125.868a.6.6,0,0,1-.506.676" transform="translate(-26.77 -247.21)" fill="#c93f60"/>
                  </g>
                </g>
              </g>
              <g id="Grupo_152123" data-name="Grupo 152123" transform="translate(23.961 138.224)" opacity="0.61">
                <g id="Grupo_152122" data-name="Grupo 152122">
                  <g id="Grupo_152121" data-name="Grupo 152121" clip-path="url(#clip-path-17)">
                    <path id="Trazado_213019" data-name="Trazado 213019" d="M49.965,247.006l-6.7.964a.6.6,0,0,1-.677-.506l-.125-.868a.6.6,0,0,1,.506-.676l6.7-.964a.6.6,0,0,1,.676.506l.125.868a.6.6,0,0,1-.506.676" transform="translate(-42.462 -244.95)" fill="#c93f60"/>
                  </g>
                </g>
              </g>
              <g id="Grupo_152126" data-name="Grupo 152126" transform="translate(3.442 88.524)" opacity="0.4" style="mix-blend-mode: screen;isolation: isolate">
                <g id="Grupo_152125" data-name="Grupo 152125">
                  <g id="Grupo_152124" data-name="Grupo 152124" clip-path="url(#clip-path-19)">
                    <path id="Trazado_213020" data-name="Trazado 213020" d="M25.655,159.995,7.877,162.42a1.566,1.566,0,1,1-.423-3.1l17.778-2.426a1.567,1.567,0,0,1,.424,3.1" transform="translate(-6.099 -156.876)" fill="#ff8aa6"/>
                  </g>
                </g>
              </g>
              <g id="Grupo_152129" data-name="Grupo 152129" transform="translate(65.757 13.544)" opacity="0.26">
                <g id="Grupo_152128" data-name="Grupo 152128">
                  <g id="Grupo_152127" data-name="Grupo 152127" clip-path="url(#clip-path-20)">
                    <path id="Trazado_213021" data-name="Trazado 213021" d="M210.674,25.829a1.073,1.073,0,0,1,1.915.54V174.4h-.018l-4.464-5.8a1.12,1.12,0,0,0-1.727,0l-3.616,4.686a1.119,1.119,0,0,1-1.727,0l-3.609-4.684a1.119,1.119,0,0,0-1.727,0l-3.6,4.683a1.119,1.119,0,0,1-1.727,0l-3.618-4.689a1.12,1.12,0,0,0-1.726,0l-3.625,4.69a1.119,1.119,0,0,1-1.727,0l-3.6-4.682a1.119,1.119,0,0,0-1.728,0l-3.6,4.682a1.119,1.119,0,0,1-1.727,0l-3.625-4.69a1.12,1.12,0,0,0-1.726,0l-3.618,4.689a1.119,1.119,0,0,1-1.727,0l-3.6-4.684a1.119,1.119,0,0,0-1.727,0l-3.617,4.686a1.119,1.119,0,0,1-1.726,0l-3.61-4.686a1.119,1.119,0,0,0-1.727,0l-3.617,4.687a1.119,1.119,0,0,1-1.727,0l-3.61-4.686a1.119,1.119,0,0,0-1.727,0l-3.617,4.687a1.119,1.119,0,0,1-1.726,0l-3.609-4.685a1.12,1.12,0,0,0-1.727,0l-2.514,3.264a1.073,1.073,0,0,1-1.915-.541V24.5a.43.43,0,0,1,.766-.217l3.714,4.811a1.119,1.119,0,0,0,1.728,0l3.6-4.683a1.119,1.119,0,0,1,1.726,0l3.624,4.689a1.119,1.119,0,0,0,1.727,0l3.6-4.684a1.119,1.119,0,0,1,1.727,0l3.617,4.686a1.119,1.119,0,0,0,1.726,0l3.61-4.686a1.119,1.119,0,0,1,1.726,0l3.618,4.689a1.12,1.12,0,0,0,1.726,0l3.618-4.689a1.12,1.12,0,0,1,1.727,0l3.61,4.686a1.12,1.12,0,0,0,1.727,0l3.616-4.686a1.119,1.119,0,0,1,1.727,0l3.6,4.683a1.119,1.119,0,0,0,1.727,0l3.616-4.686a1.12,1.12,0,0,1,1.727,0l3.61,4.686a1.12,1.12,0,0,0,1.727,0l3.617-4.688a1.119,1.119,0,0,1,1.726,0l3.61,4.686a1.119,1.119,0,0,0,1.726,0l3.617-4.688a1.12,1.12,0,0,1,1.727,0l3.609,4.685a1.119,1.119,0,0,0,1.727,0Z" transform="translate(-116.53 -24.001)" fill="#151515"/>
                    <rect id="Rectángulo_43089" data-name="Rectángulo 43089" width="36.677" height="4.198" transform="translate(14.121 17.785)" fill="#151515"/>
                    <line id="Línea_251" data-name="Línea 251" x2="51.377" transform="translate(14.266 34.052)" fill="#151515"/>
                    <line id="Línea_252" data-name="Línea 252" x2="70.407" transform="translate(14.121 27.887)" fill="#151515"/>
                    <line id="Línea_253" data-name="Línea 253" x2="70.407" transform="translate(14.121 98.722)" fill="#151515"/>
                    <line id="Línea_254" data-name="Línea 254" x2="51.377" transform="translate(14.266 42.185)" fill="#151515"/>
                    <line id="Línea_255" data-name="Línea 255" x2="24.306" transform="translate(14.266 50.318)" fill="#151515"/>
                    <line id="Línea_256" data-name="Línea 256" x2="41.771" transform="translate(14.266 58.451)" fill="#151515"/>
                    <line id="Línea_257" data-name="Línea 257" x2="42.208" transform="translate(14.266 66.584)" fill="#151515"/>
                    <line id="Línea_258" data-name="Línea 258" x2="35.658" transform="translate(14.266 74.717)" fill="#151515"/>
                    <line id="Línea_259" data-name="Línea 259" x2="22.996" transform="translate(14.266 82.85)" fill="#151515"/>
                    <line id="Línea_260" data-name="Línea 260" x2="35.222" transform="translate(14.266 90.983)" fill="#151515"/>
                    <line id="Línea_261" data-name="Línea 261" x2="51.256" transform="translate(14.266 128.364)" fill="#151515"/>
                    <line id="Línea_262" data-name="Línea 262" x2="26.144" transform="translate(14.266 133.705)" fill="#151515"/>
                    <line id="Línea_263" data-name="Línea 263" x2="11.134" transform="translate(73.721 34.052)" fill="#151515"/>
                    <line id="Línea_264" data-name="Línea 264" x2="11.134" transform="translate(73.721 42.185)" fill="#151515"/>
                    <line id="Línea_265" data-name="Línea 265" x2="10.043" transform="translate(74.813 50.318)" fill="#151515"/>
                    <line id="Línea_266" data-name="Línea 266" x2="10.043" transform="translate(74.813 58.762)" fill="#151515"/>
                    <line id="Línea_267" data-name="Línea 267" x2="9.147" transform="translate(75.708 66.584)" fill="#151515"/>
                    <line id="Línea_268" data-name="Línea 268" x2="7.727" transform="translate(77.128 74.717)" fill="#151515"/>
                    <line id="Línea_269" data-name="Línea 269" x2="4.984" transform="translate(79.872 82.85)" fill="#151515"/>
                    <line id="Línea_270" data-name="Línea 270" x2="7.633" transform="translate(77.222 90.983)" fill="#151515"/>
                    <path id="Trazado_213022" data-name="Trazado 213022" d="M240.6,224H214.769a2.272,2.272,0,0,1-2.272-2.272v-1.794a2.272,2.272,0,0,1,2.272-2.272H240.6a2.272,2.272,0,0,1,2.272,2.272v1.794A2.272,2.272,0,0,1,240.6,224" transform="translate(-158.343 -108.38)" fill="#151515"/>
                  </g>
                </g>
              </g>
              <path id="Trazado_213023" data-name="Trazado 213023" d="M205.008,24.06c.587-.719,1.915-.366,1.915.51v139.7H206.9l-4.464-5.478a1.162,1.162,0,0,0-1.727,0l-3.616,4.422a1.162,1.162,0,0,1-1.727,0l-3.609-4.421a1.162,1.162,0,0,0-1.727,0l-3.6,4.419a1.162,1.162,0,0,1-1.727,0l-3.618-4.425a1.162,1.162,0,0,0-1.726,0l-3.625,4.426a1.162,1.162,0,0,1-1.727,0l-3.6-4.418a1.162,1.162,0,0,0-1.728,0l-3.6,4.418a1.162,1.162,0,0,1-1.727,0l-3.625-4.426a1.162,1.162,0,0,0-1.726,0l-3.618,4.425a1.162,1.162,0,0,1-1.727,0l-3.6-4.42a1.162,1.162,0,0,0-1.727,0l-3.617,4.422a1.162,1.162,0,0,1-1.726,0l-3.61-4.422a1.163,1.163,0,0,0-1.727,0l-3.617,4.424a1.162,1.162,0,0,1-1.727,0l-3.61-4.422a1.163,1.163,0,0,0-1.727,0l-3.617,4.424a1.162,1.162,0,0,1-1.726,0l-3.609-4.421a1.163,1.163,0,0,0-1.727,0l-2.514,3.08c-.587.72-1.915.366-1.915-.51V22.8c0-.35.531-.492.766-.2l3.714,4.54a1.162,1.162,0,0,0,1.728,0l3.6-4.419a1.162,1.162,0,0,1,1.726,0l3.624,4.425a1.162,1.162,0,0,0,1.727,0l3.6-4.42a1.162,1.162,0,0,1,1.727,0l3.617,4.422a1.162,1.162,0,0,0,1.726,0l3.61-4.422a1.163,1.163,0,0,1,1.727,0l3.617,4.425a1.163,1.163,0,0,0,1.726,0l3.618-4.425a1.163,1.163,0,0,1,1.727,0l3.61,4.422a1.162,1.162,0,0,0,1.727,0l3.616-4.422a1.162,1.162,0,0,1,1.727,0l3.6,4.42a1.162,1.162,0,0,0,1.727,0l3.616-4.423a1.163,1.163,0,0,1,1.727,0l3.61,4.422a1.162,1.162,0,0,0,1.727,0l3.617-4.424a1.162,1.162,0,0,1,1.726,0l3.61,4.422a1.162,1.162,0,0,0,1.726,0l3.617-4.424a1.163,1.163,0,0,1,1.727,0l3.609,4.422a1.162,1.162,0,0,0,1.727,0Z" transform="translate(-48.304 -9.731)" fill="#ededed"/>
              <rect id="Rectángulo_43091" data-name="Rectángulo 43091" width="36.678" height="3.961" transform="translate(76.68 29.388)" fill="#bbebff"/>
              <line id="Línea_271" data-name="Línea 271" x2="51.377" transform="translate(76.826 44.739)" fill="none" stroke="#bbebff" stroke-linecap="round" stroke-linejoin="round" stroke-width="1"/>
              <line id="Línea_272" data-name="Línea 272" x2="70.407" transform="translate(76.68 38.92)" fill="none" stroke="#bbebff" stroke-linecap="round" stroke-linejoin="round" stroke-width="1.5"/>
              <line id="Línea_273" data-name="Línea 273" x2="70.407" transform="translate(76.68 105.77)" fill="none" stroke="#bbebff" stroke-linecap="round" stroke-linejoin="round" stroke-width="1.5"/>
              <line id="Línea_274" data-name="Línea 274" x2="51.377" transform="translate(76.826 52.414)" fill="none" stroke="#bbebff" stroke-linecap="round" stroke-linejoin="round" stroke-width="1"/>
              <line id="Línea_275" data-name="Línea 275" x2="24.306" transform="translate(76.826 60.089)" fill="none" stroke="#bbebff" stroke-linecap="round" stroke-linejoin="round" stroke-width="1"/>
              <line id="Línea_276" data-name="Línea 276" x2="41.771" transform="translate(76.826 67.765)" fill="none" stroke="#bbebff" stroke-linecap="round" stroke-linejoin="round" stroke-width="1"/>
              <line id="Línea_277" data-name="Línea 277" x2="42.208" transform="translate(76.826 75.44)" fill="none" stroke="#bbebff" stroke-linecap="round" stroke-linejoin="round" stroke-width="1"/>
              <line id="Línea_278" data-name="Línea 278" x2="35.658" transform="translate(76.826 83.115)" fill="none" stroke="#bbebff" stroke-linecap="round" stroke-linejoin="round" stroke-width="1"/>
              <line id="Línea_279" data-name="Línea 279" x2="22.996" transform="translate(76.826 90.79)" fill="none" stroke="#bbebff" stroke-linecap="round" stroke-linejoin="round" stroke-width="1"/>
              <line id="Línea_280" data-name="Línea 280" x2="35.222" transform="translate(76.826 98.466)" fill="none" stroke="#bbebff" stroke-linecap="round" stroke-linejoin="round" stroke-width="1"/>
              <line id="Línea_281" data-name="Línea 281" x2="51.256" transform="translate(76.826 133.743)" fill="none" stroke="#bbebff" stroke-linecap="round" stroke-linejoin="round" stroke-width="1"/>
              <line id="Línea_282" data-name="Línea 282" x2="26.144" transform="translate(76.826 138.783)" fill="none" stroke="#bbebff" stroke-linecap="round" stroke-linejoin="round" stroke-width="1"/>
              <line id="Línea_283" data-name="Línea 283" x2="11.134" transform="translate(136.281 44.739)" fill="none" stroke="#bbebff" stroke-linecap="round" stroke-linejoin="round" stroke-width="1"/>
              <line id="Línea_284" data-name="Línea 284" x2="11.134" transform="translate(136.281 52.414)" fill="none" stroke="#bbebff" stroke-linecap="round" stroke-linejoin="round" stroke-width="1"/>
              <line id="Línea_285" data-name="Línea 285" x2="10.043" transform="translate(137.372 60.089)" fill="none" stroke="#bbebff" stroke-linecap="round" stroke-linejoin="round" stroke-width="1"/>
              <line id="Línea_286" data-name="Línea 286" x2="10.043" transform="translate(137.372 68.059)" fill="none" stroke="#bbebff" stroke-linecap="round" stroke-linejoin="round" stroke-width="1"/>
              <line id="Línea_287" data-name="Línea 287" x2="9.147" transform="translate(138.268 75.44)" fill="none" stroke="#bbebff" stroke-linecap="round" stroke-linejoin="round" stroke-width="1"/>
              <line id="Línea_288" data-name="Línea 288" x2="7.727" transform="translate(139.687 83.115)" fill="none" stroke="#bbebff" stroke-linecap="round" stroke-linejoin="round" stroke-width="1"/>
              <line id="Línea_289" data-name="Línea 289" x2="4.983" transform="translate(142.431 90.79)" fill="none" stroke="#bbebff" stroke-linecap="round" stroke-linejoin="round" stroke-width="1"/>
              <line id="Línea_290" data-name="Línea 290" x2="7.633" transform="translate(139.782 98.466)" fill="none" stroke="#bbebff" stroke-linecap="round" stroke-linejoin="round" stroke-width="1"/>
              <path id="Trazado_213024" data-name="Trazado 213024" d="M234.932,211.079H209.1a2.272,2.272,0,0,1-2.272-2.272v-1.437A2.272,2.272,0,0,1,209.1,205.1h25.829a2.272,2.272,0,0,1,2.272,2.272v1.437a2.272,2.272,0,0,1-2.272,2.272" transform="translate(-90.117 -89.362)" fill="#bbebff"/>
              <g id="Grupo_152132" data-name="Grupo 152132" transform="translate(49.222 2.094)" opacity="0.129">
                <g id="Grupo_152131" data-name="Grupo 152131">
                  <g id="Grupo_152130" data-name="Grupo 152130" clip-path="url(#clip-path-21)">
                    <path id="Trazado_213025" data-name="Trazado 213025" d="M180.894,4.706a1.051,1.051,0,0,1,1.972.37l19.349,163.1-.017,0-5.192-5.87a1.051,1.051,0,0,0-1.715.2l-2.979,5.59a1.051,1.051,0,0,1-1.714.2l-4.2-4.736a1.051,1.051,0,0,0-1.715.2l-2.964,5.583a1.051,1.051,0,0,1-1.715.2l-4.205-4.74a1.052,1.052,0,0,0-1.714.2l-2.987,5.6a1.051,1.051,0,0,1-1.715.2l-4.188-4.734a1.051,1.051,0,0,0-1.716.2l-2.964,5.583a1.051,1.051,0,0,1-1.714.205l-4.213-4.741a1.051,1.051,0,0,0-1.713.2l-2.98,5.593a1.051,1.051,0,0,1-1.715.2l-4.189-4.736a1.051,1.051,0,0,0-1.715.2l-2.979,5.589a1.051,1.051,0,0,1-1.714.2l-4.2-4.738a1.051,1.051,0,0,0-1.714.2l-2.979,5.59a1.052,1.052,0,0,1-1.715.2l-4.2-4.738a1.052,1.052,0,0,0-1.715.2l-2.979,5.59a1.051,1.051,0,0,1-1.714.2l-4.2-4.737a1.051,1.051,0,0,0-1.715.2l-2.07,3.893a1.051,1.051,0,0,1-1.972-.37L87.23,14.328A.421.421,0,0,1,87.963,14l4.317,4.863a1.051,1.051,0,0,0,1.716-.2l2.964-5.583a1.051,1.051,0,0,1,1.714-.205l4.211,4.739a1.051,1.051,0,0,0,1.714-.2l2.965-5.585a1.051,1.051,0,0,1,1.715-.2l4.2,4.737a1.051,1.051,0,0,0,1.714-.2l2.973-5.589a1.051,1.051,0,0,1,1.714-.2l4.205,4.74a1.051,1.051,0,0,0,1.714-.2L128.784,9.3a1.051,1.051,0,0,1,1.714-.2l4.2,4.738a1.051,1.051,0,0,0,1.714-.2l2.979-5.59a1.051,1.051,0,0,1,1.715-.2l4.189,4.736a1.052,1.052,0,0,0,1.715-.2l2.978-5.59a1.051,1.051,0,0,1,1.714-.2l4.2,4.738a1.051,1.051,0,0,0,1.714-.2l2.979-5.59a1.052,1.052,0,0,1,1.715-.2l4.2,4.738a1.052,1.052,0,0,0,1.715-.2L171.2,4.267a1.051,1.051,0,0,1,1.714-.2l4.2,4.737a1.051,1.051,0,0,0,1.715-.2Z" transform="translate(-87.227 -3.71)" fill="#151515"/>
                    <rect id="Rectángulo_43092" data-name="Rectángulo 43092" width="36.677" height="4.657" transform="matrix(0.993, -0.118, 0.118, 0.993, 16.286, 28.004)" fill="#151515"/>
                    <line id="Línea_291" data-name="Línea 291" y1="6.053" x2="51.02" transform="translate(18.556 39.856)" fill="#151515"/>
                    <line id="Línea_292" data-name="Línea 292" y1="6.053" x2="51.02" transform="translate(18.556 39.856)" fill="none" stroke="#bbebff" stroke-linecap="round" stroke-linejoin="round" stroke-width="1"/>
                    <line id="Línea_293" data-name="Línea 293" y1="8.294" x2="69.917" transform="translate(17.606 30.839)" fill="#151515"/>
                    <line id="Línea_294" data-name="Línea 294" y1="8.294" x2="69.917" transform="translate(17.606 30.839)" fill="none" stroke="#bbebff" stroke-linecap="round" stroke-linejoin="round" stroke-width="1.5"/>
                    <line id="Línea_295" data-name="Línea 295" y1="8.294" x2="69.917" transform="translate(26.864 108.886)" fill="#151515"/>
                    <line id="Línea_296" data-name="Línea 296" y1="8.294" x2="69.917" transform="translate(26.864 108.886)" fill="none" stroke="#bbebff" stroke-linecap="round" stroke-linejoin="round" stroke-width="1.5"/>
                    <line id="Línea_297" data-name="Línea 297" y1="6.053" x2="51.02" transform="translate(19.619 48.817)" fill="#151515"/>
                    <line id="Línea_298" data-name="Línea 298" y1="6.053" x2="51.02" transform="translate(19.619 48.817)" fill="none" stroke="#bbebff" stroke-linecap="round" stroke-linejoin="round" stroke-width="1"/>
                    <line id="Línea_299" data-name="Línea 299" y1="2.863" x2="24.137" transform="translate(20.682 60.968)" fill="#151515"/>
                    <line id="Línea_300" data-name="Línea 300" y1="2.863" x2="24.137" transform="translate(20.682 60.968)" fill="none" stroke="#bbebff" stroke-linecap="round" stroke-linejoin="round" stroke-width="1"/>
                    <line id="Línea_301" data-name="Línea 301" y1="4.921" x2="41.48" transform="translate(21.745 67.871)" fill="#151515"/>
                    <line id="Línea_302" data-name="Línea 302" y1="4.921" x2="41.48" transform="translate(21.745 67.871)" fill="none" stroke="#bbebff" stroke-linecap="round" stroke-linejoin="round" stroke-width="1"/>
                    <line id="Línea_303" data-name="Línea 303" y1="4.973" x2="41.914" transform="translate(22.808 76.78)" fill="#151515"/>
                    <line id="Línea_304" data-name="Línea 304" y1="4.973" x2="41.914" transform="translate(22.808 76.78)" fill="none" stroke="#bbebff" stroke-linecap="round" stroke-linejoin="round" stroke-width="1"/>
                    <line id="Línea_305" data-name="Línea 305" y1="4.201" x2="35.41" transform="translate(23.871 86.513)" fill="#151515"/>
                    <line id="Línea_306" data-name="Línea 306" y1="4.201" x2="35.41" transform="translate(23.871 86.513)" fill="none" stroke="#bbebff" stroke-linecap="round" stroke-linejoin="round" stroke-width="1"/>
                    <line id="Línea_307" data-name="Línea 307" y1="2.709" x2="22.836" transform="translate(24.934 96.965)" fill="#151515"/>
                    <line id="Línea_308" data-name="Línea 308" y1="2.709" x2="22.836" transform="translate(24.934 96.965)" fill="none" stroke="#bbebff" stroke-linecap="round" stroke-linejoin="round" stroke-width="1"/>
                    <line id="Línea_309" data-name="Línea 309" y1="4.149" x2="34.977" transform="translate(25.997 104.486)" fill="#151515"/>
                    <line id="Línea_310" data-name="Línea 310" y1="4.149" x2="34.977" transform="translate(25.997 104.486)" fill="none" stroke="#bbebff" stroke-linecap="round" stroke-linejoin="round" stroke-width="1"/>
                    <line id="Línea_311" data-name="Línea 311" y1="6.038" x2="50.899" transform="translate(30.883 143.784)" fill="#151515"/>
                    <line id="Línea_312" data-name="Línea 312" y1="6.038" x2="50.899" transform="translate(30.883 143.784)" fill="none" stroke="#bbebff" stroke-linecap="round" stroke-linejoin="round" stroke-width="1"/>
                    <line id="Línea_313" data-name="Línea 313" y1="3.08" x2="25.963" transform="translate(31.581 152.626)" fill="#151515"/>
                    <line id="Línea_314" data-name="Línea 314" y1="3.08" x2="25.963" transform="translate(31.581 152.626)" fill="none" stroke="#bbebff" stroke-linecap="round" stroke-linejoin="round" stroke-width="1"/>
                    <line id="Línea_315" data-name="Línea 315" y1="1.311" x2="11.057" transform="translate(77.597 37.593)" fill="#151515"/>
                    <line id="Línea_316" data-name="Línea 316" y1="1.311" x2="11.057" transform="translate(77.597 37.593)" fill="none" stroke="#bbebff" stroke-linecap="round" stroke-linejoin="round" stroke-width="1"/>
                    <line id="Línea_317" data-name="Línea 317" y1="1.311" x2="11.057" transform="translate(78.66 46.554)" fill="#151515"/>
                    <line id="Línea_318" data-name="Línea 318" y1="1.311" x2="11.057" transform="translate(78.66 46.554)" fill="none" stroke="#bbebff" stroke-linecap="round" stroke-linejoin="round" stroke-width="1"/>
                    <line id="Línea_319" data-name="Línea 319" y1="1.183" x2="9.973" transform="translate(80.807 55.515)" fill="#151515"/>
                    <line id="Línea_320" data-name="Línea 320" y1="1.183" x2="9.973" transform="translate(80.807 55.515)" fill="none" stroke="#bbebff" stroke-linecap="round" stroke-linejoin="round" stroke-width="1"/>
                    <line id="Línea_321" data-name="Línea 321" y1="1.183" x2="9.973" transform="translate(81.911 64.819)" fill="#151515"/>
                    <line id="Línea_322" data-name="Línea 322" y1="1.183" x2="9.973" transform="translate(81.911 64.819)" fill="none" stroke="#bbebff" stroke-linecap="round" stroke-linejoin="round" stroke-width="1"/>
                    <line id="Línea_323" data-name="Línea 323" y1="1.078" x2="9.083" transform="translate(83.822 73.437)" fill="#151515"/>
                    <line id="Línea_324" data-name="Línea 324" y1="1.078" x2="9.083" transform="translate(83.822 73.437)" fill="none" stroke="#bbebff" stroke-linecap="round" stroke-linejoin="round" stroke-width="1"/>
                    <line id="Línea_325" data-name="Línea 325" y1="0.91" x2="7.674" transform="translate(86.295 82.398)" fill="#151515"/>
                    <line id="Línea_326" data-name="Línea 326" y1="0.91" x2="7.674" transform="translate(86.295 82.398)" fill="none" stroke="#bbebff" stroke-linecap="round" stroke-linejoin="round" stroke-width="1"/>
                    <line id="Línea_327" data-name="Línea 327" y1="0.587" x2="4.949" transform="translate(90.083 91.359)" fill="#151515"/>
                    <line id="Línea_328" data-name="Línea 328" y1="0.587" x2="4.949" transform="translate(90.083 91.359)" fill="none" stroke="#bbebff" stroke-linecap="round" stroke-linejoin="round" stroke-width="1"/>
                    <line id="Línea_329" data-name="Línea 329" y1="0.899" x2="7.58" transform="translate(88.515 100.319)" fill="#151515"/>
                    <line id="Línea_330" data-name="Línea 330" y1="0.899" x2="7.58" transform="translate(88.515 100.319)" fill="none" stroke="#bbebff" stroke-linecap="round" stroke-linejoin="round" stroke-width="1"/>
                    <path id="Trazado_213026" data-name="Trazado 213026" d="M236.659,224.732l-25.65,3.043a2.272,2.272,0,0,1-2.524-1.989l-.293-2.471a2.272,2.272,0,0,1,1.989-2.524l25.65-3.043a2.272,2.272,0,0,1,2.524,1.989l.293,2.471a2.272,2.272,0,0,1-1.989,2.524" transform="translate(-139.925 -96.961)" fill="#151515"/>
                  </g>
                </g>
              </g>
              <path id="Trazado_213027" data-name="Trazado 213027" d="M174.1.987a1.051,1.051,0,0,1,1.972.368l19.495,163.088-.017,0-5.2-5.865a1.051,1.051,0,0,0-1.715.2l-2.973,5.592a1.052,1.052,0,0,1-1.715.2l-4.2-4.733a1.051,1.051,0,0,0-1.715.206l-2.959,5.586a1.051,1.051,0,0,1-1.715.206l-4.209-4.736a1.051,1.051,0,0,0-1.714.2l-2.982,5.6a1.051,1.051,0,0,1-1.714.2l-4.193-4.731a1.051,1.051,0,0,0-1.715.205l-2.959,5.586a1.051,1.051,0,0,1-1.714.207l-4.218-4.737a1.051,1.051,0,0,0-1.713.205l-2.974,5.6a1.052,1.052,0,0,1-1.715.2l-4.193-4.732a1.051,1.051,0,0,0-1.715.2l-2.974,5.592a1.051,1.051,0,0,1-1.714.2l-4.2-4.734a1.051,1.051,0,0,0-1.714.2l-2.974,5.593a1.051,1.051,0,0,1-1.714.2l-4.2-4.734a1.051,1.051,0,0,0-1.714.2l-2.974,5.593a1.051,1.051,0,0,1-1.714.2l-4.2-4.733a1.051,1.051,0,0,0-1.715.2l-2.066,3.894a1.051,1.051,0,0,1-1.972-.368L80.443,10.693a.421.421,0,0,1,.732-.33L85.5,15.223a1.051,1.051,0,0,0,1.715-.2l2.959-5.586a1.051,1.051,0,0,1,1.714-.207L96.1,13.961a1.051,1.051,0,0,0,1.714-.207l2.96-5.588a1.052,1.052,0,0,1,1.715-.206l4.208,4.734a1.051,1.051,0,0,0,1.714-.205L111.38,6.9a1.051,1.051,0,0,1,1.714-.205l4.21,4.736a1.051,1.051,0,0,0,1.714-.2l2.974-5.594a1.051,1.051,0,0,1,1.714-.2l4.2,4.734a1.051,1.051,0,0,0,1.714-.2L132.6,4.361a1.051,1.051,0,0,1,1.715-.2L138.5,8.889a1.051,1.051,0,0,0,1.715-.2l2.973-5.592a1.051,1.051,0,0,1,1.714-.2l4.2,4.734a1.051,1.051,0,0,0,1.714-.2L153.8,1.825a1.051,1.051,0,0,1,1.715-.2l4.2,4.734a1.051,1.051,0,0,0,1.714-.2L164.4.557a1.051,1.051,0,0,1,1.714-.2l4.2,4.733a1.051,1.051,0,0,0,1.715-.2Z" transform="translate(-35.048 0)" fill="#fff"/>
              <path id="Trazado_213028" data-name="Trazado 213028" d="M209.245,164.44l-.017.006-5.2-5.869a1.052,1.052,0,0,0-1.715.209l-2.974,5.592a1.054,1.054,0,0,1-1.715.2l-4.2-4.734a1.052,1.052,0,0,0-1.715.209l-2.963,5.581a1.047,1.047,0,0,1-1.71.209l-4.21-4.734a1.051,1.051,0,0,0-1.715.2l-2.979,5.6a1.052,1.052,0,0,1-1.715.2l-4.193-4.729a1.049,1.049,0,0,0-1.715.2l-2.963,5.587a1.046,1.046,0,0,1-1.71.2l-4.221-4.734a1.049,1.049,0,0,0-1.71.2l-2.974,5.6a1.054,1.054,0,0,1-1.715.2l-4.193-4.734a1.054,1.054,0,0,0-1.715.2l-2.974,5.592a1.052,1.052,0,0,1-1.715.209l-4.2-4.734a1.046,1.046,0,0,0-1.71.2l-2.979,5.592a1.046,1.046,0,0,1-1.71.2l-4.2-4.734a1.054,1.054,0,0,0-1.715.2l-2.974,5.6a1.054,1.054,0,0,1-1.715.2l-4.2-4.734a1.054,1.054,0,0,0-1.715.2l-2.065,3.9a1.053,1.053,0,0,1-1.975-.372l-1.62-13.549.745-1.405a1.054,1.054,0,0,1,1.715-.2l4.2,4.734a1.046,1.046,0,0,0,1.71-.2l2.979-5.592a1.046,1.046,0,0,1,1.71-.2l4.2,4.734a1.052,1.052,0,0,0,1.715-.209l2.974-5.592a1.054,1.054,0,0,1,1.715-.2l4.193,4.734a1.054,1.054,0,0,0,1.715-.2l2.974-5.6a1.049,1.049,0,0,1,1.71-.2l4.221,4.734a1.046,1.046,0,0,0,1.71-.2l2.963-5.587a1.049,1.049,0,0,1,1.715-.2l4.193,4.729a1.052,1.052,0,0,0,1.715-.2l2.979-5.6a1.051,1.051,0,0,1,1.715-.2l4.21,4.734a1.047,1.047,0,0,0,1.71-.209l2.963-5.581a1.052,1.052,0,0,1,1.715-.209l4.2,4.734a1.054,1.054,0,0,0,1.715-.2l2.974-5.592a1.052,1.052,0,0,1,1.715-.209l5.2,5.869.017-.006L175.85,4.75,178.079.558a1.052,1.052,0,0,1,1.715-.2L184,5.089a1.052,1.052,0,0,0,1.715-.209L187.779.986a1.049,1.049,0,0,1,1.969.367Z" transform="translate(-48.727 0)" fill="#f7f7f7"/>
              <line id="Línea_331" data-name="Línea 331" y1="6.098" x2="51.014" transform="translate(63.979 39.87)" fill="none" stroke="#00b4ff" stroke-miterlimit="10" stroke-width="1"/>
              <line id="Línea_332" data-name="Línea 332" y1="8.357" x2="69.909" transform="translate(63.023 30.836)" fill="none" stroke="#00b4ff" stroke-miterlimit="10" stroke-width="1"/>
              <line id="Línea_333" data-name="Línea 333" y1="8.357" x2="69.909" transform="translate(72.351 108.875)" fill="none" stroke="#00b4ff" stroke-miterlimit="10" stroke-width="1"/>
              <line id="Línea_334" data-name="Línea 334" y1="6.098" x2="51.014" transform="translate(65.05 48.83)" fill="none" stroke="#00b4ff" stroke-miterlimit="10" stroke-width="1"/>
              <line id="Línea_335" data-name="Línea 335" y1="2.885" x2="24.134" transform="translate(66.121 61.003)" fill="none" stroke="#00b4ff" stroke-miterlimit="10" stroke-width="1"/>
              <line id="Línea_336" data-name="Línea 336" y1="4.958" x2="41.476" transform="translate(67.192 67.89)" fill="none" stroke="#00b4ff" stroke-miterlimit="10" stroke-width="1"/>
              <line id="Línea_337" data-name="Línea 337" y1="5.01" x2="41.91" transform="translate(68.264 76.798)" fill="none" stroke="#00b4ff" stroke-miterlimit="10" stroke-width="1"/>
              <line id="Línea_338" data-name="Línea 338" y1="4.232" x2="35.406" transform="translate(69.335 86.536)" fill="none" stroke="#00b4ff" stroke-miterlimit="10" stroke-width="1"/>
              <line id="Línea_339" data-name="Línea 339" y1="2.729" x2="22.834" transform="translate(70.406 96.998)" fill="none" stroke="#00b4ff" stroke-miterlimit="10" stroke-width="1"/>
              <line id="Línea_340" data-name="Línea 340" y1="4.18" x2="34.973" transform="translate(71.477 104.508)" fill="none" stroke="#00b4ff" stroke-miterlimit="10" stroke-width="1"/>
              <line id="Línea_341" data-name="Línea 341" y1="6.084" x2="50.893" transform="translate(76.399 143.787)" fill="none" stroke="#00b4ff" stroke-miterlimit="10" stroke-width="1"/>
              <line id="Línea_342" data-name="Línea 342" y1="3.103" x2="25.96" transform="translate(77.103 152.651)" fill="none" stroke="#00b4ff" stroke-miterlimit="10" stroke-width="1"/>
              <line id="Línea_343" data-name="Línea 343" y1="1.322" x2="11.056" transform="translate(123.014 37.59)" fill="none" stroke="#00b4ff" stroke-miterlimit="10" stroke-width="1"/>
              <line id="Línea_344" data-name="Línea 344" y1="1.322" x2="11.056" transform="translate(124.085 46.55)" fill="none" stroke="#00b4ff" stroke-miterlimit="10" stroke-width="1"/>
              <line id="Línea_345" data-name="Línea 345" y1="1.192" x2="9.972" transform="translate(126.24 55.51)" fill="none" stroke="#00b4ff" stroke-miterlimit="10" stroke-width="1"/>
              <line id="Línea_346" data-name="Línea 346" y1="1.192" x2="9.972" transform="translate(127.352 64.813)" fill="none" stroke="#00b4ff" stroke-miterlimit="10" stroke-width="1"/>
              <line id="Línea_347" data-name="Línea 347" y1="1.086" x2="9.082" transform="translate(129.271 73.43)" fill="none" stroke="#00b4ff" stroke-miterlimit="10" stroke-width="1"/>
              <line id="Línea_348" data-name="Línea 348" y1="0.917" x2="7.673" transform="translate(131.752 82.39)" fill="none" stroke="#00b4ff" stroke-miterlimit="10" stroke-width="1"/>
              <line id="Línea_349" data-name="Línea 349" y1="0.591" x2="4.948" transform="translate(135.547 91.35)" fill="none" stroke="#00b4ff" stroke-miterlimit="10" stroke-width="1"/>
              <line id="Línea_350" data-name="Línea 350" y1="0.906" x2="7.579" transform="translate(133.988 100.31)" fill="none" stroke="#00b4ff" stroke-miterlimit="10" stroke-width="1"/>
              <path id="Trazado_213029" data-name="Trazado 213029" d="M230.056,221l-25.647,3.066a2.272,2.272,0,0,1-2.526-1.986l-.3-2.471a2.272,2.272,0,0,1,1.986-2.526l25.647-3.066a2.272,2.272,0,0,1,2.526,1.987l.3,2.47A2.272,2.272,0,0,1,230.056,221" transform="translate(-87.825 -93.243)" fill="#00b4ff"/>
            </g>
          </g>
          <text id="Receipt" transform="translate(60.597 32.811) rotate(-6.431)" fill="#00b4ff" font-size="13" font-family="Quicksand-Bold, Quicksand" font-weight="700"><tspan x="0" y="0" letter-spacing="-0.004em">R</tspan><tspan y="0">eceipt</tspan></text>
        </g>
      </g>
    </g>
    <g id="Grupo_97479" data-name="Grupo 97479" transform="translate(384.822 2916.758)">
      <g id="Grupo_97478" data-name="Grupo 97478">
        <path id="Trazado_131332" data-name="Trazado 131332" d="M3085,2223.555l-.169.241-1.873,2.65a29.7,29.7,0,0,1-10.555-3c-1.377-.73-2.165-1.442-1.8-1.931,1.071-1.446,4.883.871,5.754,1.27s1.72.474,1.918-.05-3.063-1.992-3.314-2.317.25-1.171,1.471-.374,2.989.448,4.981,1.047A9.105,9.105,0,0,1,3085,2223.555Z" transform="translate(-3070.512 -2188.82)" fill="#fdc8aa"/>
        <path id="Trazado_131333" data-name="Trazado 131333" d="M3104.886,2263.428l-1.874,2.65a29.687,29.687,0,0,1-10.555-3c.422.111.889.245,1.4.4,7.46,2.292,10.958-.163,10.958-.163Z" transform="translate(-3090.568 -2228.452)" fill="#fbb188"/>
        <path id="Trazado_131334" data-name="Trazado 131334" d="M3958.293,2753.223c-.53.185-.646-.456-.663-.5s-.847-2.7-1.166-2.755-.283,2.922-.306,3.63-.1,1.082-.372,1.093a.666.666,0,0,1-.473-.252c.014.074.167.986-.617,1.039-.817.058-.792-3.639-.784-4.449s-.19-.743-.417-.7-.465,3.354-.666,3.856-.452.382-.824.163.365-5.635.4-6.121-.539-.042-.539-.042a1.687,1.687,0,0,1-2.139.947c-.328-.175.774-1.1.875-1.618s.591-.741.914-1.316a6.82,6.82,0,0,1,1.486-1.534.341.341,0,0,0,.1-.157,5.955,5.955,0,0,0,.145-1.282l.039-.421,3.633.348a3.742,3.742,0,0,0,.251,1.918,1.584,1.584,0,0,1,.211.565,26.956,26.956,0,0,1,.249,2.893,21.637,21.637,0,0,0,.6,2.68S3958.823,2753.038,3958.293,2753.223Z" transform="translate(-3873.968 -2666.872)" fill="#fdc8aa"/>
        <path id="Trazado_131335" data-name="Trazado 131335" d="M3993.865,2745.635l-4.279-1.128a5.955,5.955,0,0,0,.145-1.282l.039-.421,3.633.348a3.746,3.746,0,0,0,.25,1.918A1.574,1.574,0,0,1,3993.865,2745.635Z" transform="translate(-3910.447 -2666.872)" fill="#fbb188"/>
        <path id="Trazado_131336" data-name="Trazado 131336" d="M3860.3,2009.449l1.308-4.728,3.52-.434C3865.281,2008.234,3864.109,2012.168,3860.3,2009.449Z" transform="translate(-3792.294 -1991.947)" fill="#1f3a6f"/>
        <path id="Trazado_131337" data-name="Trazado 131337" d="M3571,3449.259a54.681,54.681,0,0,0-10.28,3.339s-1.778.9,0,.9h18.208l-.332-4.235-3.979-1.221Z" transform="translate(-3517.788 -3311.381)" fill="#15315e"/>
        <path id="Trazado_131338" data-name="Trazado 131338" d="M3636.409,2637.608v71h-7.6l-5.1-62.878-.061-.75-.463-5.715Z" transform="translate(-3575.599 -2570.735)" fill="#15315e"/>
        <path id="Trazado_131339" data-name="Trazado 131339" d="M3679.04,2610.83c.121.3.241,7.474,6.752,10.564l14.636,64.639,7.16-.125-11-76.074Z" transform="translate(-3626.642 -2545.352)" fill="#1f3a6f"/>
        <path id="Trazado_131340" data-name="Trazado 131340" d="M3923.412,3470.9s-.633-3.663,3.708-3.812a4.1,4.1,0,0,1,4.552,3.812Z" transform="translate(-3849.942 -3328.789)" fill="#15315e"/>
        <path id="Trazado_131341" data-name="Trazado 131341" d="M3922.2,2004.6" transform="translate(-3848.86 -1992.232)" fill="#596bef"/>
        <path id="Trazado_131342" data-name="Trazado 131342" d="M3281.419,2186.041c-.6,4.186-1.045,12.408-1.045,12.408l-4.635-.374c-.074-.375-1.5-17.863-1.5-17.863s-4.484-13.828-5.53-13.753a.218.218,0,0,0-.069.015c-1,.335-1.5,6.3-1.277,8.134.224,1.868.747,14.723.148,15.171-.532.4-9.338,2.883-19.513.917h0a37.872,37.872,0,0,1-3.729-.917s1.271-30.271.375-31.841l0,0c-.206.148-13.376,9.644-16.393,10.139-2.271.372-12.088-4.989-16.9-7.722-1.627-.923-2.681-1.545-2.681-1.545l2.292-3.587s12.407,5.93,14.749,5.131,18.337-13.552,21.325-14,6.619-1.329,10.107-.83c2.021.289,3.215.775,3.938.812s1.118-.663,1.811-.5c2.608.617,8.461,3.076,9.482,6.2,1.345,4.11,5.83,18.312,6.727,19.956S3282.017,2181.856,3281.419,2186.041Z" transform="translate(-3196.774 -2120.887)" fill="#f4b545"/>
        <path id="Trazado_131343" data-name="Trazado 131343" d="M3740.846,2156.143s-1.743,8.166-6.352,11.006a15.942,15.942,0,0,1-2.562-11.28Z" transform="translate(-3674.819 -2130.476)" fill="#fff"/>
        <path id="Trazado_131344" data-name="Trazado 131344" d="M3742.444,2089.76a5.159,5.159,0,0,1-4.781,2.316c-2.756-.094-3.57-1.584-3.807-2.585a2.244,2.244,0,0,1,.15-1.433l1.09-2.424,1.375-3.056,6.163,1.1a11.7,11.7,0,0,0,.015,3.593c.041.319.085.608.125.849A2.313,2.313,0,0,1,3742.444,2089.76Z" transform="translate(-3676.687 -2063.498)" fill="#fdc8aa"/>
        <path id="Trazado_131345" data-name="Trazado 131345" d="M3756.4,2087.275c-1.26,3.241-5.959-.311-7.553-1.64l1.375-3.056,6.163,1.1A11.688,11.688,0,0,0,3756.4,2087.275Z" transform="translate(-3690.441 -2063.498)" fill="#fbb188"/>
        <path id="Trazado_131346" data-name="Trazado 131346" d="M3744.059,1922.248c-.247,4.77-3.178,8.495-6.549,8.323s-5.906-4.181-5.662-8.95c.021-.395.06-.782.115-1.16.617-4.2,3.342-7.32,6.434-7.162,2.393.124,4.363,2.177,5.219,5.063A11.645,11.645,0,0,1,3744.059,1922.248Z" transform="translate(-3674.888 -1908.787)" fill="#fdc8aa"/>
        <path id="Trazado_131347" data-name="Trazado 131347" d="M3771.772,2054.694l-4.364-.618s-.255,2.882,1.627,3.122S3771.528,2055.968,3771.772,2054.694Z" transform="translate(-3707.389 -2037.448)" fill="#fbb188"/>
        <path id="Trazado_131348" data-name="Trazado 131348" d="M3684.822,2395.742c.224,1.868.747,14.723.148,15.172-.532.4-9.338,2.883-19.514.917.182,0,12.525-.144,14.892-5.109,2.381-5,1.74-17.6,5.118-19.365a.655.655,0,0,1,.632.252C3685.1,2387.944,3684.6,2393.913,3684.822,2395.742Z" transform="translate(-3614.228 -2342.023)" fill="#e59d29"/>
        <path id="Trazado_131349" data-name="Trazado 131349" d="M3273.105,2291.29c-.206.148-13.376,9.644-16.393,10.138-2.272.372-12.088-4.989-16.9-7.722,4.354,1.612,14.86,5.389,17.232,5.17C3260.031,2298.6,3272.9,2291.4,3273.105,2291.29Z" transform="translate(-3225.234 -2254.237)" fill="#e59d29"/>
        <path id="Trazado_131350" data-name="Trazado 131350" d="M3745.007,1918.36l-1.223,4.119s-.23-2.062-5.721-1.6a10.663,10.663,0,0,1-4.708-.424c.617-4.2,3.341-7.32,6.434-7.162C3742.181,1913.422,3744.151,1915.475,3745.007,1918.36Z" transform="translate(-3676.28 -1908.787)" fill="#fbb188"/>
        <path id="Trazado_131351" data-name="Trazado 131351" d="M3701.277,1861.33c4.388,1.727,4.913,4.032,5.785,4.291s3.547-.7,5.462,2.211a12.351,12.351,0,0,1,1.277,5.486l-3.519.434.174-.628s-1.212,3.083-2.061,2.9,1.685-4.274-3.482-4.236-7.91.559-9.712-3.323S3696.889,1859.6,3701.277,1861.33Z" transform="translate(-3640.968 -1860.977)" fill="#1f3a6f"/>
        <path id="Trazado_131352" data-name="Trazado 131352" d="M3857.793,2002.756a2,2,0,0,1,1.241-1.209,1.429,1.429,0,0,1,1.645.6c1.106,1.424-1.15,4.123-2.637,3.323l-.541-.939A4.686,4.686,0,0,1,3857.793,2002.756Z" transform="translate(-3789.735 -1989.378)" fill="#fdc8aa"/>
      </g>
    </g>
    <g id="Grupo_151841" data-name="Grupo 151841" transform="translate(344.799 2952.758)">
      <g id="Grupo_151840" data-name="Grupo 151840" clip-path="url(#clip-path-22)">
        <path id="Trazado_212905" data-name="Trazado 212905" d="M152.715,301.815c1.283.465,5.685,8.775,22.68,14.391,7.645,2.526,22.579-1.4,22.579-1.4l24.835,34.784a55.887,55.887,0,0,1-17.15,3.622c-22.96,1.225-32-5.863-32-5.863l-5.822-5.274Z" transform="translate(-133.377 -263.597)" fill="#a8c469"/>
        <path id="Trazado_212906" data-name="Trazado 212906" d="M229.921,386.025s9.417,5.992,16.4,6.533c5.724.443,18.321-1.778,18.321-1.778l21.375,30.552s-16.489,4.13-24.556,2.887c-25.219-3.884-26.095-9.24-26.095-9.24l-1.157-2.252a59.581,59.581,0,0,0,26.48,9.042,57.453,57.453,0,0,0,21.366-2.178l-18.325-26.568s-10.687,2.063-17,1.559-16.783-6.057-16.783-6.057Z" transform="translate(-200.807 -337.144)" fill="#639334"/>
        <path id="Trazado_212907" data-name="Trazado 212907" d="M190.809,392.955c3.363,1.852,9.814,4.824,13.382,9.035,2.438,2.878,6.725,11.166,6.115,14.594-.416,2.336-2.574,5.082-7.214,2.874a75.845,75.845,0,0,1-9.065-5.259Z" transform="translate(-166.647 -343.196)" fill="#639334"/>
        <path id="Trazado_212908" data-name="Trazado 212908" d="M220.512,439.067l-.4-1.387,2.285.642.393,1.594a10.648,10.648,0,0,1,2.6,1.815c1.505,1.524,4.34,6.1,1.869,6.814-2.133.619-6.281-1.238-4.658,2.494.777,1.787,4.109,3.026,5.128,2.02a2.25,2.25,0,0,0,.58-1.832l2.1.089s1.185,5.072-3.581,4.981h-.014l.412,1.67-2.164-.56-.456-1.564a10.022,10.022,0,0,1-5.607-5.428,2.891,2.891,0,0,1,2.931-4.081c1.756.174,3.882.531,3.5-1.037a5.125,5.125,0,0,0-3.651-3.663c-1.682-.23-2.068,1.629-2.068,1.629l-2.517-.872s-.367-2.621,1.439-3.3a3.435,3.435,0,0,1,1.883-.026" transform="translate(-189.661 -382.258)" fill="#a8c469"/>
        <path id="Trazado_212909" data-name="Trazado 212909" d="M4.443,0,36.394,30.992S31.106,46.9,31.729,55.541c1.533,21.261,8.6,28.249,8.6,28.249S32.225,79.266,23.121,66.7A250.532,250.532,0,0,1,1.49,31.183,39.489,39.489,0,0,1,.1,18.258C.637,11.723,4.443,0,4.443,0" transform="translate(0 0)" fill="#bde377"/>
        <path id="Trazado_212910" data-name="Trazado 212910" d="M47.689,111.194s-6.1-7.9-7.413-21.261c-.765-7.8,4.305-27.129,4.305-27.129L17.021,34.756s-2.557,8.615-3.423,13.93a42.312,42.312,0,0,0,.531,15.331l2.117,4S14.71,62.731,15.7,52.233A69.624,69.624,0,0,1,18.649,40.08c.075.2,23.108,23.714,23.108,23.714s-3.728,18.5-3.543,24.71a38.185,38.185,0,0,0,6.26,20.021Z" transform="translate(-11.465 -30.355)" fill="#6ba638"/>
        <path id="Trazado_212911" data-name="Trazado 212911" d="M111.4,416.476s-.833-2.992-4.653-10.961c-2.947-6.147-8.27-11.572-9.747-11.852-.964-.183-1.265.1-1.359.315,3.076,5,6.789,10.665,11.088,16.6,1.6,2.209,3.17,4.169,4.671,5.9" transform="translate(-83.531 -343.762)" fill="#6ba638"/>
        <path id="Trazado_212912" data-name="Trazado 212912" d="M453.158,534.071c-1.231.855-3.213.133-4.426-1.613s-1.2-3.856.033-4.711,3.213-.133,4.426,1.613,1.2,3.855-.033,4.711" transform="translate(-391.124 -460.606)" fill="#639334"/>
        <path id="Trazado_212913" data-name="Trazado 212913" d="M103.121,255.487c-1.235,1.073-3.367.642-4.762-.964s-1.523-3.777-.288-4.85,3.367-.642,4.762.964,1.523,3.776.288,4.85" transform="translate(-84.912 -217.543)" fill="#6ba638"/>
      </g>
    </g>
  </g>
</svg>
