<svg xmlns="http://www.w3.org/2000/svg" xmlns:xlink="http://www.w3.org/1999/xlink" width="400" height="283" viewBox="0 0 400 283">
  <defs>
    <clipPath id="clip-path">
      <rect id="Rectángulo_44437" data-name="Rectángulo 44437" width="342" height="250" transform="translate(208 5665)" fill="#fff" stroke="#707070" stroke-width="1"/>
    </clipPath>
    <clipPath id="clip-path-2">
      <rect id="Rectángulo_44436" data-name="Rectángulo 44436" width="346.645" height="288.39" fill="none"/>
    </clipPath>
    <clipPath id="clip-path-4">
      <rect id="Rectángulo_44378" data-name="Rectángulo 44378" width="88.564" height="66.964" fill="none"/>
    </clipPath>
    <clipPath id="clip-path-5">
      <rect id="Rectángulo_44379" data-name="Rectángulo 44379" width="15.434" height="29.54" fill="none"/>
    </clipPath>
    <clipPath id="clip-path-6">
      <rect id="Rectángulo_44380" data-name="Rectángulo 44380" width="15.446" height="29.511" fill="none"/>
    </clipPath>
    <clipPath id="clip-path-7">
      <rect id="Rectángulo_44381" data-name="Rectángulo 44381" width="29.836" height="26.182" fill="none"/>
    </clipPath>
    <clipPath id="clip-path-8">
      <rect id="Rectángulo_44382" data-name="Rectángulo 44382" width="16.288" height="7.898" fill="none"/>
    </clipPath>
    <clipPath id="clip-path-9">
      <rect id="Rectángulo_44383" data-name="Rectángulo 44383" width="15.605" height="8.463" fill="none"/>
    </clipPath>
    <clipPath id="clip-path-10">
      <rect id="Rectángulo_44384" data-name="Rectángulo 44384" width="12.762" height="7.415" fill="none"/>
    </clipPath>
    <clipPath id="clip-path-11">
      <rect id="Rectángulo_44385" data-name="Rectángulo 44385" width="12.759" height="7.67" fill="none"/>
    </clipPath>
    <clipPath id="clip-path-12">
      <rect id="Rectángulo_44386" data-name="Rectángulo 44386" width="11.891" height="7.159" fill="none"/>
    </clipPath>
    <clipPath id="clip-path-13">
      <rect id="Rectángulo_44387" data-name="Rectángulo 44387" width="12.322" height="7.296" fill="none"/>
    </clipPath>
    <clipPath id="clip-path-14">
      <rect id="Rectángulo_44388" data-name="Rectángulo 44388" width="12.762" height="7.661" fill="none"/>
    </clipPath>
    <clipPath id="clip-path-15">
      <rect id="Rectángulo_44389" data-name="Rectángulo 44389" width="13.634" height="7.424" fill="none"/>
    </clipPath>
    <clipPath id="clip-path-16">
      <rect id="Rectángulo_44390" data-name="Rectángulo 44390" width="16.055" height="8.557" fill="none"/>
    </clipPath>
    <clipPath id="clip-path-17">
      <rect id="Rectángulo_44391" data-name="Rectángulo 44391" width="17.619" height="8.247" fill="none"/>
    </clipPath>
    <clipPath id="clip-path-18">
      <rect id="Rectángulo_44392" data-name="Rectángulo 44392" width="86.154" height="95.137" fill="none"/>
    </clipPath>
    <clipPath id="clip-path-19">
      <rect id="Rectángulo_44393" data-name="Rectángulo 44393" width="27.192" height="24.093" fill="none"/>
    </clipPath>
    <clipPath id="clip-path-20">
      <rect id="Rectángulo_44394" data-name="Rectángulo 44394" width="27.219" height="24.073" fill="none"/>
    </clipPath>
    <clipPath id="clip-path-21">
      <rect id="Rectángulo_44395" data-name="Rectángulo 44395" width="33.266" height="27.238" fill="none"/>
    </clipPath>
    <clipPath id="clip-path-22">
      <rect id="Rectángulo_44396" data-name="Rectángulo 44396" width="13.617" height="14.224" fill="none"/>
    </clipPath>
    <clipPath id="clip-path-23">
      <rect id="Rectángulo_44397" data-name="Rectángulo 44397" width="12.546" height="15.982" fill="none"/>
    </clipPath>
    <clipPath id="clip-path-24">
      <rect id="Rectángulo_44398" data-name="Rectángulo 44398" width="10.829" height="12.796" fill="none"/>
    </clipPath>
    <clipPath id="clip-path-25">
      <rect id="Rectángulo_44399" data-name="Rectángulo 44399" width="10.821" height="13.521" fill="none"/>
    </clipPath>
    <clipPath id="clip-path-26">
      <rect id="Rectángulo_44400" data-name="Rectángulo 44400" width="10.155" height="12.072" fill="none"/>
    </clipPath>
    <clipPath id="clip-path-27">
      <rect id="Rectángulo_44401" data-name="Rectángulo 44401" width="10.483" height="12.441" fill="none"/>
    </clipPath>
    <clipPath id="clip-path-28">
      <rect id="Rectángulo_44402" data-name="Rectángulo 44402" width="10.829" height="13.514" fill="none"/>
    </clipPath>
    <clipPath id="clip-path-29">
      <rect id="Rectángulo_44403" data-name="Rectángulo 44403" width="11.505" height="12.802" fill="none"/>
    </clipPath>
    <clipPath id="clip-path-30">
      <rect id="Rectángulo_44404" data-name="Rectángulo 44404" width="12.907" height="16.32" fill="none"/>
    </clipPath>
    <clipPath id="clip-path-31">
      <rect id="Rectángulo_44405" data-name="Rectángulo 44405" width="14.684" height="15.286" fill="none"/>
    </clipPath>
    <clipPath id="clip-path-32">
      <rect id="Rectángulo_44410" data-name="Rectángulo 44410" width="173.689" height="271.461" fill="none"/>
    </clipPath>
    <clipPath id="clip-path-33">
      <path id="Trazado_598761" data-name="Trazado 598761" d="M207.693,143.432,292.684,246.5a10.824,10.824,0,0,0,15.237,1.464l53.349-43.992a10.824,10.824,0,0,0,1.465-15.237L277.743,85.667A10.823,10.823,0,0,0,262.506,84.2L209.157,128.2a10.824,10.824,0,0,0-1.464,15.237" transform="translate(-205.219 -81.729)" fill="none"/>
    </clipPath>
    <clipPath id="clip-path-34">
      <rect id="Rectángulo_44406" data-name="Rectángulo 44406" width="54.558" height="183.352" fill="none"/>
    </clipPath>
    <clipPath id="clip-path-36">
      <rect id="Rectángulo_44408" data-name="Rectángulo 44408" width="39.333" height="164.889" fill="none"/>
    </clipPath>
    <clipPath id="clip-path-38">
      <rect id="Rectángulo_44412" data-name="Rectángulo 44412" width="114.03" height="132.789" fill="none"/>
    </clipPath>
    <clipPath id="clip-path-39">
      <rect id="Rectángulo_44414" data-name="Rectángulo 44414" width="77.961" height="98.936" fill="none"/>
    </clipPath>
    <clipPath id="clip-path-41">
      <rect id="Rectángulo_44416" data-name="Rectángulo 44416" width="63.908" height="36.271" fill="none"/>
    </clipPath>
    <clipPath id="clip-path-42">
      <rect id="Rectángulo_44417" data-name="Rectángulo 44417" width="63.908" height="40.236" fill="none"/>
    </clipPath>
    <clipPath id="clip-path-43">
      <rect id="Rectángulo_44418" data-name="Rectángulo 44418" width="39.396" height="195.369" fill="none"/>
    </clipPath>
    <clipPath id="clip-path-44">
      <rect id="Rectángulo_44419" data-name="Rectángulo 44419" width="57.422" height="4.937" fill="none"/>
    </clipPath>
    <clipPath id="clip-path-45">
      <rect id="Rectángulo_44420" data-name="Rectángulo 44420" width="45.105" height="60.837" fill="none"/>
    </clipPath>
    <clipPath id="clip-path-46">
      <rect id="Rectángulo_44421" data-name="Rectángulo 44421" width="54.142" height="66.971" fill="none"/>
    </clipPath>
    <clipPath id="clip-path-47">
      <path id="Trazado_598793" data-name="Trazado 598793" d="M299.931,197.729,418.42,249.095a10.68,10.68,0,0,1,5.508,13.924l-26.144,62.373a10.372,10.372,0,0,1-13.693,5.6L265.6,279.628A10.681,10.681,0,0,1,260.1,265.7L286.24,203.33a10.434,10.434,0,0,1,9.6-6.454,10.26,10.26,0,0,1,4.087.852" transform="translate(-259.257 -196.876)" fill="none"/>
    </clipPath>
    <clipPath id="clip-path-48">
      <rect id="Rectángulo_44423" data-name="Rectángulo 44423" width="80.42" height="160.109" fill="none"/>
    </clipPath>
    <clipPath id="clip-path-49">
      <rect id="Rectángulo_44424" data-name="Rectángulo 44424" width="80.419" height="160.109" fill="none"/>
    </clipPath>
    <clipPath id="clip-path-50">
      <rect id="Rectángulo_44425" data-name="Rectángulo 44425" width="59.194" height="150.908" fill="none"/>
    </clipPath>
    <clipPath id="clip-path-52">
      <path id="Trazado_598799" data-name="Trazado 598799" d="M294.372,300.866l18.63,8.07a4.28,4.28,0,0,1,2.209,5.58L310.776,325.1a4.158,4.158,0,0,1-5.488,2.246l-18.629-8.07a4.281,4.281,0,0,1-2.209-5.58l4.435-10.587a4.182,4.182,0,0,1,3.85-2.588,4.1,4.1,0,0,1,1.637.341" transform="translate(-284.115 -300.525)" fill="none"/>
    </clipPath>
    <clipPath id="clip-path-54">
      <path id="Trazado_598833" data-name="Trazado 598833" d="M303.78,314.789l13.142,20.631L286.24,375.473l-45.737-2.79-44.312-40.9.782-28.12,42.333,7.177,47.047-32.463Z" transform="translate(-196.191 -278.377)" fill="none"/>
    </clipPath>
    <clipPath id="clip-path-55">
      <rect id="Rectángulo_44428" data-name="Rectángulo 44428" width="31.17" height="77.463" fill="none"/>
    </clipPath>
    <clipPath id="clip-path-56">
      <rect id="Rectángulo_44429" data-name="Rectángulo 44429" width="31.49" height="77.463" fill="none"/>
    </clipPath>
    <clipPath id="clip-path-57">
      <rect id="Rectángulo_44430" data-name="Rectángulo 44430" width="42.577" height="34.711" fill="none"/>
    </clipPath>
    <clipPath id="clip-path-58">
      <rect id="Rectángulo_44431" data-name="Rectángulo 44431" width="42.577" height="35.551" fill="none"/>
    </clipPath>
    <clipPath id="clip-path-59">
      <rect id="Rectángulo_44432" data-name="Rectángulo 44432" width="53.645" height="75.844" fill="none"/>
    </clipPath>
    <clipPath id="clip-path-62">
      <rect id="Rectángulo_44434" data-name="Rectángulo 44434" width="57.247" height="30.771" fill="none"/>
    </clipPath>
  </defs>
  <g id="Grupo_156552" data-name="Grupo 156552" transform="translate(-180 -5643)">
    <rect id="Rectángulo_44366" data-name="Rectángulo 44366" width="400" height="283" transform="translate(180 5643)" fill="none"/>
    <ellipse id="Elipse_5577" data-name="Elipse 5577" cx="200" cy="11.5" rx="200" ry="11.5" transform="translate(180 5903)" fill="#dadada"/>
    <g id="Grupo_156551" data-name="Grupo 156551" transform="translate(376.928 5790.905)">
      <rect id="Rectángulo_44438" data-name="Rectángulo 44438" width="63.876" height="62.412" transform="translate(93.797 0)" fill="#c78b5b"/>
      <rect id="Rectángulo_44439" data-name="Rectángulo 44439" width="63.314" height="62.412" transform="translate(112.047 0)" fill="#e5be84"/>
      <rect id="Rectángulo_44440" data-name="Rectángulo 44440" width="10.08" height="16.059" transform="translate(138.662 0)" fill="#ead1b7"/>
      <rect id="Rectángulo_44441" data-name="Rectángulo 44441" width="10.084" height="16.059" transform="translate(138.662 46.353)" fill="#ead1b7"/>
      <rect id="Rectángulo_44442" data-name="Rectángulo 44442" width="16.425" height="9.924" transform="translate(154.459 49.617)" fill="#f7eee5"/>
      <rect id="Rectángulo_44443" data-name="Rectángulo 44443" width="1.742" height="7.136" transform="translate(155.208 51.009)" fill="#444248"/>
      <rect id="Rectángulo_44444" data-name="Rectángulo 44444" width="0.612" height="7.136" transform="translate(158.008 51.009)" fill="#444248"/>
      <rect id="Rectángulo_44445" data-name="Rectángulo 44445" width="1.43" height="7.136" transform="translate(161.123 51.009)" fill="#444248"/>
      <rect id="Rectángulo_44446" data-name="Rectángulo 44446" width="0.871" height="7.136" transform="translate(159.324 51.009)" fill="#444248"/>
      <rect id="Rectángulo_44447" data-name="Rectángulo 44447" width="0.59" height="7.136" transform="translate(163.622 51.009)" fill="#444248"/>
      <rect id="Rectángulo_44448" data-name="Rectángulo 44448" width="1.183" height="7.136" transform="translate(166.414 51.009)" fill="#444248"/>
      <rect id="Rectángulo_44449" data-name="Rectángulo 44449" width="0.59" height="7.136" transform="translate(168.001 51.009)" fill="#444248"/>
      <rect id="Rectángulo_44450" data-name="Rectángulo 44450" width="0.806" height="7.136" transform="translate(165.075 51.009)" fill="#444248"/>
      <rect id="Rectángulo_44451" data-name="Rectángulo 44451" width="0.875" height="7.136" transform="translate(169.214 51.009)" fill="#444248"/>
      <rect id="Rectángulo_44452" data-name="Rectángulo 44452" width="63.876" height="62.416" transform="translate(114.508 61.678)" fill="#c78b5b"/>
      <rect id="Rectángulo_44453" data-name="Rectángulo 44453" width="63.314" height="62.416" transform="translate(132.759 61.678)" fill="#e5be84"/>
      <rect id="Rectángulo_44454" data-name="Rectángulo 44454" width="16.988" height="16.059" transform="translate(155.92 61.678)" fill="#ead1b7"/>
      <rect id="Rectángulo_44455" data-name="Rectángulo 44455" width="16.988" height="16.059" transform="translate(155.92 108.035)" fill="#ead1b7"/>
      <rect id="Rectángulo_44456" data-name="Rectángulo 44456" width="16.425" height="9.92" transform="translate(135.79 111.298)" fill="#f7eee5"/>
      <rect id="Rectángulo_44457" data-name="Rectángulo 44457" width="1.742" height="7.14" transform="translate(136.543 112.691)" fill="#444248"/>
      <rect id="Rectángulo_44458" data-name="Rectángulo 44458" width="0.612" height="7.14" transform="translate(139.347 112.691)" fill="#444248"/>
      <rect id="Rectángulo_44459" data-name="Rectángulo 44459" width="1.43" height="7.14" transform="translate(142.462 112.691)" fill="#444248"/>
      <rect id="Rectángulo_44460" data-name="Rectángulo 44460" width="0.875" height="7.14" transform="translate(140.659 112.691)" fill="#444248"/>
      <rect id="Rectángulo_44461" data-name="Rectángulo 44461" width="0.59" height="7.14" transform="translate(144.961 112.691)" fill="#444248"/>
      <rect id="Rectángulo_44462" data-name="Rectángulo 44462" width="1.183" height="7.14" transform="translate(147.749 112.691)" fill="#444248"/>
      <rect id="Rectángulo_44463" data-name="Rectángulo 44463" width="0.586" height="7.14" transform="translate(149.339 112.691)" fill="#444248"/>
      <rect id="Rectángulo_44464" data-name="Rectángulo 44464" width="0.81" height="7.14" transform="translate(146.41 112.691)" fill="#444248"/>
      <rect id="Rectángulo_44465" data-name="Rectángulo 44465" width="0.875" height="7.14" transform="translate(150.549 112.691)" fill="#444248"/>
      <rect id="Rectángulo_44466" data-name="Rectángulo 44466" width="99.377" height="97.106" transform="translate(0 26.988)" fill="#c78b5b"/>
      <rect id="Rectángulo_44467" data-name="Rectángulo 44467" width="98.506" height="97.106" transform="translate(28.395 26.988)" fill="#e5be84"/>
      <rect id="Rectángulo_44468" data-name="Rectángulo 44468" width="26.432" height="24.987" transform="translate(64.428 26.988)" fill="#ead1b7"/>
      <rect id="Rectángulo_44469" data-name="Rectángulo 44469" width="26.429" height="24.987" transform="translate(64.432 99.107)" fill="#ead1b7"/>
      <rect id="Rectángulo_44470" data-name="Rectángulo 44470" width="25.554" height="15.439" transform="translate(33.116 104.182)" fill="#f7eee5"/>
      <rect id="Rectángulo_44471" data-name="Rectángulo 44471" width="2.712" height="11.111" transform="translate(34.283 106.346)" fill="#444248"/>
      <rect id="Rectángulo_44472" data-name="Rectángulo 44472" width="0.951" height="11.111" transform="translate(38.639 106.346)" fill="#444248"/>
      <rect id="Rectángulo_44473" data-name="Rectángulo 44473" width="2.225" height="11.111" transform="translate(43.488 106.346)" fill="#444248"/>
      <rect id="Rectángulo_44474" data-name="Rectángulo 44474" width="1.354" height="11.111" transform="translate(40.689 106.346)" fill="#444248"/>
      <rect id="Rectángulo_44475" data-name="Rectángulo 44475" width="0.917" height="11.111" transform="translate(47.376 106.346)" fill="#444248"/>
      <rect id="Rectángulo_44476" data-name="Rectángulo 44476" width="1.837" height="11.111" transform="translate(51.716 106.346)" fill="#444248"/>
      <rect id="Rectángulo_44477" data-name="Rectángulo 44477" width="0.913" height="11.111" transform="translate(54.185 106.346)" fill="#444248"/>
      <rect id="Rectángulo_44478" data-name="Rectángulo 44478" width="1.259" height="11.111" transform="translate(49.635 106.346)" fill="#444248"/>
      <rect id="Rectángulo_44479" data-name="Rectángulo 44479" width="1.358" height="11.111" transform="translate(56.075 106.346)" fill="#444248"/>
    </g>
    <g id="Enmascarar_grupo_62" data-name="Enmascarar grupo 62" transform="translate(-28 11)" clip-path="url(#clip-path)">
      <g id="Grupo_156549" data-name="Grupo 156549" transform="translate(199 5637.61)">
        <g id="Grupo_156548" data-name="Grupo 156548" clip-path="url(#clip-path-2)">
          <g id="Grupo_156504" data-name="Grupo 156504">
            <g id="Grupo_156503" data-name="Grupo 156503" clip-path="url(#clip-path-2)">
              <path id="Trazado_598717" data-name="Trazado 598717" d="M123.47,149.811c21.718-18.338,51.694-12.333,73.4-30.66L181.7,82.847c-21.7,18.326-51.681,12.322-73.4,30.66l15.165,36.3" transform="translate(80.041 -29.504)" fill="#299c90"/>
              <g id="Grupo_156377" data-name="Grupo 156377" transform="translate(188.346 53.343)" style="mix-blend-mode: multiply;isolation: isolate">
                <g id="Grupo_156376" data-name="Grupo 156376">
                  <g id="Grupo_156375" data-name="Grupo 156375" clip-path="url(#clip-path-4)">
                    <path id="Trazado_598718" data-name="Trazado 598718" d="M110.378,113.784q6.886,16.486,13.773,32.973c21.243-16.392,49.413-11.5,70.645-27.883Q187.91,102.387,181.023,85.9c-21.232,16.384-49.4,11.492-70.645,27.884m-2.073-.278c21.718-18.338,51.694-12.333,73.4-30.66l15.165,36.305c-21.7,18.327-51.681,12.321-73.4,30.659l-15.165-36.3" transform="translate(-108.305 -82.847)" fill="#299c90"/>
                  </g>
                </g>
              </g>
              <g id="Grupo_156380" data-name="Grupo 156380" transform="translate(256.531 61.311)" opacity="0.47" style="mix-blend-mode: multiply;isolation: isolate">
                <g id="Grupo_156379" data-name="Grupo 156379">
                  <g id="Grupo_156378" data-name="Grupo 156378" clip-path="url(#clip-path-5)">
                    <path id="Trazado_598719" data-name="Trazado 598719" d="M126.937,124.761a32.426,32.426,0,0,0,4.483-3.322L120.469,95.222a32.431,32.431,0,0,1-4.483,3.323l10.951,26.216" transform="translate(-115.986 -95.222)" fill="#299c90"/>
                  </g>
                </g>
              </g>
              <g id="Grupo_156383" data-name="Grupo 156383" transform="translate(193.583 82.991)" opacity="0.47" style="mix-blend-mode: multiply;isolation: isolate">
                <g id="Grupo_156382" data-name="Grupo 156382">
                  <g id="Grupo_156381" data-name="Grupo 156381" clip-path="url(#clip-path-6)">
                    <path id="Trazado_598720" data-name="Trazado 598720" d="M224.683,158.4a32.5,32.5,0,0,1,4.495-3.294Q223.7,142,218.227,128.894a32.5,32.5,0,0,0-4.495,3.294L224.683,158.4" transform="translate(-213.732 -128.894)" fill="#299c90"/>
                  </g>
                </g>
              </g>
              <g id="Grupo_156386" data-name="Grupo 156386" transform="translate(218.009 73.678)" style="mix-blend-mode: multiply;isolation: isolate">
                <g id="Grupo_156385" data-name="Grupo 156385">
                  <g id="Grupo_156384" data-name="Grupo 156384" clip-path="url(#clip-path-7)">
                    <path id="Trazado_598721" data-name="Trazado 598721" d="M154.44,130.363c3.19,7.273,11.55,11.246,19.31,10.032a11.213,11.213,0,0,0,8.536-15.761c-3.183-7.269-11.538-11.2-19.29-9.985a11.182,11.182,0,0,0-8.556,15.715" transform="translate(-153.445 -114.43)" fill="#299c90"/>
                  </g>
                </g>
              </g>
              <path id="Trazado_598722" data-name="Trazado 598722" d="M173.369,136.559c.344.829.515,1.243.858,2.071l2.022-.355-.836-2.016a8.162,8.162,0,0,0,4.41-2.393l-2.042-2.047a6.843,6.843,0,0,1-3.372,2.018l-1.279-3.087c2.037-.895,4.251-2.044,3.155-4.689-.813-1.96-3.056-3.345-6.388-3.114l-.851-2.053-2.022.356.835,2.015a7.908,7.908,0,0,0-3.631,1.865l1.95,2.089a7.047,7.047,0,0,1,2.692-1.513l1.3,3.143c-2.045.876-4.219,2.015-3.139,4.622.8,1.923,3.015,3.3,6.334,3.088M172,128.031l-1.088-2.626a2.072,2.072,0,0,1,2.062,1.1c.268.646-.193,1.106-.974,1.522m-1.631,5.069c-.268-.647.173-1.1.927-1.533l1.058,2.552c-1.1-.026-1.739-.427-1.984-1.019" transform="translate(61.079 -43.054)" fill="#299c90"/>
              <g id="Grupo_156389" data-name="Grupo 156389" transform="translate(240.469 68.132)" opacity="0.47" style="mix-blend-mode: multiply;isolation: isolate">
                <g id="Grupo_156388" data-name="Grupo 156388">
                  <g id="Grupo_156387" data-name="Grupo 156387" clip-path="url(#clip-path-8)">
                    <path id="Trazado_598723" data-name="Trazado 598723" d="M142.5,113.715c5.611-1.478,8.354-2.366,13.4-5.21l-1.123-2.688c-5.674,3.2-8.8,4.114-15.165,5.658,1.16.9,1.738,1.351,2.893,2.241" transform="translate(-139.605 -105.817)" fill="#299c90"/>
                  </g>
                </g>
              </g>
              <g id="Grupo_156392" data-name="Grupo 156392" transform="translate(200.742 78.586)" opacity="0.47" style="mix-blend-mode: multiply;isolation: isolate">
                <g id="Grupo_156391" data-name="Grupo 156391">
                  <g id="Grupo_156390" data-name="Grupo 156390" clip-path="url(#clip-path-9)">
                    <path id="Trazado_598724" data-name="Trazado 598724" d="M203.49,130.515c5.2-2.939,8.034-3.837,13.832-5.334.258-1.257.388-1.883.651-3.127-6.555,1.561-9.776,2.477-15.605,5.774.449,1.075.673,1.613,1.123,2.688" transform="translate(-202.368 -122.052)" fill="#299c90"/>
                  </g>
                </g>
              </g>
              <g id="Grupo_156395" data-name="Grupo 156395" transform="translate(246.073 73.109)" opacity="0.47" style="mix-blend-mode: multiply;isolation: isolate">
                <g id="Grupo_156394" data-name="Grupo 156394">
                  <g id="Grupo_156393" data-name="Grupo 156393" clip-path="url(#clip-path-10)">
                    <path id="Trazado_598725" data-name="Trazado 598725" d="M137.5,120.961a44.792,44.792,0,0,0,11.64-4.727l-1.123-2.688a44.76,44.76,0,0,1-11.64,4.727l1.123,2.688" transform="translate(-136.376 -113.546)" fill="#299c90"/>
                  </g>
                </g>
              </g>
              <g id="Grupo_156398" data-name="Grupo 156398" transform="translate(202.82 84.354)" opacity="0.47" style="mix-blend-mode: multiply;isolation: isolate">
                <g id="Grupo_156397" data-name="Grupo 156397">
                  <g id="Grupo_156396" data-name="Grupo 156396" clip-path="url(#clip-path-11)">
                    <path id="Trazado_598726" data-name="Trazado 598726" d="M204.682,138.681a44.7,44.7,0,0,1,11.636-4.736c-.1-1.176-.149-1.762-.247-2.934a45.685,45.685,0,0,0-12.512,4.982l1.123,2.688" transform="translate(-203.559 -131.011)" fill="#299c90"/>
                  </g>
                </g>
              </g>
              <g id="Grupo_156401" data-name="Grupo 156401" transform="translate(249.023 78.085)" opacity="0.47" style="mix-blend-mode: multiply;isolation: isolate">
                <g id="Grupo_156400" data-name="Grupo 156400">
                  <g id="Grupo_156399" data-name="Grupo 156399" clip-path="url(#clip-path-12)">
                    <path id="Trazado_598727" data-name="Trazado 598727" d="M134.272,128.434a43.857,43.857,0,0,0,10.768-4.471l-1.123-2.688a43.856,43.856,0,0,1-10.768,4.471l1.123,2.688" transform="translate(-133.15 -121.275)" fill="#299c90"/>
                  </g>
                </g>
              </g>
              <g id="Grupo_156404" data-name="Grupo 156404" transform="translate(204.899 89.705)" opacity="0.47" style="mix-blend-mode: multiply;isolation: isolate">
                <g id="Grupo_156403" data-name="Grupo 156403">
                  <g id="Grupo_156402" data-name="Grupo 156402" clip-path="url(#clip-path-13)">
                    <path id="Trazado_598728" data-name="Trazado 598728" d="M202.131,146.617a44.224,44.224,0,0,1,11.2-4.609l-1.123-2.688a44.257,44.257,0,0,0-11.2,4.609l1.123,2.688" transform="translate(-201.009 -139.321)" fill="#299c90"/>
                  </g>
                </g>
              </g>
              <g id="Grupo_156407" data-name="Grupo 156407" transform="translate(250.231 83.062)" opacity="0.47" style="mix-blend-mode: multiply;isolation: isolate">
                <g id="Grupo_156406" data-name="Grupo 156406">
                  <g id="Grupo_156405" data-name="Grupo 156405" clip-path="url(#clip-path-14)">
                    <path id="Trazado_598729" data-name="Trazado 598729" d="M130.167,136.665a45.752,45.752,0,0,0,12.515-4.973L141.56,129a44.791,44.791,0,0,1-11.64,4.727c.1,1.176.149,1.762.247,2.934" transform="translate(-129.92 -129.004)" fill="#299c90"/>
                  </g>
                </g>
              </g>
              <g id="Grupo_156410" data-name="Grupo 156410" transform="translate(206.977 94.554)" opacity="0.47" style="mix-blend-mode: multiply;isolation: isolate">
                <g id="Grupo_156409" data-name="Grupo 156409">
                  <g id="Grupo_156408" data-name="Grupo 156408" clip-path="url(#clip-path-15)">
                    <path id="Trazado_598730" data-name="Trazado 598730" d="M196.865,154.276a45.665,45.665,0,0,1,12.512-4.983l-2-2.441a44.712,44.712,0,0,0-11.636,4.736l1.123,2.688" transform="translate(-195.742 -146.852)" fill="#299c90"/>
                  </g>
                </g>
              </g>
              <g id="Grupo_156413" data-name="Grupo 156413" transform="translate(249.017 88.038)" opacity="0.47" style="mix-blend-mode: multiply;isolation: isolate">
                <g id="Grupo_156412" data-name="Grupo 156412">
                  <g id="Grupo_156411" data-name="Grupo 156411" clip-path="url(#clip-path-16)">
                    <path id="Trazado_598731" data-name="Trazado 598731" d="M126.691,145.29c6.746-1.573,10.064-2.488,16.055-5.869l-1.123-2.688c-5.357,3.024-8.29,3.926-14.278,5.438-.259,1.254-.39,1.878-.654,3.119" transform="translate(-126.691 -136.733)" fill="#299c90"/>
                  </g>
                </g>
              </g>
              <g id="Grupo_156416" data-name="Grupo 156416" transform="translate(209.056 98.707)" opacity="0.47" style="mix-blend-mode: multiply;isolation: isolate">
                <g id="Grupo_156415" data-name="Grupo 156415">
                  <g id="Grupo_156414" data-name="Grupo 156414" clip-path="url(#clip-path-17)">
                    <path id="Trazado_598732" data-name="Trazado 598732" d="M187.448,161.55c6.146-3.476,9.562-4.393,16.5-5.983-1.164-.911-1.744-1.364-2.9-2.264-6.176,1.53-9.2,2.44-14.717,5.559l1.123,2.688" transform="translate(-186.326 -153.303)" fill="#299c90"/>
                  </g>
                </g>
              </g>
              <path id="Trazado_598733" data-name="Trazado 598733" d="M89.443,194.088c9.9-29.337,41.857-40.2,51.759-69.536l-34.394-25.6c-9.9,29.332-41.855,40.2-51.759,69.535l34.394,25.6" transform="translate(169.998 -35.239)" fill="#299c90"/>
              <g id="Grupo_156419" data-name="Grupo 156419" transform="translate(225.046 63.712)" style="mix-blend-mode: multiply;isolation: isolate">
                <g id="Grupo_156418" data-name="Grupo 156418">
                  <g id="Grupo_156417" data-name="Grupo 156417" clip-path="url(#clip-path-18)">
                    <path id="Trazado_598734" data-name="Trazado 598734" d="M57.148,167.594l31.237,23.251c10.574-27.251,40.148-38.156,50.72-65.4l-31.237-23.251c-10.573,27.247-40.147,38.153-50.721,65.4m-2.1.892c9.9-29.337,41.857-40.2,51.759-69.536l34.394,25.6c-9.9,29.332-41.855,40.2-51.759,69.536l-34.394-25.6" transform="translate(-55.05 -98.951)" fill="#299c90"/>
                  </g>
                </g>
              </g>
              <g id="Grupo_156422" data-name="Grupo 156422" transform="translate(278.194 71.587)" opacity="0.47" style="mix-blend-mode: multiply;isolation: isolate">
                <g id="Grupo_156421" data-name="Grupo 156421">
                  <g id="Grupo_156420" data-name="Grupo 156420" clip-path="url(#clip-path-19)">
                    <path id="Trazado_598735" data-name="Trazado 598735" d="M88.916,135.276a35.353,35.353,0,0,0,2.355-5.606L66.434,111.183a35.311,35.311,0,0,1-2.355,5.606l24.837,18.487" transform="translate(-64.079 -111.183)" fill="#299c90"/>
                  </g>
                </g>
              </g>
              <g id="Grupo_156425" data-name="Grupo 156425" transform="translate(231.224 126.89)" opacity="0.47" style="mix-blend-mode: multiply;isolation: isolate">
                <g id="Grupo_156424" data-name="Grupo 156424">
                  <g id="Grupo_156423" data-name="Grupo 156423" clip-path="url(#clip-path-20)">
                    <path id="Trazado_598736" data-name="Trazado 598736" d="M161.823,221.147a35.4,35.4,0,0,1,2.382-5.586l-24.837-18.487a35.407,35.407,0,0,0-2.382,5.586l24.837,18.487" transform="translate(-136.986 -197.074)" fill="#299c90"/>
                  </g>
                </g>
              </g>
              <g id="Grupo_156428" data-name="Grupo 156428" transform="translate(251.803 97.455)" style="mix-blend-mode: multiply;isolation: isolate">
                <g id="Grupo_156427" data-name="Grupo 156427">
                  <g id="Grupo_156426" data-name="Grupo 156426" clip-path="url(#clip-path-21)">
                    <path id="Trazado_598737" data-name="Trazado 598737" d="M100.731,175.368c6.8,5.172,17.469,3.689,23.676-1.33a12.238,12.238,0,0,0-.76-19.518c-6.645-4.668-17.307-4.128-23.632,1.362a12.407,12.407,0,0,0,.716,19.485" transform="translate(-95.632 -151.358)" fill="#299c90"/>
                  </g>
                </g>
              </g>
              <path id="Trazado_598738" data-name="Trazado 598738" d="M121.384,174.1l1.955,1.464,1.7-1.457-1.9-1.425a8.9,8.9,0,0,0,2.8-4.694l-3.051-.784a7.461,7.461,0,0,1-2.039,3.766l-2.915-2.183c1.412-1.971,2.848-4.279.351-6.148-1.85-1.386-4.723-1.437-7.719.631l-1.938-1.451-1.7,1.458,1.9,1.425a8.626,8.626,0,0,0-2.367,3.766l2.989.874a7.675,7.675,0,0,1,1.682-2.914l2.968,2.222c-1.429,1.958-2.835,4.234-.373,6.077,1.816,1.36,4.657,1.414,7.654-.626m-6.02-7.235-2.48-1.856a2.258,2.258,0,0,1,2.547-.113c.611.458.435,1.144-.067,1.969m1.289,5.658c-.611-.458-.451-1.129.017-1.952l2.409,1.8a2.161,2.161,0,0,1-2.426.148" transform="translate(152.158 -57.568)" fill="#299c90"/>
              <g id="Grupo_156431" data-name="Grupo 156431" transform="translate(268.228 80.972)" opacity="0.47" style="mix-blend-mode: multiply;isolation: isolate">
                <g id="Grupo_156430" data-name="Grupo 156430">
                  <g id="Grupo_156429" data-name="Grupo 156429" clip-path="url(#clip-path-22)">
                    <path id="Trazado_598739" data-name="Trazado 598739" d="M104.6,139.982c4.438-4.5,6.516-6.861,9.66-12.329l-2.547-1.9c-3.539,6.155-5.961,8.746-11.071,13.732,1.589.2,2.381.3,3.957.493" transform="translate(-100.64 -125.758)" fill="#299c90"/>
                  </g>
                </g>
              </g>
              <g id="Grupo_156434" data-name="Grupo 156434" transform="translate(236.865 112.607)" opacity="0.47" style="mix-blend-mode: multiply;isolation: isolate">
                <g id="Grupo_156433" data-name="Grupo 156433">
                  <g id="Grupo_156432" data-name="Grupo 156432" clip-path="url(#clip-path-23)">
                    <path id="Trazado_598740" data-name="Trazado 598740" d="M153.561,190.873c3.237-5.643,5.4-8.062,10-12.689-.458-1.321-.683-1.98-1.129-3.293a60.822,60.822,0,0,0-11.418,14.087l2.547,1.895" transform="translate(-151.014 -174.891)" fill="#299c90"/>
                  </g>
                </g>
              </g>
              <g id="Grupo_156437" data-name="Grupo 156437" transform="translate(275.73 84.481)" opacity="0.47" style="mix-blend-mode: multiply;isolation: isolate">
                <g id="Grupo_156436" data-name="Grupo 156436">
                  <g id="Grupo_156435" data-name="Grupo 156435" clip-path="url(#clip-path-24)">
                    <path id="Trazado_598741" data-name="Trazado 598741" d="M95.866,144a48.8,48.8,0,0,0,8.283-10.9l-2.547-1.9a48.8,48.8,0,0,1-8.283,10.9l2.547,1.9" transform="translate(-93.319 -131.208)" fill="#299c90"/>
                  </g>
                </g>
              </g>
              <g id="Grupo_156440" data-name="Grupo 156440" transform="translate(241.579 118.578)" opacity="0.47" style="mix-blend-mode: multiply;isolation: isolate">
                <g id="Grupo_156439" data-name="Grupo 156439">
                  <g id="Grupo_156438" data-name="Grupo 156438" clip-path="url(#clip-path-25)">
                    <path id="Trazado_598742" data-name="Trazado 598742" d="M148.918,197.685a48.736,48.736,0,0,1,8.274-10.907c-.747-1.046-1.12-1.569-1.863-2.613a49.747,49.747,0,0,0-8.958,11.624l2.546,1.9" transform="translate(-146.372 -184.164)" fill="#299c90"/>
                  </g>
                </g>
              </g>
              <g id="Grupo_156443" data-name="Grupo 156443" transform="translate(281.119 87.99)" opacity="0.47" style="mix-blend-mode: multiply;isolation: isolate">
                <g id="Grupo_156442" data-name="Grupo 156442">
                  <g id="Grupo_156441" data-name="Grupo 156441" clip-path="url(#clip-path-26)">
                    <path id="Trazado_598743" data-name="Trazado 598743" d="M88.543,148.73a47.81,47.81,0,0,0,7.609-10.176l-2.547-1.9A47.778,47.778,0,0,1,86,146.834l2.547,1.9" transform="translate(-85.996 -136.658)" fill="#299c90"/>
                  </g>
                </g>
              </g>
              <g id="Grupo_156446" data-name="Grupo 156446" transform="translate(246.293 123.167)" opacity="0.47" style="mix-blend-mode: multiply;isolation: isolate">
                <g id="Grupo_156445" data-name="Grupo 156445">
                  <g id="Grupo_156444" data-name="Grupo 156444" clip-path="url(#clip-path-27)">
                    <path id="Trazado_598744" data-name="Trazado 598744" d="M142.122,203.732a48.225,48.225,0,0,1,7.936-10.545l-2.547-1.9a48.225,48.225,0,0,0-7.936,10.545l2.547,1.9" transform="translate(-139.575 -191.291)" fill="#299c90"/>
                  </g>
                </g>
              </g>
              <g id="Grupo_156449" data-name="Grupo 156449" transform="translate(285.159 91.5)" opacity="0.47" style="mix-blend-mode: multiply;isolation: isolate">
                <g id="Grupo_156448" data-name="Grupo 156448">
                  <g id="Grupo_156447" data-name="Grupo 156447" clip-path="url(#clip-path-28)">
                    <path id="Trazado_598745" data-name="Trazado 598745" d="M80.538,155.623A49.87,49.87,0,0,0,89.5,144l-2.547-1.9a48.784,48.784,0,0,1-8.283,10.9c.747,1.046,1.12,1.569,1.863,2.613" transform="translate(-78.675 -142.109)" fill="#299c90"/>
                  </g>
                </g>
              </g>
              <g id="Grupo_156452" data-name="Grupo 156452" transform="translate(251.008 126.315)" opacity="0.47" style="mix-blend-mode: multiply;isolation: isolate">
                <g id="Grupo_156451" data-name="Grupo 156451">
                  <g id="Grupo_156450" data-name="Grupo 156450" clip-path="url(#clip-path-29)">
                    <path id="Trazado_598746" data-name="Trazado 598746" d="M133.213,208.982a49.745,49.745,0,0,1,8.958-11.624c-1.294-.473-1.94-.708-3.23-1.178a48.718,48.718,0,0,0-8.274,10.907l2.547,1.9" transform="translate(-130.666 -196.18)" fill="#299c90"/>
                  </g>
                </g>
              </g>
              <g id="Grupo_156455" data-name="Grupo 156455" transform="translate(287.795 95.009)" opacity="0.47" style="mix-blend-mode: multiply;isolation: isolate">
                <g id="Grupo_156454" data-name="Grupo 156454">
                  <g id="Grupo_156453" data-name="Grupo 156453" clip-path="url(#clip-path-30)">
                    <path id="Trazado_598747" data-name="Trazado 598747" d="M72.473,163.879A61.724,61.724,0,0,0,84.26,149.455l-2.546-1.9c-3.341,5.811-5.589,8.287-10.361,13.033.454,1.319.678,1.977,1.12,3.287" transform="translate(-71.353 -147.559)" fill="#299c90"/>
                  </g>
                </g>
              </g>
              <g id="Grupo_156458" data-name="Grupo 156458" transform="translate(255.722 127.34)" opacity="0.47" style="mix-blend-mode: multiply;isolation: isolate">
                <g id="Grupo_156457" data-name="Grupo 156457">
                  <g id="Grupo_156456" data-name="Grupo 156456" clip-path="url(#clip-path-31)">
                    <path id="Trazado_598748" data-name="Trazado 598748" d="M120.953,213.059a62.424,62.424,0,0,1,12.138-14.777c-1.6-.207-2.393-.309-3.979-.509-4.938,4.868-7.271,7.4-10.705,13.391l2.547,1.9" transform="translate(-118.406 -197.773)" fill="#299c90"/>
                  </g>
                </g>
              </g>
              <path id="Trazado_598749" data-name="Trazado 598749" d="M316.542,75.8a15.8,15.8,0,1,0,4.851-21.8,15.8,15.8,0,0,0-4.851,21.8" transform="translate(-201.245 -18.349)" fill="#d6802b"/>
              <path id="Trazado_598750" data-name="Trazado 598750" d="M316.259,73.688a15.8,15.8,0,1,0,4.851-21.8,15.8,15.8,0,0,0-4.851,21.8" transform="translate(-200.78 -17.598)" fill="#fcba33"/>
              <path id="Trazado_598751" data-name="Trazado 598751" d="M321.229,73.747a12.237,12.237,0,1,0,3.758-16.893,12.238,12.238,0,0,0-3.758,16.893" transform="translate(-202.747 -19.566)" fill="#fcba33"/>
              <path id="Trazado_598752" data-name="Trazado 598752" d="M340.285,61.9a12.238,12.238,0,0,0-20.967.523,12.237,12.237,0,1,1,21.913,10.8,12.22,12.22,0,0,0-.946-11.327" transform="translate(-201.783 -19.566)" fill="#d6802b"/>
              <path id="Trazado_598753" data-name="Trazado 598753" d="M339.3,87.031a12.879,12.879,0,0,0,3.767-3.658,12.233,12.233,0,0,1-21.218.27A12.927,12.927,0,0,0,339.3,87.031" transform="translate(-203.653 -29.692)" fill="#d6802b"/>
              <path id="Trazado_598754" data-name="Trazado 598754" d="M337.109,76l1.064,1.674,1.494-.95-1.036-1.629a8.4,8.4,0,0,0,2.961-3.563l-1.981-1.3a7.162,7.162,0,0,1-2.225,2.905l-1.587-2.5c1.4-1.458,2.9-3.19,1.544-5.327-1.008-1.584-3.023-2.212-5.555-.979l-1.055-1.659-1.494.95,1.036,1.629a8.012,8.012,0,0,0-2.454,2.841l1.917,1.363a7.23,7.23,0,0,1,1.792-2.232l1.616,2.541c-1.412,1.444-2.883,3.156-1.543,5.263.988,1.554,2.98,2.177,5.507.968M334.4,68.441l-1.35-2.122c.907-.324,1.5-.09,1.809.4.333.523.065,1.092-.46,1.719m-.279,5.237c-.333-.523-.08-1.082.42-1.715l1.312,2.062c-.852.31-1.428.131-1.732-.347" transform="translate(-206.023 -22.32)" fill="#d6802b"/>
              <path id="Trazado_598755" data-name="Trazado 598755" d="M210.392,143.243,295.384,246.31a10.824,10.824,0,0,0,15.237,1.465l53.349-43.993a10.824,10.824,0,0,0,1.465-15.237L280.442,85.477a10.824,10.824,0,0,0-15.237-1.464l-53.349,43.993a10.823,10.823,0,0,0-1.465,15.237" transform="translate(-155.136 -29.039)" fill="#e8231f"/>
              <path id="Trazado_598756" data-name="Trazado 598756" d="M207.692,143.432,292.684,246.5a10.825,10.825,0,0,0,15.237,1.465l53.349-43.993a10.824,10.824,0,0,0,1.465-15.237L277.742,85.667A10.823,10.823,0,0,0,262.505,84.2L209.156,128.2a10.824,10.824,0,0,0-1.464,15.237" transform="translate(-150.697 -29.106)" fill="#f23a30"/>
              <g id="Grupo_156475" data-name="Grupo 156475" transform="translate(54.521)" opacity="0.5">
                <g id="Grupo_156474" data-name="Grupo 156474">
                  <g id="Grupo_156473" data-name="Grupo 156473" clip-path="url(#clip-path-32)">
                    <g id="Grupo_156472" data-name="Grupo 156472" transform="translate(0 52.623)">
                      <g id="Grupo_156471" data-name="Grupo 156471" clip-path="url(#clip-path-33)">
                        <g id="Grupo_156461" data-name="Grupo 156461" transform="translate(61.722 13.53)" style="mix-blend-mode: screen;isolation: isolate">
                          <g id="Grupo_156460" data-name="Grupo 156460">
                            <g id="Grupo_156459" data-name="Grupo 156459" clip-path="url(#clip-path-34)">
                              <path id="Trazado_598757" data-name="Trazado 598757" d="M299.832,286.094,273.1,253.682l27.831-150.941,26.727,32.412Z" transform="translate(-273.104 -102.742)" fill="#f23a30"/>
                            </g>
                          </g>
                        </g>
                        <g id="Grupo_156464" data-name="Grupo 156464" transform="translate(119.131 35.486)" style="mix-blend-mode: screen;isolation: isolate">
                          <g id="Grupo_156463" data-name="Grupo 156463">
                            <g id="Grupo_156462" data-name="Grupo 156462" clip-path="url(#clip-path-34)">
                              <path id="Trazado_598758" data-name="Trazado 598758" d="M210.668,320.195l-26.728-32.412,27.831-150.941L238.5,169.254Z" transform="translate(-183.941 -136.843)" fill="#f23a30"/>
                            </g>
                          </g>
                        </g>
                        <g id="Grupo_156467" data-name="Grupo 156467" transform="translate(46.241 -5.244)" style="mix-blend-mode: screen;isolation: isolate">
                          <g id="Grupo_156466" data-name="Grupo 156466">
                            <g id="Grupo_156465" data-name="Grupo 156465" clip-path="url(#clip-path-36)">
                              <path id="Trazado_598759" data-name="Trazado 598759" d="M332.3,238.473l-11.5-13.949L348.624,73.584l11.5,13.949Z" transform="translate(-320.794 -73.584)" fill="#f23a30"/>
                            </g>
                          </g>
                        </g>
                        <g id="Grupo_156470" data-name="Grupo 156470" transform="translate(9.9 -52.623)" style="mix-blend-mode: screen;isolation: isolate">
                          <g id="Grupo_156469" data-name="Grupo 156469">
                            <g id="Grupo_156468" data-name="Grupo 156468" clip-path="url(#clip-path-36)">
                              <path id="Trazado_598760" data-name="Trazado 598760" d="M388.738,164.889l-11.5-13.949L405.066,0l11.5,13.949Z" transform="translate(-377.235 0)" fill="#f23a30"/>
                            </g>
                          </g>
                        </g>
                      </g>
                    </g>
                  </g>
                </g>
              </g>
              <g id="Grupo_156478" data-name="Grupo 156478" transform="translate(90.103 59.511)" style="mix-blend-mode: multiply;isolation: isolate">
                <g id="Grupo_156477" data-name="Grupo 156477">
                  <g id="Grupo_156476" data-name="Grupo 156476" clip-path="url(#clip-path-38)">
                    <rect id="Rectángulo_44411" data-name="Rectángulo 44411" width="155.524" height="19.845" transform="matrix(-0.635, -0.773, 0.773, -0.635, 98.694, 132.789)" fill="#a0302d"/>
                  </g>
                </g>
              </g>
              <rect id="Rectángulo_44413" data-name="Rectángulo 44413" width="130.687" height="14.376" transform="translate(166.35 196.789) rotate(-129.389)" fill="#f7dfdf"/>
              <path id="Trazado_598762" data-name="Trazado 598762" d="M134.677,232.81s-29.51-8.383-52.211,15.36-25.75,83.576-25.75,83.576,15.851-38.312,41.633-54.754c14.391-9.177,31.055-20.232,36.328-44.182" transform="translate(175.45 -82.399)" fill="#299c90"/>
              <g id="Grupo_156481" data-name="Grupo 156481" transform="translate(232.166 150.411)" opacity="0.45" style="mix-blend-mode: multiply;isolation: isolate">
                <g id="Grupo_156480" data-name="Grupo 156480">
                  <g id="Grupo_156479" data-name="Grupo 156479" clip-path="url(#clip-path-39)">
                    <path id="Trazado_598763" data-name="Trazado 598763" d="M98.349,277.786c14.391-9.178,31.055-20.233,36.328-44.182,0,0-23.063,7.664-38.205,22.387S61.739,306.4,56.716,332.541c0,0,15.851-38.313,41.633-54.754" transform="translate(-56.716 -233.604)" fill="#299c90"/>
                  </g>
                </g>
              </g>
              <g id="Grupo_156484" data-name="Grupo 156484" transform="translate(232.166 150.411)" opacity="0.66" style="mix-blend-mode: multiply;isolation: isolate">
                <g id="Grupo_156483" data-name="Grupo 156483">
                  <g id="Grupo_156482" data-name="Grupo 156482" clip-path="url(#clip-path-39)">
                    <path id="Trazado_598764" data-name="Trazado 598764" d="M126.919,236.4c-2.544,1.046-5.078,2.131-7.555,3.337a105.59,105.59,0,0,0-14.329,8.279,73.075,73.075,0,0,0-9.318,7.6c.236-.859.518-1.714.831-2.559a45.423,45.423,0,0,1,2.34-5.143c.872-1.682,1.841-3.319,2.852-4.931s2.076-3.194,3.213-4.727c-1.254,1.439-2.439,2.94-3.586,4.472s-2.246,3.1-3.262,4.736a46.44,46.44,0,0,0-2.807,5.066A25.548,25.548,0,0,0,93.4,257.97c-.3.319-.6.636-.894.962A111.12,111.12,0,0,0,83.5,270.519a27.739,27.739,0,0,1,.015-3.9,45.5,45.5,0,0,1,.795-5.595c.362-1.86.829-3.7,1.344-5.535s1.091-3.651,1.749-5.442c-.8,1.735-1.51,3.508-2.178,5.3s-1.279,3.611-1.794,5.464a46.574,46.574,0,0,0-1.263,5.653,25.25,25.25,0,0,0-.276,5.906c0,.023.006.048.01.071a.89.89,0,0,0,.1.278c-1.4,2.081-2.7,4.223-4.025,6.349-.708,1.183-1.39,2.382-2.086,3.572l-1.037,1.789-.983,1.82c-.648,1.217-1.312,2.425-1.948,3.648l-.26.52c-.1-.985-.153-1.987-.16-2.992a45.391,45.391,0,0,1,.375-5.638c.222-1.882.551-3.756.928-5.62s.816-3.722,1.338-5.557c-.666,1.789-1.245,3.611-1.777,5.449s-1.006,3.7-1.382,5.582a46.515,46.515,0,0,0-.838,5.731,25.509,25.509,0,0,0,.149,5.771l-.226.451c-.632,1.225-1.2,2.479-1.784,3.729s-1.171,2.495-1.707,3.765q-3.319,7.573-5.909,15.432c-.417,1.312-.785,2.641-1.18,3.96-.19.661-.4,1.317-.574,1.982l-.5,2.005-.5,2-.249,1-.2,1.013-.757,4.053A139.066,139.066,0,0,1,61.5,316.813c.993-2.554,1.929-5.125,3.036-7.631,1.034-2.534,2.187-5.018,3.32-7.508,1.255-2.605,2.522-5.205,3.837-7.78a.9.9,0,0,0,.41-.786c1.048-2.03,2.122-4.045,3.259-6.027l.994-1.794,1.037-1.769,2.086-3.53c1.458-2.311,2.883-4.645,4.437-6.89a120.038,120.038,0,0,1,9.865-13.029c.28-.323.57-.637.858-.954a.9.9,0,0,0,.469-.522,75.9,75.9,0,0,1,10.74-9.431,116.622,116.622,0,0,1,13.913-8.638,135.053,135.053,0,0,1,14.914-6.92c-2.626.809-5.212,1.755-7.758,2.8" transform="translate(-56.716 -233.604)" fill="#299c90"/>
                  </g>
                </g>
              </g>
              <path id="Trazado_598765" data-name="Trazado 598765" d="M143.5,329.93s-14.076-11.037-31.567-3.233S79.6,366.119,79.6,366.119s17.01-17.178,34.551-20.362c9.792-1.777,21.225-4.065,29.357-15.827" transform="translate(151.891 -115.352)" fill="#299c90"/>
              <g id="Grupo_156487" data-name="Grupo 156487" transform="translate(231.486 214.496)" opacity="0.45" style="mix-blend-mode: multiply;isolation: isolate">
                <g id="Grupo_156486" data-name="Grupo 156486">
                  <g id="Grupo_156485" data-name="Grupo 156485" clip-path="url(#clip-path-41)">
                    <path id="Trazado_598766" data-name="Trazado 598766" d="M114.148,349.044c9.792-1.777,21.225-4.065,29.357-15.827,0,0-14.138-.954-25.56,3.651s-29.87,19.54-38.349,32.538c0,0,17.01-17.178,34.552-20.362" transform="translate(-79.596 -333.135)" fill="#299c90"/>
                  </g>
                </g>
              </g>
              <g id="Grupo_156490" data-name="Grupo 156490" transform="translate(231.486 210.53)" opacity="0.66" style="mix-blend-mode: multiply;isolation: isolate">
                <g id="Grupo_156489" data-name="Grupo 156489">
                  <g id="Grupo_156488" data-name="Grupo 156488" clip-path="url(#clip-path-42)">
                    <path id="Trazado_598767" data-name="Trazado 598767" d="M138.7,330.821c-1.6,0-3.21.03-4.814.133a61.522,61.522,0,0,0-9.56,1.306,42.571,42.571,0,0,0-6.707,2.046c.317-.412.658-.811,1.013-1.2a26.491,26.491,0,0,1,2.4-2.259c.842-.715,1.726-1.385,2.627-2.032s1.826-1.265,2.778-1.842c-.995.5-1.965,1.049-2.923,1.622s-1.9,1.18-2.805,1.836a27.152,27.152,0,0,0-2.633,2.115,14.9,14.9,0,0,0-2.223,2.516c-.232.106-.465.211-.695.322a64.8,64.8,0,0,0-7.423,4.264,16.08,16.08,0,0,1,.869-2.1,26.528,26.528,0,0,1,1.663-2.844c.606-.924,1.265-1.816,1.947-2.691s1.395-1.729,2.145-2.551c-.813.76-1.589,1.56-2.346,2.38s-1.487,1.667-2.174,2.553a27.159,27.159,0,0,0-1.929,2.772,14.729,14.729,0,0,0-1.452,3.127c0,.013-.008.027-.01.04a.5.5,0,0,0-.008.172c-1.214.815-2.389,1.684-3.573,2.538-.644.482-1.276.979-1.915,1.467l-.954.737-.932.766c-.619.514-1.244,1.019-1.856,1.539l-.255.223a17.441,17.441,0,0,1,.574-1.65,26.448,26.448,0,0,1,1.447-2.96c.536-.966,1.126-1.905,1.742-2.829s1.261-1.829,1.948-2.7c-.754.819-1.469,1.675-2.161,2.548s-1.359,1.773-1.978,2.708A27.23,27.23,0,0,0,96.81,345.8a14.872,14.872,0,0,0-1.194,3.147l-.221.194c-.611.522-1.2,1.072-1.785,1.619s-1.183,1.088-1.752,1.655q-3.462,3.355-6.595,7.025c-.514.617-1.007,1.252-1.511,1.877-.249.315-.5.623-.747.943l-.711.972-.71.972-.355.485-.331.5-1.3,2.02a81.258,81.258,0,0,1,6.055-7.432c1.1-1.16,2.172-2.34,3.322-3.449,1.117-1.14,2.287-2.226,3.449-3.319,1.252-1.129,2.51-2.253,3.788-3.352a.526.526,0,0,0,.394-.334c1.013-.864,2.038-1.715,3.089-2.534l.932-.748.95-.726,1.905-1.445c1.3-.925,2.581-1.87,3.915-2.74a69.92,69.92,0,0,1,8.2-4.854c.223-.113.449-.218.673-.326a.525.525,0,0,0,.368-.178,44.27,44.27,0,0,1,7.878-2.719,68.046,68.046,0,0,1,9.415-1.592,78.8,78.8,0,0,1,9.576-.443c-1.6-.143-3.2-.2-4.8-.2" transform="translate(-79.596 -326.976)" fill="#299c90"/>
                  </g>
                </g>
              </g>
              <path id="Trazado_598768" data-name="Trazado 598768" d="M237.285,305.784l-71.629,11.348-.743-195.268,70.745,4.4a19.361,19.361,0,0,1,17.958,19.31V286.663a19.36,19.36,0,0,1-16.331,19.122" transform="translate(-13.155 -43.399)" fill="#0a5487"/>
              <path id="Trazado_598769" data-name="Trazado 598769" d="M300,317.076h-2.049a20.776,20.776,0,0,1-20.723-22.256l7.428-103.984A69.436,69.436,0,0,0,284,175.159l-4.6-29.382A20.848,20.848,0,0,1,300,121.708a16.569,16.569,0,0,1,16.569,16.569v162.23A16.569,16.569,0,0,1,300,317.076" transform="translate(-148.396 -43.344)" fill="#0a5487"/>
              <g id="Grupo_156493" data-name="Grupo 156493" transform="translate(128.783 78.364)" opacity="0.45" style="mix-blend-mode: multiply;isolation: isolate">
                <g id="Grupo_156492" data-name="Grupo 156492">
                  <g id="Grupo_156491" data-name="Grupo 156491" clip-path="url(#clip-path-43)">
                    <path id="Trazado_598770" data-name="Trazado 598770" d="M300,317.076h-2.049a20.776,20.776,0,0,1-20.723-22.256l7.428-103.984A69.436,69.436,0,0,0,284,175.159l-4.6-29.382A20.848,20.848,0,0,1,300,121.708a16.569,16.569,0,0,1,16.569,16.569v162.23A16.569,16.569,0,0,1,300,317.076" transform="translate(-277.178 -121.707)" fill="#0a5487"/>
                  </g>
                </g>
              </g>
              <path id="Trazado_598771" data-name="Trazado 598771" d="M254.233,290.532,238.91,292a1.422,1.422,0,0,1-1.558-1.416V278.3a1.423,1.423,0,0,1,1.345-1.42l15.323-.833a1.423,1.423,0,0,1,1.5,1.42v11.651a1.423,1.423,0,0,1-1.286,1.416" transform="translate(-61.699 -98.307)" fill="#92cedb"/>
              <path id="Trazado_598772" data-name="Trazado 598772" d="M222.357,289.3l-15.323.8a1.423,1.423,0,0,1-1.545-1.417V276.964a1.423,1.423,0,0,1,1.345-1.42l15.323-.833a1.423,1.423,0,0,1,1.5,1.42v11.755a1.423,1.423,0,0,1-1.3,1.417" transform="translate(-9.322 -97.832)" fill="#92cedb"/>
              <path id="Trazado_598773" data-name="Trazado 598773" d="M190.424,287.125l-15.323.457a1.423,1.423,0,0,1-1.513-1.42v-11a1.423,1.423,0,0,1,1.345-1.42l15.323-.833a1.423,1.423,0,0,1,1.5,1.42v11.377a1.422,1.422,0,0,1-1.332,1.42" transform="translate(43.121 -97.19)" fill="#92cedb"/>
              <path id="Trazado_598774" data-name="Trazado 598774" d="M254.233,319.366l-15.323,1.469a1.422,1.422,0,0,1-1.558-1.416V307.131a1.423,1.423,0,0,1,1.345-1.42l15.323-.833a1.423,1.423,0,0,1,1.5,1.42V317.95a1.423,1.423,0,0,1-1.286,1.416" transform="translate(-61.699 -108.575)" fill="#92cedb"/>
              <path id="Trazado_598775" data-name="Trazado 598775" d="M222.357,317.294l-15.323.742a1.423,1.423,0,0,1-1.545-1.417V304.9a1.422,1.422,0,0,1,1.345-1.42l15.323-.833a1.422,1.422,0,0,1,1.5,1.42v11.813a1.422,1.422,0,0,1-1.3,1.417" transform="translate(-9.322 -107.78)" fill="#92cedb"/>
              <path id="Trazado_598776" data-name="Trazado 598776" d="M190.424,314.592l-15.323.863a1.422,1.422,0,0,1-1.513-1.42V303.093a1.422,1.422,0,0,1,1.345-1.42l15.323-.833a1.423,1.423,0,0,1,1.5,1.42v10.912a1.422,1.422,0,0,1-1.332,1.42" transform="translate(43.121 -107.137)" fill="#92cedb"/>
              <path id="Trazado_598777" data-name="Trazado 598777" d="M254.233,348.2l-15.323,1.469a1.422,1.422,0,0,1-1.558-1.416V335.965a1.423,1.423,0,0,1,1.345-1.42l15.323-.833a1.422,1.422,0,0,1,1.5,1.42v11.651a1.423,1.423,0,0,1-1.286,1.416" transform="translate(-61.699 -118.844)" fill="#92cedb"/>
              <path id="Trazado_598778" data-name="Trazado 598778" d="M222.357,344.633l-15.323,1.322a1.422,1.422,0,0,1-1.545-1.417V332.816a1.422,1.422,0,0,1,1.345-1.42l15.323-1.181a1.422,1.422,0,0,1,1.5,1.42v11.581a1.422,1.422,0,0,1-1.3,1.417" transform="translate(-9.322 -117.598)" fill="#92cedb"/>
              <path id="Trazado_598779" data-name="Trazado 598779" d="M190.424,342.28l-15.323.979a1.422,1.422,0,0,1-1.513-1.42V330.9a1.422,1.422,0,0,1,1.345-1.42l15.323-1.065a1.423,1.423,0,0,1,1.5,1.42V340.86a1.422,1.422,0,0,1-1.332,1.42" transform="translate(43.121 -116.956)" fill="#92cedb"/>
              <path id="Trazado_598780" data-name="Trazado 598780" d="M254.233,377.033,238.91,378.5a1.423,1.423,0,0,1-1.558-1.416V364.8a1.423,1.423,0,0,1,1.345-1.42l15.323-.833a1.422,1.422,0,0,1,1.5,1.42v11.651a1.423,1.423,0,0,1-1.286,1.416" transform="translate(-61.699 -129.112)" fill="#f23a30"/>
              <path id="Trazado_598781" data-name="Trazado 598781" d="M222.357,373.287l-15.323,1.322a1.422,1.422,0,0,1-1.545-1.417V361.47a1.422,1.422,0,0,1,1.345-1.42l15.323-1.181a1.422,1.422,0,0,1,1.5,1.42V371.87a1.423,1.423,0,0,1-1.3,1.417" transform="translate(-9.322 -127.803)" fill="#92cedb"/>
              <path id="Trazado_598782" data-name="Trazado 598782" d="M190.424,371.114l-15.323.979a1.422,1.422,0,0,1-1.513-1.42V359.73a1.422,1.422,0,0,1,1.345-1.42l15.323-1.065a1.423,1.423,0,0,1,1.5,1.421v11.028a1.422,1.422,0,0,1-1.332,1.42" transform="translate(43.121 -127.225)" fill="#299c90"/>
              <g id="Grupo_156496" data-name="Grupo 156496" transform="translate(175.367 93.888)" opacity="0.3" style="mix-blend-mode: multiply;isolation: isolate">
                <g id="Grupo_156495" data-name="Grupo 156495">
                  <g id="Grupo_156494" data-name="Grupo 156494" clip-path="url(#clip-path-44)">
                    <path id="Trazado_598783" data-name="Trazado 598783" d="M233.668,150.756l-56.836-.8a4.188,4.188,0,0,1,4.663-4.13l47.914.9c2.373.11,4.833,1.371,4.844,3.745Z" transform="translate(-176.832 -145.818)" fill="#0a5487"/>
                  </g>
                </g>
              </g>
              <path id="Trazado_598784" data-name="Trazado 598784" d="M229.34,226.462l-47.613,1.9a5.225,5.225,0,0,1-5.434-5.221V165.509a5.225,5.225,0,0,1,5.434-5.22l47.613.743a5.225,5.225,0,0,1,5.016,5.221v54.99a5.224,5.224,0,0,1-5.016,5.22" transform="translate(-1.221 -57.082)" fill="#19aae6"/>
              <g id="Grupo_156499" data-name="Grupo 156499" transform="translate(188.03 103.324)" opacity="0.24" style="mix-blend-mode: screen;isolation: isolate">
                <g id="Grupo_156498" data-name="Grupo 156498">
                  <g id="Grupo_156497" data-name="Grupo 156497" clip-path="url(#clip-path-45)">
                    <path id="Trazado_598785" data-name="Trazado 598785" d="M221.4,221.31V166.32a5.224,5.224,0,0,0-5.016-5.22l-40.089-.626Z" transform="translate(-176.293 -160.473)" fill="#19aae6"/>
                  </g>
                </g>
              </g>
              <g id="Grupo_156502" data-name="Grupo 156502" transform="translate(175.072 103.202)" opacity="0.24" style="mix-blend-mode: screen;isolation: isolate">
                <g id="Grupo_156501" data-name="Grupo 156501">
                  <g id="Grupo_156500" data-name="Grupo 156500" clip-path="url(#clip-path-46)">
                    <path id="Trazado_598786" data-name="Trazado 598786" d="M215.617,227.255l19.811-.793a5.193,5.193,0,0,0,1.1-.164l-47.167-65.986-1.541-.024a5.224,5.224,0,0,0-5.433,5.22v12.528Z" transform="translate(-182.381 -160.284)" fill="#19aae6"/>
                  </g>
                </g>
              </g>
              <path id="Trazado_598787" data-name="Trazado 598787" d="M268,280.681l118.489,51.366a10.372,10.372,0,0,0,13.692-5.6l26.144-62.372a10.681,10.681,0,0,0-5.508-13.925L302.327,198.781a10.372,10.372,0,0,0-13.692,5.6l-26.144,62.372A10.68,10.68,0,0,0,268,280.681" transform="translate(-248.988 -70.488)" fill="#e89f1f"/>
              <path id="Trazado_598788" data-name="Trazado 598788" d="M265.6,279.627l118.489,51.366a10.372,10.372,0,0,0,13.692-5.6l26.144-62.372a10.68,10.68,0,0,0-5.508-13.925L299.931,197.728a10.371,10.371,0,0,0-13.692,5.6L260.1,265.7a10.681,10.681,0,0,0,5.508,13.925" transform="translate(-245.05 -70.113)" fill="#fcba33"/>
            </g>
          </g>
          <g id="Grupo_156518" data-name="Grupo 156518" transform="translate(14.207 126.763)">
            <g id="Grupo_156517" data-name="Grupo 156517" clip-path="url(#clip-path-47)">
              <g id="Grupo_156507" data-name="Grupo 156507" transform="translate(59.507 1.518)" opacity="0.3" style="mix-blend-mode: screen;isolation: isolate">
                <g id="Grupo_156506" data-name="Grupo 156506">
                  <g id="Grupo_156505" data-name="Grupo 156505" clip-path="url(#clip-path-48)">
                    <path id="Trazado_598789" data-name="Trazado 598789" d="M379.409,359.342,342.148,343.19,298.989,199.233l37.261,16.153Z" transform="translate(-298.989 -199.233)" fill="#e89f1f"/>
                  </g>
                </g>
              </g>
              <g id="Grupo_156510" data-name="Grupo 156510" transform="translate(118.392 -5.277)" opacity="0.3" style="mix-blend-mode: screen;isolation: isolate">
                <g id="Grupo_156509" data-name="Grupo 156509">
                  <g id="Grupo_156508" data-name="Grupo 156508" clip-path="url(#clip-path-49)">
                    <path id="Trazado_598790" data-name="Trazado 598790" d="M287.955,348.789l-37.261-16.153L207.534,188.68,244.8,204.833Z" transform="translate(-207.535 -188.68)" fill="#e89f1f"/>
                  </g>
                </g>
              </g>
              <g id="Grupo_156513" data-name="Grupo 156513" transform="translate(37.925 -7.839)" opacity="0.3" style="mix-blend-mode: screen;isolation: isolate">
                <g id="Grupo_156512" data-name="Grupo 156512">
                  <g id="Grupo_156511" data-name="Grupo 156511" clip-path="url(#clip-path-50)">
                    <path id="Trazado_598791" data-name="Trazado 598791" d="M424.67,335.61l-16.036-6.952L365.475,184.7l16.036,6.951Z" transform="translate(-365.475 -184.701)" fill="#e89f1f"/>
                  </g>
                </g>
              </g>
              <g id="Grupo_156516" data-name="Grupo 156516" transform="translate(-14.207 -32.683)" opacity="0.3" style="mix-blend-mode: screen;isolation: isolate">
                <g id="Grupo_156515" data-name="Grupo 156515">
                  <g id="Grupo_156514" data-name="Grupo 156514" clip-path="url(#clip-path-50)">
                    <path id="Trazado_598792" data-name="Trazado 598792" d="M505.636,297.024,489.6,290.072,446.441,146.116l16.036,6.951Z" transform="translate(-446.441 -146.116)" fill="#e89f1f"/>
                  </g>
                </g>
              </g>
            </g>
          </g>
          <g id="Grupo_156520" data-name="Grupo 156520" transform="translate(132.28 193.499)">
            <g id="Grupo_156519" data-name="Grupo 156519" clip-path="url(#clip-path-52)">
              <path id="Trazado_598794" data-name="Trazado 598794" d="M286.659,319.28l18.63,8.07a4.157,4.157,0,0,0,5.487-2.246l4.434-10.588a4.28,4.28,0,0,0-2.209-5.58l-18.63-8.07a4.156,4.156,0,0,0-5.486,2.246L284.45,313.7a4.281,4.281,0,0,0,2.209,5.58" transform="translate(-284.115 -300.525)" fill="#caaa75"/>
              <path id="Trazado_598795" data-name="Trazado 598795" d="M316.746,319.7l-6.137-2.659a4.087,4.087,0,0,0-5.395,2.208L284.77,310.4" transform="translate(-285.737 -304.041)" fill="none" stroke="#00325b" stroke-miterlimit="10" stroke-width="1.651"/>
              <path id="Trazado_598796" data-name="Trazado 598796" d="M308.607,329.777l-6.137-2.659a4.209,4.209,0,0,1-2.172-5.487l-10.522-4.558" transform="translate(-280.821 -306.418)" fill="none" stroke="#00325b" stroke-miterlimit="10" stroke-width="1.651"/>
              <path id="Trazado_598797" data-name="Trazado 598797" d="M287.273,306.51l6.137,2.659a4.209,4.209,0,0,1,2.172,5.487l17.339,7.511" transform="translate(-283.524 -302.656)" fill="none" stroke="#00325b" stroke-miterlimit="10" stroke-width="1.651"/>
              <path id="Trazado_598798" data-name="Trazado 598798" d="M297.861,318.462,304,321.121a4.087,4.087,0,0,0,5.395-2.208l10.522,4.558" transform="translate(-297.335 -306.913)" fill="none" stroke="#00325b" stroke-miterlimit="10" stroke-width="1.651"/>
            </g>
          </g>
          <g id="Grupo_156522" data-name="Grupo 156522">
            <g id="Grupo_156521" data-name="Grupo 156521" clip-path="url(#clip-path-2)">
              <text id="_1" data-name="1" transform="matrix(-0.922, -0.388, -0.388, 0.922, 150.575, 238.004)" fill="#00325b" font-size="9" font-family="Montserrat-SemiBold, Montserrat" font-weight="600"><tspan x="0" y="0">1</tspan></text>
              <text id="_23" data-name="23" transform="matrix(-0.922, -0.388, -0.388, 0.922, 146.266, 236.136)" fill="#00325b" font-size="9" font-family="Montserrat-SemiBold, Montserrat" font-weight="600"><tspan x="0" y="0" letter-spacing="0.1em">2</tspan><tspan y="0">3</tspan></text>
              <text id="_4" data-name="4" transform="matrix(-0.922, -0.388, -0.388, 0.922, 132.939, 230.359)" fill="#00325b" font-size="9" font-family="Montserrat-SemiBold, Montserrat" font-weight="600"><tspan x="0" y="0">4</tspan></text>
              <text id="_" data-name=" " transform="matrix(-0.922, -0.388, -0.388, 0.922, 125.526, 228.235)" fill="#00325b" font-size="5" font-family="Montserrat-SemiBold, Montserrat" font-weight="600"><tspan x="0" y="0"> </tspan></text>
              <text id="_456" data-name=" 456" transform="matrix(-0.922, -0.388, -0.388, 0.922, 122.826, 225.975)" fill="#00325b" font-size="9" font-family="Montserrat-SemiBold, Montserrat" font-weight="600"><tspan x="0" y="0" letter-spacing="0.1em"> </tspan><tspan y="0" letter-spacing="0.097em">4</tspan><tspan y="0" letter-spacing="0.1em">5</tspan><tspan y="0">6</tspan></text>
              <text id="_7" data-name="7" transform="matrix(-0.922, -0.388, -0.388, 0.922, 97.833, 215.14)" fill="#00325b" font-size="9" font-family="Montserrat-SemiBold, Montserrat" font-weight="600"><tspan x="0" y="0">7</tspan></text>
              <text id="_2" data-name="  " transform="matrix(-0.922, -0.388, -0.388, 0.922, 91.501, 212.395)" fill="#00325b" font-size="9" font-family="Montserrat-SemiBold, Montserrat" font-weight="600"><tspan x="0" y="0" letter-spacing="0.04em"> </tspan><tspan y="0"> </tspan></text>
              <text id="_7899" data-name="7899" transform="matrix(-0.922, -0.388, -0.388, 0.922, 85.326, 209.718)" fill="#00325b" font-size="8" font-family="Montserrat-SemiBold, Montserrat" font-weight="600"><tspan x="0" y="0" letter-spacing="0.062em">7</tspan><tspan y="0" letter-spacing="0.08em">8</tspan><tspan y="0" letter-spacing="0.079em">9</tspan><tspan y="0">9</tspan></text>
              <text id="_3" data-name=" " transform="matrix(-0.922, -0.388, -0.388, 0.922, 57.424, 198.713)" fill="#00325b" font-size="5" font-family="Montserrat-SemiBold, Montserrat" font-weight="600"><tspan x="0" y="0"> </tspan></text>
              <text id="_4-2" data-name=" " transform="matrix(-0.922, -0.388, -0.388, 0.922, 54.922, 197.628)" fill="#00325b" font-size="5" font-family="Montserrat-SemiBold, Montserrat" font-weight="600"><tspan x="0" y="0"> </tspan></text>
              <text id="_1234" data-name="1234" transform="matrix(-0.922, -0.388, -0.388, 0.922, 52.223, 195.368)" fill="#00325b" font-size="8" font-family="Montserrat-SemiBold, Montserrat" font-weight="600"><tspan x="0" y="0" letter-spacing="0.06em">123</tspan><tspan y="0">4</tspan></text>
              <text id="NAME_SURNAME" data-name="NAME    SURNAME" transform="matrix(-0.922, -0.388, -0.388, 0.922, 146.37, 248.04)" fill="#00325b" font-size="5" font-family="Montserrat-Regular, Montserrat"><tspan x="0" y="0" letter-spacing="0.02em">N</tspan><tspan y="0" letter-spacing="0.019em">A</tspan><tspan y="0" xml:space="preserve" letter-spacing="0.02em">ME  </tspan><tspan y="0" letter-spacing="0.019em"> </tspan><tspan y="0" xml:space="preserve" letter-spacing="0.02em"> SURNAM</tspan><tspan y="0">E</tspan></text>
              <path id="Trazado_598800" data-name="Trazado 598800" d="M311.312,376.877l-1.245,2.971,3.565-1.965.314.136-1.534,3.661-.38-.165,1.245-2.97-3.559,1.967-.314-.136,1.534-3.661Z" transform="translate(-166.515 -134.159)" fill="none" stroke="#00325b" stroke-miterlimit="10" stroke-width="0.241"/>
              <path id="Trazado_598801" data-name="Trazado 598801" d="M320.787,377.709l-.04-2.34-1.688,1.59Zm-2.84.3-.4-.174,3.18-2.948.375.163.111,4.374-.4-.171-.022-1.165-2.006-.87Z" transform="translate(-179.025 -133.507)" fill="none" stroke="#00325b" stroke-miterlimit="10" stroke-width="0.241"/>
              <path id="Trazado_598802" data-name="Trazado 598802" d="M323.789,370.924l.41,3.385,2.7-2.036.314.136-1.534,3.661-.365-.158L326.535,373l-2.44,1.834-.18-.078-.381-3.076-1.228,2.929-.365-.158,1.534-3.661Z" transform="translate(-187.858 -132.048)" fill="none" stroke="#00325b" stroke-miterlimit="10" stroke-width="0.241"/>
              <path id="Trazado_598803" data-name="Trazado 598803" d="M332.033,372.5l.57-1.36-1.861-.807.138-.33,1.861.807.546-1.3L331.2,368.6l.14-.335,2.469,1.07L332.274,373l-2.546-1.1.14-.334Z" transform="translate(-199.466 -131.15)" fill="none" stroke="#00325b" stroke-miterlimit="10" stroke-width="0.241"/>
              <path id="Trazado_598804" data-name="Trazado 598804" d="M345.351,366.519c-.92-.4-1.149-1.042-.923-1.581.559-1.333,2.521.234,2.942-.771.153-.366-.015-.791-.673-1.077a1.981,1.981,0,0,0-1.115-.124V362.6a2.181,2.181,0,0,1,1.252.16c.916.4,1.132,1.041.906,1.58-.567,1.354-2.525-.224-2.946.781-.151.36.021.775.7,1.067a1.894,1.894,0,0,0,1.375.07l.024.363A2.1,2.1,0,0,1,345.351,366.519Z" transform="translate(-222.894 -129.121)" fill="none" stroke="#00325b" stroke-miterlimit="10" stroke-width="0.241"/>
              <path id="Trazado_598805" data-name="Trazado 598805" d="M350.265,363.8a1.533,1.533,0,0,1-.807-2.236l.879-2.1.37.16-.872,2.081c-.364.869-.129,1.44.576,1.746s1.267.079,1.63-.789l.872-2.081.381.165-.879,2.1A1.5,1.5,0,0,1,350.265,363.8Z" transform="translate(-231.53 -128.018)" fill="none" stroke="#00325b" stroke-miterlimit="10" stroke-width="0.241"/>
              <path id="Trazado_598806" data-name="Trazado 598806" d="M357.961,359.79l.956.415.77-1.836-.957-.415c-.72-.312-1.241-.142-1.487.444S357.241,359.478,357.961,359.79Zm-2.163.824,1.406-.874a1.247,1.247,0,0,1-.34-1.507,1.357,1.357,0,0,1,2-.618l1.348.584-1.534,3.661-.381-.165.487-1.161-.967-.419a2.929,2.929,0,0,1-.281-.14l-1.316.82Z" transform="translate(-242.651 -127.289)" fill="none" stroke="#00325b" stroke-miterlimit="10" stroke-width="0.241"/>
              <path id="Trazado_598807" data-name="Trazado 598807" d="M363.642,354.193l-1.245,2.971,3.565-1.965.314.136L364.741,359l-.38-.165,1.245-2.97-3.559,1.967-.314-.136,1.534-3.661Z" transform="translate(-252.539 -126.08)" fill="none" stroke="#00325b" stroke-miterlimit="10" stroke-width="0.241"/>
              <path id="Trazado_598808" data-name="Trazado 598808" d="M373.116,355.025l-.041-2.34-1.688,1.591Zm-2.841.295-.4-.174,3.179-2.948.376.163.111,4.374-.4-.172-.022-1.164-2.006-.87Z" transform="translate(-265.047 -125.428)" fill="none" stroke="#00325b" stroke-miterlimit="10" stroke-width="0.241"/>
              <path id="Trazado_598809" data-name="Trazado 598809" d="M376.119,348.239l.41,3.385,2.7-2.036.314.136-1.534,3.661-.365-.158,1.221-2.913-2.441,1.834-.18-.078-.381-3.076-1.228,2.929-.365-.158,1.534-3.661Z" transform="translate(-273.882 -123.97)" fill="none" stroke="#00325b" stroke-miterlimit="10" stroke-width="0.241"/>
              <path id="Trazado_598810" data-name="Trazado 598810" d="M384.363,349.813l.57-1.36-1.861-.807.138-.33,1.861.807.546-1.3-2.088-.905.14-.335,2.469,1.07-1.534,3.661-2.546-1.1.14-.334Z" transform="translate(-285.49 -123.072)" fill="none" stroke="#00325b" stroke-miterlimit="10" stroke-width="0.241"/>
              <text id="CREDIT_CARD" data-name="CREDIT CARD" transform="matrix(-0.922, -0.388, -0.388, 0.922, 167.937, 196.588)" fill="#00325b" font-size="7" font-family="Montserrat-Regular, Montserrat"><tspan x="0" y="0" letter-spacing="0.04em">CREDIT </tspan><tspan y="0" letter-spacing="0.021em">C</tspan><tspan y="0" letter-spacing="0.039em">A</tspan><tspan y="0" letter-spacing="0.04em">R</tspan><tspan y="0">D</tspan></text>
              <path id="Trazado_598811" data-name="Trazado 598811" d="M277.681,299.962a2.941,2.941,0,0,1-1.679-1.7l.528-.216a2.372,2.372,0,0,0,1.349,1.379,2.434,2.434,0,0,0,3.306-1.312,2.506,2.506,0,0,0-1.359-3.334,2.339,2.339,0,0,0-1.908-.043l-.213-.536a2.856,2.856,0,0,1,2.359.057,3.078,3.078,0,0,1,1.7,4.1A2.989,2.989,0,0,1,277.681,299.962Z" transform="translate(-113.085 -104.691)" fill="none" stroke="#00325b" stroke-miterlimit="10" stroke-width="0.241"/>
              <path id="Trazado_598812" data-name="Trazado 598812" d="M287.938,293.86l1.465.635,1.178-2.812-1.465-.635c-1.1-.478-1.9-.218-2.276.679C286.47,292.608,286.835,293.381,287.938,293.86Zm-3.313,1.263,2.152-1.339a1.913,1.913,0,0,1-.522-2.31c.5-1.2,1.657-1.553,3.06-.945l2.064.895-2.351,5.608-.583-.253.746-1.778-1.481-.642a4.139,4.139,0,0,1-.431-.216l-2.016,1.256Z" transform="translate(-127.997 -103.362)" fill="none" stroke="#00325b" stroke-miterlimit="10" stroke-width="0.241"/>
              <path id="Trazado_598813" data-name="Trazado 598813" d="M297.494,291.969l.873-2.083-2.852-1.236.212-.5,2.852,1.236.836-2-3.2-1.387.215-.512,3.781,1.639-2.351,5.608-3.9-1.69.215-.512Z" transform="translate(-142.842 -101.67)" fill="none" stroke="#00325b" stroke-miterlimit="10" stroke-width="0.241"/>
              <path id="Trazado_598814" data-name="Trazado 598814" d="M306.556,288.4l1.921-4.583-1.631-.707a2.389,2.389,0,0,0-3.371,1.246,2.458,2.458,0,0,0,1.451,3.337Zm.368.765-2.246-.974a3.027,3.027,0,0,1-1.778-4.085,2.941,2.941,0,0,1,4.129-1.523l2.246.974Z" transform="translate(-157.489 -100.521)" fill="none" stroke="#00325b" stroke-miterlimit="10" stroke-width="0.241"/>
              <path id="Trazado_598815" data-name="Trazado 598815" d="M313.816,285.147l-.583-.253,2.351-5.608.583.253Z" transform="translate(-171.204 -99.462)" fill="none" stroke="#00325b" stroke-miterlimit="10" stroke-width="0.241"/>
              <path id="Trazado_598816" data-name="Trazado 598816" d="M316.654,282.147l-.583-.253,2.136-5.1-1.938-.84.215-.512,4.459,1.933-.215.512-1.938-.84Z" transform="translate(-177.807 -98.094)" fill="none" stroke="#00325b" stroke-miterlimit="10" stroke-width="0.241"/>
              <path id="Trazado_598817" data-name="Trazado 598817" d="M330.967,276.862a2.939,2.939,0,0,1-1.679-1.7l.528-.216a2.374,2.374,0,0,0,1.348,1.38,2.435,2.435,0,0,0,3.306-1.313,2.506,2.506,0,0,0-1.359-3.334,2.341,2.341,0,0,0-1.909-.042l-.212-.536a2.856,2.856,0,0,1,2.359.057,3.079,3.079,0,0,1,1.7,4.105A2.989,2.989,0,0,1,330.967,276.862Z" transform="translate(-200.68 -96.465)" fill="none" stroke="#00325b" stroke-miterlimit="10" stroke-width="0.241"/>
              <path id="Trazado_598818" data-name="Trazado 598818" d="M344.937,271.914l-.061-3.586-2.586,2.438Zm-4.351.453-.614-.266,4.872-4.515.574.249.171,6.7-.607-.263-.033-1.785-3.073-1.332Z" transform="translate(-217.842 -95.295)" fill="none" stroke="#00325b" stroke-miterlimit="10" stroke-width="0.241"/>
              <path id="Trazado_598819" data-name="Trazado 598819" d="M350.267,266.839l1.466.635,1.178-2.812-1.465-.636c-1.1-.478-1.9-.218-2.276.679C348.8,265.587,349.165,266.361,350.267,266.839Zm-3.312,1.263,2.152-1.339a1.912,1.912,0,0,1-.522-2.31c.5-1.2,1.657-1.553,3.06-.945l2.064.895-2.35,5.607-.583-.252.746-1.778-1.481-.642a4.425,4.425,0,0,1-.431-.216l-2.016,1.256Z" transform="translate(-230.459 -93.739)" fill="none" stroke="#00325b" stroke-miterlimit="10" stroke-width="0.241"/>
              <path id="Trazado_598820" data-name="Trazado 598820" d="M360.21,265.139l1.921-4.583-1.631-.707a2.389,2.389,0,0,0-3.371,1.246,2.458,2.458,0,0,0,1.45,3.337Zm.368.765-2.246-.973a3.026,3.026,0,0,1-1.778-4.085,2.941,2.941,0,0,1,4.129-1.523l2.245.973Z" transform="translate(-245.688 -92.238)" fill="none" stroke="#00325b" stroke-miterlimit="10" stroke-width="0.241"/>
              <path id="Trazado_598821" data-name="Trazado 598821" d="M433.723,225.045a6.563,6.563,0,0,0,.333-4.068,1.621,1.621,0,0,1,2.144-1.931,6.488,6.488,0,0,1,3.648,7.882,6.372,6.372,0,0,1-8.633,4.1l-.032-.014a1.651,1.651,0,0,1-.115-2.91,6.423,6.423,0,0,0,2.656-3.061" transform="translate(-370.502 -77.964)" fill="#fefeff"/>
              <path id="Trazado_598822" data-name="Trazado 598822" d="M455.413,213.06a6.5,6.5,0,0,1,.943.33,1.65,1.65,0,0,1,.115,2.91,6.432,6.432,0,0,0-2.656,3.062,6.562,6.562,0,0,0-.332,4.068,1.621,1.621,0,0,1-2.144,1.931l-.032-.014a6.555,6.555,0,0,1-3.068-9.176,6.384,6.384,0,0,1,7.174-3.111" transform="translate(-398.722 -75.804)" fill="#fefeff"/>
              <path id="Trazado_598823" data-name="Trazado 598823" d="M441.645,221.984a6.442,6.442,0,0,1,1.864-2.507,2.777,2.777,0,0,1,4.509,1.955,6.543,6.543,0,0,1-.487,3.1,6.448,6.448,0,0,1-1.864,2.508,2.778,2.778,0,0,1-4.51-1.955,6.568,6.568,0,0,1,.488-3.1" transform="translate(-385.431 -77.94)" fill="#fefeff"/>
            </g>
          </g>
          <g id="Grupo_156542" data-name="Grupo 156542" transform="translate(99.592 179.239)">
            <g id="Grupo_156541" data-name="Grupo 156541" clip-path="url(#clip-path-54)">
              <path id="Trazado_598824" data-name="Trazado 598824" d="M277.85,319.126s-20.295.261-30.2,19.605-.534,57.858-.534,57.858,2.811-27.288,16.051-42.584c7.391-8.538,15.868-18.7,14.686-34.879" transform="translate(-187.433 -292.889)" fill="#299c90"/>
              <g id="Grupo_156525" data-name="Grupo 156525" transform="translate(59.357 26.237)" opacity="0.45" style="mix-blend-mode: multiply;isolation: isolate">
                <g id="Grupo_156524" data-name="Grupo 156524">
                  <g id="Grupo_156523" data-name="Grupo 156523" clip-path="url(#clip-path-55)">
                    <path id="Trazado_598825" data-name="Trazado 598825" d="M259.474,354.005c7.39-8.538,15.868-18.7,14.686-34.879,0,0-13.176,9.218-19.994,21.415s-12.5,38.527-10.743,56.049c0,0,2.811-27.288,16.051-42.584" transform="translate(-243.101 -319.126)" fill="#299c90"/>
                  </g>
                </g>
              </g>
              <g id="Grupo_156528" data-name="Grupo 156528" transform="translate(58.926 26.237)" opacity="0.66" style="mix-blend-mode: multiply;isolation: isolate">
                <g id="Grupo_156527" data-name="Grupo 156527">
                  <g id="Grupo_156526" data-name="Grupo 156526" clip-path="url(#clip-path-56)">
                    <path id="Trazado_598826" data-name="Trazado 598826" d="M270.373,322.366c-1.415,1.144-2.817,2.31-4.16,3.543a69.837,69.837,0,0,0-7.521,7.957,48.345,48.345,0,0,0-4.472,6.58c-.013-.589,0-1.185.043-1.78a29.937,29.937,0,0,1,.513-3.7c.235-1.231.54-2.452.876-3.665s.713-2.418,1.144-3.605c-.523,1.15-.991,2.325-1.429,3.513s-.838,2.393-1.174,3.619a30.738,30.738,0,0,0-.822,3.743,16.914,16.914,0,0,0-.174,3.806c-.129.259-.261.517-.385.778a73.6,73.6,0,0,0-3.526,9.051,18.388,18.388,0,0,1-.727-2.474,30.027,30.027,0,0,1-.553-3.7c-.122-1.248-.175-2.505-.194-3.764s0-2.521.08-3.781c-.178,1.25-.294,2.51-.379,3.773s-.128,2.532-.1,3.8a30.8,30.8,0,0,0,.267,3.823,16.776,16.776,0,0,0,.941,3.8c.006.014.013.029.019.043a.606.606,0,0,0,.116.158c-.493,1.584-.914,3.188-1.353,4.786-.226.884-.431,1.773-.648,2.659l-.32,1.331L246.154,364c-.181.894-.374,1.785-.545,2.681l-.067.379c-.252-.6-.473-1.231-.666-1.867a30.049,30.049,0,0,1-.827-3.646c-.215-1.235-.361-2.485-.474-3.739s-.186-2.514-.2-3.776c-.084,1.26-.106,2.525-.1,3.791s.061,2.534.179,3.8a30.769,30.769,0,0,0,.552,3.792,16.851,16.851,0,0,0,1.184,3.631l-.058.329c-.169.9-.295,1.8-.426,2.7s-.271,1.8-.371,2.709q-.672,5.429-.83,10.9c-.016.911,0,1.823,0,2.734,0,.455,0,.91.011,1.365l.064,1.366.064,1.364.032.681.066.68.286,2.713a92.162,92.162,0,0,1,.063-10.877c.147-1.807.255-3.614.483-5.412.177-1.8.438-3.595.686-5.388.3-1.889.616-3.777.963-5.658a.6.6,0,0,0,.111-.576c.281-1.485.58-2.966.927-4.437l.291-1.325.324-1.317.655-2.633c.488-1.741.95-3.49,1.512-5.208a79.369,79.369,0,0,1,3.793-10.124c.117-.258.241-.512.364-.767a.6.6,0,0,0,.2-.419,50.234,50.234,0,0,1,5.028-8.009,77.176,77.176,0,0,1,7.189-8.106,89.287,89.287,0,0,1,8.149-7.206c-1.512,1.009-2.973,2.1-4.391,3.24" transform="translate(-243.274 -319.126)" fill="#299c90"/>
                  </g>
                </g>
              </g>
              <path id="Trazado_598827" data-name="Trazado 598827" d="M265.838,371.779s-11.764-6.37-23.682,1.581-18.894,33.129-18.894,33.129,10.384-14.8,22.919-19.353c7-2.541,15.139-5.664,19.657-15.358" transform="translate(-162.537 -310.78)" fill="#299c90"/>
              <g id="Grupo_156531" data-name="Grupo 156531" transform="translate(60.724 60.999)" opacity="0.45" style="mix-blend-mode: multiply;isolation: isolate">
                <g id="Grupo_156530" data-name="Grupo 156530">
                  <g id="Grupo_156529" data-name="Grupo 156529" clip-path="url(#clip-path-57)">
                    <path id="Trazado_598828" data-name="Trazado 598828" d="M246.181,388.472c7-2.54,15.139-5.663,19.657-15.358,0,0-10.544,1.073-18.387,5.9s-19.57,18.16-24.19,28.809c0,0,10.384-14.8,22.919-19.353" transform="translate(-223.262 -373.115)" fill="#299c90"/>
                  </g>
                </g>
              </g>
              <g id="Grupo_156534" data-name="Grupo 156534" transform="translate(60.724 60.158)" opacity="0.66" style="mix-blend-mode: multiply;isolation: isolate">
                <g id="Grupo_156533" data-name="Grupo 156533">
                  <g id="Grupo_156532" data-name="Grupo 156532" clip-path="url(#clip-path-58)">
                    <path id="Trazado_598829" data-name="Trazado 598829" d="M262.271,373.1c-1.182.2-2.364.425-3.533.7a46.055,46.055,0,0,0-6.885,2.163,31.915,31.915,0,0,0-4.687,2.351c.182-.343.383-.68.6-1.01a19.859,19.859,0,0,1,1.485-1.967c.531-.633,1.1-1.238,1.682-1.828s1.187-1.163,1.816-1.708c-.67.494-1.317,1.02-1.95,1.563s-1.251,1.108-1.839,1.706a20.414,20.414,0,0,0-1.675,1.89,11.128,11.128,0,0,0-1.323,2.134c-.158.108-.316.214-.472.324a48.472,48.472,0,0,0-4.937,4.076,12.009,12.009,0,0,1,.377-1.657,19.738,19.738,0,0,1,.869-2.306c.33-.757.7-1.5,1.1-2.228s.811-1.45,1.261-2.15c-.5.663-.975,1.35-1.431,2.049s-.887,1.416-1.282,2.156a20.337,20.337,0,0,0-1.074,2.286,11,11,0,0,0-.678,2.488.261.261,0,0,0,0,.031.383.383,0,0,0,.015.128c-.793.753-1.55,1.541-2.316,2.32-.414.437-.818.882-1.227,1.322l-.611.663-.591.681c-.391.457-.789.908-1.175,1.368l-.16.2c.049-.429.124-.86.216-1.288a19.75,19.75,0,0,1,.7-2.364c.273-.78.591-1.547.928-2.3s.7-1.507,1.1-2.238c-.453.7-.872,1.419-1.274,2.15s-.779,1.478-1.118,2.245a20.287,20.287,0,0,0-.9,2.36,11.138,11.138,0,0,0-.484,2.47l-.139.171c-.385.462-.748.941-1.113,1.418s-.735.95-1.084,1.44q-2.131,2.908-3.98,6.007c-.3.52-.585,1.05-.878,1.574-.144.263-.294.523-.432.789l-.4.806-.4.806-.2.4-.181.413-.707,1.653a60.676,60.676,0,0,1,3.531-6.24c.665-.993,1.308-2,2.017-2.96.681-.981,1.407-1.928,2.126-2.881.781-.99,1.568-1.976,2.372-2.948a.393.393,0,0,0,.249-.3c.639-.764,1.287-1.52,1.959-2.256l.593-.669.61-.654,1.223-1.3c.84-.845,1.668-1.7,2.543-2.512a52.311,52.311,0,0,1,5.436-4.609c.15-.111.3-.217.456-.324a.4.4,0,0,0,.249-.178,33.055,33.055,0,0,1,5.467-2.995,50.765,50.765,0,0,1,6.742-2.356,58.948,58.948,0,0,1,7-1.53c-1.194.1-2.385.252-3.568.455" transform="translate(-223.262 -371.809)" fill="#299c90"/>
                  </g>
                </g>
              </g>
              <path id="Trazado_598830" data-name="Trazado 598830" d="M293.643,324.01s22.055-5.047,37.869,13.306,15.776,62.538,15.776,62.538-10.212-28.823-28.574-41.916c-10.248-7.309-22.1-16.087-25.07-33.928" transform="translate(-289.303 -294.402)" fill="#299c90"/>
              <g id="Grupo_156537" data-name="Grupo 156537" transform="translate(4.34 29.608)" opacity="0.45" style="mix-blend-mode: multiply;isolation: isolate">
                <g id="Grupo_156536" data-name="Grupo 156536">
                  <g id="Grupo_156535" data-name="Grupo 156535" clip-path="url(#clip-path-59)">
                    <path id="Trazado_598831" data-name="Trazado 598831" d="M318.712,358.29c-10.249-7.309-22.1-16.087-25.07-33.928,0,0,16.694,6.525,27.285,17.947s23.658,38.455,26.359,57.9c0,0-10.212-28.823-28.574-41.917" transform="translate(-293.641 -324.362)" fill="#299c90"/>
                  </g>
                </g>
              </g>
              <g id="Grupo_156540" data-name="Grupo 156540" transform="translate(4.34 29.608)" opacity="0.66" style="mix-blend-mode: multiply;isolation: isolate">
                <g id="Grupo_156539" data-name="Grupo 156539">
                  <g id="Grupo_156538" data-name="Grupo 156538" clip-path="url(#clip-path-59)">
                    <path id="Trazado_598832" data-name="Trazado 598832" d="M299.249,326.719c1.834.868,3.659,1.763,5.438,2.746a77.79,77.79,0,0,1,10.237,6.644,53.875,53.875,0,0,1,6.573,5.955c-.141-.642-.316-1.283-.514-1.917a33.58,33.58,0,0,0-1.528-3.877c-.578-1.272-1.229-2.515-1.912-3.741s-1.408-2.432-2.187-3.6c.869,1.107,1.684,2.258,2.471,3.43s1.536,2.372,2.223,3.612a34.411,34.411,0,0,1,1.874,3.839,18.871,18.871,0,0,1,1.187,4.078c.209.247.419.491.622.742a81.97,81.97,0,0,1,6.2,8.878,20.4,20.4,0,0,0,.138-2.871,33.495,33.495,0,0,0-.372-4.151c-.2-1.384-.469-2.76-.779-4.128s-.664-2.731-1.08-4.075c.522,1.308.979,2.642,1.4,3.988s.8,2.709,1.113,4.092a34.249,34.249,0,0,1,.714,4.212,18.58,18.58,0,0,1-.023,4.36c0,.017-.006.035-.009.052a.671.671,0,0,1-.084.2c.95,1.586,1.827,3.214,2.723,4.83.476.9.933,1.807,1.4,2.711l.7,1.357.654,1.378c.431.921.874,1.836,1.295,2.761l.172.393c.115-.722.189-1.458.232-2.2a33.372,33.372,0,0,0-.061-4.167c-.092-1.394-.262-2.787-.469-4.175s-.458-2.772-.773-4.144c.422,1.343.779,2.707,1.1,4.081s.6,2.761.8,4.164a34.317,34.317,0,0,1,.4,4.253,18.848,18.848,0,0,1-.33,4.244l.149.341c.418.926.792,1.871,1.171,2.814s.767,1.882,1.113,2.838q2.155,5.7,3.763,11.592c.257.983.478,1.975.718,2.961.115.494.241.986.346,1.482l.29,1.5.289,1.494.144.747.107.753.4,3.015a102.644,102.644,0,0,0-2.926-11.767c-.634-1.919-1.225-3.848-1.944-5.736-.665-1.906-1.419-3.779-2.159-5.656-.825-1.967-1.659-3.93-2.529-5.877a.666.666,0,0,1-.272-.594c-.694-1.535-1.408-3.06-2.17-4.563l-.663-1.359-.7-1.342-1.4-2.68c-.986-1.758-1.946-3.531-3-5.244a88.506,88.506,0,0,0-6.768-9.972c-.194-.249-.4-.491-.6-.735a.669.669,0,0,1-.325-.4,55.985,55.985,0,0,0-7.551-7.356,86.063,86.063,0,0,0-9.918-6.893,99.649,99.649,0,0,0-10.72-5.666c1.9.7,3.772,1.492,5.607,2.357" transform="translate(-293.642 -324.362)" fill="#299c90"/>
                  </g>
                </g>
              </g>
            </g>
          </g>
          <g id="Grupo_156547" data-name="Grupo 156547">
            <g id="Grupo_156546" data-name="Grupo 156546" clip-path="url(#clip-path-2)">
              <path id="Trazado_598834" data-name="Trazado 598834" d="M180.783,84.144s25.21,8.459,28.025,42.328l52.62.2s-1.03-30.908-28.1-42.115Z" transform="translate(-31.185 -29.966)" fill="#fff"/>
              <g id="Grupo_156545" data-name="Grupo 156545" transform="translate(167.036 60.355)" opacity="0.3">
                <g id="Grupo_156544" data-name="Grupo 156544">
                  <g id="Grupo_156543" data-name="Grupo 156543" clip-path="url(#clip-path-62)">
                    <line id="Línea_426" data-name="Línea 426" x1="40.142" y2="0.207" transform="translate(17.103 30.273)" fill="none" stroke="#0a5487" stroke-miterlimit="10" stroke-width="0.902"/>
                    <line id="Línea_427" data-name="Línea 427" x1="38.923" y2="0.265" transform="translate(15.965 23.727)" fill="none" stroke="#0a5487" stroke-miterlimit="10" stroke-width="0.902"/>
                    <line id="Línea_428" data-name="Línea 428" x1="39.445" y2="0.44" transform="translate(13.201 17.18)" fill="none" stroke="#0a5487" stroke-miterlimit="10" stroke-width="0.902"/>
                    <line id="Línea_429" data-name="Línea 429" x1="39.561" y2="0.207" transform="translate(9.102 10.924)" fill="none" stroke="#0a5487" stroke-miterlimit="10" stroke-width="0.902"/>
                    <line id="Línea_430" data-name="Línea 430" x1="38.923" y2="0.614" transform="translate(4.364 5.132)" fill="none" stroke="#0a5487" stroke-miterlimit="10" stroke-width="0.902"/>
                    <line id="Línea_431" data-name="Línea 431" x1="37.529" y2="0.382" transform="translate(0.003 0.291)" fill="none" stroke="#0a5487" stroke-miterlimit="10" stroke-width="0.902"/>
                  </g>
                </g>
              </g>
              <path id="Trazado_598835" data-name="Trazado 598835" d="M172.027,83.652A18.393,18.393,0,1,0,193.255,68.62a18.393,18.393,0,0,0-21.228,15.032" transform="translate(27.5 -24.343)" fill="#d6802b"/>
              <path id="Trazado_598836" data-name="Trazado 598836" d="M170.133,82.052A18.393,18.393,0,1,0,191.361,67.02a18.392,18.392,0,0,0-21.228,15.032" transform="translate(30.614 -23.773)" fill="#fcba33"/>
              <path id="Trazado_598837" data-name="Trazado 598837" d="M176.508,85.042A14.25,14.25,0,1,0,192.955,73.4a14.25,14.25,0,0,0-16.446,11.646" transform="translate(28.322 -26.065)" fill="#fcba33"/>
              <path id="Trazado_598838" data-name="Trazado 598838" d="M194.81,90.458A14.25,14.25,0,0,0,176.3,74.524a14.249,14.249,0,1,1,10.473,26.451,14.228,14.228,0,0,0,8.034-10.518" transform="translate(36.563 -26.065)" fill="#d6802b"/>
              <path id="Trazado_598839" data-name="Trazado 598839" d="M204.29,107.506a15,15,0,0,0,6.11-.214,14.244,14.244,0,0,1-18.527-16.349,15.052,15.052,0,0,0,12.417,16.563" transform="translate(12.891 -32.387)" fill="#d6802b"/>
              <path id="Trazado_598840" data-name="Trazado 598840" d="M193.418,96.912l-.389,2.277,2.033.348.379-2.216a9.778,9.778,0,0,0,5.34-.761l-.694-2.671a8.336,8.336,0,0,1-4.19.769l.58-3.394c2.35-.164,5-.485,5.5-3.392.368-2.155-.881-4.273-4.03-5.187l.386-2.257-2.033-.348-.379,2.216a9.332,9.332,0,0,0-4.338.534l.589,2.675a8.436,8.436,0,0,1,3.291-.526l-.59,3.456c-2.347.143-4.955.471-5.445,3.338-.361,2.114.871,4.208,4,5.139m3.568-8.638.493-2.886c1.036.428,1.362,1.091,1.247,1.762-.121.711-.8.993-1.74,1.125m-4.334,4.3c.122-.711.777-1,1.7-1.153l-.48,2.805c-.978-.4-1.335-1-1.224-1.653" transform="translate(22.686 -28.518)" fill="#d6802b"/>
              <path id="Trazado_598841" data-name="Trazado 598841" d="M31.2,185.894a19.842,19.842,0,1,0,3.2-27.878,19.843,19.843,0,0,0-3.2,27.878" transform="translate(262.753 -54.74)" fill="#d6802b"/>
              <path id="Trazado_598842" data-name="Trazado 598842" d="M31.12,183.221a19.842,19.842,0,1,0,3.2-27.878,19.843,19.843,0,0,0-3.2,27.878" transform="translate(262.88 -53.789)" fill="#fcba33"/>
              <path id="Trazado_598843" data-name="Trazado 598843" d="M37.092,182.912a15.373,15.373,0,1,0,2.476-21.6,15.373,15.373,0,0,0-2.476,21.6" transform="translate(260.407 -56.26)" fill="#fcba33"/>
              <path id="Trazado_598844" data-name="Trazado 598844" d="M59.884,165.478a15.374,15.374,0,0,0-26.126,3.408,15.372,15.372,0,1,1,28.8,10.619,15.354,15.354,0,0,0-2.671-14.027" transform="translate(261.07 -56.261)" fill="#d6802b"/>
              <path id="Trazado_598845" data-name="Trazado 598845" d="M58.062,196.53a16.178,16.178,0,0,0,4.224-5.065,15.366,15.366,0,0,1-26.472,3.125,16.239,16.239,0,0,0,22.248,1.94" transform="translate(261.299 -68.186)" fill="#d6802b"/>
              <path id="Trazado_598846" data-name="Trazado 598846" d="M56.827,184.413l1.55,1.952,1.742-1.384-1.509-1.9a10.546,10.546,0,0,0,3.231-4.839l-2.646-1.364a8.989,8.989,0,0,1-2.4,3.921l-2.311-2.909c1.56-2.007,3.208-4.367,1.229-6.859-1.467-1.847-4.067-2.366-7.069-.494L47.111,168.6l-1.742,1.384,1.508,1.9a10.064,10.064,0,0,0-2.692,3.872l2.573,1.451a9.116,9.116,0,0,1,1.946-3.024l2.353,2.962c-1.574,1.989-3.188,4.322-1.236,6.779,1.439,1.811,4.009,2.328,7.007.486m-4.374-9.084-1.965-2.474c1.089-.524,1.856-.31,2.313.265.485.61.225,1.356-.348,2.208m.338,6.579c-.484-.61-.242-1.342.3-2.2l1.91,2.4c-1.023.5-1.766.352-2.209-.205" transform="translate(256.354 -60.045)" fill="#d6802b"/>
              <path id="Trazado_598847" data-name="Trazado 598847" d="M27.854,367.192a22.852,22.852,0,1,0,3.681-32.108,22.853,22.853,0,0,0-3.681,32.108" transform="translate(263.302 -117.567)" fill="#d6802b"/>
              <path id="Trazado_598848" data-name="Trazado 598848" d="M27.765,364.113a22.852,22.852,0,1,0,3.681-32.108,22.853,22.853,0,0,0-3.681,32.108" transform="translate(263.448 -116.471)" fill="#fcba33"/>
              <path id="Trazado_598849" data-name="Trazado 598849" d="M34.644,363.758A17.705,17.705,0,1,0,37.5,338.882a17.7,17.7,0,0,0-2.852,24.876" transform="translate(260.599 -119.318)" fill="#fcba33"/>
              <path id="Trazado_598850" data-name="Trazado 598850" d="M60.892,343.678A17.705,17.705,0,0,0,30.8,347.6a17.7,17.7,0,1,1,33.165,12.229,17.681,17.681,0,0,0-3.076-16.155" transform="translate(261.364 -119.318)" fill="#d6802b"/>
              <path id="Trazado_598851" data-name="Trazado 598851" d="M58.793,379.442a18.64,18.64,0,0,0,4.866-5.833,17.7,17.7,0,0,1-30.488,3.6,18.7,18.7,0,0,0,25.622,2.234" transform="translate(261.628 -133.053)" fill="#d6802b"/>
              <path id="Trazado_598852" data-name="Trazado 598852" d="M57.372,365.486l1.785,2.248,2.006-1.594-1.737-2.187a12.146,12.146,0,0,0,3.721-5.574L60.1,356.808a10.35,10.35,0,0,1-2.761,4.516l-2.661-3.35c1.8-2.311,3.7-5.03,1.416-7.9-1.69-2.127-4.685-2.725-8.142-.569l-1.769-2.227-2.006,1.594,1.737,2.187a11.588,11.588,0,0,0-3.1,4.459l2.964,1.672a10.482,10.482,0,0,1,2.241-3.482l2.709,3.412c-1.812,2.29-3.671,4.976-1.424,7.806,1.657,2.087,4.617,2.682,8.07.56m-5.038-10.462-2.263-2.849c1.255-.6,2.138-.357,2.664.306.558.7.258,1.561-.4,2.543m.39,7.577c-.558-.7-.278-1.546.345-2.532l2.2,2.769c-1.178.576-2.035.4-2.545-.237" transform="translate(255.932 -123.676)" fill="#d6802b"/>
              <path id="Trazado_598853" data-name="Trazado 598853" d="M65.817,274.726a15.8,15.8,0,1,0,21.214-7,15.8,15.8,0,0,0-21.214,7" transform="translate(209.636 -94.743)" fill="#d6802b"/>
              <path id="Trazado_598854" data-name="Trazado 598854" d="M63.86,273.889a15.8,15.8,0,1,0,21.214-7,15.8,15.8,0,0,0-21.214,7" transform="translate(212.853 -94.445)" fill="#fcba33"/>
              <path id="Trazado_598855" data-name="Trazado 598855" d="M69.005,277.458a12.238,12.238,0,1,0,16.435-5.42,12.237,12.237,0,0,0-16.435,5.42" transform="translate(210.885 -96.414)" fill="#fcba33"/>
              <path id="Trazado_598856" data-name="Trazado 598856" d="M78.878,288.589a12.237,12.237,0,0,0-11.185-17.742A12.237,12.237,0,1,1,69.633,295.2a12.222,12.222,0,0,0,9.245-6.613" transform="translate(221.442 -96.415)" fill="#d6802b"/>
              <path id="Trazado_598857" data-name="Trazado 598857" d="M93.886,297.345a12.885,12.885,0,0,0,5.07,1.362,12.219,12.219,0,0,1-12.472-13.924,12.2,12.2,0,0,1,1.377-4.164,12.926,12.926,0,0,0,6.025,16.725" transform="translate(192.08 -99.937)" fill="#d6802b"/>
              <path id="Trazado_598858" data-name="Trazado 598858" d="M80.306,290.356l-.893,1.771,1.581.8.869-1.724a8.392,8.392,0,0,0,4.576.72l.1-2.368a7.157,7.157,0,0,1-3.635-.424l1.332-2.641c1.971.458,4.226.861,5.367-1.4.845-1.677.352-3.73-2-5.274l.885-1.755-1.582-.8-.869,1.724a8.009,8.009,0,0,0-3.7-.653l-.189,2.344a7.241,7.241,0,0,1,2.834.4l-1.355,2.689c-1.963-.474-4.188-.861-5.311,1.369-.829,1.645-.344,3.675,1.988,5.226m5.1-6.194,1.132-2.246c.743.612.844,1.238.581,1.76-.279.554-.9.615-1.713.485M80.769,286.6c.279-.554.889-.623,1.689-.517l-1.1,2.182c-.7-.572-.844-1.159-.589-1.665" transform="translate(206.47 -98.74)" fill="#d6802b"/>
              <path id="Trazado_598859" data-name="Trazado 598859" d="M90.73,45.569a15.8,15.8,0,1,0,19.652,10.62A15.795,15.795,0,0,0,90.73,45.569" transform="translate(184.446 -15.992)" fill="#d6802b"/>
              <path id="Trazado_598860" data-name="Trazado 598860" d="M88.778,46.418a15.8,15.8,0,1,0,19.652,10.62,15.795,15.795,0,0,0-19.652-10.62" transform="translate(187.655 -16.295)" fill="#fcba33"/>
              <path id="Trazado_598861" data-name="Trazado 598861" d="M91.764,51.8a12.237,12.237,0,1,0,15.225,8.228A12.237,12.237,0,0,0,91.764,51.8" transform="translate(185.687 -18.263)" fill="#fcba33"/>
              <path id="Trazado_598862" data-name="Trazado 598862" d="M94.176,75.782A12.238,12.238,0,0,0,99.4,55.469,12.237,12.237,0,1,1,83.021,73.6a12.222,12.222,0,0,0,11.155,2.182" transform="translate(189.208 -19.754)" fill="#d6802b"/>
              <path id="Trazado_598863" data-name="Trazado 598863" d="M108.1,67.614a12.866,12.866,0,0,0,2.49,4.622,12.231,12.231,0,0,1,5.533-20.485A12.927,12.927,0,0,0,108.1,67.614" transform="translate(161.623 -18.43)" fill="#d6802b"/>
              <path id="Trazado_598864" data-name="Trazado 598864" d="M91.349,67.377l-1.9.567.506,1.7,1.85-.552a8.4,8.4,0,0,0,2.619,3.821l1.792-1.552a7.163,7.163,0,0,1-2.187-2.933l2.834-.845c1.021,1.747,2.276,3.664,4.7,2.94,1.8-.537,2.953-2.3,2.459-5.077l1.884-.562-.507-1.7-1.85.552a8.017,8.017,0,0,0-2.063-3.136l-1.834,1.472a7.259,7.259,0,0,1,1.657,2.333l-2.885.861c-1-1.752-2.249-3.635-4.642-2.921-1.765.527-2.908,2.272-2.435,5.033m8.008-.541,2.41-.719c.064.96-.321,1.464-.881,1.631-.594.177-1.068-.236-1.529-.912m-4.961-1.7c.594-.177,1.063.219,1.536.872l-2.342.7c-.066-.9.263-1.409.807-1.572" transform="translate(183.144 -21.581)" fill="#d6802b"/>
            </g>
          </g>
        </g>
      </g>
    </g>
    <g id="Grupo_156550" data-name="Grupo 156550" transform="translate(-1951.174 6873.564) rotate(-90)">
      <path id="Trazado_598333" data-name="Trazado 598333" d="M394.06,292.224,372.851,294.2,380.657,302,362.6,320.06a2.518,2.518,0,1,0,3.561,3.561l18.056-18.056,7.867,7.869Z" transform="translate(782.471 1854.946)" fill="#529d2e"/>
      <path id="Trazado_598334" data-name="Trazado 598334" d="M670.8,258.188l-41.112,3.826,15.129,15.133-35,35a4.882,4.882,0,1,0,6.9,6.9l35-35,15.25,15.252Z" transform="translate(559.761 1928.572)" fill="#fc8116"/>
      <path id="Trazado_598335" data-name="Trazado 598335" d="M584.978,168.785l-30.085,2.8,11.073,11.072-25.613,25.613a3.572,3.572,0,1,0,5.051,5.051l25.613-25.612,11.16,11.161Z" transform="translate(645.586 1962.39)" fill="#fcd03e"/>
    </g>
  </g>
</svg>
