<svg xmlns="http://www.w3.org/2000/svg" width="68" height="69" viewBox="0 0 68 69">
  <g id="Grupo_156328" data-name="Grupo 156328" transform="translate(-337 -1217)">
    <circle id="Elipse_5563" data-name="Elipse 5563" cx="34" cy="34" r="34" transform="translate(337 1217)" fill="#fff"/>
    <ellipse id="Elipse_5569" data-name="Elipse 5569" cx="22" cy="3" rx="22" ry="3" transform="translate(349 1280)" fill="#12263f" opacity="0.2"/>
    <g id="computadora" transform="translate(342 1226.3)">
      <path id="Trazado_598468" data-name="Trazado 598468" d="M164.189,462.5H138.667v-2.552a1.28,1.28,0,0,1,1.276-1.276h22.969a1.28,1.28,0,0,1,1.276,1.276V462.5Z" transform="translate(-122.078 -403.795)" fill="#d0d7df"/>
      <path id="Trazado_598469" data-name="Trazado 598469" d="M179.141,384l1.276,8.933H160L161.276,384Z" transform="translate(-140.859 -338.061)" fill="#a4b0c0"/>
      <path id="Trazado_598470" data-name="Trazado 598470" d="M58.7,3.828V42.111a3.823,3.823,0,0,1-3.828,3.828H3.828A3.823,3.823,0,0,1,0,42.111V3.828A3.823,3.823,0,0,1,3.828,0H54.871A3.823,3.823,0,0,1,58.7,3.828Z" transform="translate(0 0)" fill="#d0d7df"/>
      <path id="Trazado_598471" data-name="Trazado 598471" d="M99.272,54.609V85.235A1.28,1.28,0,0,1,98,86.511H54.609a1.28,1.28,0,0,1-1.276-1.276V54.609a1.28,1.28,0,0,1,1.276-1.276H98A1.28,1.28,0,0,1,99.272,54.609Z" transform="translate(-46.953 -46.953)" fill="#49aaee"/>
      <path id="Trazado_598472" data-name="Trazado 598472" d="M185.846,384H167.981l-.365,2.552h18.6Z" transform="translate(-147.564 -338.061)" fill="#8d98a6"/>
    </g>
    <g id="billete-de-banco" transform="translate(347.499 1176.918)">
      <g id="Grupo_156244" data-name="Grupo 156244" transform="translate(8.001 44.212)">
        <path id="Trazado_598366" data-name="Trazado 598366" d="M8.444,65.414,44.962,44.33a.888.888,0,0,1,1.21.324L57.383,64.072a.887.887,0,0,1-.324,1.21L20.54,86.365a.887.887,0,0,1-1.21-.324L8.12,66.624a.887.887,0,0,1,.324-1.21Z" transform="translate(-8.001 -44.212)" fill="#9ec63d" fill-rule="evenodd"/>
        <path id="Trazado_598367" data-name="Trazado 598367" d="M59.366,110.116,86.765,94.3a.441.441,0,0,1,.574.116,3.08,3.08,0,0,0,3.642.976.441.441,0,0,1,.555.187l5.945,10.3a.441.441,0,0,1-.116.574,3.08,3.08,0,0,0-.976,3.642.441.441,0,0,1-.187.555l-27.4,15.819a.441.441,0,0,1-.574-.116,3.08,3.08,0,0,0-3.642-.976.441.441,0,0,1-.555-.187l-5.945-10.3a.441.441,0,0,1,.116-.574,3.08,3.08,0,0,0,.976-3.642A.441.441,0,0,1,59.366,110.116Z" transform="translate(-53.035 -89.245)" fill="#c2ed56" fill-rule="evenodd"/>
      </g>
      <g id="Grupo_156246" data-name="Grupo 156246" transform="translate(11.057 53.483)">
        <path id="Trazado_598368" data-name="Trazado 598368" d="M39.5,137.115H81.668a.887.887,0,0,1,.886.886v22.421a.887.887,0,0,1-.886.886H39.5a.888.888,0,0,1-.886-.886V138a.887.887,0,0,1,.886-.886Z" transform="translate(-38.615 -137.115)" fill="#abd641" fill-rule="evenodd"/>
        <path id="Trazado_598369" data-name="Trazado 598369" d="M68.738,163.745h31.637a.441.441,0,0,1,.439.388,3.08,3.08,0,0,0,2.666,2.666.441.441,0,0,1,.388.439v11.891a.441.441,0,0,1-.388.439,3.08,3.08,0,0,0-2.666,2.666.441.441,0,0,1-.439.388H68.738a.441.441,0,0,1-.439-.388,3.08,3.08,0,0,0-2.666-2.666.441.441,0,0,1-.388-.439V167.238a.441.441,0,0,1,.388-.439,3.08,3.08,0,0,0,2.666-2.666A.441.441,0,0,1,68.738,163.745Z" transform="translate(-62.587 -161.087)" fill="#c2ed56" fill-rule="evenodd"/>
        <g id="Grupo_156245" data-name="Grupo 156245" transform="translate(7.724 5.452)">
          <path id="Trazado_598370" data-name="Trazado 598370" d="M370.93,242.235a1.606,1.606,0,1,1-1.606,1.606A1.606,1.606,0,0,1,370.93,242.235Z" transform="translate(-344.044 -237.197)" fill="#abd641" fill-rule="evenodd"/>
          <path id="Trazado_598371" data-name="Trazado 598371" d="M117.614,242.235a1.606,1.606,0,1,1-1.606,1.606A1.606,1.606,0,0,1,117.614,242.235Z" transform="translate(-116.008 -237.197)" fill="#abd641" fill-rule="evenodd"/>
          <circle id="Elipse_5560" data-name="Elipse 5560" cx="6.644" cy="6.644" r="6.644" transform="translate(7.602)" fill="#abd641"/>
        </g>
        <path id="Trazado_598372" data-name="Trazado 598372" d="M234.258,209.076a.8.8,0,1,1-1.472.618,1.286,1.286,0,0,0-.89-.765,1.662,1.662,0,0,0-.731-.018,1.369,1.369,0,0,0-.593.267.766.766,0,0,0-.3.646.643.643,0,0,0,.318.523,2.745,2.745,0,0,0,1.017.336,4.8,4.8,0,0,1,1.7.56,2.323,2.323,0,0,1,1.177,1.782c.008.064.013.142.015.234a2.1,2.1,0,0,1-.88,1.786,3.322,3.322,0,0,1-1.344.58v.261a.8.8,0,1,1-1.6,0v-.277a3.209,3.209,0,0,1-1.062-.449,2.679,2.679,0,0,1-1.14-1.609.8.8,0,0,1,1.547-.38,1.1,1.1,0,0,0,.473.661,1.835,1.835,0,0,0,1.053.278c.062,0,.141-.008.236-.02a1.849,1.849,0,0,0,.873-.31.576.576,0,0,0,.25-.483c0-.011,0-.039-.009-.085a.8.8,0,0,0-.416-.6,3.29,3.29,0,0,0-1.128-.354,4.261,4.261,0,0,1-1.628-.573,2.159,2.159,0,0,1-1.041-1.783,2.31,2.31,0,0,1,.882-1.956,2.93,2.93,0,0,1,1.111-.551v-.29a.8.8,0,0,1,1.6,0v.279l.007,0A2.851,2.851,0,0,1,234.258,209.076Z" transform="translate(-209.509 -199.397)" fill="#9ec63d" fill-rule="evenodd"/>
      </g>
    </g>
  </g>
</svg>
