<svg xmlns="http://www.w3.org/2000/svg" width="93" height="93" viewBox="0 0 93 93">
  <g id="Grupo_156604" data-name="Grupo 156604" transform="translate(-334 -6157)">
    <circle id="Elipse_5566" data-name="Elipse 5566" cx="46.5" cy="46.5" r="46.5" transform="translate(334 6157)" fill="#ffecdc"/>
    <g id="_24-Money" data-name="24-Money" transform="translate(346.207 6171.104)">
      <rect id="Rectángulo_44365" data-name="Rectángulo 44365" width="56.241" height="38.13" rx="4" transform="translate(3 7.546)" fill="#81c784"/>
      <path id="Trazado_598556" data-name="Trazado 598556" d="M58.83,12.466V41.5a4.465,4.465,0,0,1-4.466,4.466H7.466A4.465,4.465,0,0,1,3,41.5v-3.35a4.465,4.465,0,0,0,4.466,4.466H48.781a4.465,4.465,0,0,0,4.466-4.466V12.466A4.465,4.465,0,0,0,48.781,8h5.583a4.465,4.465,0,0,1,4.466,4.466Z" transform="translate(0 -0.021)" fill="#66bb6a"/>
      <path id="Trazado_598557" data-name="Trazado 598557" d="M52.664,18.583V34.216A5.585,5.585,0,0,0,47.081,39.8h-33.5A5.585,5.585,0,0,0,8,34.216V18.583A5.585,5.585,0,0,0,13.583,13h33.5A5.585,5.585,0,0,0,52.664,18.583Z" transform="translate(0.583 0.562)" fill="#a5d6a7"/>
      <circle id="Elipse_5575" data-name="Elipse 5575" cx="6.673" cy="6.673" r="6.673" transform="translate(23.971 19.938)" fill="#81c784"/>
      <path id="Trazado_598558" data-name="Trazado 598558" d="M34.991,25.7a6.7,6.7,0,0,1-6.7,6.7,6.5,6.5,0,0,1-2.792-.614,6.692,6.692,0,0,0,0-12.171A6.5,6.5,0,0,1,28.292,19a6.7,6.7,0,0,1,6.7,6.7Z" transform="translate(2.624 1.261)" fill="#66bb6a"/>
      <path id="Trazado_598559" data-name="Trazado 598559" d="M60.1,35.516H57.866V31.049a7.816,7.816,0,0,0-15.632,0v4.466H40V31.049a10.049,10.049,0,0,1,20.1,0Z" transform="translate(4.314 1.495)" fill="#636363"/>
      <path id="Trazado_598560" data-name="Trazado 598560" d="M39.233,34H61.565A2.233,2.233,0,0,1,63.8,36.233V54.1a4.466,4.466,0,0,1-4.466,4.466H41.466A4.466,4.466,0,0,1,37,54.1V36.233A2.233,2.233,0,0,1,39.233,34Z" transform="translate(3.965 3.011)" fill="#ffb74d"/>
      <path id="Trazado_598561" data-name="Trazado 598561" d="M63.8,36.233V54.1a4.465,4.465,0,0,1-4.466,4.466H41.466A4.465,4.465,0,0,1,37,54.1v-3.35a4.465,4.465,0,0,0,4.466,4.466H53.749a4.465,4.465,0,0,0,4.466-4.466V36.233A2.24,2.24,0,0,0,55.982,34h5.583A2.24,2.24,0,0,1,63.8,36.233Z" transform="translate(3.965 3.011)" fill="#ffa726"/>
      <path id="Trazado_598562" data-name="Trazado 598562" d="M52.7,43.35A3.35,3.35,0,1,0,47.447,46.1L46,51.166h6.7L51.253,46.1A3.343,3.343,0,0,0,52.7,43.35Z" transform="translate(5.014 3.71)" fill="#757575"/>
      <path id="Trazado_598563" data-name="Trazado 598563" d="M49.685,46.108l-1.452,5.058H46l1.452-5.058A3.348,3.348,0,0,1,49.35,40a3.1,3.1,0,0,1,1.117.2,3.314,3.314,0,0,0-2.233,3.149,3.351,3.351,0,0,0,1.452,2.758Z" transform="translate(5.014 3.71)" fill="#616161"/>
    </g>
  </g>
</svg>
