<svg xmlns="http://www.w3.org/2000/svg" xmlns:xlink="http://www.w3.org/1999/xlink" width="190" height="325" viewBox="0 0 190 325">
  <defs>
    <clipPath id="clip-path">
      <rect id="Rect치ngulo_43665" data-name="Rect치ngulo 43665" width="97.132" height="317.791" fill="none"/>
    </clipPath>
  </defs>
  <g id="Grupo_156084" data-name="Grupo 156084" transform="translate(-1230 -3461)">
    <g id="Grupo_156019" data-name="Grupo 156019">
      <rect id="Rect치ngulo_43666" data-name="Rect치ngulo 43666" width="190" height="325" transform="translate(1230 3461)" fill="#fff"/>
      <ellipse id="Elipse_5547" data-name="Elipse 5547" cx="62.5" cy="11.5" rx="62.5" ry="11.5" transform="translate(1230 3763)" fill="#e8e8e8"/>
      <g id="Grupo_156018" data-name="Grupo 156018" transform="translate(1252 3463.034)">
        <g id="Grupo_156018-2" data-name="Grupo 156018" clip-path="url(#clip-path)">
          <path id="Trazado_597873" data-name="Trazado 597873" d="M17.189,503.865a44.155,44.155,0,0,1-3.5,4.6c-1.541,1.644-7.441,4.584-7.473,9.466-.035,5.3,9.946,3.826,13.849,3.633s4.2-3.022,5.842-6.021,3.3-2.49,3.608-4.909-1.258-6.77-1.258-6.77Z" transform="translate(-2.518 -204.106)" fill="#163342"/>
          <path id="Trazado_597874" data-name="Trazado 597874" d="M24.993,498.874l-.333,2.67a19.013,19.013,0,0,0,11.067,0l-.3-3.409Z" transform="translate(-9.989 -201.785)" fill="#306b8c"/>
          <path id="Trazado_597875" data-name="Trazado 597875" d="M114.74,503.865a44.248,44.248,0,0,0,3.5,4.6c1.541,1.644,7.441,4.584,7.472,9.466.035,5.3-9.945,3.826-13.848,3.633s-4.2-3.022-5.842-6.021-3.3-2.49-3.608-4.909,1.258-6.77,1.258-6.77Z" transform="translate(-41.47 -204.106)" fill="#163342"/>
          <path id="Trazado_597876" data-name="Trazado 597876" d="M115.164,498.962l.46,2.57a19.01,19.01,0,0,1-11.066,0l.036-3.426Z" transform="translate(-42.355 -201.774)" fill="#306b8c"/>
          <path id="Trazado_597877" data-name="Trazado 597877" d="M90.644,318.816c0,6.528-6.355,68.665-6.355,68.665-.694,2.176-12.684,2.042-14.995.953s1.939-65.919,1.512-72.5-12.744-52.606-14.772-52.388S43.5,320.557,41.885,325.562s-6.053,62.569-6.053,62.569c-5.084,2.829-14.118.244-14.118.244s.233-64.555.925-66.3.527-6.746.759-23.066c.172-12.2,4.96-47.719,7.37-64.893.048-.341.978-6.944,1.358-9.517,12.644-5.488,38.682-2.845,51.605-.445.042.342.966,7.7,1.08,8.7,1.139,9.314,2.75,22.952,2.6,24.37-.231,2.176,3.236,55.054,3.236,61.583" transform="translate(-8.796 -89.673)" fill="#1c4154"/>
          <path id="Trazado_597878" data-name="Trazado 597878" d="M89.624,234.228c-33.427,8.542-49.894,1.246-53.766-.262q-.333-.131-.543-.2c-.2-.062-.134-.29-.134-.29l-1.513-8.149,3.495.066,1.84.035,46.226.867s1.383-.058,3.4-.1c.043.346.111.887.2,1.587.186,1.515.467,3.769.789,6.387,0,.018.005.037.007.056" transform="translate(-13.638 -91.276)" fill="#163342"/>
          <path id="Trazado_597879" data-name="Trazado 597879" d="M62.587,76.624S87.43,83.3,89.742,90.551s8.09,35.417,7.32,47.024-12.847,45.87-12.847,45.87-8.4-5.629-8.4-6.645,8.369-35.5,8.061-39.419S80.7,115.214,80.7,115.214s-3.67,38.513-3.67,44.461a29.861,29.861,0,0,1-1.582,9.98S63.289,174,43.345,173.022c0,0-26.653-.574-21.236-9.684,4.1-6.889.384-46.316-.232-46.605s-7.294,21.86-6.214,24.373,9.056,35.968,9.056,35.968-1.781.336-8.84,5.568c0,0-15.725-38.926-15.878-41.391S12.094,88.085,18.1,85.908s30.506-9.284,30.506-9.284Z" transform="translate(0 -31.039)" fill="#fc8116"/>
          <path id="Trazado_597880" data-name="Trazado 597880" d="M125.776,243.765s-1.147,3.977-2.847,4.808,7.588,9.6,7.588,9.6,4.053-7.845,3.968-8.647-8.71-5.756-8.71-5.756" transform="translate(-49.712 -98.745)" fill="#eea886"/>
          <path id="Trazado_597881" data-name="Trazado 597881" d="M114.073,246.717s10.477,12.089,11.2,12.476-4.376,9.589-4.376,9.589l-11.956-19.744Z" transform="translate(-44.128 -99.941)" fill="#1c4154"/>
          <path id="Trazado_597882" data-name="Trazado 597882" d="M35.3,244.513s1.12,3.984,2.815,4.824-7.648,9.554-7.648,9.554-4-7.868-3.914-8.67,8.747-5.708,8.747-5.708" transform="translate(-10.754 -99.048)" fill="#eea886"/>
          <path id="Trazado_597883" data-name="Trazado 597883" d="M42.324,246.717S31.994,257.912,31.276,258.3s4.376,9.59,4.376,9.59l11.954-19.745Z" transform="translate(-12.641 -99.941)" fill="#1c4154"/>
          <path id="Trazado_597884" data-name="Trazado 597884" d="M135.842,240.977s-7.316-4.226-8.4-6.645l5.511-15.681s9.645,4.976,2.884,22.326" transform="translate(-51.626 -88.572)" fill="#e55353"/>
          <path id="Trazado_597885" data-name="Trazado 597885" d="M134.439,121.183l-.451-.079c.023-.118,2.29-11.812-.927-18.44l.418-.18c3.279,6.754.985,18.58.961,18.7" transform="translate(-53.901 -41.514)" fill="#b84444"/>
          <path id="Trazado_597886" data-name="Trazado 597886" d="M132.345,121.242c-.014-.091-1.339-9.154-4.242-12.549l.357-.271c2.985,3.489,4.285,12.385,4.34,12.762Z" transform="translate(-51.892 -43.92)" fill="#b84444"/>
          <path id="Trazado_597887" data-name="Trazado 597887" d="M80.438,274.967l-.383-.239c.086-.123,8.632-12.356,9.689-18.912l.455.065c-1.073,6.65-9.406,18.581-9.761,19.086" transform="translate(-32.429 -103.626)" fill="#163342"/>
          <path id="Trazado_597888" data-name="Trazado 597888" d="M83.2,278.039l-.276-.346c.058-.041,5.894-4.224,8-8.334l.415.189c-2.158,4.205-7.9,8.318-8.14,8.491" transform="translate(-33.592 -109.112)" fill="#163342"/>
          <path id="Trazado_597889" data-name="Trazado 597889" d="M83.9,4.754s13.054,1.936,11.067,21.17S81.459,43.58,80.689,43.561s-11.566.351-12.408-23.132c0,0-.369-17.364,15.62-15.675" transform="translate(-27.659 -1.879)" fill="#eea886"/>
          <path id="Trazado_597890" data-name="Trazado 597890" d="M92.943,59.121s-.358,7.911.455,9.623-10.772,7.213-17.839,1.083c0,0,1.706-8.6,1.233-11.644s16.151.938,16.151.938" transform="translate(-30.608 -23.104)" fill="#eea886"/>
          <path id="Trazado_597891" data-name="Trazado 597891" d="M112.963,30.853s1.428-1.438,1.953.017-1.95,7.948-2.038,8.252c0,0-.261.564-.6.254s.689-8.523.689-8.523" transform="translate(-45.452 -12.241)" fill="#eea886"/>
          <path id="Trazado_597892" data-name="Trazado 597892" d="M67.482,30.429s-1.4-1.463-1.954-.018,1.766,7.981,1.87,8.287c0,0,.249.57.6.265s-.514-8.534-.514-8.534" transform="translate(-26.51 -12.061)" fill="#eea886"/>
          <path id="Trazado_597893" data-name="Trazado 597893" d="M94.137,21.562l-1.869,2.353a44.161,44.161,0,0,0-.247-5.967c-.3-.808-.759-3.279-1.009-3.862S79.8,10.611,70.12,14.93c0,0,.426,3.709-.5,4.039s-.472,6.04-.472,6.04l-1.537-1.632s-2.351-14.8-1.77-16.34S68.27-3.777,88.129,1.728c0,0,6.193-1.236,7.435,2.79s-1.427,17.044-1.427,17.044" transform="translate(-26.632 0)" fill="#d88a51"/>
          <path id="Trazado_597894" data-name="Trazado 597894" d="M85.624,68.068a9.73,9.73,0,0,1-2.741-.393,10.364,10.364,0,0,1-4.266-2.442l.228-.193A10.258,10.258,0,0,0,82.988,67.4c3.382.985,6.977.033,10.4-2.753l.2.218a12.529,12.529,0,0,1-7.961,3.2" transform="translate(-31.847 -26.189)" fill="#c58c71"/>
          <path id="Trazado_597895" data-name="Trazado 597895" d="M22.655,241.889s6.683-3.167,8.925-5.139l-3.089-12.806L16.935,227.8Z" transform="translate(-6.86 -90.716)" fill="#e55353"/>
          <path id="Trazado_597896" data-name="Trazado 597896" d="M93.393,76.677s2.945.592-9.379,11.715c0,0-8.743-9.106-8.459-10.631s17.839-1.084,17.839-1.084" transform="translate(-30.603 -31.036)" fill="#eea886"/>
          <path id="Trazado_597897" data-name="Trazado 597897" d="M89.778,87.3l3.363,5.416,9.977-15.953L98.8,73.927Z" transform="translate(-36.368 -29.946)" fill="#b84444"/>
          <path id="Trazado_597898" data-name="Trazado 597898" d="M81.069,88.08,72.906,75.85l-4.628,2.8,8.3,14.846Z" transform="translate(-27.658 -30.725)" fill="#b84444"/>
          <path id="Trazado_597899" data-name="Trazado 597899" d="M74.776,244.134s6.746.645,9.206-.181v-5.477H74.39Z" transform="translate(-30.134 -96.602)" fill="#963637"/>
          <path id="Trazado_597900" data-name="Trazado 597900" d="M108.509,241.536l.255-5.5,2.16-.3-.256,5.561Z" transform="translate(-43.955 -95.491)" fill="#1c4154"/>
          <path id="Trazado_597901" data-name="Trazado 597901" d="M55.374,242.038l-.256-5.505-2.159-.3.257,5.561Z" transform="translate(-21.453 -95.694)" fill="#1c4154"/>
          <path id="Trazado_597902" data-name="Trazado 597902" d="M127.446,242.493l.775-3.7,8.986,6.248-1.365,4.093s-7.347-3.543-8.4-6.645" transform="translate(-51.626 -96.732)" fill="#b84444"/>
          <path id="Trazado_597903" data-name="Trazado 597903" d="M34.389,242.636l-1-4.16s-9.037,4.686-9.523,5.371l1.594,3.929s6.889-2.829,8.925-5.14" transform="translate(-9.669 -96.602)" fill="#b84444"/>
          <path id="Trazado_597904" data-name="Trazado 597904" d="M82.524,183.434l-.459-.026c.024-.369,2.354-37.069,1.6-50.6-.759-13.569,2.729-30.08,2.766-30.244l.45.086c-.035.164-3.512,16.622-2.758,30.136.759,13.555-1.572,50.279-1.6,50.648" transform="translate(-33.243 -41.547)" fill="#b84444"/>
          <path id="Trazado_597905" data-name="Trazado 597905" d="M73.029,105.036s13.655,18.028,7.376,41.529-26.673,34.6-26.673,34.6h-7.4l2.148-5.875s24.053-16.538,26.47-35.47a74.689,74.689,0,0,0-4.257-34.783Z" transform="translate(-18.767 -42.548)" fill="#545554"/>
          <path id="Trazado_597906" data-name="Trazado 597906" d="M87.257,96.408l2.77,4.461s-2.6,1.728-6.472,0Z" transform="translate(-33.847 -39.053)" fill="#545554"/>
          <path id="Trazado_597907" data-name="Trazado 597907" d="M123.054,270.986c-3.3-3.346-7.548-10.929-7.59-11.005l.406-.2c.042.075,4.26,7.607,7.52,10.911Z" transform="translate(-46.772 -105.232)" fill="#163342"/>
          <path id="Trazado_597908" data-name="Trazado 597908" d="M37.009,265.44l-.337-.291c.051-.054,5.264-5.458,6.46-8.672l.432.143c-1.224,3.3-6.337,8.6-6.555,8.82" transform="translate(-14.855 -103.894)" fill="#163342"/>
        </g>
      </g>
    </g>
    <g id="ropa-deportiva" transform="translate(1321 3461)">
      <path id="Trazado_597969" data-name="Trazado 597969" d="M99,49.5a49.488,49.488,0,0,1-1.818,13.334c-1.907,6.831-7.6,5.963-12.016,11.26S77.591,90.854,71.34,93.932A48.837,48.837,0,0,1,65.961,96.2c-1.6.564-5.13-4.2-6.8-3.8-1.777.425-1.694,6-3.54,6.225A49.561,49.561,0,0,1,17.143,86.961c-.267-.23-.038-13.013-.3-13.247-4.964-4.478-9.507,2.6-12.334-3.544a49.537,49.537,0,0,1,9.854-55.537q.969-.975,1.99-1.9A49.337,49.337,0,0,1,49.5,0q1,0,2,.041A49.439,49.439,0,0,1,99,49.5Z" transform="translate(0)" fill="#ffecdc"/>
      <g id="Grupo_156077" data-name="Grupo 156077" transform="translate(4.511 0)">
        <path id="Trazado_597970" data-name="Trazado 597970" d="M87.616,45.876V86.961H35.962c-.267-.23-.528-.462-.789-.7A49.626,49.626,0,0,1,23.33,70.17V45.876a14.829,14.829,0,0,0,9.854-13.968V0h7.382a26.8,26.8,0,0,0,8.74,3.784,27.017,27.017,0,0,0,6.168.71A26.829,26.829,0,0,0,70.318.041L70.38,0h7.382V31.908a14.831,14.831,0,0,0,9.854,13.968Z" transform="translate(-23.33 0)" fill="#cbe7f8"/>
        <g id="Grupo_156076" data-name="Grupo 156076" transform="translate(0 0)">
          <path id="Trazado_597971" data-name="Trazado 597971" d="M35.173,0V86.265A49.626,49.626,0,0,1,23.33,70.17V45.876a14.829,14.829,0,0,0,9.854-13.968V0Z" transform="translate(-23.33)" fill="#8cade0"/>
          <path id="Trazado_597972" data-name="Trazado 597972" d="M142.283,0V13.939a14.907,14.907,0,1,1-29.815,0V0a26.83,26.83,0,0,0,14.907,4.494A26.829,26.829,0,0,0,142.283,0Z" transform="translate(-95.232)" fill="#8cade0"/>
        </g>
      </g>
      <g id="Grupo_156079" data-name="Grupo 156079" transform="translate(36.412 45.013)">
        <path id="Trazado_597973" data-name="Trazado 597973" d="M249.081,266.438a49.621,49.621,0,0,1-25.842,31.1L220.7,278.291,217.86,299.8a48.994,48.994,0,0,1-10.339,2.427l-16.505-2.177a3.11,3.11,0,0,1-2.678-3.49l4.747-35.965.485-3.68,27.563-4.505,26.691,4.505.485,3.68Z" transform="translate(-188.31 -248.617)" fill="#9d66d5"/>
        <path id="Trazado_597974" data-name="Trazado 597974" d="M200.842,259.812l-.528,4.006-5.169,39.149a3.14,3.14,0,0,0-.027.52l-4.1-.541a3.11,3.11,0,0,1-2.678-3.49l4.747-35.965.485-3.68L198.427,256Z" transform="translate(-188.31 -251.513)" fill="#8659b9"/>
        <path id="Trazado_597975" data-name="Trazado 597975" d="M269.765,241.093H215.51l.739-5.6a3.108,3.108,0,0,1,3.082-2.7h46.613a3.108,3.108,0,0,1,3.082,2.7Z" transform="translate(-210.251 -232.794)" fill="#e29e47"/>
        <g id="Grupo_156078" data-name="Grupo 156078" transform="translate(23.821 2.826)">
          <path id="Trazado_597976" data-name="Trazado 597976" d="M312.474,266.2a.967.967,0,0,1-.967-.967c0-1.9,1.293-2.836,2.332-3.591.98-.712,1.535-1.157,1.535-2.027s-.555-1.315-1.535-2.027c-1.039-.755-2.332-1.694-2.332-3.591s1.293-2.836,2.332-3.591c.98-.712,1.535-1.157,1.535-2.026a.967.967,0,0,1,1.934,0c0,1.9-1.293,2.836-2.332,3.591-.98.712-1.535,1.157-1.535,2.026s.555,1.315,1.535,2.027c1.039.755,2.332,1.694,2.332,3.591s-1.293,2.836-2.332,3.591c-.98.712-1.535,1.157-1.535,2.027A.967.967,0,0,1,312.474,266.2Z" transform="translate(-311.507 -247.411)" fill="#f6e781"/>
          <path id="Trazado_597977" data-name="Trazado 597977" d="M374.936,266.2a.967.967,0,0,0,.967-.967c0-1.9-1.293-2.836-2.332-3.591-.98-.712-1.535-1.157-1.535-2.027s.555-1.315,1.535-2.027c1.039-.755,2.332-1.694,2.332-3.591s-1.293-2.836-2.332-3.591c-.98-.712-1.535-1.157-1.535-2.026a.967.967,0,1,0-1.934,0c0,1.9,1.293,2.836,2.332,3.591.98.712,1.535,1.157,1.535,2.026s-.555,1.315-1.535,2.027c-1.039.755-2.332,1.694-2.332,3.591s1.293,2.836,2.332,3.591c.98.712,1.535,1.157,1.535,2.027A.967.967,0,0,0,374.936,266.2Z" transform="translate(-358.772 -247.411)" fill="#f6e781"/>
        </g>
      </g>
    </g>
  </g>
</svg>
