<svg xmlns="http://www.w3.org/2000/svg" xmlns:xlink="http://www.w3.org/1999/xlink" width="258.512" height="212.631" viewBox="0 0 258.512 212.631">
  <defs>
    <clipPath id="clip-path">
      <rect id="Rectángulo_43702" data-name="Rectángulo 43702" width="181.509" height="119.831" fill="none"/>
    </clipPath>
  </defs>
  <g id="Grupo_156120" data-name="Grupo 156120" transform="translate(-256 -2006)">
    <g id="Grupo_156010" data-name="Grupo 156010" transform="translate(5 -848.175)">
      <g id="Grupo_151793" data-name="Grupo 151793" transform="translate(-173.729 2346.788)">
        <g id="Grupo_97472" data-name="Grupo 97472" transform="translate(409.49 507.387)">
          <circle id="Elipse_5221" data-name="Elipse 5221" cx="100.227" cy="100.227" r="100.227" transform="translate(15.24 0)" fill="#a4dc88"/>
          <ellipse id="Elipse_5222" data-name="Elipse 5222" cx="107.084" cy="8.314" rx="107.084" ry="8.314" transform="translate(59.322 196.004)" fill="#529d2e"/>
          <line id="Línea_250" data-name="Línea 250" y2="16.632" transform="translate(108.184 122.586)" fill="#003889"/>
          <circle id="Elipse_5225" data-name="Elipse 5225" cx="8.015" cy="8.015" r="8.015" transform="translate(177.754 32.219) rotate(-45)" fill="#529d2e"/>
        </g>
      </g>
    </g>
    <g id="Grupo_156095" data-name="Grupo 156095" transform="translate(333 2091.324)">
      <rect id="Rectángulo_43670" data-name="Rectángulo 43670" width="69.189" height="62.668" transform="translate(77.672 42.082)" fill="#efdfeb"/>
      <rect id="Rectángulo_43671" data-name="Rectángulo 43671" width="68.805" height="11.405" transform="translate(78.056 42.082)" fill="#dbc1d6"/>
      <rect id="Rectángulo_43672" data-name="Rectángulo 43672" width="69.189" height="62.668" transform="translate(34.291 42.082)" fill="#f9eff7"/>
      <rect id="Rectángulo_43673" data-name="Rectángulo 43673" width="15.436" height="73.507" transform="translate(15.439 34.824)" fill="#efdfeb"/>
      <rect id="Rectángulo_43674" data-name="Rectángulo 43674" width="7.858" height="73.507" transform="translate(23.017 34.824)" fill="#dbc1d6"/>
      <rect id="Rectángulo_43675" data-name="Rectángulo 43675" width="97.947" height="6.058" transform="translate(13.392 37.451)" fill="#efdfeb"/>
      <rect id="Rectángulo_43676" data-name="Rectángulo 43676" width="15.436" height="73.507" transform="translate(95.902 34.824)" fill="#efdfeb"/>
      <rect id="Rectángulo_43677" data-name="Rectángulo 43677" width="7.858" height="73.507" transform="translate(103.48 34.824)" fill="#dbc1d6"/>
      <rect id="Rectángulo_43678" data-name="Rectángulo 43678" width="15.436" height="73.507" transform="translate(150.316 34.824)" fill="#efdfeb"/>
      <rect id="Rectángulo_43679" data-name="Rectángulo 43679" width="7.858" height="73.507" transform="translate(157.897 34.824)" fill="#dbc1d6"/>
      <rect id="Rectángulo_43680" data-name="Rectángulo 43680" width="57.47" height="6.058" transform="translate(110.754 37.451)" fill="#dbc1d6"/>
      <rect id="Rectángulo_43681" data-name="Rectángulo 43681" width="104.888" height="6.054" transform="translate(10.942 103.309)" fill="#efdfeb"/>
      <rect id="Rectángulo_43682" data-name="Rectángulo 43682" width="54.286" height="6.054" transform="translate(115.827 103.309)" fill="#dbc1d6"/>
      <rect id="Rectángulo_43683" data-name="Rectángulo 43683" width="97.916" height="3.032" transform="translate(13.425 37.448)" fill="#dbc1d6"/>
      <rect id="Rectángulo_43684" data-name="Rectángulo 43684" width="122.82" height="10.54" transform="translate(1.978 109.291)" fill="#efdfeb"/>
      <rect id="Rectángulo_43685" data-name="Rectángulo 43685" width="56.754" height="10.54" transform="translate(124.758 109.291)" fill="#dbc1d6"/>
      <rect id="Rectángulo_43686" data-name="Rectángulo 43686" width="64.746" height="3.032" transform="translate(103.48 37.448)" fill="#c9a9c4"/>
      <rect id="Rectángulo_43687" data-name="Rectángulo 43687" width="54.286" height="1.441" transform="translate(115.827 103.309)" fill="#c9a9c4"/>
      <rect id="Rectángulo_43688" data-name="Rectángulo 43688" width="56.754" height="1.441" transform="translate(124.758 109.294)" fill="#c9a9c4"/>
      <rect id="Rectángulo_43689" data-name="Rectángulo 43689" width="2.398" height="6.054" transform="translate(113.435 103.309)" fill="#f9eff7"/>
      <rect id="Rectángulo_43690" data-name="Rectángulo 43690" width="2.099" height="10.54" transform="translate(122.701 109.291)" fill="#f9eff7"/>
      <rect id="Rectángulo_43691" data-name="Rectángulo 43691" width="2.398" height="6.054" transform="translate(113.435 103.309)" fill="#f9eff7"/>
      <rect id="Rectángulo_43692" data-name="Rectángulo 43692" width="122.82" height="1.569" transform="translate(1.978 109.291)" fill="#f9eff7"/>
      <rect id="Rectángulo_43693" data-name="Rectángulo 43693" width="68.805" height="11.405" transform="translate(34.675 42.082)" fill="#efdfeb"/>
      <rect id="Rectángulo_43694" data-name="Rectángulo 43694" width="104.885" height="1.441" transform="translate(10.945 103.309)" fill="#f9eff7"/>
      <rect id="Rectángulo_43695" data-name="Rectángulo 43695" width="15.436" height="4.202" transform="translate(15.439 43.508)" fill="#dbc1d6"/>
      <rect id="Rectángulo_43696" data-name="Rectángulo 43696" width="15.436" height="4.202" transform="translate(95.902 43.508)" fill="#dbc1d6"/>
      <rect id="Rectángulo_43697" data-name="Rectángulo 43697" width="15.436" height="4.202" transform="translate(150.316 43.508)" fill="#dbc1d6"/>
      <g id="Grupo_156094" data-name="Grupo 156094" transform="translate(0 0)">
        <g id="Grupo_156093" data-name="Grupo 156093" clip-path="url(#clip-path)">
          <path id="Trazado_597998" data-name="Trazado 597998" d="M31.549,22.386H27.383a9.554,9.554,0,0,0-9.552,9.552V57.482H41.1V31.938a9.554,9.554,0,0,0-9.552-9.552" transform="translate(36.501 45.826)" fill="#c9a9c4"/>
          <path id="Trazado_597999" data-name="Trazado 597999" d="M28.307,22.418a9.547,9.547,0,0,0-8.257,9.455V57.416H36.562V31.873a9.549,9.549,0,0,0-8.254-9.455" transform="translate(41.043 45.892)" fill="#a57ea3"/>
          <rect id="Rectángulo_43698" data-name="Rectángulo 43698" width="8.236" height="10.022" transform="translate(117.759 68.028)" fill="#c9a9c4"/>
          <rect id="Rectángulo_43699" data-name="Rectángulo 43699" width="5.765" height="10.022" transform="translate(117.759 68.028)" fill="#a57ea3"/>
          <rect id="Rectángulo_43700" data-name="Rectángulo 43700" width="8.236" height="10.022" transform="translate(131.349 68.028)" fill="#c9a9c4"/>
          <rect id="Rectángulo_43701" data-name="Rectángulo 43701" width="5.765" height="10.022" transform="translate(131.349 68.028)" fill="#a57ea3"/>
          <path id="Trazado_598000" data-name="Trazado 598000" d="M73.9,0H20.818L84.16,37.622h53.18Z" transform="translate(42.616 0.001)" fill="#dbc1d6"/>
          <path id="Trazado_598001" data-name="Trazado 598001" d="M0,37.622H126.775L63.433,0Z" transform="translate(0 0.001)" fill="#efdfeb"/>
          <path id="Trazado_598002" data-name="Trazado 598002" d="M6.073,28.442H95.842L50.989,1.8Z" transform="translate(12.431 3.69)" fill="#dbc1d6"/>
          <path id="Trazado_598003" data-name="Trazado 598003" d="M8.523,25.336H85.338L46.958,2.541Z" transform="translate(17.446 5.203)" fill="#efdfeb"/>
          <path id="Trazado_598004" data-name="Trazado 598004" d="M21.65,0,20.413.734,82.52,37.622h2.471Z" transform="translate(41.785 0.001)" fill="#f9eff7"/>
        </g>
      </g>
    </g>
    <g id="cambio-de-divisas" transform="translate(-172 1844.189)">
      <g id="Icon" transform="translate(452 196)">
        <g id="Grupo_156086" data-name="Grupo 156086" transform="translate(0 49.11)">
          <circle id="Elipse_5551" data-name="Elipse 5551" cx="32.571" cy="32.571" r="32.571" transform="translate(0 0)" fill="#ffce4b"/>
        </g>
        <g id="Grupo_156087" data-name="Grupo 156087" transform="translate(48.857)">
          <circle id="Elipse_5552" data-name="Elipse 5552" cx="32.571" cy="32.571" r="32.571" transform="translate(0)" fill="#ffce4b"/>
        </g>
        <g id="Grupo_156088" data-name="Grupo 156088" transform="translate(8.143 57.252)">
          <circle id="Elipse_5553" data-name="Elipse 5553" cx="24.429" cy="24.429" r="24.429" fill="#f9b32f"/>
        </g>
        <g id="Grupo_156089" data-name="Grupo 156089" transform="translate(57 8.143)">
          <circle id="Elipse_5554" data-name="Elipse 5554" cx="24.429" cy="24.429" r="24.429" fill="#f9b32f"/>
        </g>
        <g id="Grupo_156090" data-name="Grupo 156090" transform="translate(22.393 63.36)">
          <path id="Trazado_597994" data-name="Trazado 597994" d="M223.143,359.072a8.143,8.143,0,1,0,0,16.286V383.5a4.07,4.07,0,0,1-4.071-4.071,2.036,2.036,0,0,0-4.071,0,8.143,8.143,0,0,0,8.143,8.143v2.036a2.036,2.036,0,0,0,4.071,0v-2.036a8.143,8.143,0,0,0,0-16.286v-8.143a4.07,4.07,0,0,1,4.071,4.071,2.036,2.036,0,0,0,4.071,0,8.143,8.143,0,0,0-8.143-8.143v-2.036a2.036,2.036,0,0,0-4.071,0Zm4.071,16.286V383.5a4.071,4.071,0,0,0,0-8.143Zm-4.071-12.214a4.071,4.071,0,0,0,0,8.143Z" transform="translate(-215 -355)" fill="#ffce4b" fill-rule="evenodd"/>
        </g>
        <path id="Trazado_597995" data-name="Trazado 597995" d="M489.275,213.143h-2.239a2.036,2.036,0,0,0,0,4.071h2.036v4.071h-2.036a2.036,2.036,0,0,0,0,4.071h2.239a10.18,10.18,0,0,0,20.154-2.036,2.036,2.036,0,0,0-4.071,0,6.108,6.108,0,0,1-11.866,2.036h5.759a2.036,2.036,0,0,0,0-4.071h-6.107v-4.071h6.107a2.036,2.036,0,0,0,0-4.071h-5.759a6.108,6.108,0,0,1,11.866,2.036,2.036,2.036,0,0,0,4.071,0,10.18,10.18,0,0,0-20.154-2.036Z" transform="translate(-417.821 -186.679)" fill="#ffce4b" fill-rule="evenodd"/>
        <g id="Grupo_156091" data-name="Grupo 156091" transform="translate(0 0.001)">
          <path id="Trazado_597996" data-name="Trazado 597996" d="M348.429,588.143H336.214A12.214,12.214,0,0,0,324,600.357v24.429a4.071,4.071,0,0,0,8.143,0V600.357a4.07,4.07,0,0,1,4.071-4.072h12.214v4.072a4.071,4.071,0,0,0,6.329,3.387l12.214-8.143a4.07,4.07,0,0,0,0-6.775l-12.214-8.143a4.071,4.071,0,0,0-6.329,3.387Z" transform="translate(-324 -580)" fill="#2dcc70" fill-rule="evenodd"/>
        </g>
        <g id="Grupo_156092" data-name="Grupo 156092" transform="translate(114 113.999) rotate(180)">
          <path id="Trazado_597997" data-name="Trazado 597997" d="M24.429,8.142H12.214A12.214,12.214,0,0,0,0,20.357V44.785a4.071,4.071,0,0,0,8.143,0V20.357a4.07,4.07,0,0,1,4.071-4.072H24.429v4.072a4.071,4.071,0,0,0,6.329,3.387L42.972,15.6a4.07,4.07,0,0,0,0-6.775L30.758.683a4.071,4.071,0,0,0-6.329,3.387Z" fill="#ff6c5c" fill-rule="evenodd"/>
        </g>
      </g>
    </g>
  </g>
</svg>
