<svg xmlns="http://www.w3.org/2000/svg" width="180" height="180" viewBox="0 0 180 180">
  <g id="Grupo_156614" data-name="Grupo 156614" transform="translate(-397 -3993)">
    <g id="Grupo_156126" data-name="Grupo 156126" transform="translate(0 517)">
      <circle id="Elipse_5231" data-name="Elipse 5231" cx="90" cy="90" r="90" transform="translate(397 3476)" fill="#fff"/>
    </g>
    <g id="_x37_7" transform="translate(434.859 4027.14)">
      <g id="Grupo_156196" data-name="Grupo 156196" transform="translate(9.155 2.86)">
        <path id="Trazado_598336" data-name="Trazado 598336" d="M99.321,10.417v98.165a8.8,8.8,0,0,1-8.8,8.8H21.066a8.8,8.8,0,0,1-8.8-8.8V10.417a7.624,7.624,0,0,0-2.2-5.353,7.624,7.624,0,0,0-5.353-2.2H91.764a7.525,7.525,0,0,1,7.557,7.557Z" transform="translate(-4.712 -2.86)" fill="#e4e3ff"/>
      </g>
      <g id="Grupo_156207" data-name="Grupo 156207" transform="translate(26.585 44.4)">
        <g id="Grupo_156197" data-name="Grupo 156197" transform="translate(15.243)">
          <path id="Trazado_598337" data-name="Trazado 598337" d="M47.465,22.183h0a2.173,2.173,0,0,1-2.173,2.173H20.374A2.173,2.173,0,0,1,18.2,22.183h0a2.173,2.173,0,0,1,2.173-2.173H45.292A2.173,2.173,0,0,1,47.465,22.183Z" transform="translate(-18.201 -20.01)" fill="#d0d0f7"/>
        </g>
        <g id="Grupo_156198" data-name="Grupo 156198" transform="translate(0 10.106)">
          <path id="Trazado_598338" data-name="Trazado 598338" d="M71.658,26.355h0a2.173,2.173,0,0,1-2.173,2.173h-55.4a2.173,2.173,0,0,1-2.173-2.173h0a2.173,2.173,0,0,1,2.173-2.173h55.4A2.173,2.173,0,0,1,71.658,26.355Z" transform="translate(-11.908 -24.182)" fill="#d0d0f7"/>
        </g>
        <g id="Grupo_156199" data-name="Grupo 156199" transform="translate(15.26 1.332)">
          <path id="Trazado_598339" data-name="Trazado 598339" d="M47.438,21.415a2.157,2.157,0,0,1-2.156,2.156H20.364a2.157,2.157,0,0,1-2.156-2.156,2.206,2.206,0,0,1,.186-.855,2.112,2.112,0,0,0,1.97,1.339H45.282a2.112,2.112,0,0,0,1.97-1.339A2.206,2.206,0,0,1,47.438,21.415Z" transform="translate(-18.208 -20.56)" fill="#c2c2ef"/>
        </g>
        <g id="Grupo_156200" data-name="Grupo 156200" transform="translate(0.017 11.442)">
          <path id="Trazado_598340" data-name="Trazado 598340" d="M71.631,25.553a2.165,2.165,0,0,1-2.156,2.193h-55.4a2.165,2.165,0,0,1-2.156-2.193,1.56,1.56,0,0,1,.186-.819,2.135,2.135,0,0,0,1.97,1.3h55.4a2.135,2.135,0,0,0,1.97-1.3A1.56,1.56,0,0,1,71.631,25.553Z" transform="translate(-11.915 -24.734)" fill="#c2c2ef"/>
        </g>
        <g id="Grupo_156203" data-name="Grupo 156203" transform="translate(0 20.212)">
          <g id="Grupo_156201" data-name="Grupo 156201">
            <path id="Trazado_598341" data-name="Trazado 598341" d="M52.28,30.527h0A2.173,2.173,0,0,1,50.108,32.7H14.081a2.173,2.173,0,0,1-2.173-2.173h0a2.173,2.173,0,0,1,2.173-2.173H50.108A2.173,2.173,0,0,1,52.28,30.527Z" transform="translate(-11.908 -28.355)" fill="#d0d0f7"/>
          </g>
          <g id="Grupo_156202" data-name="Grupo 156202" transform="translate(0.017 1.342)">
            <path id="Trazado_598342" data-name="Trazado 598342" d="M52.254,29.725A2.166,2.166,0,0,1,50.1,31.919H14.071a2.166,2.166,0,0,1-2.156-2.193,1.554,1.554,0,0,1,.186-.817,2.136,2.136,0,0,0,1.97,1.3H50.1a2.136,2.136,0,0,0,1.97-1.3A1.554,1.554,0,0,1,52.254,29.725Z" transform="translate(-11.915 -28.909)" fill="#c2c2ef"/>
          </g>
        </g>
        <g id="Grupo_156206" data-name="Grupo 156206" transform="translate(0 31.732)">
          <g id="Grupo_156204" data-name="Grupo 156204">
            <path id="Trazado_598343" data-name="Trazado 598343" d="M52.28,35.283h0a2.173,2.173,0,0,1-2.173,2.173H14.081a2.173,2.173,0,0,1-2.173-2.173h0a2.173,2.173,0,0,1,2.173-2.173H50.108A2.173,2.173,0,0,1,52.28,35.283Z" transform="translate(-11.908 -33.111)" fill="#d0d0f7"/>
          </g>
          <g id="Grupo_156205" data-name="Grupo 156205" transform="translate(0.017 1.342)">
            <path id="Trazado_598344" data-name="Trazado 598344" d="M52.254,34.481A2.166,2.166,0,0,1,50.1,36.675H14.071a2.166,2.166,0,0,1-2.156-2.193,1.554,1.554,0,0,1,.186-.817,2.136,2.136,0,0,0,1.97,1.3H50.1a2.136,2.136,0,0,0,1.97-1.3A1.554,1.554,0,0,1,52.254,34.481Z" transform="translate(-11.915 -33.665)" fill="#c2c2ef"/>
          </g>
        </g>
      </g>
      <g id="Grupo_156208" data-name="Grupo 156208" transform="translate(17.245 3.126)">
        <path id="Trazado_598345" data-name="Trazado 598345" d="M94.572,10.261v98.17a8.807,8.807,0,0,1-8.792,8.792H16.312a8.772,8.772,0,0,1-8.26-5.813,8.47,8.47,0,0,0,2.931.509H80.451a8.807,8.807,0,0,0,8.792-8.792V4.956a7.71,7.71,0,0,0-.266-1.986,7.485,7.485,0,0,1,5.6,7.291Z" transform="translate(-8.052 -2.97)" fill="#d0d0f7"/>
      </g>
      <g id="Grupo_156211" data-name="Grupo 156211" transform="translate(69.509 56.43)">
        <g id="Grupo_156209" data-name="Grupo 156209">
          <path id="Trazado_598346" data-name="Trazado 598346" d="M72.969,41.908a13.855,13.855,0,0,1,1.873,8.329L74.273,55.9,55.321,67.115l-.349.2-3.4-1.05L33.955,60.8a5.39,5.39,0,0,1-1.1-9.808,5.227,5.227,0,0,1,3.8-.618l5.5,1.135L37.033,42.8,30.21,31.074A4.045,4.045,0,0,1,31.7,25.427a3.9,3.9,0,0,1,5.17,1.474l8.089,13.881a3.927,3.927,0,0,1,6.76-4l-.383-.653a4.087,4.087,0,0,1,.992-5.444,3.917,3.917,0,0,1,5.606,1.219L58.72,33.2a3.912,3.912,0,0,1,1.407-5.336,3.372,3.372,0,0,1,.948-.381,3.882,3.882,0,0,1,4.41,1.775Z" transform="translate(-29.63 -24.977)" fill="#d0d0f7"/>
        </g>
        <g id="Grupo_156210" data-name="Grupo 156210" transform="translate(24.515 30.864)">
          <path id="Trazado_598347" data-name="Trazado 598347" d="M62.748,38.912l3.925,6.654a2.428,2.428,0,0,1-.855,3.325L47.339,59.809a2.428,2.428,0,0,1-3.325-.855L40.089,52.3a2.428,2.428,0,0,1,.855-3.325L59.423,38.057A2.428,2.428,0,0,1,62.748,38.912Z" transform="translate(-39.751 -37.719)" fill="#d0d0f7"/>
        </g>
      </g>
      <g id="Grupo_156212" data-name="Grupo 156212" transform="translate(1.588 2.86)">
        <path id="Trazado_598348" data-name="Trazado 598348" d="M16.712,10.422v10.5H3.879a2.291,2.291,0,0,1-2.291-2.291V10.422A7.562,7.562,0,0,1,9.15,2.86h0a7.562,7.562,0,0,1,7.562,7.562Z" transform="translate(-1.588 -2.86)" fill="#d0d0f7"/>
      </g>
      <g id="Grupo_156213" data-name="Grupo 156213" transform="translate(5.425 2.86)">
        <path id="Trazado_598349" data-name="Trazado 598349" d="M14.459,10.417V20.929H12.013v-9.64A7.457,7.457,0,0,0,9.785,5.936a7.524,7.524,0,0,0-5.329-2.2,7.431,7.431,0,0,0-1.284.121A7.459,7.459,0,0,1,6.9,2.86a7.525,7.525,0,0,1,7.557,7.557Z" transform="translate(-3.172 -2.86)" fill="#c2c2ef"/>
      </g>
      <g id="Grupo_156214" data-name="Grupo 156214" transform="translate(70.492 55.447)">
        <path id="Trazado_598350" data-name="Trazado 598350" d="M73.375,41.5a13.854,13.854,0,0,1,1.873,8.329l-.569,5.664L55.727,66.709l-.349.2-3.4-1.05-17.619-5.47a5.39,5.39,0,0,1-1.1-9.808,5.227,5.227,0,0,1,3.8-.618l5.5,1.135-5.114-8.711L30.616,30.668A4.045,4.045,0,0,1,32.1,25.021a3.9,3.9,0,0,1,5.17,1.474l8.089,13.881a3.927,3.927,0,0,1,6.76-4l-.383-.653a4.087,4.087,0,0,1,.992-5.444A3.917,3.917,0,0,1,58.337,31.5l.789,1.294a3.912,3.912,0,0,1,1.407-5.336,3.372,3.372,0,0,1,.948-.381,3.882,3.882,0,0,1,4.41,1.775Z" transform="translate(-30.035 -24.571)" fill="#f4b37d"/>
      </g>
      <g id="Grupo_156215" data-name="Grupo 156215" transform="translate(92.436 57.795)">
        <path id="Trazado_598351" data-name="Trazado 598351" d="M60.49,40.123a13.854,13.854,0,0,1,1.873,8.329l-.569,5.664L42.842,65.33l-.349.2-3.4-1.05L53.2,56.143a11.14,11.14,0,0,0,5.457-8.562,13.883,13.883,0,0,0-1.852-8.342c-7.835-13.1-7.33-12.7-8.213-13.54a3.882,3.882,0,0,1,4.41,1.775Z" transform="translate(-39.095 -25.54)" fill="#f2a764"/>
      </g>
      <g id="Grupo_156216" data-name="Grupo 156216" transform="translate(95.007 86.311)">
        <path id="Trazado_598352" data-name="Trazado 598352" d="M63.154,38.506l3.925,6.654a2.428,2.428,0,0,1-.855,3.325L47.745,59.4a2.428,2.428,0,0,1-3.325-.855l-3.925-6.654a2.428,2.428,0,0,1,.855-3.325L59.829,37.651A2.428,2.428,0,0,1,63.154,38.506Z" transform="translate(-40.157 -37.313)" fill="#529d2e"/>
      </g>
      <g id="Grupo_156217" data-name="Grupo 156217" transform="translate(99.937 86.314)">
        <path id="Trazado_598353" data-name="Trazado 598353" d="M60.258,38.5l3.929,6.661a2.425,2.425,0,0,1-.854,3.32L44.847,59.4a2.427,2.427,0,0,1-2.655-.125,2.354,2.354,0,0,0,.849-.3L61.518,48.06a2.436,2.436,0,0,0,.857-3.333l-3.924-6.653a2.369,2.369,0,0,0-.664-.729A2.426,2.426,0,0,1,60.258,38.5Z" transform="translate(-42.192 -37.314)" fill="#529d2e"/>
      </g>
      <g id="Grupo_156219" data-name="Grupo 156219" transform="translate(100.884 94.382)" opacity="0.3">
        <g id="Grupo_156218" data-name="Grupo 156218">
          <path id="Trazado_598354" data-name="Trazado 598354" d="M48.552,42.36l-4.591,2.625a.919.919,0,1,1-.919-1.591l4.591-2.625a.919.919,0,0,1,.919,1.591Z" transform="translate(-42.583 -40.645)" fill="#fff"/>
        </g>
      </g>
      <g id="Grupo_156221" data-name="Grupo 156221" transform="translate(97.301 98.761)" opacity="0.3">
        <g id="Grupo_156220" data-name="Grupo 156220">
          <path id="Trazado_598355" data-name="Trazado 598355" d="M43.141,44.168l-.659.381a.919.919,0,0,1-.919-1.591l.659-.381a.919.919,0,1,1,.919,1.591Z" transform="translate(-41.104 -42.453)" fill="#fff"/>
        </g>
      </g>
      <g id="Grupo_156226" data-name="Grupo 156226" transform="translate(75.504 64.094)">
        <g id="Grupo_156223" data-name="Grupo 156223" transform="translate(2.2 3.693)" opacity="0.3">
          <g id="Grupo_156222" data-name="Grupo 156222">
            <path id="Trazado_598356" data-name="Trazado 598356" d="M36.3,36.585l-3.155-5.5a.947.947,0,1,1,1.64-.947l3.155,5.5a.947.947,0,0,1-1.64.947Z" transform="translate(-33.013 -29.666)" fill="#fff"/>
          </g>
        </g>
        <g id="Grupo_156225" data-name="Grupo 156225" opacity="0.3">
          <g id="Grupo_156224" data-name="Grupo 156224">
            <path id="Trazado_598357" data-name="Trazado 598357" d="M32.624,30.241l-.392-.679a.947.947,0,0,1,1.64-.947l.392.679a.947.947,0,1,1-1.64.947Z" transform="translate(-32.105 -28.141)" fill="#fff"/>
          </g>
        </g>
      </g>
      <g id="Grupo_156227" data-name="Grupo 156227" transform="translate(35.164 14.85)">
        <path id="Trazado_598358" data-name="Trazado 598358" d="M66.131,11.123V22.2a3.313,3.313,0,0,1-3.313,3.313H18.763A3.313,3.313,0,0,1,15.45,22.2V11.123A3.313,3.313,0,0,1,18.763,7.81H62.819a3.313,3.313,0,0,1,3.313,3.313Z" transform="translate(-15.45 -7.81)" fill="#a2a2f9"/>
      </g>
      <g id="Grupo_156228" data-name="Grupo 156228" transform="translate(35.266 15.068)">
        <path id="Trazado_598359" data-name="Trazado 598359" d="M66.067,11V22.069a3.308,3.308,0,0,1-3.318,3.318H18.714a3.278,3.278,0,0,1-3.221-2.567,3.081,3.081,0,0,0,1.066.193H60.617A3.308,3.308,0,0,0,63.935,19.7V8.626a2.5,2.5,0,0,0-.1-.726A3.222,3.222,0,0,1,66.067,11Z" transform="translate(-15.492 -7.9)" fill="#7979f7"/>
      </g>
      <g id="Grupo_156233" data-name="Grupo 156233" transform="translate(20.743 41.053)">
        <g id="Grupo_156230" data-name="Grupo 156230" transform="translate(0 6.09)" opacity="0.4">
          <g id="Grupo_156229" data-name="Grupo 156229">
            <path id="Trazado_598360" data-name="Trazado 598360" d="M10.713,46.3A1.216,1.216,0,0,1,9.5,45.087V22.359a1.216,1.216,0,0,1,2.432,0V45.087A1.216,1.216,0,0,1,10.713,46.3Z" transform="translate(-9.497 -21.143)" fill="#fff"/>
          </g>
        </g>
        <g id="Grupo_156232" data-name="Grupo 156232" opacity="0.4">
          <g id="Grupo_156231" data-name="Grupo 156231">
            <path id="Trazado_598361" data-name="Trazado 598361" d="M10.713,22.668A1.216,1.216,0,0,1,9.5,21.452V19.844a1.216,1.216,0,1,1,2.432,0v1.607A1.216,1.216,0,0,1,10.713,22.668Z" transform="translate(-9.497 -18.628)" fill="#fff"/>
          </g>
        </g>
      </g>
      <g id="Grupo_156238" data-name="Grupo 156238" transform="translate(57.851 6.621)">
        <g id="Grupo_156235" data-name="Grupo 156235" transform="translate(6.09)" opacity="0.4">
          <g id="Grupo_156234" data-name="Grupo 156234">
            <path id="Trazado_598362" data-name="Trazado 598362" d="M52.492,5.629a1.216,1.216,0,0,1-1.216,1.216H28.547a1.216,1.216,0,1,1,0-2.432H51.276A1.216,1.216,0,0,1,52.492,5.629Z" transform="translate(-27.331 -4.413)" fill="#fff"/>
          </g>
        </g>
        <g id="Grupo_156237" data-name="Grupo 156237" opacity="0.4">
          <g id="Grupo_156236" data-name="Grupo 156236">
            <path id="Trazado_598363" data-name="Trazado 598363" d="M28.856,5.629A1.216,1.216,0,0,1,27.64,6.845H26.033a1.216,1.216,0,0,1,0-2.432H27.64A1.216,1.216,0,0,1,28.856,5.629Z" transform="translate(-24.817 -4.413)" fill="#fff"/>
          </g>
        </g>
      </g>
      <g id="Grupo_156243" data-name="Grupo 156243" transform="translate(39.356 19.103)">
        <g id="Grupo_156240" data-name="Grupo 156240" transform="translate(6.09 0)" opacity="0.4">
          <g id="Grupo_156239" data-name="Grupo 156239">
            <path id="Trazado_598364" data-name="Trazado 598364" d="M35.167,10.782A1.216,1.216,0,0,1,33.951,12H20.911a1.216,1.216,0,0,1,0-2.432h13.04A1.216,1.216,0,0,1,35.167,10.782Z" transform="translate(-19.695 -9.566)" fill="#fff"/>
          </g>
        </g>
        <g id="Grupo_156242" data-name="Grupo 156242" transform="translate(0 0)" opacity="0.4">
          <g id="Grupo_156241" data-name="Grupo 156241">
            <path id="Trazado_598365" data-name="Trazado 598365" d="M21.22,10.782A1.216,1.216,0,0,1,20,12H18.4a1.216,1.216,0,0,1,0-2.432H20A1.216,1.216,0,0,1,21.22,10.782Z" transform="translate(-17.181 -9.566)" fill="#fff"/>
          </g>
        </g>
      </g>
    </g>
    <g id="billete-de-banco" transform="translate(411 4024.597)">
      <g id="Grupo_156244" data-name="Grupo 156244" transform="translate(8.001 44.212)">
        <path id="Trazado_598366" data-name="Trazado 598366" d="M8.681,76.764l56.067-32.37a1.363,1.363,0,0,1,1.858.5L83.818,74.7a1.363,1.363,0,0,1-.5,1.858l-56.067,32.37a1.363,1.363,0,0,1-1.858-.5L8.183,78.621a1.362,1.362,0,0,1,.5-1.858Z" transform="translate(-8.001 -44.212)" fill="#9ec63d" fill-rule="evenodd"/>
        <path id="Trazado_598367" data-name="Trazado 598367" d="M60.083,118.617,102.149,94.33a.677.677,0,0,1,.882.178,4.729,4.729,0,0,0,5.592,1.5.677.677,0,0,1,.853.287L118.6,112.1a.677.677,0,0,1-.178.882,4.729,4.729,0,0,0-1.5,5.592.677.677,0,0,1-.287.853L74.575,143.717a.677.677,0,0,1-.882-.178,4.729,4.729,0,0,0-5.592-1.5.677.677,0,0,1-.853-.287L58.12,125.943a.677.677,0,0,1,.178-.882,4.728,4.728,0,0,0,1.5-5.592.677.677,0,0,1,.287-.853Z" transform="translate(-50.363 -86.573)" fill="#c2ed56" fill-rule="evenodd"/>
      </g>
      <g id="Grupo_156246" data-name="Grupo 156246" transform="translate(12.692 58.446)">
        <path id="Trazado_598368" data-name="Trazado 598368" d="M39.975,137.115h64.741a1.363,1.363,0,0,1,1.36,1.36V172.9a1.363,1.363,0,0,1-1.36,1.36H39.975a1.363,1.363,0,0,1-1.36-1.36V138.475a1.363,1.363,0,0,1,1.36-1.36Z" transform="translate(-38.615 -137.115)" fill="#abd641" fill-rule="evenodd"/>
        <path id="Trazado_598369" data-name="Trazado 598369" d="M70.609,163.745h48.573a.677.677,0,0,1,.675.6,4.729,4.729,0,0,0,4.094,4.094.677.677,0,0,1,.6.675v18.256a.677.677,0,0,1-.6.675,4.728,4.728,0,0,0-4.094,4.094.677.677,0,0,1-.675.6H70.609a.677.677,0,0,1-.675-.6,4.728,4.728,0,0,0-4.094-4.094.677.677,0,0,1-.6-.675V169.109a.677.677,0,0,1,.6-.675,4.728,4.728,0,0,0,4.094-4.094A.677.677,0,0,1,70.609,163.745Z" transform="translate(-61.165 -159.665)" fill="#c2ed56" fill-rule="evenodd"/>
        <g id="Grupo_156245" data-name="Grupo 156245" transform="translate(11.858 8.371)">
          <path id="Trazado_598370" data-name="Trazado 598370" d="M371.789,242.235a2.465,2.465,0,1,1-2.465,2.465A2.465,2.465,0,0,1,371.789,242.235Z" transform="translate(-330.51 -234.5)" fill="#abd641" fill-rule="evenodd"/>
          <path id="Trazado_598371" data-name="Trazado 598371" d="M118.473,242.235a2.465,2.465,0,1,1-2.465,2.465A2.465,2.465,0,0,1,118.473,242.235Z" transform="translate(-116.008 -234.5)" fill="#abd641" fill-rule="evenodd"/>
          <circle id="Elipse_5560" data-name="Elipse 5560" cx="10.201" cy="10.201" r="10.201" transform="translate(11.671)" fill="#abd641"/>
        </g>
        <path id="Trazado_598372" data-name="Trazado 598372" d="M237.365,210.561a1.225,1.225,0,0,1-2.26.948,1.974,1.974,0,0,0-1.366-1.175,2.552,2.552,0,0,0-1.122-.028,2.1,2.1,0,0,0-.91.41,1.175,1.175,0,0,0-.453.993.987.987,0,0,0,.488.8,4.214,4.214,0,0,0,1.561.516,7.369,7.369,0,0,1,2.6.86,3.567,3.567,0,0,1,1.808,2.736c.012.1.019.218.023.36a3.223,3.223,0,0,1-1.351,2.743,5.1,5.1,0,0,1-2.063.89v.4a1.226,1.226,0,1,1-2.452,0v-.426a4.927,4.927,0,0,1-1.631-.69,4.114,4.114,0,0,1-1.75-2.47,1.223,1.223,0,0,1,2.375-.584,1.7,1.7,0,0,0,.726,1.014,2.817,2.817,0,0,0,1.617.427c.095,0,.216-.012.363-.03a2.839,2.839,0,0,0,1.341-.477.884.884,0,0,0,.384-.741c0-.017,0-.06-.013-.13a1.231,1.231,0,0,0-.639-.927,5.054,5.054,0,0,0-1.732-.544,6.543,6.543,0,0,1-2.5-.88,3.315,3.315,0,0,1-1.6-2.738,3.546,3.546,0,0,1,1.354-3,4.5,4.5,0,0,1,1.706-.846v-.446a1.226,1.226,0,1,1,2.452,0v.429l.01,0a4.377,4.377,0,0,1,3.032,2.6Z" transform="translate(-199.366 -195.701)" fill="#9ec63d" fill-rule="evenodd"/>
      </g>
    </g>
  </g>
</svg>
