<svg xmlns="http://www.w3.org/2000/svg" xmlns:xlink="http://www.w3.org/1999/xlink" width="400" height="234" viewBox="0 0 400 234">
  <defs>
    <clipPath id="clip-path">
      <rect id="Rectángulo_44094" data-name="Rectángulo 44094" width="39.131" height="52.364" fill="none"/>
    </clipPath>
    <clipPath id="clip-path-3">
      <rect id="Rectángulo_44085" data-name="Rectángulo 44085" width="25.29" height="5.605" fill="none"/>
    </clipPath>
    <clipPath id="clip-path-5">
      <rect id="Rectángulo_44087" data-name="Rectángulo 44087" width="25.29" height="5.604" fill="none"/>
    </clipPath>
    <clipPath id="clip-path-11">
      <rect id="Rectángulo_44095" data-name="Rectángulo 44095" width="111.376" height="78.82" fill="none"/>
    </clipPath>
    <clipPath id="clip-path-12">
      <rect id="Rectángulo_44084" data-name="Rectángulo 44084" width="105" height="102.54" fill="none"/>
    </clipPath>
    <clipPath id="clip-path-13">
      <rect id="Rectángulo_44101" data-name="Rectángulo 44101" width="57.91" height="130.599" fill="none"/>
    </clipPath>
    <clipPath id="clip-path-14">
      <rect id="Rectángulo_44102" data-name="Rectángulo 44102" width="21.99" height="34.551" fill="none"/>
    </clipPath>
  </defs>
  <g id="Grupo_156609" data-name="Grupo 156609" transform="translate(-600 -1189)">
    <path id="Trazado_598870" data-name="Trazado 598870" d="M0,0H400V233H0Z" transform="translate(600 1189)" fill="#e5f0e0"/>
    <path id="Trazado_598869" data-name="Trazado 598869" d="M0,0H400V60H0Z" transform="translate(600 1363)" fill="#f3f7db"/>
    <path id="Trazado_598871" data-name="Trazado 598871" d="M.967,19V6.2h4.6a6.509,6.509,0,0,1,3.757.905,3.012,3.012,0,0,1,1.288,2.628,3.045,3.045,0,0,1-.457,1.7A2.663,2.663,0,0,1,8.807,12.47a2.7,2.7,0,0,1,1.538.984,2.862,2.862,0,0,1,.536,1.758A3.388,3.388,0,0,1,9.69,18.038,5.667,5.667,0,0,1,6.161,19Zm3.085-5.44v3.067H6.073a1.923,1.923,0,0,0,1.283-.382A1.338,1.338,0,0,0,7.8,15.168,1.419,1.419,0,0,0,6.214,13.56Zm0-2.021H5.66a2.285,2.285,0,0,0,1.441-.37A1.314,1.314,0,0,0,7.532,10.1a1.379,1.379,0,0,0-.466-1.168,2.493,2.493,0,0,0-1.5-.357H4.052ZM17.8,19a3.344,3.344,0,0,1-.281-.853,2.754,2.754,0,0,1-2.285,1.028,3.374,3.374,0,0,1-2.285-.813,2.588,2.588,0,0,1-.94-2.043,2.66,2.66,0,0,1,1.143-2.338,5.821,5.821,0,0,1,3.322-.791h.914v-.5q0-1.316-1.134-1.316A.927.927,0,0,0,15.2,12.413H12.234a2.655,2.655,0,0,1,1.173-2.239,4.931,4.931,0,0,1,2.993-.86,4.323,4.323,0,0,1,2.874.888,3.086,3.086,0,0,1,1.081,2.435v4.21a4.311,4.311,0,0,0,.4,2V19Zm-1.854-1.934a1.652,1.652,0,0,0,.918-.237,1.487,1.487,0,0,0,.523-.536V14.772h-.861q-1.547,0-1.547,1.389a.848.848,0,0,0,.272.655A.986.986,0,0,0,15.943,17.066ZM25.119,19H22.148V5.5h2.971ZM32.3,19a3.344,3.344,0,0,1-.281-.853,2.754,2.754,0,0,1-2.285,1.028,3.374,3.374,0,0,1-2.285-.813,2.588,2.588,0,0,1-.94-2.043,2.66,2.66,0,0,1,1.143-2.338,5.821,5.821,0,0,1,3.322-.791h.914v-.5q0-1.316-1.134-1.316A.927.927,0,0,0,29.7,12.413H26.736a2.655,2.655,0,0,1,1.173-2.239,4.931,4.931,0,0,1,2.993-.86,4.323,4.323,0,0,1,2.874.888,3.086,3.086,0,0,1,1.081,2.435v4.21a4.311,4.311,0,0,0,.4,2V19Zm-1.854-1.934a1.652,1.652,0,0,0,.918-.237,1.487,1.487,0,0,0,.523-.536V14.772h-.861q-1.547,0-1.547,1.389a.848.848,0,0,0,.272.655A.986.986,0,0,0,30.445,17.066ZM39.217,9.49l.1,1.116a3.225,3.225,0,0,1,2.716-1.292,2.713,2.713,0,0,1,2.219.888,4.226,4.226,0,0,1,.76,2.672V19H42.038V13a1.6,1.6,0,0,0-.29-1.059,1.342,1.342,0,0,0-1.055-.338,1.413,1.413,0,0,0-1.292.686V19H36.439V9.49Zm11.452,7.4a1.317,1.317,0,0,0,.967-.338,1.241,1.241,0,0,0,.334-.945h2.777a3.288,3.288,0,0,1-1.121,2.566,4.168,4.168,0,0,1-2.887,1,4.22,4.22,0,0,1-3.27-1.3,5.125,5.125,0,0,1-1.2-3.6v-.123a5.792,5.792,0,0,1,.532-2.544,3.872,3.872,0,0,1,1.534-1.7,4.573,4.573,0,0,1,2.373-.593,4.116,4.116,0,0,1,2.944,1.028,3.647,3.647,0,0,1,1.09,2.786H51.97A1.626,1.626,0,0,0,51.609,12a1.244,1.244,0,0,0-.967-.4q-1.151,0-1.345,1.468a10.357,10.357,0,0,0-.062,1.283,4.068,4.068,0,0,0,.343,1.986A1.187,1.187,0,0,0,50.669,16.891ZM60.6,19.176a4.889,4.889,0,0,1-3.542-1.305,4.507,4.507,0,0,1-1.354-3.4v-.246a5.84,5.84,0,0,1,.541-2.575,3.955,3.955,0,0,1,1.578-1.727,4.763,4.763,0,0,1,2.461-.611,4.117,4.117,0,0,1,3.164,1.244,4.887,4.887,0,0,1,1.16,3.467v1.151H58.72a2.135,2.135,0,0,0,.694,1.257,2.066,2.066,0,0,0,1.389.457,2.662,2.662,0,0,0,2.2-.984l1.354,1.6a3.784,3.784,0,0,1-1.569,1.217A5.3,5.3,0,0,1,60.6,19.176ZM60.267,11.6q-1.3,0-1.547,1.723h2.988v-.229a1.467,1.467,0,0,0-.36-1.1A1.434,1.434,0,0,0,60.267,11.6Zm9.668,2.575a6.421,6.421,0,0,1,.475-2.549,3.821,3.821,0,0,1,1.362-1.709,3.591,3.591,0,0,1,2.065-.6,2.855,2.855,0,0,1,2.32,1l.105-.826h2.689V18.64a4.009,4.009,0,0,1-.584,2.184,3.75,3.75,0,0,1-1.692,1.424,6.219,6.219,0,0,1-2.566.5,5.365,5.365,0,0,1-2.026-.4,3.657,3.657,0,0,1-1.5-1.028l1.239-1.74a2.716,2.716,0,0,0,2.18.976,1.764,1.764,0,0,0,1.969-2.021v-.3a2.781,2.781,0,0,1-2.153.94,3.437,3.437,0,0,1-2.812-1.332,5.517,5.517,0,0,1-1.072-3.564Zm2.971.185a3.383,3.383,0,0,0,.439,1.85,1.387,1.387,0,0,0,1.23.681,1.573,1.573,0,0,0,1.4-.642v-4a1.534,1.534,0,0,0-1.38-.65,1.4,1.4,0,0,0-1.239.708A3.858,3.858,0,0,0,72.905,14.359Zm12.331,4.816a4.889,4.889,0,0,1-3.542-1.305,4.507,4.507,0,0,1-1.354-3.4v-.246a5.84,5.84,0,0,1,.541-2.575,3.955,3.955,0,0,1,1.578-1.727,4.763,4.763,0,0,1,2.461-.611,4.117,4.117,0,0,1,3.164,1.244,4.887,4.887,0,0,1,1.16,3.467v1.151H83.355a2.135,2.135,0,0,0,.694,1.257,2.066,2.066,0,0,0,1.389.457,2.662,2.662,0,0,0,2.2-.984l1.354,1.6a3.784,3.784,0,0,1-1.569,1.217A5.3,5.3,0,0,1,85.236,19.176ZM84.9,11.6q-1.3,0-1.547,1.723h2.988v-.229a1.467,1.467,0,0,0-.36-1.1A1.434,1.434,0,0,0,84.9,11.6ZM93.155,9.49l.1,1.116a3.225,3.225,0,0,1,2.716-1.292,2.713,2.713,0,0,1,2.219.888,4.226,4.226,0,0,1,.76,2.672V19H95.977V13a1.6,1.6,0,0,0-.29-1.059,1.342,1.342,0,0,0-1.055-.338,1.413,1.413,0,0,0-1.292.686V19H90.378V9.49Zm12.032,9.686a4.889,4.889,0,0,1-3.542-1.305,4.507,4.507,0,0,1-1.354-3.4v-.246a5.84,5.84,0,0,1,.541-2.575,3.955,3.955,0,0,1,1.578-1.727,4.763,4.763,0,0,1,2.461-.611,4.117,4.117,0,0,1,3.164,1.244,4.887,4.887,0,0,1,1.16,3.467v1.151h-5.889A2.135,2.135,0,0,0,104,16.434a2.066,2.066,0,0,0,1.389.457,2.662,2.662,0,0,0,2.2-.984l1.354,1.6a3.784,3.784,0,0,1-1.569,1.217A5.3,5.3,0,0,1,105.188,19.176Zm-.334-7.576q-1.3,0-1.547,1.723h2.988v-.229a1.467,1.467,0,0,0-.36-1.1A1.434,1.434,0,0,0,104.854,11.6Zm11.285.571-.976-.07a1.752,1.752,0,0,0-1.793.879V19h-2.962V9.49h2.777l.1,1.222a2.294,2.294,0,0,1,2.083-1.4,2.888,2.888,0,0,1,.826.105ZM122.3,19a3.344,3.344,0,0,1-.281-.853,2.754,2.754,0,0,1-2.285,1.028,3.374,3.374,0,0,1-2.285-.813,2.588,2.588,0,0,1-.94-2.043,2.66,2.66,0,0,1,1.143-2.338,5.821,5.821,0,0,1,3.322-.791h.914v-.5q0-1.316-1.134-1.316a.927.927,0,0,0-1.055,1.042h-2.962a2.655,2.655,0,0,1,1.173-2.239,4.931,4.931,0,0,1,2.993-.86,4.323,4.323,0,0,1,2.874.888,3.086,3.086,0,0,1,1.081,2.435v4.21a4.311,4.311,0,0,0,.4,2V19Zm-1.854-1.934a1.652,1.652,0,0,0,.918-.237,1.487,1.487,0,0,0,.523-.536V14.772h-.861q-1.547,0-1.547,1.389a.848.848,0,0,0,.272.655A.986.986,0,0,0,120.445,17.066ZM129.621,19H126.65V5.5h2.971Z" transform="translate(642 1377)" fill="#12263f"/>
    <g id="Grupo_156292" data-name="Grupo 156292">
      <g id="Grupo_156180" data-name="Grupo 156180" transform="translate(420 -2)">
        <g id="Grupo_156136" data-name="Grupo 156136" transform="translate(-794 -801.046)">
          <g id="Grupo_156008" data-name="Grupo 156008" transform="translate(1091 2006)">
            <g id="Grupo_151790" data-name="Grupo 151790" transform="translate(0)">
              <g id="Grupo_97472" data-name="Grupo 97472" transform="translate(0 0)">
                <path id="Trazado_212833" data-name="Trazado 212833" d="M105,0c57.99,0,105,2.389,105,5.335s-47.01,5.335-105,5.335S0,8.282,0,5.335,47.01,0,105,0Z" transform="translate(-32 125.791)" fill="#cedacf"/>
                <line id="Línea_250" data-name="Línea 250" y2="10.674" transform="translate(59.649 78.673)" fill="#003889"/>
                <circle id="Elipse_5221" data-name="Elipse 5221" cx="64.323" cy="64.323" r="64.323" transform="translate(0 0)" fill="#fff"/>
                <circle id="Elipse_5225" data-name="Elipse 5225" cx="5.144" cy="5.144" r="5.144" transform="translate(104.298 20.677) rotate(-45)" fill="#b0c710"/>
              </g>
            </g>
          </g>
        </g>
        <path id="Trazado_598043" data-name="Trazado 598043" d="M-21088-7107.893l9.627,12.355-9.627,12.356" transform="translate(7475.393 -19729.975) rotate(-90)" fill="none" stroke="#fcd03e" stroke-width="5"/>
        <g id="Grupo_156169" data-name="Grupo 156169" transform="translate(431.166 1290.218)">
          <g id="Grupo_156168" data-name="Grupo 156168" clip-path="url(#clip-path)">
            <g id="Grupo_156167" data-name="Grupo 156167">
              <g id="Grupo_156166" data-name="Grupo 156166" clip-path="url(#clip-path)">
                <path id="Trazado_598064" data-name="Trazado 598064" d="M29.443,152.565v4.142a1.589,1.589,0,0,1-.579,1.133,4.093,4.093,0,0,1-.369.3,6.4,6.4,0,0,1-.948.553c-.118.055-.24.112-.369.167a12.693,12.693,0,0,1-1.5.528l-.367.108c-.609.163-1.269.311-1.977.438l-.369.065c-.58.094-1.187.181-1.819.25-.122.01-.245.025-.366.036-.422.043-.852.076-1.292.1-.122.011-.245.018-.369.025-.55.029-1.112.047-1.686.058-.122,0-.244,0-.368,0H16.8q-.8,0-1.58-.029c-.125,0-.247-.011-.369-.014-.529-.025-1.047-.062-1.553-.105l-.371-.032c-.35-.033-.691-.072-1.026-.112-.124-.018-.247-.033-.369-.051-.425-.057-.841-.123-1.239-.2-.125-.021-.247-.043-.367-.069-.348-.065-.681-.137-1-.217-.124-.029-.247-.058-.367-.09-.4-.1-.778-.21-1.134-.329-.127-.04-.248-.083-.369-.127a9.588,9.588,0,0,1-1.026-.427c-.131-.061-.254-.126-.371-.191a4.819,4.819,0,0,1-.788-.532,2.755,2.755,0,0,1-.371-.376,1.411,1.411,0,0,1-.342-.876v-4.142Z" transform="translate(-3.064 -112.554)" fill="#ffb500"/>
                <path id="Trazado_598065" data-name="Trazado 598065" d="M29.443,143.165c0,1.847-5.661,3.343-12.645,3.343s-12.645-1.5-12.645-3.343,5.662-3.343,12.645-3.343,12.645,1.5,12.645,3.343" transform="translate(-3.064 -103.153)" fill="#ffd400"/>
                <path id="Trazado_598066" data-name="Trazado 598066" d="M33.552,144.405c0,1.27-4.647,2.3-10.379,2.3s-10.379-1.03-10.379-2.3,4.646-2.3,10.379-2.3,10.379,1.029,10.379,2.3" transform="translate(-9.439 -104.838)" fill="#ffc400"/>
                <path id="Trazado_598067" data-name="Trazado 598067" d="M13.111,144.97c1.138-1,5.211-1.735,10.063-1.735s8.925.738,10.063,1.735a.777.777,0,0,0,.317-.565c0-1.27-4.647-2.3-10.379-2.3s-10.379,1.029-10.379,2.3a.777.777,0,0,0,.317.565" transform="translate(-9.439 -104.837)" fill="#fb9800"/>
                <path id="Trazado_598068" data-name="Trazado 598068" d="M5.828,159.642v3.538a2.77,2.77,0,0,1-.371-.376v-3.163Z" transform="translate(-4.026 -117.775)" fill="#fb9800"/>
                <path id="Trazado_598069" data-name="Trazado 598069" d="M10.247,163.6v3.224c-.131-.061-.254-.127-.371-.192V163.6Z" transform="translate(-7.286 -120.696)" fill="#fb9800"/>
                <path id="Trazado_598070" data-name="Trazado 598070" d="M15.573,166.029v3.141c-.127-.04-.248-.083-.369-.127v-3.014Z" transform="translate(-11.217 -122.487)" fill="#fb9800"/>
                <path id="Trazado_598071" data-name="Trazado 598071" d="M21.3,167.657v3.133c-.124-.029-.247-.058-.367-.09v-3.043Z" transform="translate(-15.443 -123.688)" fill="#fb9800"/>
                <path id="Trazado_598072" data-name="Trazado 598072" d="M26.525,169.216v3.01c-.125-.022-.247-.043-.367-.069v-2.941Z" transform="translate(-19.298 -124.838)" fill="#fb9800"/>
                <path id="Trazado_598073" data-name="Trazado 598073" d="M32.648,170.251v2.985c-.125-.018-.247-.033-.369-.051v-2.934Z" transform="translate(-23.814 -125.601)" fill="#fb9800"/>
                <path id="Trazado_598074" data-name="Trazado 598074" d="M37.971,170.251v3.129l-.371-.032v-3.1Z" transform="translate(-27.739 -125.601)" fill="#fb9800"/>
                <path id="Trazado_598075" data-name="Trazado 598075" d="M45.306,170.251V173.5c-.125,0-.247-.011-.369-.014v-3.234Z" transform="translate(-33.152 -125.601)" fill="#fb9800"/>
                <path id="Trazado_598076" data-name="Trazado 598076" d="M53.744,169.216v3.546c-.122,0-.244,0-.368,0v-3.549Z" transform="translate(-39.378 -124.838)" fill="#fb9800"/>
                <path id="Trazado_598077" data-name="Trazado 598077" d="M61.579,167.657v3.871c-.122.011-.245.018-.369.025v-3.9Z" transform="translate(-45.157 -123.688)" fill="#fb9800"/>
                <path id="Trazado_598078" data-name="Trazado 598078" d="M67.909,167.657v3.73c-.122.01-.245.025-.366.036v-3.767Z" transform="translate(-49.829 -123.688)" fill="#fb9800"/>
                <path id="Trazado_598079" data-name="Trazado 598079" d="M76.244,166.029v3.843l-.369.065v-3.908Z" transform="translate(-55.976 -122.487)" fill="#fb9800"/>
                <path id="Trazado_598080" data-name="Trazado 598080" d="M85.186,164.47v3.705l-.366.108V164.47Z" transform="translate(-62.575 -121.337)" fill="#fb9800"/>
                <path id="Trazado_598081" data-name="Trazado 598081" d="M92.315,160.677v4c-.118.055-.24.112-.369.167v-4.171Z" transform="translate(-67.833 -118.538)" fill="#fb9800"/>
                <path id="Trazado_598082" data-name="Trazado 598082" d="M97.338,158.083v3.828a4.018,4.018,0,0,1-.37.3v-4.132Z" transform="translate(-71.537 -116.625)" fill="#fb9800"/>
                <g id="Grupo_156144" data-name="Grupo 156144" transform="translate(1.089 42.323)" style="mix-blend-mode: multiply;isolation: isolate">
                  <g id="Grupo_156143" data-name="Grupo 156143">
                    <g id="Grupo_156142" data-name="Grupo 156142" clip-path="url(#clip-path-3)">
                      <path id="Trazado_598083" data-name="Trazado 598083" d="M28.865,162.512a4.1,4.1,0,0,1-.37.3,6.391,6.391,0,0,1-.948.553c-.118.055-.24.112-.369.167a12.583,12.583,0,0,1-1.5.528l-.366.109c-.609.163-1.269.311-1.976.437l-.369.065c-.58.094-1.186.181-1.819.25-.122.01-.245.025-.366.036-.422.043-.852.076-1.292.1-.122.011-.244.018-.369.025-.55.029-1.112.047-1.686.058-.122,0-.244,0-.368,0H16.8c-.535,0-1.062-.011-1.58-.029-.124,0-.247-.011-.369-.015-.529-.025-1.047-.062-1.553-.1l-.371-.032c-.35-.033-.691-.073-1.026-.112-.124-.018-.246-.032-.369-.051-.426-.058-.841-.123-1.239-.2-.125-.022-.247-.043-.367-.069-.348-.065-.681-.137-1-.217-.124-.029-.247-.058-.367-.09-.4-.1-.778-.21-1.134-.329-.127-.04-.248-.083-.368-.127a9.642,9.642,0,0,1-1.026-.427c-.131-.062-.253-.127-.371-.192a4.772,4.772,0,0,1-.788-.532,2.743,2.743,0,0,1-.371-.376,1.409,1.409,0,0,1-.342-.876v1.831a1.409,1.409,0,0,0,.342.876,2.759,2.759,0,0,0,.371.376,4.805,4.805,0,0,0,.788.532c.118.065.24.13.371.191a9.64,9.64,0,0,0,1.026.427c.12.044.242.087.368.127.356.119.734.228,1.134.329.12.032.242.061.367.09.322.079.656.152,1,.217.12.026.242.047.367.069.4.072.813.138,1.239.2.123.018.245.033.369.051.335.04.676.079,1.026.112l.371.032c.506.044,1.024.08,1.553.105.122,0,.245.011.369.014q.778.028,1.58.029h.264c.124,0,.246,0,.368,0,.574-.011,1.136-.029,1.686-.058.125-.007.247-.014.369-.025.44-.029.87-.062,1.292-.1.122-.011.244-.025.366-.036.633-.069,1.239-.156,1.819-.25l.369-.065c.707-.127,1.367-.275,1.976-.438l.366-.109a12.626,12.626,0,0,0,1.5-.528c.129-.054.251-.112.369-.166a6.411,6.411,0,0,0,.948-.554,4.057,4.057,0,0,0,.37-.3,1.59,1.59,0,0,0,.579-1.132v-1.831a1.591,1.591,0,0,1-.579,1.133" transform="translate(-4.154 -161.379)" fill="#e5d6d6"/>
                    </g>
                  </g>
                </g>
                <path id="Trazado_598084" data-name="Trazado 598084" d="M25.29,133.384v4.143a1.587,1.587,0,0,1-.579,1.133,4.124,4.124,0,0,1-.369.3,6.444,6.444,0,0,1-.949.554c-.117.054-.24.112-.369.166a12.538,12.538,0,0,1-1.5.528l-.367.109c-.609.163-1.269.311-1.977.437l-.369.065c-.58.094-1.186.181-1.819.25-.122.011-.244.025-.367.036-.421.044-.851.076-1.292.105-.122.011-.244.018-.369.025-.55.029-1.113.047-1.686.058-.122,0-.244,0-.369,0h-.263c-.536,0-1.062-.011-1.581-.03-.124,0-.246-.01-.369-.014-.529-.025-1.047-.061-1.553-.1l-.371-.033c-.35-.033-.691-.073-1.026-.112-.124-.018-.247-.033-.369-.051-.426-.058-.841-.123-1.239-.2-.125-.021-.247-.043-.367-.069-.347-.065-.681-.137-1-.217-.124-.029-.246-.058-.366-.09-.4-.1-.778-.21-1.134-.329-.126-.04-.249-.083-.369-.127a9.608,9.608,0,0,1-1.026-.427c-.131-.061-.253-.126-.371-.192a4.76,4.76,0,0,1-.788-.532,2.74,2.74,0,0,1-.371-.376A1.409,1.409,0,0,1,0,137.527v-4.143Z" transform="translate(0 -98.403)" fill="#ffb500"/>
                <path id="Trazado_598085" data-name="Trazado 598085" d="M25.29,123.985c0,1.846-5.661,3.343-12.644,3.343S0,125.832,0,123.985s5.662-3.343,12.645-3.343,12.644,1.5,12.644,3.343" transform="translate(0 -89.003)" fill="#ffd400"/>
                <path id="Trazado_598086" data-name="Trazado 598086" d="M29.4,125.224c0,1.27-4.647,2.3-10.379,2.3s-10.379-1.03-10.379-2.3,4.647-2.3,10.379-2.3,10.379,1.03,10.379,2.3" transform="translate(-6.374 -90.686)" fill="#ffc400"/>
                <path id="Trazado_598087" data-name="Trazado 598087" d="M8.956,125.789c1.137-1,5.211-1.734,10.063-1.734s8.925.737,10.062,1.734a.775.775,0,0,0,.317-.565c0-1.27-4.647-2.3-10.379-2.3s-10.38,1.03-10.38,2.3a.775.775,0,0,0,.317.565" transform="translate(-6.373 -90.686)" fill="#fb9800"/>
                <path id="Trazado_598088" data-name="Trazado 598088" d="M1.674,140.461V144a2.757,2.757,0,0,1-.371-.376v-3.162Z" transform="translate(-0.961 -103.624)" fill="#fb9800"/>
                <path id="Trazado_598089" data-name="Trazado 598089" d="M6.093,144.42v3.224c-.131-.061-.253-.126-.371-.192V144.42Z" transform="translate(-4.221 -106.545)" fill="#fb9800"/>
                <path id="Trazado_598090" data-name="Trazado 598090" d="M11.419,146.849v3.141c-.126-.04-.249-.083-.369-.127v-3.014Z" transform="translate(-8.152 -108.337)" fill="#fb9800"/>
                <path id="Trazado_598091" data-name="Trazado 598091" d="M17.147,148.477v3.133c-.124-.029-.247-.058-.367-.09v-3.043Z" transform="translate(-12.379 -109.538)" fill="#fb9800"/>
                <path id="Trazado_598092" data-name="Trazado 598092" d="M22.369,150.035v3.01c-.125-.022-.247-.044-.367-.069v-2.941Z" transform="translate(-16.232 -110.687)" fill="#fb9800"/>
                <path id="Trazado_598093" data-name="Trazado 598093" d="M28.5,151.07v2.985c-.125-.018-.247-.033-.369-.051V151.07Z" transform="translate(-20.75 -111.451)" fill="#fb9800"/>
                <path id="Trazado_598094" data-name="Trazado 598094" d="M33.817,151.07v3.13l-.371-.033v-3.1Z" transform="translate(-24.675 -111.451)" fill="#fb9800"/>
                <path id="Trazado_598095" data-name="Trazado 598095" d="M41.152,151.07v3.249c-.124,0-.246-.01-.369-.014V151.07Z" transform="translate(-30.087 -111.451)" fill="#fb9800"/>
                <path id="Trazado_598096" data-name="Trazado 598096" d="M49.589,150.035v3.546c-.122,0-.244,0-.369,0v-3.55Z" transform="translate(-36.312 -110.687)" fill="#fb9800"/>
                <path id="Trazado_598097" data-name="Trazado 598097" d="M57.425,148.477v3.871c-.122.011-.244.018-.369.025v-3.9Z" transform="translate(-42.093 -109.538)" fill="#fb9800"/>
                <path id="Trazado_598098" data-name="Trazado 598098" d="M63.755,148.477v3.73c-.122.011-.244.025-.367.036v-3.766Z" transform="translate(-46.764 -109.538)" fill="#fb9800"/>
                <path id="Trazado_598099" data-name="Trazado 598099" d="M72.09,146.849v3.842l-.369.065v-3.908Z" transform="translate(-52.912 -108.337)" fill="#fb9800"/>
                <path id="Trazado_598100" data-name="Trazado 598100" d="M81.032,145.291V149l-.367.109v-3.813Z" transform="translate(-59.51 -107.187)" fill="#fb9800"/>
                <path id="Trazado_598101" data-name="Trazado 598101" d="M88.162,141.5V145.5c-.117.054-.24.112-.369.166V141.5Z" transform="translate(-64.769 -104.388)" fill="#fb9800"/>
                <path id="Trazado_598102" data-name="Trazado 598102" d="M93.185,138.9v3.828a4.075,4.075,0,0,1-.369.3V138.9Z" transform="translate(-68.474 -102.474)" fill="#fb9800"/>
                <g id="Grupo_156147" data-name="Grupo 156147" transform="translate(0 37.293)" style="mix-blend-mode: multiply;isolation: isolate">
                  <g id="Grupo_156146" data-name="Grupo 156146">
                    <g id="Grupo_156145" data-name="Grupo 156145" clip-path="url(#clip-path-3)">
                      <path id="Trazado_598103" data-name="Trazado 598103" d="M24.71,143.332a4.033,4.033,0,0,1-.369.3,6.411,6.411,0,0,1-.949.554c-.117.054-.24.112-.369.166a12.618,12.618,0,0,1-1.5.528l-.366.109c-.609.163-1.269.311-1.977.437l-.369.065c-.58.094-1.186.181-1.819.25-.122.011-.244.025-.367.036-.421.043-.851.076-1.292.1-.122.011-.244.018-.369.025-.55.029-1.113.047-1.686.058-.122,0-.244,0-.368,0h-.263c-.536,0-1.062-.011-1.581-.029-.124,0-.246-.011-.369-.014-.529-.025-1.047-.062-1.553-.105l-.371-.033c-.35-.033-.691-.072-1.026-.112-.125-.018-.247-.033-.369-.051-.426-.058-.841-.123-1.239-.2-.124-.021-.247-.043-.367-.069-.347-.065-.681-.137-1-.217-.124-.029-.247-.058-.367-.09-.4-.1-.778-.21-1.134-.329-.126-.04-.249-.083-.368-.126a9.692,9.692,0,0,1-1.026-.427c-.131-.061-.253-.126-.371-.192a4.8,4.8,0,0,1-.788-.532,2.741,2.741,0,0,1-.371-.376A1.409,1.409,0,0,1,0,142.2v1.831a1.408,1.408,0,0,0,.342.876,2.742,2.742,0,0,0,.371.376,4.783,4.783,0,0,0,.788.532c.118.065.24.13.371.192a9.582,9.582,0,0,0,1.026.427c.12.044.242.087.368.127.356.12.734.228,1.134.329.12.033.242.061.367.09.323.08.656.152,1,.217.12.025.243.047.367.069.4.072.814.138,1.239.2.122.018.244.033.369.051.335.04.676.079,1.026.112l.371.033c.506.044,1.024.08,1.553.1.122,0,.245.011.369.014.518.019,1.045.03,1.581.03h.263c.124,0,.247,0,.368,0,.573-.011,1.136-.029,1.686-.058.125-.007.247-.014.369-.025.44-.029.87-.062,1.292-.105.123-.011.245-.025.367-.036.632-.069,1.239-.156,1.819-.25l.369-.065c.708-.127,1.368-.275,1.977-.437l.366-.109a12.529,12.529,0,0,0,1.5-.528c.129-.054.251-.112.369-.166a6.434,6.434,0,0,0,.949-.554,4.124,4.124,0,0,0,.369-.3,1.587,1.587,0,0,0,.579-1.132V142.2a1.586,1.586,0,0,1-.579,1.132" transform="translate(0 -142.2)" fill="#e5d6d6"/>
                    </g>
                  </g>
                </g>
                <path id="Trazado_598104" data-name="Trazado 598104" d="M29.443,113.245v4.143a1.59,1.59,0,0,1-.579,1.133,4.179,4.179,0,0,1-.369.3,6.38,6.38,0,0,1-.948.553c-.118.055-.24.112-.369.167a12.6,12.6,0,0,1-1.5.528l-.367.109c-.609.163-1.269.311-1.977.437l-.369.066c-.58.094-1.187.181-1.819.249-.122.011-.245.025-.366.036-.422.043-.852.076-1.292.1-.122.011-.245.018-.369.025-.55.029-1.112.047-1.686.058-.122,0-.244,0-.368,0H16.8c-.535,0-1.062-.011-1.58-.029-.125,0-.247-.011-.369-.015-.529-.025-1.047-.061-1.553-.1l-.371-.033c-.35-.033-.691-.072-1.026-.112-.124-.018-.247-.033-.369-.051-.425-.058-.841-.123-1.239-.2-.125-.022-.247-.043-.367-.069-.348-.065-.681-.137-1-.217-.124-.029-.247-.058-.367-.09-.4-.1-.778-.21-1.134-.329-.127-.04-.248-.083-.369-.127a9.585,9.585,0,0,1-1.026-.427c-.131-.061-.254-.126-.371-.192a4.8,4.8,0,0,1-.788-.532,2.712,2.712,0,0,1-.371-.376,1.41,1.41,0,0,1-.342-.876v-4.143Z" transform="translate(-3.064 -83.546)" fill="#ffb500"/>
                <path id="Trazado_598105" data-name="Trazado 598105" d="M29.443,103.847c0,1.846-5.661,3.343-12.645,3.343s-12.645-1.5-12.645-3.343S9.815,100.5,16.8,100.5s12.645,1.5,12.645,3.344" transform="translate(-3.064 -74.145)" fill="#ffd400"/>
                <path id="Trazado_598106" data-name="Trazado 598106" d="M33.552,105.086c0,1.27-4.647,2.3-10.379,2.3s-10.379-1.029-10.379-2.3,4.646-2.3,10.379-2.3,10.379,1.03,10.379,2.3" transform="translate(-9.439 -75.83)" fill="#ffc400"/>
                <path id="Trazado_598107" data-name="Trazado 598107" d="M13.111,105.652c1.138-1,5.211-1.734,10.063-1.734s8.925.737,10.063,1.734a.777.777,0,0,0,.317-.565c0-1.27-4.647-2.3-10.379-2.3s-10.379,1.03-10.379,2.3a.777.777,0,0,0,.317.565" transform="translate(-9.439 -75.83)" fill="#fb9800"/>
                <path id="Trazado_598108" data-name="Trazado 598108" d="M5.828,120.323v3.538a2.726,2.726,0,0,1-.371-.376v-3.162Z" transform="translate(-4.026 -88.767)" fill="#fb9800"/>
                <path id="Trazado_598109" data-name="Trazado 598109" d="M10.247,124.282v3.224c-.131-.061-.254-.127-.371-.192v-3.032Z" transform="translate(-7.286 -91.688)" fill="#fb9800"/>
                <path id="Trazado_598110" data-name="Trazado 598110" d="M15.573,126.711v3.141c-.127-.04-.248-.083-.369-.127v-3.014Z" transform="translate(-11.217 -93.48)" fill="#fb9800"/>
                <path id="Trazado_598111" data-name="Trazado 598111" d="M21.3,128.338v3.133c-.124-.029-.247-.058-.367-.09v-3.043Z" transform="translate(-15.443 -94.68)" fill="#fb9800"/>
                <path id="Trazado_598112" data-name="Trazado 598112" d="M26.525,129.9v3.01c-.125-.022-.247-.043-.367-.069V129.9Z" transform="translate(-19.298 -95.831)" fill="#fb9800"/>
                <path id="Trazado_598113" data-name="Trazado 598113" d="M32.648,130.933v2.985c-.125-.018-.247-.033-.369-.051v-2.934Z" transform="translate(-23.814 -96.595)" fill="#fb9800"/>
                <path id="Trazado_598114" data-name="Trazado 598114" d="M37.971,130.933v3.13l-.371-.033v-3.1Z" transform="translate(-27.739 -96.595)" fill="#fb9800"/>
                <path id="Trazado_598115" data-name="Trazado 598115" d="M45.306,130.933v3.249c-.125,0-.247-.011-.369-.015v-3.234Z" transform="translate(-33.152 -96.595)" fill="#fb9800"/>
                <path id="Trazado_598116" data-name="Trazado 598116" d="M53.744,129.9v3.546c-.122,0-.244,0-.368,0V129.9Z" transform="translate(-39.378 -95.831)" fill="#fb9800"/>
                <path id="Trazado_598117" data-name="Trazado 598117" d="M61.579,128.338v3.871c-.122.011-.245.018-.369.025v-3.9Z" transform="translate(-45.157 -94.68)" fill="#fb9800"/>
                <path id="Trazado_598118" data-name="Trazado 598118" d="M67.909,128.338v3.73c-.122.011-.245.025-.366.036v-3.767Z" transform="translate(-49.829 -94.68)" fill="#fb9800"/>
                <path id="Trazado_598119" data-name="Trazado 598119" d="M76.244,126.711v3.842l-.369.065v-3.908Z" transform="translate(-55.976 -93.48)" fill="#fb9800"/>
                <path id="Trazado_598120" data-name="Trazado 598120" d="M85.186,125.151v3.7l-.366.109v-3.814Z" transform="translate(-62.575 -92.329)" fill="#fb9800"/>
                <path id="Trazado_598121" data-name="Trazado 598121" d="M92.315,121.357v4c-.118.055-.24.113-.369.167v-4.172Z" transform="translate(-67.833 -89.53)" fill="#fb9800"/>
                <path id="Trazado_598122" data-name="Trazado 598122" d="M97.338,118.764v3.828a4.058,4.058,0,0,1-.37.3v-4.132Z" transform="translate(-71.537 -87.617)" fill="#fb9800"/>
                <g id="Grupo_156150" data-name="Grupo 156150" transform="translate(1.089 32.011)" style="mix-blend-mode: multiply;isolation: isolate">
                  <g id="Grupo_156149" data-name="Grupo 156149">
                    <g id="Grupo_156148" data-name="Grupo 156148" clip-path="url(#clip-path-5)">
                      <path id="Trazado_598123" data-name="Trazado 598123" d="M28.865,123.193a4.1,4.1,0,0,1-.37.3,6.391,6.391,0,0,1-.948.553c-.118.054-.24.112-.369.167a12.626,12.626,0,0,1-1.5.528l-.366.109c-.609.163-1.269.311-1.976.438l-.369.065c-.58.094-1.186.181-1.819.249-.122.01-.245.025-.366.036-.422.043-.852.076-1.292.1-.122.011-.244.018-.369.025-.55.029-1.112.047-1.686.058-.122,0-.244,0-.368,0H16.8c-.535,0-1.062-.011-1.58-.029-.124,0-.247-.011-.369-.015-.529-.025-1.047-.062-1.553-.1l-.371-.033c-.35-.032-.691-.072-1.026-.112-.124-.018-.246-.033-.369-.051-.426-.058-.841-.123-1.239-.2-.125-.021-.247-.043-.367-.069-.348-.065-.681-.137-1-.217-.124-.029-.247-.058-.367-.09-.4-.1-.778-.21-1.134-.329-.127-.04-.248-.084-.368-.127a9.589,9.589,0,0,1-1.026-.427c-.131-.062-.253-.126-.371-.192a4.789,4.789,0,0,1-.788-.532,2.73,2.73,0,0,1-.371-.376,1.408,1.408,0,0,1-.342-.875v1.831a1.408,1.408,0,0,0,.342.876,2.73,2.73,0,0,0,.371.376,4.772,4.772,0,0,0,.788.532c.118.065.24.131.371.192a9.589,9.589,0,0,0,1.026.427c.12.044.242.087.368.127.356.12.734.228,1.134.329.12.032.242.061.367.09.322.08.656.152,1,.217.12.025.242.047.367.069.4.072.813.137,1.239.2.123.018.245.033.369.051.335.04.676.08,1.026.112l.371.033c.506.044,1.024.079,1.553.1.122,0,.245.011.369.015.518.018,1.045.029,1.58.029h.264c.124,0,.246,0,.368,0,.574-.011,1.136-.029,1.686-.058.125-.007.247-.014.369-.025.44-.029.87-.062,1.292-.1.122-.011.244-.025.366-.036.633-.069,1.239-.156,1.819-.249l.369-.066c.707-.126,1.367-.275,1.976-.437l.366-.109a12.58,12.58,0,0,0,1.5-.528c.129-.054.251-.112.369-.167a6.368,6.368,0,0,0,.948-.553,4.148,4.148,0,0,0,.37-.3,1.591,1.591,0,0,0,.579-1.133v-1.831a1.59,1.59,0,0,1-.579,1.132" transform="translate(-4.154 -122.061)" fill="#e5d6d6"/>
                    </g>
                  </g>
                </g>
                <path id="Trazado_598124" data-name="Trazado 598124" d="M34.636,94.065v4.143a1.589,1.589,0,0,1-.579,1.133,4.121,4.121,0,0,1-.369.3,6.414,6.414,0,0,1-.948.554c-.118.055-.241.112-.369.167a12.588,12.588,0,0,1-1.5.528L30.5,101c-.609.163-1.269.311-1.977.438l-.369.065c-.58.094-1.186.181-1.818.25-.123.011-.245.025-.367.036-.422.043-.852.076-1.292.1-.122.011-.244.018-.368.025-.55.029-1.113.047-1.687.058-.122,0-.244,0-.368,0h-.264c-.536,0-1.062-.011-1.581-.029-.124,0-.246-.011-.369-.015-.529-.025-1.047-.061-1.553-.1l-.371-.033c-.35-.033-.691-.073-1.026-.112-.124-.018-.247-.033-.37-.051-.425-.057-.84-.122-1.239-.2-.124-.021-.247-.043-.367-.069-.348-.065-.681-.137-1-.217-.124-.029-.246-.058-.366-.091-.4-.1-.778-.21-1.134-.329-.127-.04-.249-.083-.368-.126a9.657,9.657,0,0,1-1.027-.427c-.131-.062-.253-.127-.371-.191a4.8,4.8,0,0,1-.788-.532,2.71,2.71,0,0,1-.371-.376,1.41,1.41,0,0,1-.342-.876V94.065Z" transform="translate(-6.895 -69.396)" fill="#ffb500"/>
                <path id="Trazado_598125" data-name="Trazado 598125" d="M34.636,84.666c0,1.846-5.661,3.343-12.645,3.343s-12.645-1.5-12.645-3.343,5.661-3.343,12.645-3.343,12.645,1.5,12.645,3.343" transform="translate(-6.895 -59.995)" fill="#ffd400"/>
                <path id="Trazado_598126" data-name="Trazado 598126" d="M38.745,85.906c0,1.27-4.647,2.3-10.379,2.3s-10.379-1.03-10.379-2.3,4.646-2.3,10.379-2.3,10.379,1.03,10.379,2.3" transform="translate(-13.27 -61.68)" fill="#ffc400"/>
                <path id="Trazado_598127" data-name="Trazado 598127" d="M18.3,86.471c1.137-1,5.211-1.734,10.063-1.734s8.924.737,10.062,1.734a.777.777,0,0,0,.317-.565c0-1.27-4.647-2.3-10.379-2.3s-10.379,1.03-10.379,2.3a.776.776,0,0,0,.317.565" transform="translate(-13.269 -61.68)" fill="#fb9800"/>
                <path id="Trazado_598128" data-name="Trazado 598128" d="M11.02,101.143v3.539a2.729,2.729,0,0,1-.371-.376v-3.162Z" transform="translate(-7.856 -74.618)" fill="#fb9800"/>
                <path id="Trazado_598129" data-name="Trazado 598129" d="M15.44,105.1v3.224c-.131-.061-.253-.126-.371-.191V105.1Z" transform="translate(-11.117 -77.538)" fill="#fb9800"/>
                <path id="Trazado_598130" data-name="Trazado 598130" d="M20.766,107.529v3.141c-.127-.04-.249-.083-.368-.126v-3.014Z" transform="translate(-15.048 -79.329)" fill="#fb9800"/>
                <path id="Trazado_598131" data-name="Trazado 598131" d="M26.492,109.158v3.133c-.124-.029-.246-.058-.366-.091v-3.043Z" transform="translate(-19.274 -80.531)" fill="#fb9800"/>
                <path id="Trazado_598132" data-name="Trazado 598132" d="M31.716,110.717v3.01c-.124-.022-.247-.043-.367-.069v-2.941Z" transform="translate(-23.128 -81.681)" fill="#fb9800"/>
                <path id="Trazado_598133" data-name="Trazado 598133" d="M37.84,111.752v2.985c-.124-.018-.247-.033-.369-.051v-2.934Z" transform="translate(-27.644 -82.444)" fill="#fb9800"/>
                <path id="Trazado_598134" data-name="Trazado 598134" d="M43.163,111.752v3.13l-.371-.033v-3.1Z" transform="translate(-31.569 -82.444)" fill="#fb9800"/>
                <path id="Trazado_598135" data-name="Trazado 598135" d="M50.5,111.752V115c-.124,0-.246-.011-.369-.014v-3.235Z" transform="translate(-36.982 -82.444)" fill="#fb9800"/>
                <path id="Trazado_598136" data-name="Trazado 598136" d="M58.935,110.717v3.546c-.122,0-.244,0-.368,0v-3.549Z" transform="translate(-43.207 -81.681)" fill="#fb9800"/>
                <path id="Trazado_598137" data-name="Trazado 598137" d="M66.771,109.158v3.871c-.122.011-.244.018-.368.025v-3.9Z" transform="translate(-48.988 -80.531)" fill="#fb9800"/>
                <path id="Trazado_598138" data-name="Trazado 598138" d="M73.1,109.158v3.73c-.123.011-.245.025-.367.036v-3.767Z" transform="translate(-53.66 -80.531)" fill="#fb9800"/>
                <path id="Trazado_598139" data-name="Trazado 598139" d="M81.437,107.529v3.843l-.369.065v-3.908Z" transform="translate(-59.807 -79.329)" fill="#fb9800"/>
                <path id="Trazado_598140" data-name="Trazado 598140" d="M90.378,105.972v3.7l-.367.108v-3.813Z" transform="translate(-66.405 -78.18)" fill="#fb9800"/>
                <path id="Trazado_598141" data-name="Trazado 598141" d="M97.507,102.177v4.005c-.118.055-.241.112-.369.167v-4.172Z" transform="translate(-71.663 -75.38)" fill="#fb9800"/>
                <path id="Trazado_598142" data-name="Trazado 598142" d="M102.53,99.583v3.828a4.035,4.035,0,0,1-.369.3V99.583Z" transform="translate(-75.369 -73.467)" fill="#fb9800"/>
                <g id="Grupo_156153" data-name="Grupo 156153" transform="translate(2.451 26.981)" style="mix-blend-mode: multiply;isolation: isolate">
                  <g id="Grupo_156152" data-name="Grupo 156152">
                    <g id="Grupo_156151" data-name="Grupo 156151" clip-path="url(#clip-path-3)">
                      <path id="Trazado_598143" data-name="Trazado 598143" d="M34.056,104.013a4.168,4.168,0,0,1-.369.3,6.455,6.455,0,0,1-.948.553c-.118.055-.241.112-.369.167a12.692,12.692,0,0,1-1.5.528l-.367.108c-.609.163-1.269.311-1.977.438l-.369.065c-.58.094-1.186.181-1.818.25-.122.01-.245.025-.367.036-.422.043-.852.076-1.292.1-.122.011-.244.018-.368.025-.55.029-1.112.047-1.686.058-.122,0-.244,0-.368,0H21.99c-.535,0-1.062-.011-1.581-.029-.124,0-.246-.011-.368-.014-.529-.025-1.047-.061-1.553-.105l-.371-.032c-.35-.033-.692-.073-1.026-.112-.124-.018-.247-.033-.369-.051-.426-.058-.841-.123-1.239-.2-.124-.021-.247-.043-.367-.069-.348-.065-.681-.137-1-.217-.124-.029-.246-.058-.366-.09-.4-.1-.778-.21-1.134-.33-.127-.04-.249-.083-.368-.127a9.573,9.573,0,0,1-1.027-.427c-.131-.061-.253-.126-.371-.192a4.792,4.792,0,0,1-.788-.532,2.741,2.741,0,0,1-.371-.376,1.41,1.41,0,0,1-.342-.876v1.831a1.41,1.41,0,0,0,.342.876,2.754,2.754,0,0,0,.371.376,4.791,4.791,0,0,0,.788.532c.118.065.24.13.371.191a9.625,9.625,0,0,0,1.027.427c.12.043.242.087.368.126.356.119.733.228,1.134.329.12.033.242.062.366.091.323.079.656.152,1,.217.12.026.243.047.367.069.4.073.813.138,1.239.2.122.018.245.033.369.051.335.04.676.08,1.026.112l.371.033c.506.044,1.024.08,1.553.1.122,0,.244.011.368.014.519.018,1.046.029,1.581.029h.264c.124,0,.246,0,.368,0,.574-.011,1.136-.029,1.686-.058.124-.007.247-.014.368-.025.441-.029.871-.061,1.292-.1.122-.011.244-.025.367-.036.632-.069,1.239-.156,1.818-.25l.369-.065c.708-.127,1.368-.275,1.977-.438l.367-.108a12.6,12.6,0,0,0,1.5-.528c.128-.054.251-.112.369-.167a6.43,6.43,0,0,0,.948-.554,4.078,4.078,0,0,0,.369-.3,1.589,1.589,0,0,0,.579-1.133V102.88a1.589,1.589,0,0,1-.579,1.133" transform="translate(-9.345 -102.88)" fill="#e5d6d6"/>
                    </g>
                  </g>
                </g>
                <path id="Trazado_598144" data-name="Trazado 598144" d="M32.523,71.241v4.143a1.588,1.588,0,0,1-.58,1.132,3.968,3.968,0,0,1-.369.3,6.368,6.368,0,0,1-.948.554c-.118.054-.24.112-.369.167a12.649,12.649,0,0,1-1.5.528l-.367.108c-.609.163-1.269.311-1.976.438l-.369.065c-.58.094-1.186.181-1.818.25-.122.011-.245.025-.367.036-.421.043-.852.076-1.292.1-.122.011-.245.018-.369.025-.55.029-1.113.047-1.686.058-.122,0-.244,0-.368,0h-.264c-.535,0-1.062-.011-1.58-.029-.125,0-.247-.011-.369-.014-.529-.025-1.047-.061-1.553-.1L16,78.977c-.35-.033-.691-.072-1.026-.112-.124-.018-.247-.033-.37-.051-.425-.058-.841-.123-1.239-.2-.125-.021-.247-.043-.367-.069-.348-.065-.681-.137-1-.217-.124-.029-.246-.058-.366-.09-.4-.1-.778-.21-1.134-.329-.126-.04-.248-.083-.369-.127A9.656,9.656,0,0,1,9.1,77.359c-.131-.061-.253-.127-.371-.192a4.825,4.825,0,0,1-.789-.532,2.724,2.724,0,0,1-.371-.376,1.409,1.409,0,0,1-.342-.876V71.241Z" transform="translate(-5.336 -52.558)" fill="#ffb500"/>
                <path id="Trazado_598145" data-name="Trazado 598145" d="M32.523,61.843c0,1.846-5.661,3.343-12.645,3.343s-12.645-1.5-12.645-3.343S12.894,58.5,19.878,58.5,32.523,60,32.523,61.843" transform="translate(-5.336 -43.157)" fill="#ffd400"/>
                <path id="Trazado_598146" data-name="Trazado 598146" d="M36.631,63.082c0,1.27-4.647,2.3-10.379,2.3s-10.379-1.03-10.379-2.3,4.647-2.3,10.379-2.3,10.379,1.029,10.379,2.3" transform="translate(-11.71 -44.842)" fill="#ffc400"/>
                <path id="Trazado_598147" data-name="Trazado 598147" d="M16.19,63.648c1.138-1,5.211-1.734,10.063-1.734s8.925.738,10.063,1.734a.777.777,0,0,0,.317-.565c0-1.27-4.647-2.3-10.379-2.3s-10.379,1.029-10.379,2.3a.777.777,0,0,0,.317.565" transform="translate(-11.71 -44.842)" fill="#fb9800"/>
                <path id="Trazado_598148" data-name="Trazado 598148" d="M8.908,78.318v3.539a2.723,2.723,0,0,1-.371-.376V78.318Z" transform="translate(-6.298 -57.779)" fill="#fb9800"/>
                <path id="Trazado_598149" data-name="Trazado 598149" d="M13.328,82.278V85.5c-.131-.061-.253-.127-.371-.192V82.278Z" transform="translate(-9.559 -60.7)" fill="#fb9800"/>
                <path id="Trazado_598150" data-name="Trazado 598150" d="M18.653,84.707v3.141c-.127-.04-.248-.083-.369-.127V84.707Z" transform="translate(-13.489 -62.492)" fill="#fb9800"/>
                <path id="Trazado_598151" data-name="Trazado 598151" d="M24.379,86.334v3.133c-.124-.029-.246-.058-.367-.09V86.334Z" transform="translate(-17.715 -63.692)" fill="#fb9800"/>
                <path id="Trazado_598152" data-name="Trazado 598152" d="M29.6,87.893V90.9c-.125-.021-.247-.043-.367-.069V87.893Z" transform="translate(-21.569 -64.842)" fill="#fb9800"/>
                <path id="Trazado_598153" data-name="Trazado 598153" d="M35.728,88.928v2.985c-.124-.018-.247-.033-.369-.051V88.928Z" transform="translate(-26.086 -65.606)" fill="#fb9800"/>
                <path id="Trazado_598154" data-name="Trazado 598154" d="M41.05,88.928v3.13l-.371-.033v-3.1Z" transform="translate(-30.011 -65.606)" fill="#fb9800"/>
                <path id="Trazado_598155" data-name="Trazado 598155" d="M48.386,88.928v3.249c-.125,0-.247-.011-.369-.015V88.928Z" transform="translate(-35.424 -65.606)" fill="#fb9800"/>
                <path id="Trazado_598156" data-name="Trazado 598156" d="M56.823,87.893v3.546c-.122,0-.245,0-.368,0V87.893Z" transform="translate(-41.649 -64.842)" fill="#fb9800"/>
                <path id="Trazado_598157" data-name="Trazado 598157" d="M64.658,86.334v3.871c-.122.011-.245.018-.369.025v-3.9Z" transform="translate(-47.429 -63.692)" fill="#fb9800"/>
                <path id="Trazado_598158" data-name="Trazado 598158" d="M70.989,86.334v3.731c-.122.011-.245.025-.367.036V86.334Z" transform="translate(-52.101 -63.692)" fill="#fb9800"/>
                <path id="Trazado_598159" data-name="Trazado 598159" d="M79.324,84.707v3.842l-.369.065V84.707Z" transform="translate(-58.248 -62.492)" fill="#fb9800"/>
                <path id="Trazado_598160" data-name="Trazado 598160" d="M88.265,83.147v3.705l-.366.108V83.147Z" transform="translate(-64.847 -61.341)" fill="#fb9800"/>
                <path id="Trazado_598161" data-name="Trazado 598161" d="M95.4,79.354v4c-.118.055-.24.112-.368.167V79.354Z" transform="translate(-70.105 -58.543)" fill="#fb9800"/>
                <path id="Trazado_598162" data-name="Trazado 598162" d="M100.417,76.759v3.828a4.014,4.014,0,0,1-.369.3V76.759Z" transform="translate(-73.81 -56.628)" fill="#fb9800"/>
                <g id="Grupo_156156" data-name="Grupo 156156" transform="translate(1.897 20.995)" style="mix-blend-mode: multiply;isolation: isolate">
                  <g id="Grupo_156155" data-name="Grupo 156155">
                    <g id="Grupo_156154" data-name="Grupo 156154" clip-path="url(#clip-path-3)">
                      <path id="Trazado_598163" data-name="Trazado 598163" d="M31.944,81.189a4.1,4.1,0,0,1-.369.3,6.389,6.389,0,0,1-.948.554c-.118.055-.24.112-.369.166a12.575,12.575,0,0,1-1.5.528l-.367.109c-.609.163-1.269.311-1.976.438l-.369.065c-.58.094-1.186.181-1.819.25-.122.011-.245.025-.367.036-.421.043-.852.076-1.292.1-.122.011-.245.018-.369.025-.55.029-1.112.047-1.686.058-.122,0-.244,0-.368,0h-.264c-.535,0-1.062-.011-1.58-.029-.125,0-.247-.011-.369-.015-.529-.025-1.047-.062-1.553-.105L16,83.65c-.35-.033-.691-.073-1.026-.112-.124-.018-.247-.033-.37-.051-.425-.058-.841-.123-1.239-.195-.125-.022-.247-.043-.367-.069-.348-.065-.681-.138-1-.217-.124-.029-.246-.058-.366-.09-.4-.1-.778-.21-1.134-.329-.126-.04-.248-.084-.369-.127A9.527,9.527,0,0,1,9.1,82.032c-.131-.061-.253-.126-.371-.192a4.793,4.793,0,0,1-.789-.532,2.724,2.724,0,0,1-.371-.376,1.41,1.41,0,0,1-.342-.876v1.831a1.409,1.409,0,0,0,.342.876,2.753,2.753,0,0,0,.371.376,4.842,4.842,0,0,0,.789.532c.117.065.24.131.371.191a9.631,9.631,0,0,0,1.026.427c.121.044.242.087.369.126.356.119.734.228,1.134.33.12.032.242.061.366.09.323.079.656.152,1,.216.12.026.242.048.367.069.4.073.813.138,1.239.2.123.018.245.033.37.051.335.04.676.079,1.026.112l.371.032c.506.044,1.024.08,1.553.105.122,0,.244.011.369.014q.777.028,1.58.029h.264c.124,0,.246,0,.368,0,.574-.011,1.136-.029,1.686-.058.124-.007.247-.014.369-.025.44-.029.87-.062,1.292-.1.122-.011.244-.025.367-.036.632-.069,1.239-.156,1.819-.25l.369-.065c.708-.127,1.367-.275,1.976-.438l.367-.109a12.573,12.573,0,0,0,1.5-.528c.129-.054.251-.112.369-.166a6.347,6.347,0,0,0,.948-.554,3.928,3.928,0,0,0,.369-.3,1.588,1.588,0,0,0,.58-1.132V80.057a1.59,1.59,0,0,1-.58,1.132" transform="translate(-7.233 -80.057)" fill="#e5d6d6"/>
                    </g>
                  </g>
                </g>
                <path id="Trazado_598164" data-name="Trazado 598164" d="M28.37,52.061V56.2a1.587,1.587,0,0,1-.579,1.132,4.041,4.041,0,0,1-.369.3,6.431,6.431,0,0,1-.948.554c-.118.054-.24.112-.369.166a12.647,12.647,0,0,1-1.5.528L24.235,59c-.609.163-1.269.311-1.976.437l-.369.065c-.579.094-1.186.181-1.819.25-.122.011-.244.025-.366.036-.421.043-.852.076-1.292.1-.122.011-.244.018-.369.025-.55.029-1.113.047-1.686.058-.122,0-.244,0-.369,0h-.263c-.536,0-1.062-.011-1.581-.029-.124,0-.246-.01-.369-.014-.529-.025-1.047-.062-1.553-.105l-.371-.033c-.35-.033-.691-.072-1.026-.112-.124-.018-.247-.033-.369-.051-.426-.058-.841-.123-1.239-.2-.125-.022-.247-.043-.367-.069-.347-.065-.68-.137-1-.217-.125-.029-.247-.058-.367-.09-.4-.1-.778-.21-1.134-.329-.126-.04-.248-.083-.368-.127a9.561,9.561,0,0,1-1.026-.427c-.131-.061-.253-.126-.371-.192a4.781,4.781,0,0,1-.789-.532,2.769,2.769,0,0,1-.371-.376A1.41,1.41,0,0,1,3.08,56.2V52.061Z" transform="translate(-2.272 -38.408)" fill="#ffb500"/>
                <path id="Trazado_598165" data-name="Trazado 598165" d="M28.37,42.662C28.37,44.508,22.708,46,15.725,46S3.08,44.508,3.08,42.662s5.661-3.344,12.645-3.344,12.645,1.5,12.645,3.344" transform="translate(-2.272 -29.007)" fill="#ffd400"/>
                <path id="Trazado_598166" data-name="Trazado 598166" d="M32.478,43.9c0,1.27-4.647,2.3-10.379,2.3s-10.379-1.03-10.379-2.3,4.647-2.3,10.379-2.3,10.379,1.03,10.379,2.3" transform="translate(-8.646 -30.692)" fill="#ffc400"/>
                <path id="Trazado_598167" data-name="Trazado 598167" d="M12.036,44.466c1.137-1,5.211-1.734,10.062-1.734s8.925.738,10.062,1.734a.776.776,0,0,0,.317-.565c0-1.27-4.647-2.3-10.379-2.3s-10.379,1.03-10.379,2.3a.776.776,0,0,0,.317.565" transform="translate(-8.646 -30.691)" fill="#fb9800"/>
                <path id="Trazado_598168" data-name="Trazado 598168" d="M4.753,59.138v3.538a2.755,2.755,0,0,1-.371-.376V59.138Z" transform="translate(-3.233 -43.629)" fill="#fb9800"/>
                <path id="Trazado_598169" data-name="Trazado 598169" d="M9.174,63.1v3.224c-.131-.061-.253-.126-.371-.192V63.1Z" transform="translate(-6.494 -46.55)" fill="#fb9800"/>
                <path id="Trazado_598170" data-name="Trazado 598170" d="M14.5,65.525v3.141c-.126-.04-.248-.083-.368-.127V65.525Z" transform="translate(-10.424 -48.341)" fill="#fb9800"/>
                <path id="Trazado_598171" data-name="Trazado 598171" d="M20.227,67.153v3.133c-.125-.029-.247-.057-.367-.09V67.153Z" transform="translate(-14.652 -49.542)" fill="#fb9800"/>
                <path id="Trazado_598172" data-name="Trazado 598172" d="M25.449,68.712v3.01c-.125-.021-.247-.043-.367-.069V68.712Z" transform="translate(-18.504 -50.692)" fill="#fb9800"/>
                <path id="Trazado_598173" data-name="Trazado 598173" d="M31.575,69.747v2.985c-.124-.018-.247-.033-.369-.051V69.747Z" transform="translate(-23.022 -51.455)" fill="#fb9800"/>
                <path id="Trazado_598174" data-name="Trazado 598174" d="M36.9,69.747v3.13l-.371-.033v-3.1Z" transform="translate(-26.946 -51.455)" fill="#fb9800"/>
                <path id="Trazado_598175" data-name="Trazado 598175" d="M44.232,69.747V73c-.124,0-.246-.011-.369-.014V69.747Z" transform="translate(-32.36 -51.455)" fill="#fb9800"/>
                <path id="Trazado_598176" data-name="Trazado 598176" d="M52.669,68.712v3.546c-.122,0-.245,0-.369,0v-3.55Z" transform="translate(-38.584 -50.692)" fill="#fb9800"/>
                <path id="Trazado_598177" data-name="Trazado 598177" d="M60.5,67.153v3.871c-.122.011-.245.018-.369.025v-3.9Z" transform="translate(-44.364 -49.542)" fill="#fb9800"/>
                <path id="Trazado_598178" data-name="Trazado 598178" d="M66.834,67.153v3.73c-.122.011-.244.025-.366.036V67.153Z" transform="translate(-49.036 -49.542)" fill="#fb9800"/>
                <path id="Trazado_598179" data-name="Trazado 598179" d="M75.17,65.525v3.842l-.37.065V65.525Z" transform="translate(-55.183 -48.341)" fill="#fb9800"/>
                <path id="Trazado_598180" data-name="Trazado 598180" d="M84.112,63.967v3.7l-.367.109V63.967Z" transform="translate(-61.782 -47.191)" fill="#fb9800"/>
                <path id="Trazado_598181" data-name="Trazado 598181" d="M91.242,60.172v4.005c-.118.054-.24.112-.369.166V60.172Z" transform="translate(-67.041 -44.391)" fill="#fb9800"/>
                <path id="Trazado_598182" data-name="Trazado 598182" d="M96.264,57.58v3.828a4.041,4.041,0,0,1-.369.3V57.58Z" transform="translate(-70.746 -42.479)" fill="#fb9800"/>
                <g id="Grupo_156159" data-name="Grupo 156159" transform="translate(0.808 15.965)" style="mix-blend-mode: multiply;isolation: isolate">
                  <g id="Grupo_156158" data-name="Grupo 156158">
                    <g id="Grupo_156157" data-name="Grupo 156157" clip-path="url(#clip-path-3)">
                      <path id="Trazado_598183" data-name="Trazado 598183" d="M27.79,62.009a4.129,4.129,0,0,1-.369.3,6.43,6.43,0,0,1-.948.553c-.118.055-.24.112-.369.166a12.6,12.6,0,0,1-1.5.529l-.367.109c-.609.163-1.269.311-1.976.437l-.369.065c-.579.094-1.186.181-1.819.25-.122.011-.244.025-.366.036-.421.043-.852.076-1.292.1-.122.011-.244.018-.369.025-.55.029-1.113.047-1.686.058-.122,0-.244,0-.369,0h-.263c-.536,0-1.062-.011-1.581-.029-.124,0-.246-.011-.369-.015-.529-.025-1.047-.061-1.553-.1l-.371-.033c-.35-.033-.691-.072-1.026-.112-.124-.018-.247-.033-.369-.051-.426-.058-.841-.123-1.239-.2-.125-.021-.247-.044-.367-.069-.347-.065-.68-.137-1-.217-.125-.029-.247-.058-.367-.09-.4-.1-.778-.21-1.134-.329-.126-.04-.248-.083-.368-.126a9.615,9.615,0,0,1-1.026-.427c-.131-.061-.253-.126-.371-.192a4.781,4.781,0,0,1-.789-.532,2.771,2.771,0,0,1-.371-.376,1.41,1.41,0,0,1-.341-.876v1.831a1.41,1.41,0,0,0,.341.876,2.77,2.77,0,0,0,.371.376,4.781,4.781,0,0,0,.789.532c.118.065.24.13.371.192a9.562,9.562,0,0,0,1.026.427c.12.044.242.087.368.127.356.119.734.228,1.134.329.12.033.242.061.367.09.322.08.655.152,1,.217.12.026.243.047.367.069.4.073.813.138,1.239.2.122.018.245.033.369.051.335.04.676.08,1.026.112l.371.033c.506.044,1.024.08,1.553.1.122,0,.244.011.369.014.519.018,1.045.029,1.581.029h.263c.124,0,.247,0,.369,0,.573-.011,1.136-.029,1.686-.058.125-.007.247-.015.369-.025.44-.029.87-.061,1.292-.1.122-.011.244-.025.366-.036.633-.069,1.24-.156,1.819-.25l.369-.065c.708-.127,1.368-.275,1.976-.437l.367-.109a12.6,12.6,0,0,0,1.5-.529c.129-.054.251-.112.369-.166a6.478,6.478,0,0,0,.948-.554,4,4,0,0,0,.369-.3,1.586,1.586,0,0,0,.579-1.132V60.877a1.587,1.587,0,0,1-.579,1.132" transform="translate(-3.08 -60.877)" fill="#e5d6d6"/>
                    </g>
                  </g>
                </g>
                <path id="Trazado_598184" data-name="Trazado 598184" d="M32.523,31.923v4.142a1.59,1.59,0,0,1-.58,1.133,4.1,4.1,0,0,1-.369.3,6.39,6.39,0,0,1-.948.554c-.118.054-.24.112-.369.167a12.605,12.605,0,0,1-1.5.528l-.367.109c-.609.163-1.269.311-1.976.438l-.369.065c-.58.094-1.186.181-1.818.249-.122.011-.245.025-.367.036-.421.043-.852.076-1.292.1-.122.011-.245.018-.369.025-.55.029-1.113.047-1.686.058-.122,0-.244,0-.368,0h-.264c-.535,0-1.062-.011-1.58-.029-.125,0-.247-.011-.369-.014-.529-.025-1.047-.062-1.553-.105L16,39.658c-.35-.032-.691-.072-1.026-.112-.124-.018-.247-.032-.37-.051-.425-.058-.841-.123-1.239-.2-.125-.021-.247-.043-.367-.068-.348-.065-.681-.137-1-.217-.124-.029-.246-.058-.366-.09-.4-.1-.778-.21-1.134-.329-.126-.04-.248-.083-.369-.127A9.6,9.6,0,0,1,9.1,38.041c-.131-.062-.253-.127-.371-.192a4.809,4.809,0,0,1-.789-.532,2.738,2.738,0,0,1-.371-.376,1.409,1.409,0,0,1-.342-.876V31.923Z" transform="translate(-5.336 -23.551)" fill="#ffb500"/>
                <path id="Trazado_598185" data-name="Trazado 598185" d="M32.523,22.524c0,1.846-5.661,3.343-12.645,3.343s-12.645-1.5-12.645-3.343,5.661-3.343,12.645-3.343,12.645,1.5,12.645,3.343" transform="translate(-5.336 -14.151)" fill="#ffd400"/>
                <path id="Trazado_598186" data-name="Trazado 598186" d="M36.631,23.763c0,1.27-4.647,2.3-10.379,2.3s-10.379-1.03-10.379-2.3,4.647-2.3,10.379-2.3,10.379,1.029,10.379,2.3" transform="translate(-11.71 -15.835)" fill="#ffc400"/>
                <path id="Trazado_598187" data-name="Trazado 598187" d="M16.19,24.329c1.138-1,5.211-1.734,10.063-1.734s8.925.738,10.063,1.734a.778.778,0,0,0,.317-.565c0-1.27-4.647-2.3-10.379-2.3s-10.379,1.029-10.379,2.3a.778.778,0,0,0,.317.565" transform="translate(-11.71 -15.835)" fill="#fb9800"/>
                <path id="Trazado_598188" data-name="Trazado 598188" d="M8.908,39v3.538a2.723,2.723,0,0,1-.371-.376V39Z" transform="translate(-6.298 -28.772)" fill="#fb9800"/>
                <path id="Trazado_598189" data-name="Trazado 598189" d="M13.328,42.96v3.224c-.131-.061-.253-.126-.371-.192V42.96Z" transform="translate(-9.559 -31.693)" fill="#fb9800"/>
                <path id="Trazado_598190" data-name="Trazado 598190" d="M18.653,45.387v3.141c-.127-.04-.248-.084-.369-.127V45.387Z" transform="translate(-13.489 -33.484)" fill="#fb9800"/>
                <path id="Trazado_598191" data-name="Trazado 598191" d="M24.379,47.015v3.134c-.124-.029-.246-.058-.367-.09V47.015Z" transform="translate(-17.715 -34.685)" fill="#fb9800"/>
                <path id="Trazado_598192" data-name="Trazado 598192" d="M29.6,48.574v3.01c-.125-.021-.247-.043-.367-.068V48.574Z" transform="translate(-21.569 -35.835)" fill="#fb9800"/>
                <path id="Trazado_598193" data-name="Trazado 598193" d="M35.728,49.609v2.985c-.124-.018-.247-.032-.369-.051V49.609Z" transform="translate(-26.086 -36.599)" fill="#fb9800"/>
                <path id="Trazado_598194" data-name="Trazado 598194" d="M41.05,49.609v3.13l-.371-.033v-3.1Z" transform="translate(-30.011 -36.599)" fill="#fb9800"/>
                <path id="Trazado_598195" data-name="Trazado 598195" d="M48.386,49.609v3.249c-.125,0-.247-.011-.369-.015V49.609Z" transform="translate(-35.424 -36.599)" fill="#fb9800"/>
                <path id="Trazado_598196" data-name="Trazado 598196" d="M56.823,48.574V52.12c-.122,0-.245,0-.368,0v-3.55Z" transform="translate(-41.649 -35.835)" fill="#fb9800"/>
                <path id="Trazado_598197" data-name="Trazado 598197" d="M64.658,47.015v3.871c-.122.011-.245.018-.369.025v-3.9Z" transform="translate(-47.429 -34.685)" fill="#fb9800"/>
                <path id="Trazado_598198" data-name="Trazado 598198" d="M70.989,47.015v3.731c-.122.01-.245.025-.367.036V47.015Z" transform="translate(-52.101 -34.685)" fill="#fb9800"/>
                <path id="Trazado_598199" data-name="Trazado 598199" d="M79.324,45.387v3.842l-.369.066V45.387Z" transform="translate(-58.248 -33.484)" fill="#fb9800"/>
                <path id="Trazado_598200" data-name="Trazado 598200" d="M88.265,43.828v3.705l-.366.109V43.828Z" transform="translate(-64.847 -32.334)" fill="#fb9800"/>
                <path id="Trazado_598201" data-name="Trazado 598201" d="M95.4,40.035V44.04c-.118.055-.24.112-.368.167V40.035Z" transform="translate(-70.105 -29.536)" fill="#fb9800"/>
                <path id="Trazado_598202" data-name="Trazado 598202" d="M100.417,37.441v3.828a4.1,4.1,0,0,1-.369.3V37.441Z" transform="translate(-73.81 -27.622)" fill="#fb9800"/>
                <g id="Grupo_156162" data-name="Grupo 156162" transform="translate(1.897 10.684)" style="mix-blend-mode: multiply;isolation: isolate">
                  <g id="Grupo_156161" data-name="Grupo 156161">
                    <g id="Grupo_156160" data-name="Grupo 156160" clip-path="url(#clip-path-3)">
                      <path id="Trazado_598203" data-name="Trazado 598203" d="M31.944,41.871a4.1,4.1,0,0,1-.369.3,6.345,6.345,0,0,1-.948.553c-.118.055-.24.113-.369.167a12.621,12.621,0,0,1-1.5.528l-.367.109c-.609.163-1.269.311-1.976.438l-.369.065c-.58.094-1.186.181-1.819.25-.122.01-.245.025-.367.036-.421.043-.852.076-1.292.1-.122.011-.245.018-.369.025-.55.029-1.112.047-1.686.058-.122,0-.244,0-.368,0h-.264q-.8,0-1.58-.029c-.125,0-.247-.011-.369-.015-.529-.025-1.047-.061-1.553-.1L16,44.331c-.35-.032-.691-.072-1.026-.112-.124-.018-.247-.033-.37-.051-.425-.058-.841-.123-1.239-.2-.125-.021-.247-.043-.367-.069-.348-.065-.681-.137-1-.217-.124-.029-.246-.058-.366-.09-.4-.1-.778-.21-1.134-.329-.126-.04-.248-.083-.369-.127A9.631,9.631,0,0,1,9.1,42.713c-.131-.061-.253-.126-.371-.191a4.809,4.809,0,0,1-.789-.532,2.724,2.724,0,0,1-.371-.376,1.409,1.409,0,0,1-.342-.876v1.831a1.409,1.409,0,0,0,.342.876,2.739,2.739,0,0,0,.371.376,4.808,4.808,0,0,0,.789.532c.117.065.24.13.371.192a9.58,9.58,0,0,0,1.026.427c.121.043.242.087.369.127.356.119.734.228,1.134.329.12.032.242.061.366.09.323.079.656.152,1,.217.12.025.242.047.367.069.4.072.813.137,1.239.2.123.018.245.033.37.051.335.04.676.08,1.026.112l.371.033c.506.044,1.024.08,1.553.105.122,0,.244.011.369.014.518.018,1.045.029,1.58.029h.264c.124,0,.246,0,.368,0,.574-.011,1.136-.029,1.686-.058.124-.007.247-.014.369-.025.44-.029.87-.062,1.292-.1.122-.011.244-.026.367-.036.632-.069,1.239-.156,1.819-.25l.369-.065c.708-.127,1.367-.275,1.976-.438l.367-.109a12.623,12.623,0,0,0,1.5-.528c.129-.054.251-.112.369-.167a6.39,6.39,0,0,0,.948-.553,4.144,4.144,0,0,0,.369-.3,1.59,1.59,0,0,0,.58-1.133V40.738a1.589,1.589,0,0,1-.58,1.133" transform="translate(-7.233 -40.738)" fill="#e5d6d6"/>
                    </g>
                  </g>
                </g>
                <path id="Trazado_598204" data-name="Trazado 598204" d="M37.715,12.742v4.143a1.588,1.588,0,0,1-.579,1.132,4.157,4.157,0,0,1-.369.3,6.417,6.417,0,0,1-.948.554c-.118.054-.241.112-.369.166a12.587,12.587,0,0,1-1.5.529l-.367.108c-.609.163-1.269.311-1.976.438l-.369.065c-.579.094-1.186.181-1.818.25-.122.011-.245.025-.367.036-.421.043-.852.076-1.292.1-.122.011-.244.018-.368.025-.55.029-1.113.047-1.687.058-.122,0-.244,0-.368,0H25.07c-.535,0-1.062-.011-1.581-.029-.124,0-.246-.011-.368-.014-.529-.025-1.047-.061-1.553-.1l-.371-.033c-.35-.033-.692-.073-1.026-.112-.124-.018-.247-.033-.369-.051-.426-.058-.841-.123-1.239-.2-.124-.021-.246-.043-.366-.069-.348-.065-.681-.137-1-.217-.124-.029-.247-.058-.366-.091-.4-.1-.778-.21-1.134-.329-.127-.04-.249-.083-.368-.127A9.652,9.652,0,0,1,14.3,18.86c-.131-.062-.253-.127-.371-.192a4.767,4.767,0,0,1-.788-.532,2.721,2.721,0,0,1-.371-.376,1.408,1.408,0,0,1-.342-.876V12.742Z" transform="translate(-9.166 -9.4)" fill="#ffb500"/>
                <path id="Trazado_598205" data-name="Trazado 598205" d="M37.715,3.343c0,1.847-5.661,3.343-12.645,3.343S12.425,5.19,12.425,3.343,18.087,0,25.07,0,37.715,1.5,37.715,3.343" transform="translate(-9.166)" fill="#ffd400"/>
                <path id="Trazado_598206" data-name="Trazado 598206" d="M41.823,4.583c0,1.27-4.647,2.3-10.379,2.3s-10.379-1.03-10.379-2.3,4.647-2.3,10.379-2.3,10.379,1.03,10.379,2.3" transform="translate(-15.541 -1.684)" fill="#ffc400"/>
                <path id="Trazado_598207" data-name="Trazado 598207" d="M21.382,5.149c1.138-1,5.211-1.734,10.063-1.734s8.925.737,10.062,1.734a.778.778,0,0,0,.317-.565c0-1.27-4.647-2.3-10.379-2.3s-10.379,1.029-10.379,2.3a.778.778,0,0,0,.317.565" transform="translate(-15.541 -1.685)" fill="#fb9800"/>
                <path id="Trazado_598208" data-name="Trazado 598208" d="M14.1,19.819v3.538a2.736,2.736,0,0,1-.371-.376V19.819Z" transform="translate(-10.129 -14.621)" fill="#fb9800"/>
                <path id="Trazado_598209" data-name="Trazado 598209" d="M18.519,23.779V27c-.131-.062-.253-.126-.371-.191V23.779Z" transform="translate(-13.389 -17.543)" fill="#fb9800"/>
                <path id="Trazado_598210" data-name="Trazado 598210" d="M23.845,26.206v3.141c-.127-.04-.249-.083-.368-.126V26.206Z" transform="translate(-17.32 -19.333)" fill="#fb9800"/>
                <path id="Trazado_598211" data-name="Trazado 598211" d="M29.572,27.835v3.133c-.124-.029-.247-.058-.366-.091V27.835Z" transform="translate(-21.547 -20.535)" fill="#fb9800"/>
                <path id="Trazado_598212" data-name="Trazado 598212" d="M34.795,29.394V32.4c-.124-.021-.246-.043-.367-.068V29.394Z" transform="translate(-25.399 -21.685)" fill="#fb9800"/>
                <path id="Trazado_598213" data-name="Trazado 598213" d="M40.919,30.428v2.985c-.124-.018-.247-.033-.369-.051V30.428Z" transform="translate(-29.915 -22.448)" fill="#fb9800"/>
                <path id="Trazado_598214" data-name="Trazado 598214" d="M46.243,30.428v3.13l-.371-.033v-3.1Z" transform="translate(-33.842 -22.448)" fill="#fb9800"/>
                <path id="Trazado_598215" data-name="Trazado 598215" d="M53.577,30.428v3.249c-.124,0-.246-.011-.368-.014V30.428Z" transform="translate(-39.255 -22.448)" fill="#fb9800"/>
                <path id="Trazado_598216" data-name="Trazado 598216" d="M62.015,29.394V32.94c-.122,0-.244,0-.368,0V29.394Z" transform="translate(-45.48 -21.685)" fill="#fb9800"/>
                <path id="Trazado_598217" data-name="Trazado 598217" d="M69.85,27.835v3.871c-.122.011-.244.018-.368.025v-3.9Z" transform="translate(-51.26 -20.535)" fill="#fb9800"/>
                <path id="Trazado_598218" data-name="Trazado 598218" d="M76.181,27.835v3.731c-.122.011-.245.025-.367.036V27.835Z" transform="translate(-55.931 -20.535)" fill="#fb9800"/>
                <path id="Trazado_598219" data-name="Trazado 598219" d="M84.516,26.206v3.843l-.369.065V26.206Z" transform="translate(-62.079 -19.333)" fill="#fb9800"/>
                <path id="Trazado_598220" data-name="Trazado 598220" d="M93.457,24.648v3.705l-.367.108V24.648Z" transform="translate(-68.676 -18.184)" fill="#fb9800"/>
                <path id="Trazado_598221" data-name="Trazado 598221" d="M100.587,20.854v4.005c-.118.054-.24.112-.369.166V20.854Z" transform="translate(-73.935 -15.385)" fill="#fb9800"/>
                <path id="Trazado_598222" data-name="Trazado 598222" d="M105.61,18.261v3.828a4.152,4.152,0,0,1-.369.3V18.261Z" transform="translate(-77.641 -13.472)" fill="#fb9800"/>
                <g id="Grupo_156165" data-name="Grupo 156165" transform="translate(3.259 5.654)" style="mix-blend-mode: multiply;isolation: isolate">
                  <g id="Grupo_156164" data-name="Grupo 156164">
                    <g id="Grupo_156163" data-name="Grupo 156163" clip-path="url(#clip-path-5)">
                      <path id="Trazado_598223" data-name="Trazado 598223" d="M37.136,22.69a4.152,4.152,0,0,1-.369.3,6.421,6.421,0,0,1-.949.554c-.118.055-.24.112-.369.167a12.6,12.6,0,0,1-1.5.528l-.367.108c-.609.163-1.269.311-1.977.438l-.369.065c-.579.094-1.186.181-1.818.25-.122.011-.245.025-.367.036-.421.043-.852.076-1.292.1-.122.011-.244.018-.368.025-.55.029-1.113.047-1.687.058-.122,0-.244,0-.368,0H25.07c-.536,0-1.062-.011-1.581-.029-.124,0-.247-.011-.368-.014-.529-.025-1.048-.062-1.553-.105l-.371-.033c-.35-.033-.691-.073-1.026-.112-.124-.018-.247-.033-.369-.051-.426-.058-.841-.123-1.239-.2-.124-.022-.247-.043-.367-.069-.348-.065-.681-.137-1-.217-.124-.029-.246-.058-.366-.09-.4-.1-.778-.21-1.134-.329-.127-.04-.249-.083-.368-.127a9.5,9.5,0,0,1-1.027-.427c-.131-.061-.253-.126-.371-.192a4.767,4.767,0,0,1-.788-.532,2.722,2.722,0,0,1-.371-.376,1.409,1.409,0,0,1-.342-.876v1.831a1.409,1.409,0,0,0,.342.876,2.752,2.752,0,0,0,.371.376,4.783,4.783,0,0,0,.788.532c.118.065.24.13.371.192a9.712,9.712,0,0,0,1.027.427c.12.043.242.087.368.126.356.119.734.228,1.134.329.12.033.242.062.366.091.323.079.655.152,1,.217.12.026.242.047.367.069.4.073.813.138,1.239.2.123.018.245.033.369.051.335.039.676.079,1.026.112l.371.033c.506.044,1.024.08,1.553.1.122,0,.244.011.368.014.519.018,1.045.029,1.581.029h.263c.124,0,.246,0,.368,0q.861-.016,1.687-.058c.124-.007.246-.014.368-.025.441-.029.871-.062,1.292-.1.122-.011.245-.025.367-.036.633-.069,1.239-.156,1.818-.25l.369-.065c.708-.126,1.368-.275,1.977-.437l.367-.109a12.6,12.6,0,0,0,1.5-.529c.128-.054.251-.112.369-.166a6.4,6.4,0,0,0,.949-.554,4.2,4.2,0,0,0,.369-.3,1.588,1.588,0,0,0,.579-1.132V21.558a1.589,1.589,0,0,1-.579,1.132" transform="translate(-12.425 -21.558)" fill="#e5d6d6"/>
                    </g>
                  </g>
                </g>
                <path id="Trazado_598224" data-name="Trazado 598224" d="M85.144,134.115c-.163.131-.326.257-.495.376-.139.1-.278.2-.422.285a10.276,10.276,0,0,1-.961.557c-.155.083-.31.158-.467.23a10.9,10.9,0,0,1-2.023.69c-.182.049-.371.088-.553.122a10.974,10.974,0,0,1-1.331.159,6.045,6.045,0,0,1-.634.021,9.578,9.578,0,0,1-1.482-.089c-.256-.031-.506-.073-.75-.123a10.665,10.665,0,0,1-1.716-.488,9.494,9.494,0,0,1-.994-.427,10.987,10.987,0,0,1-3.755-3l-1.577-1.962,17.282-13.891,1.577,1.962a11.011,11.011,0,0,1,2.212,4.7,8.836,8.836,0,0,1,.162,1.011,10.45,10.45,0,0,1,.05,1.816c-.008.244-.032.489-.061.734a11.22,11.22,0,0,1-.555,2.383c-.065.18-.132.365-.209.544a10.854,10.854,0,0,1-1.072,1.987c-.1.145-.2.288-.306.429a10.389,10.389,0,0,1-1.116,1.263c-.117.121-.24.236-.369.35s-.286.247-.433.365" transform="translate(-50.154 -85.998)" fill="#c57c00"/>
                <path id="Trazado_598225" data-name="Trazado 598225" d="M124.891,178.025c-.139.1-.278.2-.422.285L122.53,175.9l.4-.318Z" transform="translate(-90.396 -129.532)" fill="#9d6500"/>
                <path id="Trazado_598226" data-name="Trazado 598226" d="M118.24,179.527c-.155.082-.31.158-.467.23l-2.383-2.965.4-.318Z" transform="translate(-85.128 -130.192)" fill="#9d6500"/>
                <path id="Trazado_598227" data-name="Trazado 598227" d="M108.607,182.858c-.182.049-.371.088-.553.122l-2.347-2.92.4-.318Z" transform="translate(-77.985 -132.603)" fill="#9d6500"/>
                <path id="Trazado_598228" data-name="Trazado 598228" d="M100.944,183.334a6.04,6.04,0,0,1-.634.021l-2.436-3.031.4-.318Z" transform="translate(-72.205 -132.798)" fill="#9d6500"/>
                <path id="Trazado_598229" data-name="Trazado 598229" d="M92.983,183.21c-.256-.031-.506-.073-.75-.123l-2.281-2.838.4-.318Z" transform="translate(-66.361 -132.743)" fill="#9d6500"/>
                <path id="Trazado_598230" data-name="Trazado 598230" d="M83.8,181.155a9.5,9.5,0,0,1-.994-.427l-1.958-2.436.4-.318Z" transform="translate(-59.645 -131.299)" fill="#9d6500"/>
                <path id="Trazado_598231" data-name="Trazado 598231" d="M129.166,173.837l-2.1-2.612.4-.318,2.073,2.58c-.117.122-.24.236-.369.35" transform="translate(-93.743 -126.085)" fill="#9d6500"/>
                <path id="Trazado_598232" data-name="Trazado 598232" d="M134.733,167.565,132.6,164.91l.4-.318,2.045,2.544c-.1.145-.2.288-.306.429" transform="translate(-97.824 -121.427)" fill="#9d6500"/>
                <path id="Trazado_598233" data-name="Trazado 598233" d="M139.975,158.342l-2.139-2.661.392-.315,1.955,2.432c-.065.18-.132.365-.209.544" transform="translate(-101.688 -114.62)" fill="#9d6500"/>
                <path id="Trazado_598234" data-name="Trazado 598234" d="M142.205,146.326l-2.381-2.962.4-.318,2.047,2.547c-.008.244-.032.489-.061.734" transform="translate(-103.154 -105.531)" fill="#9d6500"/>
                <path id="Trazado_598235" data-name="Trazado 598235" d="M142.456,136.861l-2.307-2.871.4-.318,1.75,2.178a8.764,8.764,0,0,1,.162,1.011" transform="translate(-103.394 -98.616)" fill="#9d6500"/>
                <path id="Trazado_598236" data-name="Trazado 598236" d="M76.69,120.5a11.085,11.085,0,1,1,1.695-15.585A11.085,11.085,0,0,1,76.69,120.5" transform="translate(-43.276 -74.348)" fill="#ffc400"/>
                <path id="Trazado_598237" data-name="Trazado 598237" d="M80.81,124.335A9.2,9.2,0,1,1,82.217,111.4a9.2,9.2,0,0,1-1.407,12.936" transform="translate(-48.576 -79.648)" fill="#ffac00"/>
                <path id="Trazado_598238" data-name="Trazado 598238" d="M68.955,123.05A9.2,9.2,0,0,1,76.578,108.1a9.2,9.2,0,1,0-1.984,18.26,9.166,9.166,0,0,1-5.639-3.307" transform="translate(-48.576 -79.653)" fill="#bb6a00"/>
                <path id="Trazado_598239" data-name="Trazado 598239" d="M79.137,133.981l1.489-1.2a5.5,5.5,0,0,1-1.164-2.777l1.272-.44a5.039,5.039,0,0,0,1.072,2.632,1.987,1.987,0,0,0,2.854.593c.811-.652.85-1.629.415-3.076-.619-1.977-.687-3.451.6-4.482a3.1,3.1,0,0,1,4.162.318l1.489-1.2.735.914-1.43,1.149a5.044,5.044,0,0,1,1.024,2.331l-1.269.413a4.573,4.573,0,0,0-.992-2.26,1.722,1.722,0,0,0-2.523-.544c-.767.616-.712,1.47-.211,3.179.6,2.016.451,3.4-.861,4.453a3.289,3.289,0,0,1-4.378-.314l-1.533,1.232Z" transform="translate(-58.383 -91.743)" fill="#c57c00"/>
                <path id="Trazado_598240" data-name="Trazado 598240" d="M76.013,126.207c0,.21,0,.415-.017.621-.008.172-.021.34-.042.507a10.344,10.344,0,0,1-.168,1.1c-.033.173-.071.34-.113.508a10.9,10.9,0,0,1-.73,2.009c-.076.172-.164.344-.251.507a10.938,10.938,0,0,1-.709,1.137,6.122,6.122,0,0,1-.382.508,9.539,9.539,0,0,1-1,1.1c-.185.18-.374.348-.566.507a10.625,10.625,0,0,1-1.456,1.032,9.421,9.421,0,0,1-.956.507,10.987,10.987,0,0,1-4.694,1.045H62.414V115.12h2.517a11.008,11.008,0,0,1,5.05,1.221,8.865,8.865,0,0,1,.889.507,10.493,10.493,0,0,1,1.447,1.1c.184.159.361.331.533.507a11.186,11.186,0,0,1,1.51,1.926c.1.164.2.331.293.5a10.883,10.883,0,0,1,.877,2.081c.05.168.1.335.142.507a10.386,10.386,0,0,1,.285,1.661c.022.168.034.336.042.507.008.189.013.378.013.566" transform="translate(-46.045 -84.929)" fill="#c57c00"/>
                <path id="Trazado_598241" data-name="Trazado 598241" d="M105.378,159.761c-.008.172-.021.34-.042.507h-3.1v-.507Z" transform="translate(-75.427 -117.863)" fill="#9d6500"/>
                <path id="Trazado_598242" data-name="Trazado 598242" d="M102.383,165.885c-.033.173-.071.34-.113.508h-3.8v-.508Z" transform="translate(-72.642 -122.38)" fill="#9d6500"/>
                <path id="Trazado_598243" data-name="Trazado 598243" d="M98.944,175.483c-.076.172-.164.344-.251.507H94.946v-.507Z" transform="translate(-70.046 -129.461)" fill="#9d6500"/>
                <path id="Trazado_598244" data-name="Trazado 598244" d="M94.513,181.753a6.11,6.11,0,0,1-.382.508H90.242v-.508Z" transform="translate(-66.575 -134.087)" fill="#9d6500"/>
                <path id="Trazado_598245" data-name="Trazado 598245" d="M89.429,187.88c-.185.18-.374.348-.566.507H85.222v-.507Z" transform="translate(-62.872 -138.607)" fill="#9d6500"/>
                <path id="Trazado_598246" data-name="Trazado 598246" d="M82.073,193.75a9.449,9.449,0,0,1-.956.507H77.992v-.507Z" transform="translate(-57.538 -142.938)" fill="#9d6500"/>
                <path id="Trazado_598247" data-name="Trazado 598247" d="M104.791,153.805H101.44V153.3h3.309c.021.168.034.336.042.507" transform="translate(-74.837 -113.095)" fill="#9d6500"/>
                <path id="Trazado_598248" data-name="Trazado 598248" d="M103.391,145.537H99.985v-.507h3.264c.05.168.1.336.142.507" transform="translate(-73.763 -106.995)" fill="#9d6500"/>
                <path id="Trazado_598249" data-name="Trazado 598249" d="M99.48,135.681H96.066v-.5h3.121c.1.164.2.331.293.5" transform="translate(-70.872 -99.727)" fill="#9d6500"/>
                <path id="Trazado_598250" data-name="Trazado 598250" d="M91.517,126.408h-3.8V125.9h3.268c.184.159.361.331.533.507" transform="translate(-64.713 -92.883)" fill="#9d6500"/>
                <path id="Trazado_598251" data-name="Trazado 598251" d="M84.3,120.282H80.616v-.508H83.41a8.9,8.9,0,0,1,.889.508" transform="translate(-59.474 -88.362)" fill="#9d6500"/>
                <path id="Trazado_598252" data-name="Trazado 598252" d="M42.309,126.209a11.085,11.085,0,1,1-11.085-11.085,11.085,11.085,0,0,1,11.085,11.085" transform="translate(-14.857 -84.932)" fill="#ffc400"/>
                <path id="Trazado_598253" data-name="Trazado 598253" d="M45.725,131.509a9.2,9.2,0,1,1-9.2-9.2,9.2,9.2,0,0,1,9.2,9.2" transform="translate(-20.157 -90.232)" fill="#ffac00"/>
                <path id="Trazado_598254" data-name="Trazado 598254" d="M37.292,146.478a9.2,9.2,0,0,1-6.879-15.309A9.2,9.2,0,1,0,43.4,144.155a9.164,9.164,0,0,1-6.11,2.324" transform="translate(-20.157 -96.769)" fill="#bb6a00"/>
                <path id="Trazado_598255" data-name="Trazado 598255" d="M54.645,141.98v-1.91a5.506,5.506,0,0,1-2.893-.832l.454-1.267a5.041,5.041,0,0,0,2.723.813c1.343,0,2.251-.775,2.251-1.853,0-1.04-.737-1.683-2.137-2.25-1.929-.757-3.12-1.627-3.12-3.272a3.1,3.1,0,0,1,2.856-3.045v-1.91H55.95v1.834a5.048,5.048,0,0,1,2.459.662l-.473,1.248a4.57,4.57,0,0,0-2.383-.643c-1.456,0-2,.87-2,1.627,0,.983.7,1.475,2.345,2.156,1.948.794,2.932,1.778,2.932,3.461a3.289,3.289,0,0,1-2.988,3.215v1.967Z" transform="translate(-38.18 -93.29)" fill="#c57c00"/>
              </g>
            </g>
          </g>
        </g>
        <g id="Grupo_156171" data-name="Grupo 156171" transform="translate(383.624 1233.774)">
          <g id="Grupo_156170" data-name="Grupo 156170" clip-path="url(#clip-path-11)">
            <path id="Trazado_598256" data-name="Trazado 598256" d="M0,45.807A46.434,46.434,0,0,1,16.475,32.184c8.579-4.147,34.417-13.37,41.116-16.934A83.7,83.7,0,0,0,77.861,0l33.515,20.56A97.513,97.513,0,0,1,95.362,35.629c-9.3,6.79-34.072,10.24-46.312,20.086C41.127,62.09,32.045,78.82,32.045,78.82Z" fill="#bde377"/>
            <path id="Trazado_598257" data-name="Trazado 598257" d="M62.353,93,35.68,64.445l.385-.645c.166-.279,4.229-6.9,17.582-13.112,4.178-1.945,10.236-4.4,16.649-7,8.458-3.431,17.2-6.978,21.972-9.5,6.778-3.592,16.85-12.494,16.951-12.583l.55-.487L140.3,39.541l-.722.891a48.692,48.692,0,0,1-4.859,4.933,76.207,76.207,0,0,1-14.1,9.994c-5.694,3.135-11.74,4.929-18.141,6.829-8.953,2.657-18.211,5.4-26.357,12.148C70,79.4,63.09,91.683,63.02,91.806ZM38.2,64.222l23.754,25.43c1.926-3.278,7.57-12.451,12.89-16.854,8.461-7,17.917-9.81,27.062-12.524,6.295-1.868,12.241-3.633,17.746-6.664a70.328,70.328,0,0,0,17.607-13.568L109.989,23.578c-2.241,1.948-10.651,9.117-16.787,12.368-4.857,2.574-13.651,6.141-22.156,9.59-6.389,2.591-12.424,5.039-16.557,6.963A52.443,52.443,0,0,0,41.3,60.916a24.772,24.772,0,0,0-3.1,3.306" transform="translate(-31.59 -18.692)" fill="#6ba638"/>
            <path id="Trazado_598258" data-name="Trazado 598258" d="M354.25,192.583c-4.228,2.073-6.985,7.291-1.094,14.235s17.142,8.365,22.065,6.657,6.346-10.561,1.546-15.353-12.925-10.243-22.517-5.539" transform="translate(-309.682 -168.912)" fill="#6ba638"/>
            <path id="Trazado_598259" data-name="Trazado 598259" d="M245.8,386.274c1.028,1.3,1.116,2.937.2,3.666s-2.5.268-3.524-1.028-1.116-2.937-.2-3.666,2.5-.268,3.524,1.028" transform="translate(-213.942 -340.78)" fill="#6ba638"/>
            <path id="Trazado_598260" data-name="Trazado 598260" d="M708.6,147.657c1.211,1.127,1.544,2.736.745,3.595s-2.428.64-3.639-.487-1.544-2.736-.745-3.595,2.428-.64,3.639.487" transform="translate(-623.772 -129.836)" fill="#6ba638"/>
            <path id="Trazado_598261" data-name="Trazado 598261" d="M430.222,235.59l2.416-1.135-1.184-1.215c3.356-1.787,3.465-4.319,1.559-6.428-2.56-2.833-6.847-1.807-8.525-1.1s-3.2,1.162-4.325.477c-.931-.565-.331-2.226,1.1-3.078,2.112-1.256,2.852-.288,2.852-.288l2.719-1.081a5.75,5.75,0,0,0-6.267-.9l-1.137-.884-1.728.873,1.007.956a4.291,4.291,0,0,0-1.395,5.588c2.2,3.038,6.071,1.845,7.566,1,1.789-1.016,3.447-1.263,4.172-.661,2.289,1.9,1.1,3.028-.863,4-2.642,1.311-3.778-.339-3.778-.339L420.6,233.3s1.286,3.609,8.6,1.034Z" transform="translate(-369.013 -194.746)" fill="#bde377"/>
          </g>
        </g>
        <g id="Grupo_156141" data-name="Grupo 156141" transform="translate(323.514 1234.876)">
          <path id="Trazado_598061" data-name="Trazado 598061" d="M132.935,348.516v34.518h7.739v-1.366H134.3V349.883h43.241v31.786h-5.989v1.367h7.355V348.516Z" transform="translate(-106.99 -280.495)" fill="#b0c0d2"/>
          <g id="Grupo_156140" data-name="Grupo 156140">
            <g id="Grupo_156139" data-name="Grupo 156139" clip-path="url(#clip-path-12)">
              <path id="Trazado_598062" data-name="Trazado 598062" d="M105,63.8a4.563,4.563,0,0,1-4.562,4.562H4.56A4.561,4.561,0,0,1,0,63.8V4.56A4.56,4.56,0,0,1,4.56,0h95.878A4.562,4.562,0,0,1,105,4.56Z" fill="#eff6f8"/>
              <path id="Trazado_598063" data-name="Trazado 598063" d="M100.438,0H4.56A4.559,4.559,0,0,0,0,4.56V63.8a4.561,4.561,0,0,0,4.56,4.562h95.878A4.563,4.563,0,0,0,105,63.8V4.56A4.561,4.561,0,0,0,100.438,0m3.326,60.416H1.234V6.118H103.764Z" fill="#b0c0d2"/>
              <g id="grafico-de-torta" transform="translate(28.771 1.14)">
                <path id="Trazado_598283" data-name="Trazado 598283" d="M34.34,69.675a20.113,20.113,0,1,1-14.221-34.33V55.454Z" transform="translate(0 -21.301)" fill="#2cbfae"/>
                <path id="Trazado_598284" data-name="Trazado 598284" d="M255.458,17.693,241.237,31.919V11.809A20.069,20.069,0,0,1,255.458,17.693Z" transform="translate(-218.324)" fill="#ef5261"/>
                <path id="Trazado_598285" data-name="Trazado 598285" d="M279.026,111.514a20.011,20.011,0,0,1-5.895,14.221l-14.218-14.221,14.221-14.226A20.035,20.035,0,0,1,279.026,111.514Z" transform="translate(-234.321 -77.36)" fill="#f6c863"/>
              </g>
            </g>
          </g>
        </g>
        <g id="Grupo_156172" data-name="Grupo 156172" transform="matrix(0.966, 0.259, -0.259, 0.966, 266.862, -85.598)">
          <path id="Trazado_598262" data-name="Trazado 598262" d="M373.836,292.224l-7.887.734,2.9,2.9-6.715,6.715a.936.936,0,1,0,1.324,1.324l6.715-6.715,2.926,2.926Z" transform="translate(58.471 952.229)" fill="#529d2e"/>
          <path id="Trazado_598263" data-name="Trazado 598263" d="M631.6,258.188l-15.289,1.423,5.626,5.628-13.015,13.015a1.815,1.815,0,1,0,2.567,2.568L624.5,267.805l5.671,5.672Z" transform="translate(-173.816 980.657)" fill="#fc8116"/>
          <path id="Trazado_598264" data-name="Trazado 598264" d="M556.29,168.785,545.1,169.827l4.118,4.118-9.525,9.525a1.328,1.328,0,1,0,1.878,1.878l9.525-9.524,4.15,4.151Z" transform="translate(-98.507 1049.39)" fill="#fcd03e"/>
        </g>
      </g>
      <g id="Grupo_156183" data-name="Grupo 156183" transform="translate(670.356 1210.281)">
        <g id="Grupo_156182" data-name="Grupo 156182" clip-path="url(#clip-path-13)">
          <path id="Trazado_598266" data-name="Trazado 598266" d="M103.489,310.093l-.89,1.211-2.257-1.13.972-13.3s-1.856-13.277,1.907-21.116c-.725-2.47-.874-6.439-.747-10.649.257-8.54,12.3-10.623,11.463-4.378a74.653,74.653,0,0,1-3.944,15.995Z" transform="translate(-72.272 -185.184)" fill="#ff9a83"/>
          <path id="Trazado_598267" data-name="Trazado 598267" d="M106.5,448.55c.9.611,1.626.32,1.808.914.281.918-1.935,1.333-8.677-.582a5.928,5.928,0,0,1,.134-2.293l2.257,1.13.89-1.211s2.549,1.336,3.588,2.042" transform="translate(-71.7 -321.599)" fill="#3f4662"/>
          <path id="Trazado_598268" data-name="Trazado 598268" d="M90.691,311.555l-2.209.954-.548-.873s1.04-13.847.83-18.8c-.226-5.293-.577-11.515,2.435-15.624A88.157,88.157,0,0,1,87.334,264.3c-3.078-12.776,10.66-4.308,10.872-.146a88.051,88.051,0,0,1-.236,14.031Z" transform="translate(-62.579 -185.485)" fill="#ffaa90"/>
          <path id="Trazado_598269" data-name="Trazado 598269" d="M89.9,451.72a6.754,6.754,0,0,0,.737,1.807c.455.973.525,1.16,1.688,1.45,1.349.337,1.768-.055,3.294-.351.476-.874-1.168-2.256-1.575-2.978a5.761,5.761,0,0,0-.728-1.1,4.885,4.885,0,0,0-2.663.986l-.548-.873Z" transform="translate(-64.752 -324.508)" fill="#3f4662"/>
          <path id="Trazado_598270" data-name="Trazado 598270" d="M79.809,148.707C87.6,156.5,87.74,176.442,81.491,190.9c-2.01,4.649-15.459,3.577-15.459,3.577-1.138-2.162-16.408-33.072-5.167-44.312.767-.767,14.582-4.041,18.944-1.457" transform="translate(-40.88 -106.403)" fill="#749863"/>
          <path id="Trazado_598271" data-name="Trazado 598271" d="M99.911,33.3c-1.223,4.908,1.464,5.127,1.464,5.127,0,11.232-11.541,1.571-11.538-.522,2.681-.178,3.876-1.789,4.664-4.473-.482-2.794,5.409-.132,5.409-.132" transform="translate(-64.706 -23.157)" fill="#ff9a83"/>
          <path id="Trazado_598272" data-name="Trazado 598272" d="M73.349,7.973c2.566.412,4.368,2.473,4.025,4.6s-2.7,3.519-5.266,3.1-4.368-2.473-4.026-4.6,2.7-3.519,5.266-3.105" transform="translate(-49.007 -5.69)" fill="#f8ce77"/>
          <path id="Trazado_598273" data-name="Trazado 598273" d="M76.933,28.678a3.753,3.753,0,0,1-1.715-.723,3.515,3.515,0,0,1-1.094-1.736.116.116,0,1,1,.219-.078,3.29,3.29,0,0,0,1.017,1.63,3.525,3.525,0,0,0,1.61.678,4.591,4.591,0,0,0,2.93-.534,3.181,3.181,0,0,0,1.666-2.229,3.031,3.031,0,0,0,0-.92.116.116,0,0,1,.23-.033,3.246,3.246,0,0,1,0,.99c-.348,2.111-2.775,3.289-4.862,2.955" transform="translate(-53.384 -17.742)" fill="#f8ce77"/>
          <path id="Trazado_598274" data-name="Trazado 598274" d="M102.059,11.548c-.516-1.458-1.408-3.743-1.171-4.912.274-1.359,1.518-1.913,2.618-2.3s2.417-.74,3.486.144c.919.759,1.511,2.833,1.934,4.319.54,1.9.884,3.143-.237,5.221-.257.479-.4,1.591-3.072.707a4.829,4.829,0,0,1-3.559-3.176" transform="translate(-72.637 -2.827)" fill="#ffaa90"/>
          <path id="Trazado_598275" data-name="Trazado 598275" d="M103.026,28.49c-1.654-.652-.459,1.432.045,1.9a1.552,1.552,0,0,0,.964.429Z" transform="translate(-73.595 -20.43)" fill="#fc8b59"/>
          <path id="Trazado_598276" data-name="Trazado 598276" d="M94.207,8.094c-.326-.043,1.794,2.13-.043,3.6a6.16,6.16,0,0,1-3.1-2.548,9.567,9.567,0,0,1-.834-5.995A4.6,4.6,0,0,1,93.336.4,8.3,8.3,0,0,1,98.352.382c1.077.514,2.09,1.767,1.684,2.381-.377-.316-2.1-.758-2.4-.14-3.475-.083-.944,3.908-3.43,5.472" transform="translate(-64.873 0)" fill="#f8ce77"/>
          <path id="Trazado_598277" data-name="Trazado 598277" d="M78.7,58.986c-4.424-9.564-10.967-9.219-10.967-9.219l-3.344,6.152-5.938-6.071s-6.558-1.377-10.815,8.263c-10.8,22.026,3.146,16.195,4,20.426,4.029,2.666,22.451,2.764,21.64-1.082A164.568,164.568,0,0,1,78.7,58.986" transform="translate(-31.366 -35.844)" fill="#eff6f8"/>
          <path id="Trazado_598278" data-name="Trazado 598278" d="M158.829,101.328l-7.019-.158s.083-8.275.635-11c.335-1.654,3.312-6.527,4.228-7.442,1.23,2.237,2.155,18.6,2.155,18.6" transform="translate(-109.342 -59.583)" fill="#eff6f8"/>
          <path id="Trazado_598279" data-name="Trazado 598279" d="M36.166,94.86c-.355-5.318-3.976-1.285-3.38,1.234.712,3.014,1.346,7.328,2.6,10.2.617,1.409,2.751,5.434,4.118,5.731.717.156,2.041-1.464,2.673-1.994.954-.8.622-.907,1.212-2.355.955-2.342-7.078-10.579-7.226-12.816" transform="translate(-23.566 -66.44)" fill="#ffaa90"/>
          <path id="Trazado_598280" data-name="Trazado 598280" d="M8.834,72.572s-1.206-.6-.473,1.466c.1.275,1.6,1.195,1.2,1.433C7.178,76.877,2.591,71.342,2.023,72.9c-1.816-.988-1.6.043-1.514.426-1.182.3.039,1.1.252,1.309-1.04,1.041,2.776,3.515,2.776,3.515L6.28,80.046l2.884,1.463s2.878-1.027,3.292-1.977c.405-.929-.743-4.437-.743-4.437l-1.27-1.577Z" transform="translate(0 -52.209)" fill="#ffaa90"/>
          <path id="Trazado_598281" data-name="Trazado 598281" d="M148.355,117.049h-14.8L125.574,130.6l15.23.056Z" transform="translate(-90.445 -84.305)" fill="#232c4c"/>
          <path id="Trazado_598282" data-name="Trazado 598282" d="M180.139,134.671c-.339,3.254-3.035,6.848-5.865,3.419,0-.025,0,.025,0,0,.442-.853,1.565.342,2.515,0-1.3-.995-3.682-1.575-3.994-2.544.048-.356.3-.387.781-.417-1.55-.2-1.5-2.058.35-1.417-.2-2.308,5.236-.23,6.213.962" transform="translate(-124.225 -95.554)" fill="#ffaa90"/>
        </g>
      </g>
      <g id="Grupo_156185" data-name="Grupo 156185" transform="matrix(0.719, 0.695, -0.695, 0.719, 746.268, 1249.476)">
        <g id="Grupo_156184" data-name="Grupo 156184" clip-path="url(#clip-path-14)">
          <path id="Trazado_598286" data-name="Trazado 598286" d="M7.727,0a15.4,15.4,0,0,0-3.9,6.835c-.8,3.809.22,12.264-1.035,15.115S0,27.476,0,27.476l14.6,7.075s2.862-6.625,3.158-9.646c.412-4.206-1.447-9.689-.485-12.451a67.759,67.759,0,0,1,4.714-9.137Z" transform="translate(0.001)" fill="#bde377"/>
          <path id="Trazado_598287" data-name="Trazado 598287" d="M43.706,23.755a18.659,18.659,0,0,0-3.123,6.634c-.722,3.523-.066,11.287-1.141,13.937s-2.375,5.144-2.375,5.144l12.271,6.075a38.122,38.122,0,0,0,2.77-7.975c.67-3.267-1.154-9.846-.394-12.435a67.7,67.7,0,0,1,3.827-8.309Z" transform="translate(-35.549 -22.782)" fill="#6ba638"/>
          <path id="Trazado_598288" data-name="Trazado 598288" d="M78.886,58.416a35.318,35.318,0,0,1,3.395-7.491l-9.734-2.654A14.618,14.618,0,0,0,69.661,54.2c-.831,3.324-.148,11.141-1.1,13.679s-2.08,4.933-2.08,4.933L76.9,77.391a32.819,32.819,0,0,0,2.421-6.532c.982-4.04-1.035-9.946-.439-12.443" transform="translate(-63.761 -46.294)" fill="#bde377"/>
          <path id="Trazado_598289" data-name="Trazado 598289" d="M122.965,286.218c-.033-2.216,1.253-3.387,4.57-2.721,3.814.767,6.03,3.132,5.993,4.677s-.289,4.839-4.878,3.936c-3.052-.6-5.864-3.009-5.861-4.09a8.534,8.534,0,0,1,.177-1.8" transform="translate(-117.759 -271.707)" fill="#6ba638"/>
          <path id="Trazado_598290" data-name="Trazado 598290" d="M153.308,328.854l.118-.92-.583-.111c.1-1.3-.278-2.219-1.574-2.495-1.741-.37-2.132.968-2.56,1.606s-.605,1.1-1.1.979-.75-.425-.676-1.111c.129-1.194.9-.931.9-.931l.159-1.147a1.8,1.8,0,0,0-2.227,1.449l-.542-.106-.1.765.564.183a2.041,2.041,0,0,0,1.371,2.028,1.909,1.909,0,0,0,2.535-1.289c.384-.769.729-1.261,1.243-1.161.676.131.917.622.721,1.414a1.09,1.09,0,0,1-1.4.82L150,329.9s2.23.827,2.718-1.206Z" transform="translate(-139.182 -311.381)" fill="#bde377"/>
          <path id="Trazado_598291" data-name="Trazado 598291" d="M275.137,146.765a.948.948,0,1,1-.493-1.21.924.924,0,0,1,.493,1.21" transform="translate(-262.14 -139.509)" fill="#6ba638"/>
          <path id="Trazado_598292" data-name="Trazado 598292" d="M192.366,611.061a.948.948,0,1,1-.493-1.21.924.924,0,0,1,.493,1.21" transform="translate(-182.759 -584.788)" fill="#6ba638"/>
        </g>
      </g>
      <rect id="Rectángulo_44104" data-name="Rectángulo 44104" width="18" height="7" transform="translate(823 1277)" fill="#fc8116" opacity="0.39"/>
      <rect id="Rectángulo_44105" data-name="Rectángulo 44105" width="18" height="7" transform="translate(823 1247)" fill="#fc8116" opacity="0.39"/>
      <rect id="Rectángulo_44106" data-name="Rectángulo 44106" width="18" height="7" transform="translate(754 1245)" fill="#fc8116" opacity="0.39"/>
      <path id="Trazado_598295" data-name="Trazado 598295" d="M2919.468-10431.177h-4.583v-15.443" transform="translate(-2148 11700)" fill="none" stroke="#707070" stroke-width="1"/>
      <path id="Trazado_598296" data-name="Trazado 598296" d="M2966.1-10430.459h13.251v6.257" transform="translate(-2148 11700)" fill="none" stroke="#707070" stroke-width="1"/>
      <path id="Trazado_598297" data-name="Trazado 598297" d="M2954.04-10453v-3.98h25.406v2.19" transform="translate(-2148 11700)" fill="none" stroke="#707070" stroke-width="1"/>
    </g>
  </g>
</svg>
