<svg xmlns="http://www.w3.org/2000/svg" width="101" height="101" viewBox="0 0 101 101">
  <g id="Grupo_156604" data-name="Grupo 156604" transform="translate(-745 -6646)">
    <circle id="Elipse_1150" data-name="Elipse 1150" cx="50.5" cy="50.5" r="50.5" transform="translate(745 6646)" fill="#b0c710"/>
    <g id="Grupo_153079" data-name="Grupo 153079">
      <g id="escritorio" transform="translate(765 6656.658)">
        <path id="Trazado_216795" data-name="Trazado 216795" d="M166.169,401l-10.834,3.863-.411,1.436A5.434,5.434,0,0,1,150,410.013v.966h22.469l-1.434-2.271-3.041-4.817Z" transform="translate(-130.686 -339.783)" fill="#dad9d6"/>
        <path id="Trazado_216796" data-name="Trazado 216796" d="M206.538,380.161l-1.514-5.3L198.778,371l-6.245,3.863-1.1,3.863h10.834l.411,1.436a5.434,5.434,0,0,0,4.924,3.715l1.931.966,1.931-.966A5.434,5.434,0,0,1,206.538,380.161Z" transform="translate(-166.781 -313.646)" fill="#b6b6b6"/>
        <path id="Trazado_216797" data-name="Trazado 216797" d="M437,270.314h3.863a3.874,3.874,0,0,0,3.863-3.863v-7.726L437,251Z" transform="translate(-380.732 -209.097)" fill="#b6b6b6"/>
        <path id="Trazado_216798" data-name="Trazado 216798" d="M0,214.177a3.874,3.874,0,0,0,3.863,3.863H56.268a3.874,3.874,0,0,0,3.863-3.863V191L0,206.451Z" transform="translate(0 -156.823)" fill="#dad9d6"/>
        <path id="Trazado_216799" data-name="Trazado 216799" d="M440.863,11H437l3.863,38.628h3.863V14.863A3.874,3.874,0,0,0,440.863,11Z" transform="translate(-380.732)" fill="#404242"/>
        <path id="Trazado_216800" data-name="Trazado 216800" d="M60.131,14.863A3.874,3.874,0,0,0,56.268,11H3.863A3.874,3.874,0,0,0,0,14.863V49.628H60.131V45.765L32,30.312Z" fill="#565959"/>
        <path id="Trazado_216801" data-name="Trazado 216801" d="M276.634,40.977l-3.862,0L248.5,56.427,272.771,71.88l3.863,0S276.634,40.977,276.634,40.977Z" transform="translate(-216.503 -26.115)" fill="#4b88d5"/>
        <path id="Trazado_216802" data-name="Trazado 216802" d="M82.406,40.976l-52.394,0S30.005,71.878,30,71.879l52.4,0S82.4,40.976,82.406,40.976Z" transform="translate(-26.137 -26.114)" fill="#4e8de7"/>
        <circle id="Elipse_5492" data-name="Elipse 5492" cx="1.931" cy="1.931" r="1.931" transform="translate(30.066 53.491)" fill="#fff"/>
        <path id="Trazado_216803" data-name="Trazado 216803" d="M126.882,472.931H86.966a.966.966,0,0,1,0-1.931h39.916a.966.966,0,0,1,0,1.931Z" transform="translate(-74.927 -400.77)" fill="#8f8f8b"/>
      </g>
      <g id="Grupo_153078" data-name="Grupo 153078" transform="translate(-0.94)">
        <g id="Grupo_153076" data-name="Grupo 153076" transform="translate(782.023 6674.139)">
          <g id="Grupo_153060" data-name="Grupo 153060">
            <path id="Trazado_216777" data-name="Trazado 216777" d="M27.977,12.564A11.53,11.53,0,1,1,16.441,1.04,11.53,11.53,0,0,1,27.977,12.564Z" fill="#fad086"/>
          </g>
          <g id="Grupo_153061" data-name="Grupo 153061">
            <path id="Trazado_216778" data-name="Trazado 216778" d="M26.7,12.565A10.253,10.253,0,1,1,16.442,2.317,10.253,10.253,0,0,1,26.7,12.565Z" fill="#ffca67"/>
          </g>
          <g id="Grupo_153062" data-name="Grupo 153062">
            <path id="Trazado_216779" data-name="Trazado 216779" d="M15.962,21.82a.244.244,0,0,1-.231-.257.237.237,0,0,1,.257-.231,9.1,9.1,0,0,0,.949,0,.238.238,0,0,1,.257.23.244.244,0,0,1-.23.257,9.45,9.45,0,0,1-1,0Zm-1-.1a9.406,9.406,0,0,1-.98-.213.244.244,0,1,1,.13-.471,8.686,8.686,0,0,0,.927.2.244.244,0,1,1-.077.483Zm2.714-.207a.244.244,0,0,1,.2-.28,8.807,8.807,0,0,0,.926-.2.241.241,0,0,1,.3.169.244.244,0,0,1-.169.3,9.273,9.273,0,0,1-.979.216.244.244,0,0,1-.28-.2Zm-4.644-.323a9.3,9.3,0,0,1-.91-.42.244.244,0,1,1,.228-.432,8.769,8.769,0,0,0,.862.4.244.244,0,0,1-.18.454Zm6.534-.149a.244.244,0,0,1,.136-.317,8.756,8.756,0,0,0,.861-.4.244.244,0,1,1,.23.431,9.205,9.205,0,0,1-.909.422.244.244,0,0,1-.317-.136Zm-8.3-.786a9.221,9.221,0,0,1-.8-.606.244.244,0,1,1,.316-.372,8.869,8.869,0,0,0,.757.573.244.244,0,0,1-.274.4Zm10.049-.084a.244.244,0,0,1,.064-.339,8.745,8.745,0,0,0,.755-.576.244.244,0,1,1,.316.372,9.275,9.275,0,0,1-.8.607.244.244,0,0,1-.339-.064ZM9.738,18.957a9.393,9.393,0,0,1-.651-.762.244.244,0,1,1,.387-.3,9.055,9.055,0,0,0,.617.722.244.244,0,1,1-.354.337Zm13.094-.015c-.258-.244.095-.4.6-1.069a.246.246,0,0,1,.342-.047c.3.229-.189.67-.6,1.107A.244.244,0,0,1,22.832,18.942ZM8.522,17.368a9.476,9.476,0,0,1-.472-.884.244.244,0,0,1,.443-.207,8.629,8.629,0,0,0,.448.837.244.244,0,0,1-.418.254Zm15.531.054a.245.245,0,0,1-.083-.335,8.679,8.679,0,0,0,.444-.839.244.244,0,1,1,.443.2,9.313,9.313,0,0,1-.469.886.245.245,0,0,1-.335.083ZM7.676,15.555a9.415,9.415,0,0,1-.271-.965.244.244,0,1,1,.477-.107,8.69,8.69,0,0,0,.256.914.244.244,0,1,1-.462.157Zm17.242.121a.244.244,0,0,1-.153-.309,8.834,8.834,0,0,0,.253-.915.246.246,0,0,1,.29-.186.243.243,0,0,1,.186.29,9.185,9.185,0,0,1-.267.967A.244.244,0,0,1,24.918,15.676ZM7.242,13.6a9.523,9.523,0,0,1-.057-1,.244.244,0,0,1,.243-.245h0a.244.244,0,0,1,.245.243,9.031,9.031,0,0,0,.054.948.244.244,0,0,1-.216.269c-.152-.054-.249-.031-.269-.216Zm18.144.182a.244.244,0,0,1-.216-.269,8.961,8.961,0,0,0,.051-.948.268.268,0,0,1,.244-.27.223.223,0,0,1,.244.218v.052a9.44,9.44,0,0,1-.053,1c-.025.237-.369.252-.269.217ZM7.478,11.87c-.1-.053-.266-.049-.243-.269a9.2,9.2,0,0,1,.157-.989.249.249,0,0,1,.29-.188.244.244,0,0,1,.188.29,8.782,8.782,0,0,0-.149.938.244.244,0,0,1-.242.219Zm17.686-.3a8.714,8.714,0,0,0-.157-.935.244.244,0,0,1,.476-.108,9.113,9.113,0,0,1,.167.989.244.244,0,0,1-.215.27c-.163-.058-.248-.028-.27-.215ZM7.81,9.952a.245.245,0,0,1-.154-.309,9.46,9.46,0,0,1,.368-.932.244.244,0,1,1,.444.2,8.682,8.682,0,0,0-.349.884A.245.245,0,0,1,7.81,9.952Zm16.937-.234a8.911,8.911,0,0,0-.357-.88.244.244,0,1,1,.441-.208,9.31,9.31,0,0,1,.377.928.244.244,0,0,1-.462.159ZM8.575,8.158a.244.244,0,0,1-.084-.335,9.439,9.439,0,0,1,.56-.832.244.244,0,1,1,.39.295,8.837,8.837,0,0,0-.531.788A.244.244,0,0,1,8.575,8.158ZM23.94,8a8.876,8.876,0,0,0-.538-.782.244.244,0,0,1,.387-.3,9.325,9.325,0,0,1,.567.825A.244.244,0,1,1,23.94,8ZM9.707,6.572a.244.244,0,0,1-.01-.345,9.366,9.366,0,0,1,.725-.692.244.244,0,0,1,.318.371,8.825,8.825,0,0,0-.686.656.244.244,0,0,1-.345.01ZM22.783,6.5a8.678,8.678,0,0,0-.692-.649.244.244,0,1,1,.314-.374,9.056,9.056,0,0,1,.731.685.244.244,0,1,1-.353.338ZM11.152,5.264a.243.243,0,0,1,.063-.339,9.206,9.206,0,0,1,.856-.521.244.244,0,1,1,.231.43,8.87,8.87,0,0,0-.811.493.243.243,0,0,1-.339-.063Zm10.18.018a9,9,0,0,0-.816-.486.244.244,0,1,1,.227-.432,9.246,9.246,0,0,1,.861.513.244.244,0,0,1-.272.405ZM12.843,4.3a.244.244,0,0,1,.135-.318,9.258,9.258,0,0,1,.948-.324.244.244,0,1,1,.132.47,8.551,8.551,0,0,0-.9.307A.245.245,0,0,1,12.843,4.3Zm6.809.1a8.61,8.61,0,0,0-.9-.3.244.244,0,1,1,.128-.471,9.289,9.289,0,0,1,.952.315.244.244,0,1,1-.178.455ZM14.7,3.716a.244.244,0,0,1,.2-.281,9.2,9.2,0,0,1,1-.111.232.232,0,0,1,.257.23.244.244,0,0,1-.23.257,8.825,8.825,0,0,0-.943.105A.244.244,0,0,1,14.7,3.716Zm3.119.188a9,9,0,0,0-.944-.1.244.244,0,0,1-.232-.256A.238.238,0,0,1,16.9,3.32a9.333,9.333,0,0,1,1,.1A.244.244,0,0,1,17.824,3.9Z" fill="#f5b948"/>
          </g>
        </g>
        <g id="Grupo_153077" data-name="Grupo 153077" transform="translate(782.023 6674.139)">
          <path id="Trazado_216780" data-name="Trazado 216780" d="M16,18.8l.006-1.1a6.53,6.53,0,0,1-3.687-1.658l1.1-1.3a5.2,5.2,0,0,0,2.591,1.321l.016-2.915c-1.9-.464-3.269-1.093-3.258-3.045.01-1.827,1.445-2.924,3.291-3.009l0-.751.962.005,0,.766A6.276,6.276,0,0,1,20.14,8.264l-.984,1.377a4.86,4.86,0,0,0-2.143-.883L17,11.583h.045c1.922.462,3.344,1.136,3.334,3.12-.01,1.865-1.5,2.941-3.411,3.024l-.006,1.082ZM14.6,9.94c0,.827.591,1.09,1.434,1.367l.014-2.6C15.282,8.773,14.607,9.172,14.6,9.94Zm3.94,4.9c0-.866-.658-1.146-1.555-1.42l-.014,2.7C17.777,16.041,18.538,15.643,18.542,14.836Z" fill="#f5b948"/>
        </g>
      </g>
    </g>
  </g>
</svg>
