<svg xmlns="http://www.w3.org/2000/svg" width="101" height="101" viewBox="0 0 101 101">
  <g id="Grupo_156606" data-name="Grupo 156606" transform="translate(-745 -6485)">
    <circle id="Elipse_1145" data-name="Elipse 1145" cx="50.5" cy="50.5" r="50.5" transform="translate(745 6485)" fill="#529d2e"/>
    <g id="monedas-de-un-dolar" transform="translate(781.761 6499.323)">
      <g id="Grupo_153075" data-name="Grupo 153075">
        <g id="Grupo_153063" data-name="Grupo 153063" transform="translate(-1 -3)">
          <g id="Grupo_153060" data-name="Grupo 153060">
            <path id="Trazado_216777" data-name="Trazado 216777" d="M27.977,12.564A11.53,11.53,0,1,1,16.441,1.04,11.53,11.53,0,0,1,27.977,12.564Z" fill="#fad086"/>
          </g>
          <g id="Grupo_153061" data-name="Grupo 153061">
            <path id="Trazado_216778" data-name="Trazado 216778" d="M26.7,12.565A10.253,10.253,0,1,1,16.442,2.317,10.253,10.253,0,0,1,26.7,12.565Z" fill="#ffca67"/>
          </g>
          <g id="Grupo_153062" data-name="Grupo 153062">
            <path id="Trazado_216779" data-name="Trazado 216779" d="M15.962,21.82a.244.244,0,0,1-.231-.257.237.237,0,0,1,.257-.231,9.1,9.1,0,0,0,.949,0,.238.238,0,0,1,.257.23.244.244,0,0,1-.23.257,9.45,9.45,0,0,1-1,0Zm-1-.1a9.406,9.406,0,0,1-.98-.213.244.244,0,1,1,.13-.471,8.686,8.686,0,0,0,.927.2.244.244,0,1,1-.077.483Zm2.714-.207a.244.244,0,0,1,.2-.28,8.807,8.807,0,0,0,.926-.2.241.241,0,0,1,.3.169.244.244,0,0,1-.169.3,9.273,9.273,0,0,1-.979.216.244.244,0,0,1-.28-.2Zm-4.644-.323a9.3,9.3,0,0,1-.91-.42.244.244,0,1,1,.228-.432,8.769,8.769,0,0,0,.862.4.244.244,0,0,1-.18.454Zm6.534-.149a.244.244,0,0,1,.136-.317,8.756,8.756,0,0,0,.861-.4.244.244,0,1,1,.23.431,9.205,9.205,0,0,1-.909.422.244.244,0,0,1-.317-.136Zm-8.3-.786a9.221,9.221,0,0,1-.8-.606.244.244,0,1,1,.316-.372,8.869,8.869,0,0,0,.757.573.244.244,0,0,1-.274.4Zm10.049-.084a.244.244,0,0,1,.064-.339,8.745,8.745,0,0,0,.755-.576.244.244,0,1,1,.316.372,9.275,9.275,0,0,1-.8.607.244.244,0,0,1-.339-.064ZM9.738,18.957a9.393,9.393,0,0,1-.651-.762.244.244,0,1,1,.387-.3,9.055,9.055,0,0,0,.617.722.244.244,0,1,1-.354.337Zm13.094-.015c-.258-.244.095-.4.6-1.069a.246.246,0,0,1,.342-.047c.3.229-.189.67-.6,1.107A.244.244,0,0,1,22.832,18.942ZM8.522,17.368a9.476,9.476,0,0,1-.472-.884.244.244,0,0,1,.443-.207,8.629,8.629,0,0,0,.448.837.244.244,0,0,1-.418.254Zm15.531.054a.245.245,0,0,1-.083-.335,8.679,8.679,0,0,0,.444-.839.244.244,0,1,1,.443.2,9.313,9.313,0,0,1-.469.886.245.245,0,0,1-.335.083ZM7.676,15.555a9.415,9.415,0,0,1-.271-.965.244.244,0,1,1,.477-.107,8.69,8.69,0,0,0,.256.914.244.244,0,1,1-.462.157Zm17.242.121a.244.244,0,0,1-.153-.309,8.834,8.834,0,0,0,.253-.915.246.246,0,0,1,.29-.186.243.243,0,0,1,.186.29,9.185,9.185,0,0,1-.267.967A.244.244,0,0,1,24.918,15.676ZM7.242,13.6a9.523,9.523,0,0,1-.057-1,.244.244,0,0,1,.243-.245h0a.244.244,0,0,1,.245.243,9.031,9.031,0,0,0,.054.948.244.244,0,0,1-.216.269c-.152-.054-.249-.031-.269-.216Zm18.144.182a.244.244,0,0,1-.216-.269,8.961,8.961,0,0,0,.051-.948.268.268,0,0,1,.244-.27.223.223,0,0,1,.244.218v.052a9.44,9.44,0,0,1-.053,1c-.025.237-.369.252-.269.217ZM7.478,11.87c-.1-.053-.266-.049-.243-.269a9.2,9.2,0,0,1,.157-.989.249.249,0,0,1,.29-.188.244.244,0,0,1,.188.29,8.782,8.782,0,0,0-.149.938.244.244,0,0,1-.242.219Zm17.686-.3a8.714,8.714,0,0,0-.157-.935.244.244,0,0,1,.476-.108,9.113,9.113,0,0,1,.167.989.244.244,0,0,1-.215.27c-.163-.058-.248-.028-.27-.215ZM7.81,9.952a.245.245,0,0,1-.154-.309,9.46,9.46,0,0,1,.368-.932.244.244,0,1,1,.444.2,8.682,8.682,0,0,0-.349.884A.245.245,0,0,1,7.81,9.952Zm16.937-.234a8.911,8.911,0,0,0-.357-.88.244.244,0,1,1,.441-.208,9.31,9.31,0,0,1,.377.928.244.244,0,0,1-.462.159ZM8.575,8.158a.244.244,0,0,1-.084-.335,9.439,9.439,0,0,1,.56-.832.244.244,0,1,1,.39.295,8.837,8.837,0,0,0-.531.788A.244.244,0,0,1,8.575,8.158ZM23.94,8a8.876,8.876,0,0,0-.538-.782.244.244,0,0,1,.387-.3,9.325,9.325,0,0,1,.567.825A.244.244,0,1,1,23.94,8ZM9.707,6.572a.244.244,0,0,1-.01-.345,9.366,9.366,0,0,1,.725-.692.244.244,0,0,1,.318.371,8.825,8.825,0,0,0-.686.656.244.244,0,0,1-.345.01ZM22.783,6.5a8.678,8.678,0,0,0-.692-.649.244.244,0,1,1,.314-.374,9.056,9.056,0,0,1,.731.685.244.244,0,1,1-.353.338ZM11.152,5.264a.243.243,0,0,1,.063-.339,9.206,9.206,0,0,1,.856-.521.244.244,0,1,1,.231.43,8.87,8.87,0,0,0-.811.493.243.243,0,0,1-.339-.063Zm10.18.018a9,9,0,0,0-.816-.486.244.244,0,1,1,.227-.432,9.246,9.246,0,0,1,.861.513.244.244,0,0,1-.272.405ZM12.843,4.3a.244.244,0,0,1,.135-.318,9.258,9.258,0,0,1,.948-.324.244.244,0,1,1,.132.47,8.551,8.551,0,0,0-.9.307A.245.245,0,0,1,12.843,4.3Zm6.809.1a8.61,8.61,0,0,0-.9-.3.244.244,0,1,1,.128-.471,9.289,9.289,0,0,1,.952.315.244.244,0,1,1-.178.455ZM14.7,3.716a.244.244,0,0,1,.2-.281,9.2,9.2,0,0,1,1-.111.232.232,0,0,1,.257.23.244.244,0,0,1-.23.257,8.825,8.825,0,0,0-.943.105A.244.244,0,0,1,14.7,3.716Zm3.119.188a9,9,0,0,0-.944-.1.244.244,0,0,1-.232-.256A.238.238,0,0,1,16.9,3.32a9.333,9.333,0,0,1,1,.1A.244.244,0,0,1,17.824,3.9Z" fill="#f5b948"/>
          </g>
        </g>
        <g id="Grupo_153064" data-name="Grupo 153064" transform="translate(-1 -3)">
          <path id="Trazado_216780" data-name="Trazado 216780" d="M16,18.8l.006-1.1a6.53,6.53,0,0,1-3.687-1.658l1.1-1.3a5.2,5.2,0,0,0,2.591,1.321l.016-2.915c-1.9-.464-3.269-1.093-3.258-3.045.01-1.827,1.445-2.924,3.291-3.009l0-.751.962.005,0,.766A6.276,6.276,0,0,1,20.14,8.264l-.984,1.377a4.86,4.86,0,0,0-2.143-.883L17,11.583h.045c1.922.462,3.344,1.136,3.334,3.12-.01,1.865-1.5,2.941-3.411,3.024l-.006,1.082ZM14.6,9.94c0,.827.591,1.09,1.434,1.367l.014-2.6C15.282,8.773,14.607,9.172,14.6,9.94Zm3.94,4.9c0-.866-.658-1.146-1.555-1.42l-.014,2.7C17.777,16.041,18.538,15.643,18.542,14.836Z" fill="#f5b948"/>
        </g>
        <g id="Grupo_153068" data-name="Grupo 153068" transform="translate(-23.06 -11.53)">
          <g id="Grupo_153065" data-name="Grupo 153065">
            <path id="Trazado_216781" data-name="Trazado 216781" d="M27.977,37.424A11.53,11.53,0,1,1,16.441,25.9,11.53,11.53,0,0,1,27.977,37.424Z" fill="#fad086"/>
          </g>
          <g id="Grupo_153066" data-name="Grupo 153066">
            <path id="Trazado_216782" data-name="Trazado 216782" d="M26.7,37.424A10.253,10.253,0,1,1,16.442,27.177,10.253,10.253,0,0,1,26.7,37.424Z" fill="#ffca67"/>
          </g>
          <g id="Grupo_153067" data-name="Grupo 153067">
            <path id="Trazado_216783" data-name="Trazado 216783" d="M15.962,46.679a.244.244,0,0,1-.231-.257.237.237,0,0,1,.257-.231,9.1,9.1,0,0,0,.949,0,.238.238,0,0,1,.257.23.244.244,0,0,1-.23.257,9.45,9.45,0,0,1-1,0Zm-1-.1a9.406,9.406,0,0,1-.98-.213.244.244,0,1,1,.13-.471,8.685,8.685,0,0,0,.927.2.244.244,0,1,1-.077.482Zm2.714-.207a.244.244,0,0,1,.2-.28,8.807,8.807,0,0,0,.926-.205.241.241,0,0,1,.3.169.244.244,0,0,1-.169.3,9.273,9.273,0,0,1-.979.216A.244.244,0,0,1,17.68,46.367Zm-4.644-.323a9.3,9.3,0,0,1-.91-.419.244.244,0,0,1,.228-.432,8.768,8.768,0,0,0,.862.4.244.244,0,1,1-.18.454Zm6.534-.149a.244.244,0,0,1,.136-.317,8.757,8.757,0,0,0,.861-.4.244.244,0,0,1,.23.431,9.206,9.206,0,0,1-.909.422.244.244,0,0,1-.317-.136Zm-8.3-.786a9.221,9.221,0,0,1-.8-.606.244.244,0,1,1,.316-.372,8.87,8.87,0,0,0,.757.574.244.244,0,0,1-.274.4Zm10.049-.084a.244.244,0,0,1,.064-.339,8.744,8.744,0,0,0,.755-.576.244.244,0,1,1,.316.372,9.274,9.274,0,0,1-.8.607.244.244,0,0,1-.339-.064ZM9.738,43.816a9.393,9.393,0,0,1-.651-.762.244.244,0,1,1,.387-.3,9.055,9.055,0,0,0,.617.722.244.244,0,1,1-.354.337ZM22.832,43.8c-.258-.244.095-.4.6-1.069a.246.246,0,0,1,.342-.047c.3.229-.189.67-.6,1.106A.244.244,0,0,1,22.832,43.8ZM8.522,42.227a9.476,9.476,0,0,1-.472-.884.244.244,0,1,1,.443-.207,8.63,8.63,0,0,0,.448.837.244.244,0,0,1-.418.254Zm15.531.054a.245.245,0,0,1-.083-.335,8.679,8.679,0,0,0,.444-.839.244.244,0,1,1,.443.2,9.313,9.313,0,0,1-.469.886.245.245,0,0,1-.335.083ZM7.676,40.414a9.415,9.415,0,0,1-.271-.965.244.244,0,1,1,.477-.107,8.69,8.69,0,0,0,.256.914.244.244,0,0,1-.462.157Zm17.242.121a.244.244,0,0,1-.153-.309,8.834,8.834,0,0,0,.253-.915.246.246,0,0,1,.29-.186.243.243,0,0,1,.186.29,9.185,9.185,0,0,1-.267.967.244.244,0,0,1-.309.153ZM7.242,38.46a9.523,9.523,0,0,1-.057-1,.244.244,0,0,1,.243-.245h0a.244.244,0,0,1,.245.243,9.031,9.031,0,0,0,.054.948.244.244,0,0,1-.216.269c-.152-.054-.249-.031-.269-.216Zm18.144.182a.244.244,0,0,1-.216-.269,8.963,8.963,0,0,0,.051-.948.268.268,0,0,1,.244-.27.223.223,0,0,1,.244.218v.052a9.44,9.44,0,0,1-.053,1c-.025.237-.369.252-.269.216ZM7.478,36.729c-.1-.053-.266-.049-.243-.269a9.2,9.2,0,0,1,.157-.989.249.249,0,0,1,.29-.188.244.244,0,0,1,.188.29,8.782,8.782,0,0,0-.149.938.244.244,0,0,1-.242.219Zm17.686-.3a8.714,8.714,0,0,0-.157-.935.244.244,0,0,1,.476-.108,9.113,9.113,0,0,1,.167.989.244.244,0,0,1-.215.27c-.163-.058-.248-.028-.27-.215ZM7.81,34.812a.245.245,0,0,1-.155-.309,9.436,9.436,0,0,1,.368-.932.244.244,0,1,1,.444.2,8.682,8.682,0,0,0-.349.884A.245.245,0,0,1,7.81,34.812Zm16.937-.234a8.91,8.91,0,0,0-.357-.88.244.244,0,0,1,.441-.208,9.311,9.311,0,0,1,.377.928.244.244,0,1,1-.462.159ZM8.575,33.018a.244.244,0,0,1-.084-.335,9.439,9.439,0,0,1,.56-.831.244.244,0,1,1,.39.295,8.822,8.822,0,0,0-.531.788A.244.244,0,0,1,8.575,33.018Zm15.366-.155a8.876,8.876,0,0,0-.538-.782.244.244,0,1,1,.387-.3,9.325,9.325,0,0,1,.567.825.244.244,0,1,1-.417.255ZM9.707,31.431a.244.244,0,0,1-.01-.345,9.366,9.366,0,0,1,.725-.692.244.244,0,1,1,.318.371,8.825,8.825,0,0,0-.686.656.244.244,0,0,1-.345.01Zm13.076-.071a8.678,8.678,0,0,0-.692-.649.244.244,0,0,1,.314-.374,9.056,9.056,0,0,1,.731.685.244.244,0,1,1-.353.337ZM11.152,30.123a.243.243,0,0,1,.063-.339,9.205,9.205,0,0,1,.856-.521.244.244,0,1,1,.231.43,8.87,8.87,0,0,0-.811.493.243.243,0,0,1-.339-.063Zm10.18.018a9,9,0,0,0-.816-.486.244.244,0,0,1,.227-.432,9.246,9.246,0,0,1,.861.513.244.244,0,0,1-.272.405Zm-8.489-.986a.244.244,0,0,1,.135-.318,9.258,9.258,0,0,1,.948-.324.244.244,0,1,1,.132.47,8.55,8.55,0,0,0-.9.307A.245.245,0,0,1,12.843,29.156Zm6.809.1a8.61,8.61,0,0,0-.9-.3.244.244,0,1,1,.128-.471,9.289,9.289,0,0,1,.952.315.244.244,0,1,1-.178.455ZM14.7,28.576a.244.244,0,0,1,.2-.281,9.2,9.2,0,0,1,1-.111.232.232,0,0,1,.257.23.244.244,0,0,1-.23.257,8.825,8.825,0,0,0-.943.105A.244.244,0,0,1,14.7,28.576Zm3.119.188a9,9,0,0,0-.944-.1.244.244,0,0,1-.232-.256.238.238,0,0,1,.256-.232,9.334,9.334,0,0,1,1,.1.244.244,0,0,1-.076.483Z" fill="#f5b948"/>
          </g>
        </g>
        <g id="Grupo_153069" data-name="Grupo 153069" transform="translate(-23.06 -11.53)">
          <path id="Trazado_216784" data-name="Trazado 216784" d="M16,43.663l.006-1.1a6.53,6.53,0,0,1-3.687-1.658l1.1-1.3a5.2,5.2,0,0,0,2.591,1.32l.016-2.915c-1.9-.464-3.269-1.093-3.258-3.045.01-1.827,1.445-2.924,3.291-3.009l0-.751.962.005,0,.766a6.276,6.276,0,0,1,3.119,1.143L19.156,34.5a4.86,4.86,0,0,0-2.143-.883L17,36.443h.045c1.922.463,3.344,1.136,3.334,3.12-.01,1.865-1.5,2.941-3.411,3.024l-.006,1.082ZM14.6,34.8c0,.827.591,1.09,1.434,1.367l.014-2.6c-.769.065-1.444.463-1.448,1.232Zm3.94,4.9c0-.866-.658-1.146-1.555-1.42l-.014,2.7C17.777,40.9,18.538,40.5,18.542,39.7Z" fill="#f5b948"/>
        </g>
        <g id="Grupo_153073" data-name="Grupo 153073" transform="translate(-3 6.239)">
          <g id="Grupo_153070" data-name="Grupo 153070">
            <path id="Trazado_216785" data-name="Trazado 216785" d="M45.083,25.894A11.53,11.53,0,1,1,33.548,14.37,11.53,11.53,0,0,1,45.083,25.894Z" fill="#fad086"/>
          </g>
          <g id="Grupo_153071" data-name="Grupo 153071">
            <path id="Trazado_216786" data-name="Trazado 216786" d="M43.806,25.894A10.253,10.253,0,1,1,33.548,15.647,10.253,10.253,0,0,1,43.806,25.894Z" fill="#ffca67"/>
          </g>
          <g id="Grupo_153072" data-name="Grupo 153072">
            <path id="Trazado_216787" data-name="Trazado 216787" d="M33.069,35.149a.244.244,0,0,1-.231-.257.237.237,0,0,1,.257-.231,9.1,9.1,0,0,0,.949,0,.238.238,0,0,1,.257.23.244.244,0,0,1-.23.257,9.4,9.4,0,0,1-1,0Zm-1-.1a9.406,9.406,0,0,1-.98-.213.244.244,0,0,1,.13-.471,8.685,8.685,0,0,0,.927.2.244.244,0,0,1-.077.482Zm2.714-.207a.244.244,0,0,1,.2-.28,8.807,8.807,0,0,0,.926-.205.241.241,0,0,1,.3.169.244.244,0,0,1-.169.3,9.3,9.3,0,0,1-.979.216.244.244,0,0,1-.28-.2Zm-4.643-.323a9.3,9.3,0,0,1-.91-.419.244.244,0,0,1,.228-.432,8.768,8.768,0,0,0,.862.4.244.244,0,1,1-.18.454Zm6.534-.149a.244.244,0,0,1,.136-.317,8.757,8.757,0,0,0,.861-.4.244.244,0,1,1,.23.431,9.206,9.206,0,0,1-.909.422.244.244,0,0,1-.317-.136Zm-8.3-.786a9.221,9.221,0,0,1-.8-.606.244.244,0,0,1,.316-.372,8.87,8.87,0,0,0,.757.574.244.244,0,0,1-.274.4ZM38.422,33.5a.244.244,0,0,1,.064-.339,8.744,8.744,0,0,0,.755-.576.244.244,0,1,1,.317.372,9.274,9.274,0,0,1-.8.607.244.244,0,0,1-.339-.064ZM26.845,32.287a9.393,9.393,0,0,1-.651-.762.244.244,0,0,1,.387-.3,9.055,9.055,0,0,0,.617.722.244.244,0,1,1-.354.337Zm13.093-.015c-.258-.244.1-.4.6-1.069a.246.246,0,0,1,.342-.047c.3.229-.189.67-.6,1.106A.244.244,0,0,1,39.938,32.271ZM25.629,30.7a9.476,9.476,0,0,1-.472-.884.244.244,0,0,1,.442-.207,8.629,8.629,0,0,0,.448.837.244.244,0,0,1-.418.254Zm15.531.054a.245.245,0,0,1-.083-.335,8.678,8.678,0,0,0,.444-.839.244.244,0,0,1,.443.2,9.313,9.313,0,0,1-.469.886A.245.245,0,0,1,41.16,30.751ZM24.783,28.884a9.415,9.415,0,0,1-.271-.965.244.244,0,1,1,.477-.107,8.69,8.69,0,0,0,.257.914.244.244,0,1,1-.462.157Zm17.242.121a.244.244,0,0,1-.153-.309,8.834,8.834,0,0,0,.253-.915.246.246,0,0,1,.29-.186.243.243,0,0,1,.186.29,9.185,9.185,0,0,1-.267.967.244.244,0,0,1-.309.153ZM24.349,26.93a9.524,9.524,0,0,1-.057-1,.244.244,0,0,1,.243-.245h0a.244.244,0,0,1,.244.243,9.031,9.031,0,0,0,.054.948.244.244,0,0,1-.216.269c-.152-.054-.249-.031-.269-.216Zm18.144.182a.244.244,0,0,1-.216-.269,8.961,8.961,0,0,0,.05-.948.268.268,0,0,1,.244-.27.223.223,0,0,1,.244.218V25.9a9.44,9.44,0,0,1-.053,1c-.025.237-.369.252-.269.216ZM24.584,25.2c-.1-.053-.266-.049-.243-.269a9.2,9.2,0,0,1,.157-.989.249.249,0,0,1,.29-.188.244.244,0,0,1,.188.29,8.782,8.782,0,0,0-.149.938A.244.244,0,0,1,24.584,25.2Zm17.686-.3a8.714,8.714,0,0,0-.157-.935.244.244,0,1,1,.476-.108,9.113,9.113,0,0,1,.167.989.244.244,0,0,1-.215.27C42.376,25.054,42.291,25.084,42.27,24.9ZM24.917,23.282a.245.245,0,0,1-.154-.309,9.436,9.436,0,0,1,.368-.933.244.244,0,1,1,.444.2,8.682,8.682,0,0,0-.348.884.245.245,0,0,1-.309.154Zm16.937-.234a8.91,8.91,0,0,0-.357-.88.244.244,0,1,1,.441-.208,9.31,9.31,0,0,1,.377.928.244.244,0,0,1-.462.159Zm-16.172-1.56a.244.244,0,0,1-.084-.335,9.439,9.439,0,0,1,.56-.831.244.244,0,0,1,.39.295,8.822,8.822,0,0,0-.531.788.244.244,0,0,1-.335.084Zm15.366-.155a8.877,8.877,0,0,0-.538-.782.244.244,0,0,1,.387-.3,9.326,9.326,0,0,1,.567.825.244.244,0,0,1-.417.255ZM26.814,19.9a.244.244,0,0,1-.01-.345,9.365,9.365,0,0,1,.725-.692.244.244,0,0,1,.318.371,8.825,8.825,0,0,0-.687.656.244.244,0,0,1-.345.01ZM39.89,19.83a8.678,8.678,0,0,0-.692-.649.244.244,0,0,1,.314-.374,9.056,9.056,0,0,1,.731.685.244.244,0,1,1-.353.337ZM28.259,18.593a.243.243,0,0,1,.063-.339,9.205,9.205,0,0,1,.856-.521.244.244,0,1,1,.231.43,8.87,8.87,0,0,0-.811.493A.243.243,0,0,1,28.259,18.593Zm10.18.018a9,9,0,0,0-.816-.486.244.244,0,0,1,.227-.432,9.246,9.246,0,0,1,.861.513.244.244,0,0,1-.272.405Zm-8.488-.985a.244.244,0,0,1,.135-.318,9.258,9.258,0,0,1,.948-.324.244.244,0,1,1,.132.47,8.55,8.55,0,0,0-.9.307.245.245,0,0,1-.318-.135Zm6.809.1a8.611,8.611,0,0,0-.9-.3.244.244,0,1,1,.128-.471,9.289,9.289,0,0,1,.952.315.244.244,0,1,1-.178.455Zm-4.948-.685a.244.244,0,0,1,.2-.281,9.2,9.2,0,0,1,1-.111.232.232,0,0,1,.257.23.244.244,0,0,1-.23.257,8.825,8.825,0,0,0-.943.105.244.244,0,0,1-.281-.2Zm3.119.188a9,9,0,0,0-.944-.1.244.244,0,0,1-.232-.256.238.238,0,0,1,.256-.232,9.333,9.333,0,0,1,1,.1.244.244,0,0,1-.076.483Z" fill="#f5b948"/>
          </g>
        </g>
        <g id="Grupo_153074" data-name="Grupo 153074" transform="translate(-3 6.239)">
          <path id="Trazado_216788" data-name="Trazado 216788" d="M33.1,32.133l.006-1.1a6.53,6.53,0,0,1-3.687-1.658l1.1-1.3a5.2,5.2,0,0,0,2.591,1.32l.016-2.915c-1.9-.464-3.269-1.093-3.258-3.045.01-1.827,1.445-2.924,3.291-3.009l0-.751.962.005,0,.766a6.276,6.276,0,0,1,3.119,1.143l-.984,1.377a4.86,4.86,0,0,0-2.143-.883L34.1,24.913h.045c1.922.462,3.344,1.136,3.334,3.12-.01,1.865-1.5,2.941-3.411,3.024l-.006,1.082ZM31.709,23.27c0,.827.591,1.09,1.434,1.367l.014-2.6c-.769.065-1.444.463-1.448,1.232Zm3.94,4.9c0-.866-.658-1.146-1.555-1.42l-.014,2.7C34.884,29.371,35.645,28.972,35.649,28.165Z" fill="#f5b948"/>
        </g>
      </g>
    </g>
    <g id="Grupo_156605" data-name="Grupo 156605">
      <path id="Trazado_216789" data-name="Trazado 216789" d="M133.609,251.114h0l-18.594,14.915a7.278,7.278,0,0,1-5.435,1.547l-25.06-3.05L77.842,267c-3.587-3.689-2.113-15.558-2.113-15.558l1.59-.435a6.03,6.03,0,0,1,2.724-5.442,5.942,5.942,0,0,1,.646-.367l10.746-5.248,5.527-2.7a5.252,5.252,0,0,1,5,9.224l-8.933,5.354,15.033,2.618a7.28,7.28,0,0,0,5.212-1.067l14.951-9.705a4.6,4.6,0,0,1,5.381,7.444Z" transform="translate(695.662 6296.112)" fill="#f1d0a5"/>
      <path id="Trazado_216790" data-name="Trazado 216790" d="M81.376,263.57c-10.295,1.337-17.392-4.7-21.686-10.379a6.053,6.053,0,0,1,1.561-8.75c10.367-6.645,13.048-6.4,14.47-4.98a5.251,5.251,0,0,0-6.92-2.214l-5.527,2.7-8.71,4.254v0l-2.035.993A6.027,6.027,0,0,0,49.156,251l-6.633,1.537S46.092,263.308,49.679,267l6.677-2.47,25.06,3.05a7.279,7.279,0,0,0,5.435-1.547l18.594-14.915C99.02,249.372,88.31,262.51,81.376,263.57Z" transform="translate(723.825 6296.111)" fill="#f1b986"/>
      <path id="Trazado_216791" data-name="Trazado 216791" d="M207.882,261.515a2.724,2.724,0,0,1-2.269-1.213,16.138,16.138,0,0,1-1.8-4.336,1.081,1.081,0,1,1,2.1-.521,14.131,14.131,0,0,0,1.5,3.654.584.584,0,0,0,.754.181l1.34-.715a1.081,1.081,0,1,1,1.018,1.908l-1.34.715a2.755,2.755,0,0,1-1.3.327Z" transform="translate(585.812 6280.782)" fill="#f1b986"/>
      <path id="Trazado_216792" data-name="Trazado 216792" d="M8.949,328.5A21.661,21.661,0,0,0,0,331.661,175.444,175.444,0,0,0,6.375,349.7a21.662,21.662,0,0,0,8.949-3.162A175.434,175.434,0,0,0,8.949,328.5Z" transform="translate(760.218 6217.556)" fill="#80a6c6"/>
      <path id="Trazado_216793" data-name="Trazado 216793" d="M42.2,425.538a21.633,21.633,0,0,1-8.948,3.163q-.958-2.3-1.848-4.631a23.028,23.028,0,0,0,9.336-3.266Q41.505,423.16,42.2,425.538Z" transform="translate(733.339 6138.557)" fill="#5b8eb8"/>
      <path id="Trazado_216794" data-name="Trazado 216794" d="M56.905,432.813a1.442,1.442,0,1,1,1.413-1.16A1.458,1.458,0,0,1,56.905,432.813Z" transform="translate(712.748 6130.744)" fill="#eeebee"/>
    </g>
  </g>
</svg>
