<svg xmlns="http://www.w3.org/2000/svg" width="101" height="101" viewBox="0 0 101 101">
  <g id="Grupo_156608" data-name="Grupo 156608" transform="translate(-745 -6162)">
    <circle id="Elipse_1146" data-name="Elipse 1146" cx="50.5" cy="50.5" r="50.5" transform="translate(745 6162)" fill="#529d2e"/>
    <g id="tienda_2_" data-name="tienda(2)" transform="translate(763.11 6154.489)">
      <rect id="Rect치ngulo_43522" data-name="Rect치ngulo 43522" width="55.62" height="47.606" transform="translate(4.686 36.401)" fill="#e9eaeb"/>
      <rect id="Rect치ngulo_43523" data-name="Rect치ngulo 43523" width="7.061" height="47.606" transform="translate(53.245 36.401)" fill="#b9bbc1"/>
      <path id="Trazado_216727" data-name="Trazado 216727" d="M91.393,36.4H35.384V28.585a1.13,1.13,0,0,1,1.131-1.13H90.262a1.13,1.13,0,0,1,1.131,1.13Z" transform="translate(-30.892)" fill="#fdc74f"/>
      <path id="Trazado_216728" data-name="Trazado 216728" d="M426.917,27.455h-5.931v5.883h7.061V28.585A1.131,1.131,0,0,0,426.917,27.455Z" transform="translate(-367.547)" fill="#fca629"/>
      <path id="Trazado_216729" data-name="Trazado 216729" d="M5.033,151.718h0A4.635,4.635,0,0,1,.4,147.083v-3.776h9.27v3.776A4.635,4.635,0,0,1,5.033,151.718Z" transform="translate(-0.347 -101.146)" fill="#e60d28"/>
      <path id="Trazado_216730" data-name="Trazado 216730" d="M78.062,151.718h0a4.635,4.635,0,0,1-4.635-4.635v-3.776H82.7v3.776A4.635,4.635,0,0,1,78.062,151.718Z" transform="translate(-64.106 -101.146)" fill="#f2f2f2"/>
      <path id="Trazado_216731" data-name="Trazado 216731" d="M151.091,151.718h0a4.635,4.635,0,0,1-4.635-4.635v-3.776h9.27v3.776A4.635,4.635,0,0,1,151.091,151.718Z" transform="translate(-127.865 -101.146)" fill="#e60d28"/>
      <path id="Trazado_216732" data-name="Trazado 216732" d="M224.12,151.718h0a4.635,4.635,0,0,1-4.635-4.635v-3.776h9.27v3.776A4.635,4.635,0,0,1,224.12,151.718Z" transform="translate(-191.624 -101.146)" fill="#f2f2f2"/>
      <path id="Trazado_216733" data-name="Trazado 216733" d="M297.149,151.718h0a4.635,4.635,0,0,1-4.635-4.635v-3.776h9.27v3.776A4.635,4.635,0,0,1,297.149,151.718Z" transform="translate(-255.383 -101.146)" fill="#e60d28"/>
      <path id="Trazado_216734" data-name="Trazado 216734" d="M370.178,151.718h0a4.635,4.635,0,0,1-4.635-4.635v-3.776h9.27v3.776A4.635,4.635,0,0,1,370.178,151.718Z" transform="translate(-319.142 -101.146)" fill="#f2f2f2"/>
      <path id="Trazado_216735" data-name="Trazado 216735" d="M443.207,151.718h0a4.635,4.635,0,0,1-4.635-4.635v-3.776h9.27v3.776A4.635,4.635,0,0,1,443.207,151.718Z" transform="translate(-382.901 -101.146)" fill="#e60d28"/>
      <path id="Trazado_216736" data-name="Trazado 216736" d="M9.668,82.625H.4L4.834,73.8h8Z" transform="translate(-0.347 -40.464)" fill="#fc502a"/>
      <path id="Trazado_216737" data-name="Trazado 216737" d="M82.7,82.625h-9.27L76.6,73.8h8Z" transform="translate(-64.106 -40.464)" fill="#fff"/>
      <path id="Trazado_216738" data-name="Trazado 216738" d="M155.726,82.625h-9.27l1.9-8.823h8Z" transform="translate(-127.865 -40.464)" fill="#fc502a"/>
      <path id="Trazado_216739" data-name="Trazado 216739" d="M228.755,82.625h-9.27l.634-8.823h8Z" transform="translate(-191.624 -40.464)" fill="#fff"/>
      <path id="Trazado_216740" data-name="Trazado 216740" d="M297.426,82.625h-9.27l-.634-8.823h8Z" transform="translate(-251.025 -40.464)" fill="#fc502a"/>
      <path id="Trazado_216741" data-name="Trazado 216741" d="M361.737,82.625h-9.27l-1.9-8.823h8Z" transform="translate(-306.066 -40.464)" fill="#fff"/>
      <path id="Trazado_216742" data-name="Trazado 216742" d="M426.048,82.625h-9.27L413.609,73.8h8Z" transform="translate(-361.107 -40.464)" fill="#fc502a"/>
      <path id="Trazado_216743" data-name="Trazado 216743" d="M62.875,438.7H2.117A2.117,2.117,0,0,0,0,440.819v3.1a.6.6,0,0,0,.6.6H64.392a.6.6,0,0,0,.6-.6v-3.1A2.117,2.117,0,0,0,62.875,438.7Z" transform="translate(0 -359.045)" fill="#afafaf"/>
      <path id="Trazado_216744" data-name="Trazado 216744" d="M461.165,438.7H456.2v5.819h6.483a.6.6,0,0,0,.6-.6v-3.1A2.117,2.117,0,0,0,461.165,438.7Z" transform="translate(-398.29 -359.045)" fill="#a09c9c"/>
      <path id="Trazado_216745" data-name="Trazado 216745" d="M229.763,270.033h-28.55a.843.843,0,0,1-.844-.843V253.48a.843.843,0,0,1,.844-.844h28.55a.843.843,0,0,1,.843.844v15.71A.843.843,0,0,1,229.763,270.033Z" transform="translate(-174.936 -196.597)" fill="#00c6c8"/>
      <path id="Trazado_216746" data-name="Trazado 216746" d="M389.011,252.636h-6.24v17.4h6.24a.843.843,0,0,0,.844-.843V253.48A.844.844,0,0,0,389.011,252.636Z" transform="translate(-334.183 -196.597)" fill="#0fb0c0"/>
      <path id="Trazado_216747" data-name="Trazado 216747" d="M79.191,276.255H66.165V253.48a.843.843,0,0,1,.843-.844H78.347a.843.843,0,0,1,.843.844v22.775Z" transform="translate(-57.766 -196.597)" fill="#00c6c8"/>
      <path id="Trazado_216748" data-name="Trazado 216748" d="M119.219,252.636h-6.24v23.619h7.083V253.48A.843.843,0,0,0,119.219,252.636Z" transform="translate(-98.638 -196.597)" fill="#0fb0c0"/>
      <path id="Trazado_216749" data-name="Trazado 216749" d="M133.36,332.1a.981.981,0,0,0,.981-.981v-1.765a.981.981,0,1,0-1.961,0v1.765A.981.981,0,0,0,133.36,332.1Z" transform="translate(-115.575 -262.723)" fill="#fff"/>
    </g>
  </g>
</svg>
