<svg id="metodo-de-pago_1_" data-name="metodo-de-pago(1)" xmlns="http://www.w3.org/2000/svg" width="65.082" height="65.082" viewBox="0 0 65.082 65.082">
  <path id="Trazado_598481" data-name="Trazado 598481" d="M253.157,7.5a4.316,4.316,0,0,1,4.319,4.312V60.336a4.316,4.316,0,0,1-4.319,4.312H226.319A4.316,4.316,0,0,1,222,60.336V11.812A4.316,4.316,0,0,1,226.319,7.5Z" transform="translate(-193.361 -6.532)" fill="#f9f8f9"/>
  <path id="Trazado_598482" data-name="Trazado 598482" d="M230.385,62.364a.387.387,0,0,1-.387-.387V24.05a5.686,5.686,0,0,0-4.47-5.546.385.385,0,0,1-.3-.377V8.58A4.316,4.316,0,0,0,222,12.753V61.276a4.316,4.316,0,0,0,4.319,4.313h26.838a4.322,4.322,0,0,0,4.181-3.225Z" transform="translate(-193.361 -7.473)" fill="#e8e8e8"/>
  <circle id="Elipse_5573" data-name="Elipse 5573" cx="0.981" cy="0.981" r="0.981" transform="translate(51.063 4.082)" fill="#e8e8e8"/>
  <g id="Grupo_156329" data-name="Grupo 156329" transform="translate(27.671 0)">
    <path id="Trazado_598483" data-name="Trazado 598483" d="M246.624,59.083H219.787A5.289,5.289,0,0,1,214.5,53.8V5.28A5.289,5.289,0,0,1,219.787,0h26.837a5.289,5.289,0,0,1,5.287,5.28V53.8a5.289,5.289,0,0,1-5.287,5.28ZM219.787,1.935a3.352,3.352,0,0,0-3.352,3.345V53.8a3.352,3.352,0,0,0,3.352,3.345h26.837a3.352,3.352,0,0,0,3.352-3.345V5.28a3.352,3.352,0,0,0-3.352-3.345Z" transform="translate(-214.5 0)" fill="#6f6571"/>
  </g>
  <g id="Grupo_156330" data-name="Grupo 156330" transform="translate(41.147 4.095)">
    <path id="Trazado_598484" data-name="Trazado 598484" d="M325.69,33.681H319.93a.968.968,0,1,1,0-1.935h5.759a.968.968,0,1,1,0,1.935Z" transform="translate(-318.963 -31.746)" fill="#e8e8e8"/>
  </g>
  <path id="Trazado_598485" data-name="Trazado 598485" d="M290.091,119.129a12.9,12.9,0,0,0-11.913-12.863c-.326-.025-.655.092-.988.092-7.125,0-12.191,5.61-12.191,12.734s5.066,12.85,12.191,12.85c.388,0,.771.071,1.15.037A12.9,12.9,0,0,0,290.091,119.129Z" transform="translate(-230.814 -92.554)" fill="#fc8116"/>
  <path id="Trazado_598486" data-name="Trazado 598486" d="M273.626,131.743q-.606.058-1.226.058a12.9,12.9,0,0,1,0-25.8q.619,0,1.226.058a12.9,12.9,0,0,0,0,25.684Z" transform="translate(-226.024 -92.326)" fill="#e4710c"/>
  <path id="Trazado_598487" data-name="Trazado 598487" d="M4.755,103.5a3.211,3.211,0,0,0-1.419.328c-1.07.525-1.579,2.178-1.579,3.45l.112,44.3a3.225,3.225,0,0,0,3.225,3.225l26.91-.1c1.272,0,3.049-.214,3.461-1.283a3.951,3.951,0,0,0,.251-1.419v-45.28A3.225,3.225,0,0,0,32.49,103.5Z" transform="translate(-1.529 -90.148)" fill="#7dc3ee"/>
  <path id="Trazado_598488" data-name="Trazado 598488" d="M33.934,155.645a2.678,2.678,0,0,1-2.587,1.806H3.225A3.225,3.225,0,0,1,0,154.226v-45.28a3.223,3.223,0,0,1,1.806-2.9v48.176a1.42,1.42,0,0,0,1.419,1.419Z" transform="translate(0 -92.369)" fill="#64acdc"/>
  <path id="Trazado_598489" data-name="Trazado 598489" d="M39.115,411.591v5.186l-.129.386a1.29,1.29,0,0,1-1.29,1.29H32.26a1.29,1.29,0,0,1-1.29-1.29V411.72a1.29,1.29,0,0,1,1.29-1.29l.387-.129h5.178A1.29,1.29,0,0,1,39.115,411.591Z" transform="translate(-26.975 -357.371)" fill="#ffd064"/>
  <path id="Trazado_598490" data-name="Trazado 598490" d="M38.244,416.776v.516a1.29,1.29,0,0,1-1.29,1.29H31.26a1.29,1.29,0,0,1-1.29-1.29v-5.7a1.29,1.29,0,0,1,1.29-1.29h.516v5.831a.645.645,0,0,0,.645.645Z" transform="translate(-26.104 -357.37)" fill="#ffc250"/>
  <path id="Trazado_598491" data-name="Trazado 598491" d="M137.156,413.329v5.506a1.29,1.29,0,0,1-1.29,1.29h-1.884a1.29,1.29,0,0,1-1.29-1.29v-5.506a1.29,1.29,0,0,1,1.29-1.29h1.884A1.29,1.29,0,0,1,137.156,413.329Z" transform="translate(-115.574 -358.885)" fill="#f9f8f9"/>
  <path id="Trazado_598492" data-name="Trazado 598492" d="M200.016,380.79a1.272,1.272,0,0,1,1.254-1.29h2.007a1.272,1.272,0,0,1,1.254,1.29v9.675a1.272,1.272,0,0,1-1.254,1.29H201.27a1.272,1.272,0,0,1-1.254-1.29Z" transform="translate(-174.213 -330.543)" fill="#64acdc"/>
  <g id="Grupo_156331" data-name="Grupo 156331" transform="translate(17.066 17.251)">
    <path id="Trazado_598493" data-name="Trazado 598493" d="M137.156,227.972v5.506a1.29,1.29,0,0,1-1.29,1.29h-1.884a1.29,1.29,0,0,1-1.29-1.29v-5.506a1.29,1.29,0,0,1,1.29-1.29h1.884A1.29,1.29,0,0,1,137.156,227.972Z" transform="translate(-132.641 -214.69)" fill="#f9f8f9"/>
    <path id="Trazado_598494" data-name="Trazado 598494" d="M136.757,135.013v5.506a1.29,1.29,0,0,1-1.29,1.29h-1.884a1.29,1.29,0,0,1-1.29-1.29v-5.506a1.29,1.29,0,0,1,1.29-1.29h1.884a1.29,1.29,0,0,1,1.29,1.29Z" transform="translate(-132.293 -133.723)" fill="#f9f8f9"/>
    <path id="Trazado_598495" data-name="Trazado 598495" d="M137.156,320.65v5.506a1.29,1.29,0,0,1-1.29,1.29h-1.884a1.29,1.29,0,0,1-1.29-1.29V320.65a1.29,1.29,0,0,1,1.29-1.29h1.884A1.29,1.29,0,0,1,137.156,320.65Z" transform="translate(-132.641 -295.412)" fill="#f9f8f9"/>
  </g>
  <g id="Grupo_156334" data-name="Grupo 156334" transform="translate(2.839 16.335)">
    <g id="Grupo_156332" data-name="Grupo 156332">
      <path id="Trazado_598496" data-name="Trazado 598496" d="M32.392,130.282a.964.964,0,0,1-.643-.245,6.268,6.268,0,0,0-8.129,0,.968.968,0,1,1-1.287-1.445,8.252,8.252,0,0,1,10.7,0,.967.967,0,0,1-.644,1.69Z" transform="translate(-22.009 -126.621)" fill="#f9f8f9"/>
    </g>
    <g id="Grupo_156333" data-name="Grupo 156333" transform="translate(1.449 3.759)">
      <path id="Trazado_598497" data-name="Trazado 598497" d="M40.727,158.884a.964.964,0,0,1-.643-.245,4.034,4.034,0,0,0-5.231,0,.968.968,0,0,1-1.287-1.445,6.018,6.018,0,0,1,7.8,0,.967.967,0,0,1-.644,1.69Z" transform="translate(-33.242 -155.758)" fill="#f9f8f9"/>
    </g>
  </g>
  <g id="Grupo_156337" data-name="Grupo 156337" transform="translate(27.093 32.638)">
    <g id="Grupo_156335" data-name="Grupo 156335" transform="translate(0 7.095)">
      <path id="Trazado_598498" data-name="Trazado 598498" d="M210.984,312.9a.967.967,0,0,1-.968-.967v-2.967a.968.968,0,0,1,1.935,0v2.967A.967.967,0,0,1,210.984,312.9Z" transform="translate(-210.016 -308)" fill="#64acdc"/>
    </g>
    <g id="Grupo_156336" data-name="Grupo 156336">
      <path id="Trazado_598499" data-name="Trazado 598499" d="M210.984,258.16a.967.967,0,0,1-.968-.967v-3.225a.968.968,0,1,1,1.935,0v3.225A.967.967,0,0,1,210.984,258.16Z" transform="translate(-210.016 -253)" fill="#64acdc"/>
    </g>
  </g>
  <path id="Trazado_598500" data-name="Trazado 598500" d="M204.531,134.79v8.6a1.29,1.29,0,0,1-1.29,1.29h-1.935a1.29,1.29,0,0,1-1.29-1.29v-8.6a1.29,1.29,0,0,1,1.29-1.29h1.935A1.29,1.29,0,0,1,204.531,134.79Z" transform="translate(-174.213 -116.278)" fill="#64acdc"/>
  <g id="Grupo_156338" data-name="Grupo 156338" transform="translate(39.747 20.502)">
    <path id="Trazado_598501" data-name="Trazado 598501" d="M313.4,171a1.936,1.936,0,0,1-1.5-.708l-3.148-3.941a2.268,2.268,0,0,1-.34-2.668,1.937,1.937,0,0,1,2.979.017l1.8,2.193a.128.128,0,0,0,.1.047c.038,0,.135.086.16.052l4.348-6.077a2.115,2.115,0,0,1,2.582-.8,1.937,1.937,0,0,1,.628,2.822l-6.046,8.385a1.934,1.934,0,0,1-.61.549,1.858,1.858,0,0,1-.9.125Z" transform="translate(-308.108 -158.926)" fill="#f9f8f9"/>
  </g>
  <g id="Grupo_156339" data-name="Grupo 156339" transform="translate(39.604 20.447)">
    <path id="Trazado_598502" data-name="Trazado 598502" d="M354.733,158.746l-5.9,8.092a.129.129,0,0,1-.2.006l-1.086-1.325a.129.129,0,0,0,.205-.006l4.476-6.209A1.935,1.935,0,0,1,354.733,158.746Z" transform="translate(-342.31 -158.501)" fill="#e8e8e8"/>
    <path id="Trazado_598503" data-name="Trazado 598503" d="M313.395,202.979a1.908,1.908,0,0,1-.9.254h-.061a1.936,1.936,0,0,1-1.5-.707l-3.5-4.267a1.935,1.935,0,0,1,.014-2.47Z" transform="translate(-307 -190.98)" fill="#e8e8e8"/>
  </g>
  <ellipse id="Elipse_5574" data-name="Elipse 5574" cx="3.617" cy="3.164" rx="3.617" ry="3.164" transform="translate(42.479 47.467)" fill="#e8e8e8"/>
</svg>
