<svg xmlns="http://www.w3.org/2000/svg" width="65" height="65" viewBox="0 0 65 65">
  <g id="Grupo_156343" data-name="Grupo 156343" transform="translate(-767 -3996)">
    <rect id="Rectángulo_44335" data-name="Rectángulo 44335" width="65" height="65" transform="translate(767 3996)" fill="none"/>
    <g id="archivo" transform="translate(742.694 3996)">
      <path id="Trazado_598504" data-name="Trazado 598504" d="M74.878,49.067H46.023a2.3,2.3,0,0,0-2.29,2.29V96.471a2.3,2.3,0,0,0,2.29,2.29h35.84a2.3,2.3,0,0,0,2.29-2.29V58.342Z" transform="translate(0 -43.8)" fill="#fc8116"/>
      <path id="Trazado_598505" data-name="Trazado 598505" d="M132.153,47.4V9.847L122.305,0H94.023a2.3,2.3,0,0,0-2.29,2.29V47.4a2.3,2.3,0,0,0,2.29,2.29h35.84A2.3,2.3,0,0,0,132.153,47.4Z" transform="translate(-42.847)" fill="#fff"/>
      <path id="Trazado_598506" data-name="Trazado 598506" d="M376.532,8.13a1.809,1.809,0,0,0,1.832,1.832h8.015L376.532,0Z" transform="translate(-297.074)" fill="#acb3ba"/>
      <rect id="Rectángulo_44337" data-name="Rectángulo 44337" width="13.74" height="2.863" transform="translate(71.557 17.175)" fill="#cdd6e0"/>
      <g id="Grupo_156340" data-name="Grupo 156340" transform="translate(52.894 23.587)">
        <rect id="Rectángulo_44338" data-name="Rectángulo 44338" width="32.405" height="2.863" transform="translate(0)" fill="#cdd6e0"/>
        <rect id="Rectángulo_44339" data-name="Rectángulo 44339" width="32.405" height="2.863" transform="translate(0 6.413)" fill="#cdd6e0"/>
      </g>
      <g id="Grupo_156341" data-name="Grupo 156341" transform="translate(52.894 36.412)">
        <rect id="Rectángulo_44340" data-name="Rectángulo 44340" width="32.405" height="2.863" transform="translate(0)" fill="#acb3ba"/>
        <rect id="Rectángulo_44341" data-name="Rectángulo 44341" width="14.886" height="2.863" transform="translate(0 6.412)" fill="#acb3ba"/>
      </g>
      <rect id="Rectángulo_44342" data-name="Rectángulo 44342" width="14.771" height="15.916" transform="translate(53.007 4.122)" fill="#fcd03e"/>
    </g>
    <g id="Transfer_money" data-name="Transfer money" transform="translate(756 4062) rotate(-90)">
      <path id="Trazado_598507" data-name="Trazado 598507" d="M1,11H54.076V41H1Z" transform="translate(0 0)" fill="#9dcc6b"/>
      <path id="Trazado_598508" data-name="Trazado 598508" d="M53.615,11V38.692H31.692A27.692,27.692,0,0,1,4,11Z" transform="translate(0.461)" fill="#b5e08c"/>
      <path id="Trazado_598509" data-name="Trazado 598509" d="M45.538,37.077H8.615a1.154,1.154,0,0,1-1.154-1.154,2.308,2.308,0,0,0-2.308-2.308A1.154,1.154,0,0,1,4,32.461V18.615a1.154,1.154,0,0,1,1.154-1.154,2.308,2.308,0,0,0,2.308-2.308A1.154,1.154,0,0,1,8.615,14H45.538a1.154,1.154,0,0,1,1.154,1.154A2.308,2.308,0,0,0,49,17.461a1.154,1.154,0,0,1,1.154,1.154V32.461A1.154,1.154,0,0,1,49,33.615a2.308,2.308,0,0,0-2.308,2.308A1.154,1.154,0,0,1,45.538,37.077ZM9.619,34.769H44.534a4.615,4.615,0,0,1,3.311-3.311V19.619a4.615,4.615,0,0,1-3.311-3.311H9.619a4.615,4.615,0,0,1-3.311,3.311V31.457A4.615,4.615,0,0,1,9.619,34.769Z" transform="translate(0.461 0.461)" fill="#84b749"/>
      <path id="Trazado_598510" data-name="Trazado 598510" d="M9.335,23.335a1.159,1.159,0,1,1,0,1.638,1.159,1.159,0,0,1,0-1.638Z" transform="translate(1.23 1.845)" fill="#84b749"/>
      <path id="Trazado_598511" data-name="Trazado 598511" d="M38.153,25.308a1.154,1.154,0,1,1,1.072-.711A1.154,1.154,0,0,1,38.153,25.308Z" transform="translate(5.539 1.846)" fill="#84b749"/>
      <path id="Trazado_598514" data-name="Trazado 598514" d="M35.769,25.384A10.488,10.488,0,0,1,34.234,30.8C28.846,39.715,15,35.838,15,25.384a10.384,10.384,0,0,1,20.769,0Z" transform="translate(2.154 0.615)" fill="#84b749"/>
      <g id="Grupo_156342" data-name="Grupo 156342" transform="translate(22.923 17.923)">
        <path id="Trazado_598515" data-name="Trazado 598515" d="M23,20.461V18.154a1.154,1.154,0,1,1,2.308,0v2.308a1.154,1.154,0,1,1-2.308,0Z" transform="translate(-19.539 -17)" fill="#b5e08c"/>
        <path id="Trazado_598516" data-name="Trazado 598516" d="M23,30.461V28.154a1.154,1.154,0,1,1,2.308,0v2.308a1.154,1.154,0,0,1-2.308,0Z" transform="translate(-19.539 -15.462)" fill="#b5e08c"/>
        <path id="Trazado_598517" data-name="Trazado 598517" d="M25.769,30.538H21.154a1.154,1.154,0,1,1,0-2.308h4.615a1.154,1.154,0,1,0,0-2.308H23.461a3.461,3.461,0,1,1,0-6.923h4.615a1.154,1.154,0,1,1,0,2.308H23.461a1.154,1.154,0,1,0,0,2.308h2.308a3.461,3.461,0,1,1,0,6.923Z" transform="translate(-20 -16.692)" fill="#b5e08c"/>
      </g>
    </g>
  </g>
</svg>
