<svg xmlns="http://www.w3.org/2000/svg" width="71" height="71" viewBox="0 0 71 71">
  <g id="Grupo_156603" data-name="Grupo 156603" transform="translate(-285 -4128)">
    <g id="Grupo_155998" data-name="Grupo 155998" transform="translate(0 1079)">
      <circle id="Elipse_5541" data-name="Elipse 5541" cx="35.5" cy="35.5" r="35.5" transform="translate(285 3049)" fill="#e5f0e0"/>
    </g>
    <g id="divisa_1_" data-name="divisa(1)" transform="translate(297 4057.697)">
      <path id="Trazado_597909" data-name="Trazado 597909" d="M34.252,90.6a.7.7,0,0,0-.187,1.378,13.891,13.891,0,1,1-9.074,25.651,15.359,15.359,0,0,0,1.833-1.75,11.536,11.536,0,0,0,16.748-8.408.7.7,0,0,0-1.373-.217,10.149,10.149,0,0,1-14.478,7.522,15.487,15.487,0,0,0,2.369-4.764,4,4,0,0,0,1.75.739v.987a.7.7,0,1,0,1.39,0v-.977A2.94,2.94,0,0,0,35.978,108c0-1.5-.833-2.449-2.546-2.9-1.459-.384-2.478-1.068-2.478-1.663a1.621,1.621,0,0,1,1.73-1.379,3.109,3.109,0,0,1,1.946.871.7.7,0,0,0,1-.966,4.676,4.676,0,0,0-2.4-1.251v-.973a.7.7,0,0,0-1.39,0v1.036a3.23,3.23,0,0,0-1.623.988,15.457,15.457,0,0,0-2.5-5.219,10.148,10.148,0,0,1,14.5,7.669.7.7,0,0,0,1.376-.2,11.535,11.535,0,0,0-16.775-8.574,15.059,15.059,0,0,0-1.719-1.66A13.861,13.861,0,0,1,30.974,91.9a.7.7,0,0,0-.119-1.385,15.255,15.255,0,0,0-6.948,2.375A15.206,15.206,0,0,0,15.36,90.3a15.36,15.36,0,1,0,8.428,28.209A15.282,15.282,0,1,0,34.252,90.6Zm-3.535,14.792a6.943,6.943,0,0,0,2.361,1.056c1.393.367,1.51.97,1.51,1.556,0,.569-.541,1.416-2.031,1.416a2.655,2.655,0,0,1-2.095-.952,15.469,15.469,0,0,0,.255-3.076ZM10.892,92.426a14.093,14.093,0,0,0-2.881,4.9,13.962,13.962,0,0,1-2.337-1.723A13.986,13.986,0,0,1,10.892,92.426ZM4.721,96.62a15.354,15.354,0,0,0,2.852,2.062,25.237,25.237,0,0,0-.927,6.285H1.408A13.906,13.906,0,0,1,4.721,96.62Zm-3.313,9.738H6.646a25.232,25.232,0,0,0,.927,6.285A15.354,15.354,0,0,0,4.721,114.7,13.906,13.906,0,0,1,1.408,106.358Zm4.266,9.36A13.963,13.963,0,0,1,8.011,114a14.094,14.094,0,0,0,2.881,4.9A13.99,13.99,0,0,1,5.673,115.718Zm8.991,3.85c-2.689-.5-4.5-3.641-5.408-6.222a14.5,14.5,0,0,1,5.408-1.3Zm0-8.912a15.912,15.912,0,0,0-5.825,1.352,23.956,23.956,0,0,1-.8-5.65h6.628Zm0-5.689H8.037a23.957,23.957,0,0,1,.8-5.65,15.91,15.91,0,0,0,5.825,1.352v4.3Zm0-5.689a14.5,14.5,0,0,1-5.408-1.3c.909-2.579,2.718-5.724,5.408-6.222ZM26,114.705a15.354,15.354,0,0,0-2.852-2.062,25.237,25.237,0,0,0,.927-6.285H29.31A13.934,13.934,0,0,1,26,114.705ZM26,96.62a13.967,13.967,0,0,1,3.312,8.347H24.074a25.232,25.232,0,0,0-.927-6.285A15.355,15.355,0,0,0,26,96.62Zm-.952-1.013a13.967,13.967,0,0,1-2.338,1.723,14.093,14.093,0,0,0-2.881-4.9A13.989,13.989,0,0,1,25.046,95.607Zm-8.991-3.85c2.689.5,4.5,3.641,5.408,6.222a14.507,14.507,0,0,1-5.408,1.3Zm0,8.912a15.912,15.912,0,0,0,5.825-1.352,23.956,23.956,0,0,1,.8,5.65H16.055Zm0,5.689h6.628a23.956,23.956,0,0,1-.8,5.65,15.91,15.91,0,0,0-5.825-1.352Zm0,13.21v-7.521a14.5,14.5,0,0,1,5.408,1.3C20.554,115.925,18.745,119.07,16.055,119.568Zm3.773-.669a14.09,14.09,0,0,0,2.881-4.9,13.967,13.967,0,0,1,2.338,1.723,13.987,13.987,0,0,1-5.218,3.181Z"/>
    </g>
  </g>
</svg>
