<svg xmlns="http://www.w3.org/2000/svg" width="71" height="70" viewBox="0 0 71 70">
  <g id="Grupo_156604" data-name="Grupo 156604" transform="translate(-285 -4243)">
    <g id="Grupo_155999" data-name="Grupo 155999" transform="translate(0 1063)">
      <ellipse id="Elipse_5542" data-name="Elipse 5542" cx="35.5" cy="35" rx="35.5" ry="35" transform="translate(285 3180)" fill="#e5f0e0"/>
    </g>
    <g id="_x31_5_Up_And_Down" transform="translate(278.019 4255.445)">
      <g id="Grupo_156022" data-name="Grupo 156022" transform="translate(22.981 1.555)">
        <path id="Trazado_597912" data-name="Trazado 597912" d="M33.957,29.139a5.381,5.381,0,0,0,5.375-5.375v-8.08H42.27a2.657,2.657,0,0,0,1.938-4.477L35.9,2.355a2.746,2.746,0,0,0-3.875,0l-8.314,8.853a2.658,2.658,0,0,0,1.938,4.477h2.938v8.08a5.381,5.381,0,0,0,5.375,5.375ZM25.645,13.963a.937.937,0,0,1-.683-1.577l8.314-8.853a.937.937,0,0,1,1.365,0l8.312,8.853a.936.936,0,0,1-.683,1.577h-3.8a.861.861,0,0,0-.861.861v8.94a3.653,3.653,0,0,1-7.307,0v-8.94a.861.861,0,0,0-.861-.861h-3.8Z" transform="translate(-22.981 -1.555)"/>
        <path id="Trazado_597913" data-name="Trazado 597913" d="M238.261,210.331a2.652,2.652,0,0,0,3.874,0l8.318-8.851a2.659,2.659,0,0,0-1.938-4.478h-2.944v-2.144a.861.861,0,1,0-1.722,0v3a.861.861,0,0,0,.861.861h3.8a.937.937,0,0,1,.682,1.58l-8.318,8.851a.95.95,0,0,1-1.36,0l-8.313-8.847a.939.939,0,0,1,.679-1.582h3.8a.861.861,0,0,0,.861-.861v-8.944a3.654,3.654,0,0,1,7.308,0v1.541a.861.861,0,1,0,1.722,0v-1.541a5.376,5.376,0,0,0-10.752,0v8.083h-2.944a2.66,2.66,0,0,0-1.936,4.48Z" transform="translate(-211.797 -168.173)"/>
      </g>
    </g>
  </g>
</svg>
