<svg xmlns="http://www.w3.org/2000/svg" width="71" height="71" viewBox="0 0 71 71">
  <g id="Grupo_156605" data-name="Grupo 156605" transform="translate(-285 -4360)">
    <g id="Grupo_156000" data-name="Grupo 156000" transform="translate(0 1035)">
      <circle id="Elipse_5543" data-name="Elipse 5543" cx="35.5" cy="35.5" r="35.5" transform="translate(285 3325)" fill="#e5f0e0"/>
    </g>
    <g id="layer1" transform="translate(296.471 4096.757)">
      <path id="path2412" d="M31.6,283.243a15.532,15.532,0,1,0,15.537,15.531A15.542,15.542,0,0,0,31.6,283.243Zm0,1.553a13.979,13.979,0,1,1-13.979,13.978A13.969,13.969,0,0,1,31.6,284.8Zm0,1.547a12.43,12.43,0,0,0-7.443,2.477.778.778,0,1,0,.935,1.244,10.864,10.864,0,1,1-2.185,2.178.777.777,0,1,0-1.238-.934,12.425,12.425,0,1,0,9.93-4.965Zm0,3.1a.746.746,0,0,0-.777.777v1.648a3.882,3.882,0,0,0,.78,7.684,2.331,2.331,0,1,1-2.327,2.333.777.777,0,0,0-1.553,0,3.9,3.9,0,0,0,3.1,3.8v1.632a.777.777,0,1,0,1.553,0v-1.631A3.885,3.885,0,0,0,31.6,298a2.328,2.328,0,1,1,2.329-2.329.777.777,0,1,0,1.553,0,3.9,3.9,0,0,0-3.108-3.8v-1.646a.746.746,0,0,0-.777-.777Zm-30.287.006a.777.777,0,0,0-.777.777v4.66a.777.777,0,0,0,.777.777h2.33v3.107H1.306a.777.777,0,0,0-.777.777v4.66a.777.777,0,0,0,.777.777h2.33V308.1H1.306a.777.777,0,0,0-.777.777v4.66a.777.777,0,0,0,.777.777H21.567a.777.777,0,1,0,0-1.554H2.083v-3.107H16.84a.777.777,0,1,0,0-1.554H5.189v-3.107H14.51a.777.777,0,1,0,0-1.553H2.083v-3.107H13.733a.777.777,0,1,0,0-1.554H5.189v-3.107h8.544a.777.777,0,1,0,0-1.554H2.083v-3.107H16.064a.777.777,0,1,0,0-1.554Z" transform="translate(0 0)"/>
    </g>
  </g>
</svg>
