<svg xmlns="http://www.w3.org/2000/svg" width="71" height="71" viewBox="0 0 71 71">
  <g id="Grupo_156606" data-name="Grupo 156606" transform="translate(-285 -4465)">
    <g id="Grupo_156001" data-name="Grupo 156001" transform="translate(0 990)">
      <circle id="Elipse_5544" data-name="Elipse 5544" cx="35.5" cy="35.5" r="35.5" transform="translate(285 3475)" fill="#e5f0e0"/>
    </g>
    <g id="analisis-de-los-datos_1_" data-name="analisis-de-los-datos(1)" transform="translate(297 4478)">
      <path id="Trazado_597914" data-name="Trazado 597914" d="M42.8,32.173a2.125,2.125,0,0,0,2.125-2.125V3.125A2.125,2.125,0,0,0,42.8,1H3.125A2.125,2.125,0,0,0,1,3.125V30.047a2.125,2.125,0,0,0,2.125,2.125H15.595a12.1,12.1,0,0,0,5.792,4.821l-2.26,2.264H16.586V37.132a2.125,2.125,0,0,0-2.125-2.125h-8.5a2.125,2.125,0,0,0-2.125,2.125V42.8a2.125,2.125,0,0,0,2.125,2.125h8.5A2.125,2.125,0,0,0,16.586,42.8V40.674H19.42a.708.708,0,0,0,.5-.207l2.991-2.991A11.841,11.841,0,0,0,32.165,36l1.842,1.842-.208.208a.708.708,0,0,0,0,1l4.787,4.787a3.714,3.714,0,0,0,5.253-5.253L39.052,33.8a.708.708,0,0,0-1,0l-.21.208-1.832-1.832ZM15.169,42.8a.708.708,0,0,1-.708.708h-8.5a.708.708,0,0,1-.708-.708V37.132a.708.708,0,0,1,.708-.708h8.5a.708.708,0,0,1,.708.708ZM3.125,30.756a.708.708,0,0,1-.708-.708V3.125a.708.708,0,0,1,.708-.708H42.8a.708.708,0,0,1,.708.708V30.047a.708.708,0,0,1-.708.708h-6.04A12,12,0,0,0,30.7,14.807l3.6-3.6v1.832h1.417V9.5a.708.708,0,0,0-.708-.708H31.464V10.21H33.3l-4.052,4.052a11.982,11.982,0,0,0-3.043-.489L22.855,8.418a.708.708,0,0,0-.6-.333H19.42V5.959a2.125,2.125,0,0,0-2.125-2.125h-8.5A2.125,2.125,0,0,0,6.668,5.959v5.668a2.125,2.125,0,0,0,2.125,2.125h8.5a2.125,2.125,0,0,0,2.125-2.125V9.5h2.441l2.7,4.315a12.023,12.023,0,0,0-7.869,4.122L15.7,16.824a.708.708,0,0,0-.524-.237h0a.709.709,0,0,0-.522.23l-7.793,8.5,1.044.958,7.263-7.924.644.725a11.886,11.886,0,0,0-1.854,8.845h-8.7V8.793H3.834V28.63a.708.708,0,0,0,.708.708h9.744a11.831,11.831,0,0,0,.548,1.417ZM18,5.959v5.668a.708.708,0,0,1-.708.708h-8.5a.708.708,0,0,1-.708-.708V5.959a.708.708,0,0,1,.708-.708h8.5A.708.708,0,0,1,18,5.959ZM15.169,25.8A10.627,10.627,0,1,1,25.8,36.424,10.627,10.627,0,0,1,15.169,25.8Zm27.666,13.79a2.3,2.3,0,1,1-3.249,3.249L35.3,38.549,38.549,35.3Zm-7.829-2.747L33.34,35.172a12.107,12.107,0,0,0,1.832-1.832l1.667,1.667Z" transform="translate(0)"/>
      <path id="Trazado_597915" data-name="Trazado 597915" d="M32.21,23a9.21,9.21,0,1,0,9.21,9.21A9.21,9.21,0,0,0,32.21,23ZM31.9,24.433l-4.62,4.62L25.964,27.57A7.776,7.776,0,0,1,31.9,24.433ZM32.21,40a7.793,7.793,0,0,1-6.933-4.251h8.35V34.336H24.719a7.673,7.673,0,0,1,.476-5.5l1.526,1.717a.708.708,0,0,0,.509.237h.021a.708.708,0,0,0,.5-.207l6.012-6.012A7.793,7.793,0,0,1,32.21,40Z" transform="translate(-6.414 -6.414)"/>
      <path id="Trazado_597916" data-name="Trazado 597916" d="M13,9h7.085v1.417H13Z" transform="translate(-3.498 -2.332)"/>
      <path id="Trazado_597917" data-name="Trazado 597917" d="M13,13h7.085v1.417H13Z" transform="translate(-3.498 -3.498)"/>
      <path id="Trazado_597918" data-name="Trazado 597918" d="M9,53h7.085v1.417H9Z" transform="translate(-2.332 -15.159)"/>
      <path id="Trazado_597919" data-name="Trazado 597919" d="M9,57h7.085v1.417H9Z" transform="translate(-2.332 -16.326)"/>
    </g>
  </g>
</svg>
